<svg viewBox="0 0 14 15" xmlns="http://www.w3.org/2000/svg" xmlns:xlink="http://www.w3.org/1999/xlink"><desc>Created using Figma</desc><use xlink:href="#a" transform="translate(0 4)"/><defs><path id="a" d="M1 6c.135 0 .253-.05.352-.148A.476.476 0 0 0 1.5 5.5a.486.486 0 0 0-.148-.352A.479.479 0 0 0 1 5a.479.479 0 0 0-.352.148A.486.486 0 0 0 .5 5.5a.48.48 0 0 0 .148.352C.748 5.951.865 6 1 6zm1.25 4h10.5a.24.24 0 0 0 .176-.074A.24.24 0 0 0 13 9.75v-8.5a.24.24 0 0 0-.074-.176A.24.24 0 0 0 12.75 1H2.25a.24.24 0 0 0-.176.074A.24.24 0 0 0 2 1.25v8.5a.24.24 0 0 0 .074.176.24.24 0 0 0 .176.074zm10.5 1H1.25c-.344 0-.638-.122-.883-.367A1.204 1.204 0 0 1 0 9.75v-8.5C0 .906.122.612.367.367S.906 0 1.25 0h11.5c.344 0 .638.122.883.367S14 .906 14 1.25v8.5c0 .344-.122.638-.367.883a1.204 1.204 0 0 1-.883.367z"/></defs></svg>