<svg viewBox="0 0 19 14" xmlns="http://www.w3.org/2000/svg" xmlns:xlink="http://www.w3.org/1999/xlink"><desc>Created using Figma</desc><use xlink:href="#a"/><defs><path id="a" d="M2.25 12c-.344 0-.638-.122-.883-.367A1.204 1.204 0 0 1 1 10.75v-9.5c0-.344.122-.638.367-.883S1.906 0 2.25 0h14.5c.344 0 .638.122.883.367S18 .906 18 1.25v9.5c0 .344-.122.638-.367.883a1.204 1.204 0 0 1-.883.367H2.25zM2 1.25v9.5a.24.24 0 0 0 .074.176.24.24 0 0 0 .176.074h14.5a.24.24 0 0 0 .176-.074.24.24 0 0 0 .074-.176v-9.5a.24.24 0 0 0-.074-.176A.24.24 0 0 0 16.75 1H2.25a.24.24 0 0 0-.176.074A.24.24 0 0 0 2 1.25zM17.75 12.5H19v.75c0 .208-.122.385-.367.531-.245.146-.539.219-.883.219H1.25c-.344 0-.638-.073-.883-.219C.122 13.635 0 13.458 0 13.25v-.75h17.75zm-7.625.75c.083 0 .125-.042.125-.125 0-.083-.042-.125-.125-.125h-1.25c-.083 0-.125.042-.125.125 0 .083.042.125.125.125h1.25z"/></defs></svg>