<svg viewBox="0 0 6 15" xmlns="http://www.w3.org/2000/svg" xmlns:xlink="http://www.w3.org/1999/xlink"><desc>Created using Figma</desc><use xlink:href="#a" transform="translate(0 5)"/><defs><path id="a" d="M3.625 9a.6.6 0 0 0-.184-.441A.607.607 0 0 0 3 8.375a.596.596 0 0 0-.441.184.604.604 0 0 0-.184.441c0 .17.061.318.184.441s.27.185.441.184a.607.607 0 0 0 .441-.184A.6.6 0 0 0 3.625 9zM5.25 7.75v-5.5a.24.24 0 0 0-.074-.176A.24.24 0 0 0 5 2H1a.24.24 0 0 0-.176.074.24.24 0 0 0-.074.176v5.5a.24.24 0 0 0 .074.176A.24.24 0 0 0 1 8h4a.24.24 0 0 0 .176-.074.24.24 0 0 0 .074-.176zm-1.5-6.625c0-.083-.042-.125-.125-.125h-1.25c-.083 0-.125.042-.125.125 0 .083.042.125.125.125h1.25c.083 0 .125-.042.125-.125zM6 1v8a.96.96 0 0 1-.297.703A.96.96 0 0 1 5 10H1a.96.96 0 0 1-.703-.297A.96.96 0 0 1 0 9V1A.96.96 0 0 1 .297.297.96.96 0 0 1 1 0h4a.96.96 0 0 1 .703.297A.96.96 0 0 1 6 1z"/></defs></svg>