<svg viewBox="0 0 9 15" xmlns="http://www.w3.org/2000/svg" xmlns:xlink="http://www.w3.org/1999/xlink"><desc>Created using Figma</desc><use xlink:href="#a" transform="translate(0 4)"/><defs><path id="a" d="M5 10a.483.483 0 0 0-.148-.352A.476.476 0 0 0 4.5 9.5a.486.486 0 0 0-.352.148A.479.479 0 0 0 4 10c0 .137.05.254.148.352a.486.486 0 0 0 .352.148.476.476 0 0 0 .352-.148A.483.483 0 0 0 5 10zm3-1.25v-7.5a.24.24 0 0 0-.074-.176A.24.24 0 0 0 7.75 1h-6.5a.24.24 0 0 0-.176.074A.24.24 0 0 0 1 1.25v7.5a.24.24 0 0 0 .074.176A.24.24 0 0 0 1.25 9h6.5a.24.24 0 0 0 .176-.074A.24.24 0 0 0 8 8.75zm1-7.5v8.5c0 .344-.122.638-.367.883A1.204 1.204 0 0 1 7.75 11h-6.5c-.344 0-.638-.122-.883-.367A1.204 1.204 0 0 1 0 9.75v-8.5C0 .906.122.612.367.367S.906 0 1.25 0h6.5c.344 0 .638.122.883.367S9 .906 9 1.25z"/></defs></svg>