<svg viewBox="0 0 21 15" xmlns="http://www.w3.org/2000/svg" xmlns:xlink="http://www.w3.org/1999/xlink"><desc>Created using Figma</desc><use xlink:href="#a"/><defs><path id="a" d="M20 11.75V1.25a.24.24 0 0 0-.074-.176A.24.24 0 0 0 19.75 1H1.25a.24.24 0 0 0-.176.074A.24.24 0 0 0 1 1.25v10.5a.24.24 0 0 0 .074.176.24.24 0 0 0 .176.074h18.5a.24.24 0 0 0 .176-.074.24.24 0 0 0 .074-.176zm1-10.5v10.5c0 .344-.122.638-.367.883a1.204 1.204 0 0 1-.883.367H12.5c0 .193.042.394.125.605.083.21.167.396.25.555.083.16.125.273.125.34 0 .135-.05.253-.148.352A.476.476 0 0 1 12.5 15h-4a.483.483 0 0 1-.352-.148A.476.476 0 0 1 8 14.5c0-.073.042-.187.125-.344.083-.157.167-.339.25-.547.083-.208.125-.411.125-.609H1.25c-.344 0-.638-.122-.883-.367A1.204 1.204 0 0 1 0 11.75V1.25C0 .906.122.612.367.367S.906 0 1.25 0h18.5c.344 0 .638.122.883.367S21 .906 21 1.25z"/></defs></svg>