<?xml version="1.0" standalone="no"?>
<!DOCTYPE svg PUBLIC "-//W3C//DTD SVG 20010904//EN"
 "http://www.w3.org/TR/2001/REC-SVG-20010904/DTD/svg10.dtd">
<svg version="1.0" xmlns="http://www.w3.org/2000/svg"
 width="260.000000pt" height="260.000000pt" viewBox="0 0 260.000000 260.000000"
 preserveAspectRatio="xMidYMid meet">
<metadata>
Created by potrace 1.14, written by Peter Selinger 2001-2017
</metadata>
<g transform="translate(0.000000,260.000000) scale(0.100000,-0.100000)"
fill="#000000" stroke="none">
<path d="M1109 2059 c-155 -39 -268 -119 -352 -247 -41 -62 -97 -190 -97 -221
0 -8 23 10 51 38 117 118 251 162 388 126 80 -21 129 -55 257 -180 147 -142
224 -195 345 -237 90 -31 100 -32 249 -32 140 1 163 3 235 27 200 66 333 210
400 435 l14 45 -63 -64 c-122 -125 -270 -165 -417 -115 -59 20 -113 60 -209
154 -108 106 -173 163 -210 183 -17 9 -36 21 -43 27 -20 17 -119 51 -192 67
-95 19 -265 17 -356 -6z"/>
<path d="M490 1286 c-230 -46 -381 -183 -462 -421 l-28 -80 43 45 c109 116
224 168 343 156 115 -12 164 -40 304 -176 134 -130 196 -178 277 -218 112 -54
174 -66 338 -66 135 0 158 3 231 27 187 62 312 189 383 392 l32 89 -55 -56
c-119 -123 -256 -170 -392 -134 -93 25 -114 39 -268 189 -203 198 -326 256
-556 262 -78 3 -150 -1 -190 -9z"/>
</g>
</svg>
