<svg fill="none" viewBox="0 0 600 300" xmlns="http://www.w3.org/2000/svg" xmlns:xlink="http://www.w3.org/1999/xlink">
  <linearGradient id="a" gradientUnits="userSpaceOnUse" x1=".000001" x2="600" y1="149.591" y2="149.591">
    <stop offset="0" stop-color="#6c2bd9" />
    <stop offset="1" stop-color="#a65fec" />
  </linearGradient>
  <clipPath id="b">
    <path d="m0 0h600v300h-600z" />
  </clipPath>
  <g clip-path="url(#b)">
    <path d="m0 0h600v300h-600z" fill="#fff" />
    <path d="m0 0h600v300h-600z" fill="url(#a)" />
    <path d="m438 148c0-1.105.895-2 2-2h2c1.105 0 2 .895 2 2v2c0 1.105-.895 2-2 2h-2c-1.105 0-2-.895-2-2z" stroke="#000"
      stroke-linecap="round" stroke-linejoin="round" stroke-opacity=".1" stroke-width="2" />
    <path d="m448 148c0-1.105.895-2 2-2h2c1.105 0 2 .895 2 2v2c0 1.105-.895 2-2 2h-2c-1.105 0-2-.895-2-2z" stroke="#000"
      stroke-linecap="round" stroke-linejoin="round" stroke-opacity=".1" stroke-width="2" />
    <path d="m438 158c0-1.105.895-2 2-2h2c1.105 0 2 .895 2 2v2c0 1.105-.895 2-2 2h-2c-1.105 0-2-.895-2-2z" stroke="#000"
      stroke-linecap="round" stroke-linejoin="round" stroke-opacity=".1" stroke-width="2" />
    <path d="m448 158c0-1.105.895-2 2-2h2c1.105 0 2 .895 2 2v2c0 1.105-.895 2-2 2h-2c-1.105 0-2-.895-2-2z" stroke="#000"
      stroke-linecap="round" stroke-linejoin="round" stroke-opacity=".1" stroke-width="2" />
    <path
      d="m545 5c1.105 0 2 .89543 2 2m4 0c0 3.3137-2.686 6-6 6-.606 0-1.191-.0899-1.743-.2571l-2.257 2.2571h-2v2h-2v2h-3c-.552 0-1-.4477-1-1v-2.5858c0-.2652.105-.5196.293-.7071l5.964-5.96417c-.167-.55158-.257-1.13676-.257-1.74293 0-3.31371 2.686-6 6-6s6 2.68629 6 6z"
      stroke="#000" stroke-linecap="round" stroke-linejoin="round" stroke-opacity=".1" stroke-width="2" />
    <path
      d="m443 15v-2m3 2v-4m3 4v-6m2 10h-10c-1.105 0-2-.8954-2-2v-14c0-1.10457.895-2 2-2h5.586c.265 0 .519.10536.707.29289l5.414 5.41422c.188.18753.293.44189.293.7071v9.58579c0 1.1046-.895 2-2 2z"
      stroke="#000" stroke-linecap="round" stroke-linejoin="round" stroke-opacity=".1" stroke-width="2" />
    <path
      d="m493 14-4-4m0 0 4-4m-4 4h14m-5 4v1c0 1.6569-1.343 3-3 3h-7c-1.657 0-3-1.3431-3-3v-10c0-1.65685 1.343-3 3-3h7c1.657 0 3 1.34315 3 3v1"
      stroke="#000" stroke-linecap="round" stroke-linejoin="round" stroke-opacity=".1" stroke-width="2" />
    <path
      d="m596.364 16.364c3.515-3.5148 3.515-9.21324 0-12.72796-3.515-3.51472-9.213-3.51472-12.728 0m12.728 12.72796c-3.515 3.5147-9.213 3.5147-12.728 0-3.515-3.5148-3.515-9.21324 0-12.72796m12.728 12.72796-12.728-12.72796"
      stroke="#000" stroke-linecap="round" stroke-linejoin="round" stroke-opacity=".1" stroke-width="2" />
    <path
      d="m394 8h.01m3.99 0h.01m3.99 0h.01m-7.01 6h-4c-1.105 0-2-.8954-2-2v-8c0-1.10457.895-2 2-2h14c1.105 0 2 .89543 2 2v8c0 1.1046-.895 2-2 2h-5l-5 5z"
      stroke="#000" stroke-linecap="round" stroke-linejoin="round" stroke-opacity=".1" stroke-width="2" />
    <path
      d="m594 50v12l-4-2-4 2v-12m-2 16h12c1.105 0 2-.8954 2-2v-12c0-1.1046-.895-2-2-2h-12c-1.105 0-2 .8954-2 2v12c0 1.1046.895 2 2 2z"
      stroke="#000" stroke-linecap="round" stroke-linejoin="round" stroke-opacity=".1" stroke-width="2" />
    <path
      d="m549 66h-14c-1.105 0-2-.8954-2-2v-12c0-1.1046.895-2 2-2h10c1.105 0 2 .8954 2 2v1m2 13c-1.105 0-2-.8954-2-2v-11m2 13c1.105 0 2-.8954 2-2v-9c0-1.1046-.895-2-2-2h-2m-4-3h-4m-2 12h6m-6-8h6v4h-6z"
      stroke="#000" stroke-linecap="round" stroke-linejoin="round" stroke-opacity=".1" stroke-width="2" />
    <path
      d="m502 58c0 4.4183-3.582 8-8 8v2c5.523 0 10-4.4772 10-10zm-8 8c-4.418 0-8-3.5817-8-8h-2c0 5.5228 4.477 10 10 10zm-8-8c0-4.4183 3.582-8 8-8v-2c-5.523 0-10 4.4772-10 10zm8-8c4.418 0 8 3.5817 8 8h2c0-5.5228-4.477-10-10-10zm3 8c0 1.6569-1.343 3-3 3v2c2.761 0 5-2.2386 5-5zm-3 3c-1.657 0-3-1.3431-3-3h-2c0 2.7614 2.239 5 5 5zm-3-3c0-1.6569 1.343-3 3-3v-2c-2.761 0-5 2.2386-5 5zm3-3c1.657 0 3 1.3431 3 3h2c0-2.7614-2.239-5-5-5zm5.657-4.0711-3.536 3.5356 1.415 1.4142 3.535-3.5356zm-3.536 10.6066 3.536 3.5356 1.414-1.4142-3.535-3.5356zm-4.242-7.071-3.536-3.5356-1.414 1.4142 3.535 3.5356zm-1.415 5.6568-3.535 3.5356 1.414 1.4142 3.536-3.5356z"
      fill="#000" fill-opacity=".1" />
    <path
      d="m587 113v-6c0-1.105-.895-2-2-2h-2c-1.105 0-2 .895-2 2v6c0 1.105.895 2 2 2h2c1.105 0 2-.895 2-2zm0 0v-10c0-1.105.895-2 2-2h2c1.105 0 2 .895 2 2v10m-6 0c0 1.105.895 2 2 2h2c1.105 0 2-.895 2-2m0 0v-14c0-1.1046.895-2 2-2h2c1.105 0 2 .8954 2 2v14c0 1.105-.895 2-2 2h-2c-1.105 0-2-.895-2-2z"
      stroke="#000" stroke-linecap="round" stroke-linejoin="round" stroke-opacity=".1" stroke-width="2" />
    <path
      d="m442 103 3 3-3 3m5 0h3m-11 5h14c1.105 0 2-.895 2-2v-12c0-1.1046-.895-2-2-2h-14c-1.105 0-2 .8954-2 2v12c0 1.105.895 2 2 2z"
      stroke="#000" stroke-linecap="round" stroke-linejoin="round" stroke-opacity=".1" stroke-width="2" />
    <path
      d="m397.049 96.9266c.299-.9212 1.603-.9212 1.902 0l1.519 4.6744c.134.412.518.69.951.69l4.914.001c.969 0 1.372 1.239.588 1.809l-3.976 2.888c-.35.255-.497.706-.363 1.118l1.519 4.674c.299.922-.756 1.688-1.539 1.119l-3.976-2.889c-.351-.255-.825-.255-1.176 0l-3.976 2.889c-.783.569-1.838-.197-1.539-1.119l1.519-4.674c.134-.412-.013-.863-.363-1.118l-3.976-2.888c-.784-.57-.381-1.809.588-1.809l4.914-.001c.433 0 .817-.278.951-.69z"
      stroke="#000" stroke-opacity=".1" stroke-width="2" />
    <path
      d="m498 102v8m-4-5v5m-4-2v2m-2 4h12c1.105 0 2-.895 2-2v-12c0-1.1046-.895-2-2-2h-12c-1.105 0-2 .8954-2 2v12c0 1.105.895 2 2 2z"
      stroke="#000" stroke-linecap="round" stroke-linejoin="round" stroke-opacity=".1" stroke-width="2" />
    <path
      d="m532.999 97 3.589 3.589m14.411 14.411-3.589-3.589m-3.536 1.414c-.608.115-1.234.175-1.875.175-4.477 0-8.268-2.943-9.542-7 .347-1.105.88-2.126 1.563-3.029m5.857.908c.543-.543 1.293-.879 2.122-.879 1.657 0 3 1.343 3 3 0 .828-.336 1.578-.879 2.121m-4.243-4.242 4.243 4.242m-4.243-4.242-3.289-3.29m7.532 7.532-7.532-7.532m7.532 7.532 3.29 3.29m-10.822-10.822c1.56-1.0055 3.417-1.589 5.411-1.589 4.478 0 8.268 2.943 9.542 7-.706 2.251-2.188 4.159-4.131 5.411"
      stroke="#000" stroke-linecap="round" stroke-linejoin="round" stroke-opacity=".1" stroke-width="2" />
    <path
      d="m395.75 63-.75 3-1 1h8l-1-1-.75-3m-11.25-4h18m-16 4h14c1.105 0 2-.8954 2-2v-10c0-1.1046-.895-2-2-2h-14c-1.105 0-2 .8954-2 2v10c0 1.1046.895 2 2 2z"
      stroke="#000" stroke-linecap="round" stroke-linejoin="round" stroke-opacity=".1" stroke-width="2" />
    <path
      d="m451 54h2c1.105 0 2 .8954 2 2v6c0 1.1046-.895 2-2 2h-2v4l-4-4h-4c-.552 0-1.052-.2239-1.414-.5858m0 0 3.414-3.4142h4c1.105 0 2-.8954 2-2v-6c0-1.1046-.895-2-2-2h-10c-1.105 0-2 .8954-2 2v6c0 1.1046.895 2 2 2h2v4z"
      stroke="#000" stroke-linecap="round" stroke-linejoin="round" stroke-opacity=".1" stroke-width="2" />
    <path d="m390 150v-4m0 0h4m-4 0 5 5m11-1v-4m0 0h-4m4 0-5 5m-11 7v4m0 0h4m-4 0 5-5m11 5-5-5m5 5v-4m0 4h-4"
      stroke="#000" stroke-linecap="round" stroke-linejoin="round" stroke-opacity=".1" stroke-width="2" />
    <path
      d="m493 146c0-1.105.895-2 2-2s2 .895 2 2v1c0 .552.448 1 1 1h3c.552 0 1 .448 1 1v3c0 .552-.448 1-1 1h-1c-1.105 0-2 .895-2 2s.895 2 2 2h1c.552 0 1 .448 1 1v3c0 .552-.448 1-1 1h-3c-.552 0-1-.448-1-1v-1c0-1.105-.895-2-2-2s-2 .895-2 2v1c0 .552-.448 1-1 1h-3c-.552 0-1-.448-1-1v-3c0-.552-.448-1-1-1h-1c-1.105 0-2-.895-2-2s.895-2 2-2h1c.552 0 1-.448 1-1v-3c0-.552.448-1 1-1h3c.552 0 1-.448 1-1z"
      stroke="#000" stroke-linecap="round" stroke-linejoin="round" stroke-opacity=".1" stroke-width="2" />
    <path
      d="m542 152v6m0 0-3-3m3 3 3-3m-12 4v-10c0-1.105.895-2 2-2h6l2 2h6c1.105 0 2 .895 2 2v8c0 1.105-.895 2-2 2h-14c-1.105 0-2-.895-2-2z"
      stroke="#000" stroke-linecap="round" stroke-linejoin="round" stroke-opacity=".1" stroke-width="2" />
    <path
      d="m587 155h6m-3-3v6m-9 1v-10c0-1.105.895-2 2-2h6l2 2h6c1.105 0 2 .895 2 2v8c0 1.105-.895 2-2 2h-14c-1.105 0-2-.895-2-2z"
      stroke="#000" stroke-linecap="round" stroke-linejoin="round" stroke-opacity=".1" stroke-width="2" />
    <path
      d="m443 292c-.552 0-1 .448-1 1s.448 1 1 1zm6 2c.552 0 1-.448 1-1s-.448-1-1-1zm-1 9c0 .552.448 1 1 1s1-.448 1-1zm2-3c0-.552-.448-1-1-1s-1 .448-1 1zm-4 2c-.552 0-1 .448-1 1s.448 1 1 1zm.01 2c.552 0 1-.448 1-1s-.448-1-1-1zm-3.01-2c-.552 0-1 .448-1 1s.448 1 1 1zm.01 2c.552 0 1-.448 1-1s-.448-1-1-1zm-.01-5c-.552 0-1 .448-1 1s.448 1 1 1zm.01 2c.552 0 1-.448 1-1s-.448-1-1-1zm2.99-2c-.552 0-1 .448-1 1s.448 1 1 1zm.01 2c.552 0 1-.448 1-1s-.448-1-1-1zm2.99-5c-.552 0-1 .448-1 1s.448 1 1 1zm.01 2c.552 0 1-.448 1-1s-.448-1-1-1zm-3.01-2c-.552 0-1 .448-1 1s.448 1 1 1zm.01 2c.552 0 1-.448 1-1s-.448-1-1-1zm-3.01-2c-.552 0-1 .448-1 1s.448 1 1 1zm.01 2c.552 0 1-.448 1-1s-.448-1-1-1zm-2.01-8h10v-2h-10zm11 1v14h2v-14zm-1 15h-10v2h10zm-11-1v-14h-2v14zm1 1c-.552 0-1-.448-1-1h-2c0 1.657 1.343 3 3 3zm11-1c0 .552-.448 1-1 1v2c1.657 0 3-1.343 3-3zm-1-15c.552 0 1 .448 1 1h2c0-1.657-1.343-3-3-3zm-10-2c-1.657 0-3 1.343-3 3h2c0-.552.448-1 1-1zm2 6h6v-2h-6zm7 9v-3h-2v3zm-4 1h.01v-2h-.01zm-3 0h.01v-2h-.01zm0-3h.01v-2h-.01zm3 0h.01v-2h-.01zm3-3h.01v-2h-.01zm-3 0h.01v-2h-.01zm-3 0h.01v-2h-.01z"
      fill="#000" fill-opacity=".1" />
    <path
      d="m389 296h18m-18 4h18m-9-4v8m-7 0h14c1.105 0 2-.895 2-2v-8c0-1.105-.895-2-2-2h-14c-1.105 0-2 .895-2 2v8c0 1.105.895 2 2 2z"
      stroke="#000" stroke-opacity=".1" stroke-width="2" />
    <path
      d="m501.428 301.428c-.279-.279-.635-.469-1.022-.547l-2.388-.477c-1.308-.262-2.666-.08-3.86.517l-.317.158c-1.193.597-2.552.779-3.86.517l-1.932-.386c-.655-.131-1.333.074-1.806.547m3.757-11.757h8l-1 1v5.172c0 .53.211 1.039.586 1.414l5 5c1.26 1.26.367 3.414-1.415 3.414h-14.343c-1.782 0-2.674-2.154-1.414-3.414l5-5c.375-.375.586-.884.586-1.414v-5.172z"
      stroke="#000" stroke-linecap="round" stroke-linejoin="round" stroke-opacity=".1" stroke-width="2" />
    <path
      d="m542 294v13m0-13s0-1.493 0-2c0-1.105.895-2 2-2s2 .895 2 2-.895 2-2 2c-.597 0-2 0-2 0zm0 0s0-1.937 0-2.5c0-1.381-1.119-2.5-2.5-2.5s-2.5 1.119-2.5 2.5 1.119 2.5 2.5 2.5zm-7 4h14m-14 0c-1.105 0-2-.895-2-2s.895-2 2-2h14c1.105 0 2 .895 2 2s-.895 2-2 2m-14 0v7c0 1.105.895 2 2 2h10c1.105 0 2-.895 2-2v-7"
      stroke="#000" stroke-linecap="round" stroke-linejoin="round" stroke-opacity=".1" stroke-width="2" />
    <path d="m587 303c0 1.105-.895 2-2 2s-2-.895-2-2 .895-2 2-2 2 .895 2 2z" fill="#fff" />
    <path d="m597 303c0 1.105-.895 2-2 2s-2-.895-2-2 .895-2 2-2 2 .895 2 2z" fill="#fff" />
    <path
      d="m591 302h1zm0-8h-1zm4.293-.707.707-.707zm3.414 3.414.707-.707zm-16.707-4.707h8v-2h-8zm8 0v10h2v-10zm-8 10v-10h-2v10zm1 0h-1v2h1zm7 0h-3v2h3zm-10 0c0 1.105.895 2 2 2v-2zm10 0v2c1.105 0 2-.895 2-2zm0-10h2c0-1.105-.895-2-2-2zm-8-2c-1.105 0-2 .895-2 2h2zm10 12v-8h-2v8zm0-8h2.586v-2h-2.586zm6 3.414v4.586h2v-4.586zm-3.414-3.414 3.414 3.414 1.414-1.414-3.414-3.414zm-1.586 8h-1v2h1zm5 0h-1v2h1zm2-4.586c0-.53-.211-1.039-.586-1.414l-1.414 1.414zm-5.414-3.414 1.414-1.414c-.375-.375-.884-.586-1.414-.586zm-4.586 8c0 1.105.895 2 2 2v-2zm8 0v2c1.105 0 2-.895 2-2zm-6-8v-2c-1.105 0-2 .895-2 2zm-6 9c0 .552-.448 1-1 1v2c1.657 0 3-1.343 3-3zm-1 1c-.552 0-1-.448-1-1h-2c0 1.657 1.343 3 3 3zm-1-1c0-.552.448-1 1-1v-2c-1.657 0-3 1.343-3 3zm1-1c.552 0 1 .448 1 1h2c0-1.657-1.343-3-3-3zm11 1c0 .552-.448 1-1 1v2c1.657 0 3-1.343 3-3zm-1 1c-.552 0-1-.448-1-1h-2c0 1.657 1.343 3 3 3zm-1-1c0-.552.448-1 1-1v-2c-1.657 0-3 1.343-3 3zm1-1c.552 0 1 .448 1 1h2c0-1.657-1.343-3-3-3z"
      fill="#000" fill-opacity=".1" />
    <path
      d="m395 209v-13l12-3v13m-12 3c0 1.105-1.343 2-3 2s-3-.895-3-2 1.343-2 3-2 3 .895 3 2zm12-3c0 1.105-1.343 2-3 2s-3-.895-3-2 1.343-2 3-2 3 .895 3 2zm-12-6 12-3"
      stroke="#000" stroke-linecap="round" stroke-linejoin="round" stroke-opacity=".1" stroke-width="2" />
    <path
      d="m441 194v16m10-16v16m-14-12h4m10 0h4m-18 4h18m-18 4h4m10 0h4m-17 4h16c.552 0 1-.448 1-1v-14c0-.552-.448-1-1-1h-16c-.552 0-1 .448-1 1v14c0 .552.448 1 1 1z"
      stroke="#000" stroke-opacity=".1" stroke-width="2" />
    <path
      d="m486 197v10c0 2.209 3.582 4 8 4s8-1.791 8-4v-10m-16 0c0 2.209 3.582 4 8 4s8-1.791 8-4m-16 0c0-2.209 3.582-4 8-4s8 1.791 8 4m0 5c0 2.209-3.582 4-8 4s-8-1.791-8-4"
      stroke="#000" stroke-opacity=".1" stroke-width="2" />
    <path
      d="m595 206 4-4m0 0-4-4m4 4h-14m6 4v1c0 1.657-1.343 3-3 3h-4c-1.657 0-3-1.343-3-3v-10c0-1.657 1.343-3 3-3h4c1.657 0 3 1.343 3 3v1"
      stroke="#000" stroke-linecap="round" stroke-linejoin="round" stroke-opacity=".1" stroke-width="2" />
    <path d="m407 243 7 7-7 7m-8-14 7 7-7 7" stroke="#000" stroke-linecap="round" stroke-linejoin="round"
      stroke-opacity=".1" stroke-width="2" />
    <path d="m461 251-7 7-7-7m14-8-7 7-7-7" stroke="#000" stroke-linecap="round" stroke-linejoin="round"
      stroke-opacity=".1" stroke-width="2" />
    <path d="m501 257-7-7 7-7m8 14-7-7 7-7" stroke="#000" stroke-linecap="round" stroke-linejoin="round"
      stroke-opacity=".1" stroke-width="2" />
    <path d="m543 249 7-7 7 7m-14 8 7-7 7 7" stroke="#000" stroke-linecap="round" stroke-linejoin="round"
      stroke-opacity=".1" stroke-width="2" />
    <path
      d="m591 249c0-.552-.448-1-1-1s-1 .448-1 1zm-4.599 9.039c-.294.467-.154 1.085.314 1.379.467.294 1.084.153 1.379-.314zm-2.54-1.598-.846-.532zm-.914-.421c-.282.475-.126 1.088.349 1.37s1.089.126 1.371-.349zm7.838 2.376c-.247.493-.047 1.094.446 1.342.494.247 1.095.047 1.342-.446zm3.348-3.124c.15-.531-.159-1.084-.69-1.234-.531-.151-1.084.158-1.235.69zm-1.327-3.407c-.075.547.308 1.051.855 1.126.548.075 1.052-.308 1.126-.856zm3.242 3.993c-.151.531.157 1.085.688 1.236s1.084-.157 1.235-.688zm-15.947-2.931c-.242.497-.035 1.095.462 1.337.497.241 1.095.034 1.336-.463zm5.398-11.722c-.478.276-.641.888-.365 1.366.277.478.889.641 1.367.365zm-1.563 4.296c.276-.478.113-1.09-.365-1.367-.478-.276-1.09-.113-1.366.365zm5.064 3.499c0 3.323-.953 6.421-2.599 9.039l1.693 1.065c1.841-2.928 2.906-6.393 2.906-10.104zm6 0c0-2.761-2.239-5-5-5v2c1.657 0 3 1.343 3 3zm-10 0c0 2.548-.728 4.911-1.985 6.909l1.693 1.065c1.452-2.308 2.292-5.038 2.292-7.974zm5-5c-2.762 0-5 2.239-5 5h2c0-1.657 1.343-3 3-3zm-6.985 11.909c-.023.037-.046.074-.068.111l1.72 1.021c.013-.022.027-.045.041-.067zm9.558 3.383c.64-1.277 1.164-2.622 1.56-4.02l-1.925-.544c-.36 1.275-.839 2.502-1.423 3.668zm2.214-7.157c.141-1.026.213-2.073.213-3.135h-2c0 .972-.066 1.928-.194 2.865zm4.213-3.135c0-4.971-4.029-9-9-9v2c3.866 0 7 3.134 7 7zm-1.029 7.406c.671-2.355 1.029-4.839 1.029-7.406h-2c0 2.38-.332 4.68-.952 6.858zm-16.971-7.406c0 1.41-.324 2.742-.899 3.927l1.798.874c.706-1.452 1.101-3.082 1.101-4.801zm9-9c-1.638 0-3.176.438-4.501 1.205l1.002 1.731c1.028-.595 2.222-.936 3.499-.936zm-7.795 4.499c-.767 1.325-1.205 2.863-1.205 4.501h2c0-1.277.341-2.471.936-3.499z"
      fill="#000" fill-opacity=".1" />
    <path
      d="m535 202h14m-14 0c-1.105 0-2-.895-2-2v-4c0-1.105.895-2 2-2h14c1.105 0 2 .895 2 2v4c0 1.105-.895 2-2 2m-14 0c-1.105 0-2 .895-2 2v4c0 1.105.895 2 2 2h14c1.105 0 2-.895 2-2v-4c0-1.105-.895-2-2-2m-2-4h.01m-.01 8h.01"
      stroke="#000" stroke-linecap="round" stroke-linejoin="round" stroke-opacity=".1" stroke-width="2" />
    <path
      d="m14 2.35418c.7329-.83043 1.8053-1.35418 3-1.35418 2.2091 0 4 1.79086 4 4s-1.7909 4-4 4c-1.1947 0-2.2671-.52376-3-1.35418m3 11.35418h-12v-1c0-3.3137 2.68629-6 6-6 3.3137 0 6 2.6863 6 6zm0 0h6v-1c0-3.3137-2.6863-6-6-6-1.0929 0-2.1175.2922-3 .8027m1-7.8027c0 2.20914-1.7909 4-4 4-2.20914 0-4-1.79086-4-4s1.79086-4 4-4c2.2091 0 4 1.79086 4 4z"
      stroke="#000" stroke-linecap="round" stroke-linejoin="round" stroke-opacity=".1" stroke-width="2" />
    <path
      d="m10 50h-2c-1.10457 0-2 .8954-2 2v12c0 1.1046.89543 2 2 2h12c1.1046 0 2-.8954 2-2v-12c0-1.1046-.8954-2-2-2h-2m-4-1v8m0 0 3-3m-3 3-3-3m-5 5h2.58579c.26521 0 .51957.1054.7071.2929l2.41421 2.4142c.1875.1875.4419.2929.7071.2929h3.1716c.2652 0 .5196-.1054.7071-.2929l2.4142-2.4142c.1875-.1875.4419-.2929.7071-.2929h2.5858"
      stroke="#000" stroke-linecap="round" stroke-linejoin="round" stroke-opacity=".1" stroke-width="2" />
    <path d="m6 100h16m-16 6h16m-16 6h7" stroke="#000" stroke-linecap="round" stroke-linejoin="round"
      stroke-opacity=".1" stroke-width="2" />
    <path
      d="m10 159c-2.76142 0-5-2.239-5-5 0-2.448 1.75992-4.486 4.08376-4.916.43036-2.324 2.46774-4.084 4.91624-4.084s4.4859 1.76 4.9162 4.084c2.3239.43 4.0838 2.468 4.0838 4.916 0 2.761-2.2386 5-5 5m-7-5 3-3m0 0 3 3m-3-3v12"
      stroke="#000" stroke-linecap="round" stroke-linejoin="round" stroke-opacity=".1" stroke-width="2" />
    <path
      d="m10 206h-2c-1.10457 0-2-.895-2-2v-8c0-1.105.89543-2 2-2h8c1.1046 0 2 .895 2 2v2m-6 12h8c1.1046 0 2-.895 2-2v-8c0-1.105-.8954-2-2-2h-8c-1.1046 0-2 .895-2 2v8c0 1.105.8954 2 2 2z"
      stroke="#000" stroke-linecap="round" stroke-linejoin="round" stroke-opacity=".1" stroke-width="2" />
    <path
      d="m5 248h18m-14 5h1m4 0h1m-7 4h12c1.6569 0 3-1.343 3-3v-8c0-1.657-1.3431-3-3-3h-12c-1.65685 0-3 1.343-3 3v8c0 1.657 1.34315 3 3 3z"
      stroke="#000" stroke-linecap="round" stroke-linejoin="round" stroke-opacity=".1" stroke-width="2" />
    <path d="m21 300-7 7m0 0-7-7m7 7v-18" stroke="#000" stroke-linecap="round" stroke-linejoin="round"
      stroke-opacity=".1" stroke-width="2" />
    <path
      d="m67 18h5v-2c0-1.6569-1.3431-3-3-3-.9556 0-1.8069.4468-2.3562 1.1429m.3562 3.8571h-10m10 0v-2c0-.6562-.1264-1.283-.3562-1.8571m-9.6438 3.8571h-5v-2c0-1.6569 1.3431-3 3-3 .9556 0 1.8069.4468 2.3562 1.1429m-.3562 3.8571v-2c0-.6562.1264-1.283.3562-1.8571m0 0c.7373-1.8419 2.5386-3.1429 4.6438-3.1429s3.9065 1.301 4.6438 3.1429m-1.6438-9.1429c0 1.65685-1.3431 3-3 3s-3-1.34315-3-3 1.3431-3 3-3 3 1.34315 3 3zm6 3c0 1.10457-.8954 2-2 2s-2-.89543-2-2 .8954-2 2-2 2 .89543 2 2zm-14 0c0 1.10457-.8954 2-2 2s-2-.89543-2-2 .8954-2 2-2 2 .89543 2 2z"
      stroke="#000" stroke-linecap="round" stroke-linejoin="round" stroke-opacity=".1" stroke-width="2" />
    <path
      d="m55 54h14m-14 0c-1.1046 0-2-.8954-2-2s.8954-2 2-2h14c1.1046 0 2 .8954 2 2s-.8954 2-2 2m-14 0v10c0 1.1046.8954 2 2 2h10c1.1046 0 2-.8954 2-2v-10m-9 4h4"
      stroke="#000" stroke-linecap="round" stroke-linejoin="round" stroke-opacity=".1" stroke-width="2" />
    <path d="m54 100h16m-16 6h16m-7 6h7" stroke="#000" stroke-linecap="round" stroke-linejoin="round"
      stroke-opacity=".1" stroke-width="2" />
    <path
      d="m58 158c-2.7614 0-5-2.239-5-5 0-2.448 1.7599-4.486 4.0838-4.916.4303-2.324 2.4677-4.084 4.9162-4.084s4.4859 1.76 4.9162 4.084c2.3239.43 4.0838 2.468 4.0838 4.916 0 2.761-2.2386 5-5 5m-7 3 3 3m0 0 3-3m-3 3v-12"
      stroke="#000" stroke-linecap="round" stroke-linejoin="round" stroke-opacity=".1" stroke-width="2" />
    <path
      d="m58.6839 203.342c.2023-.404.3161-.86.3161-1.342s-.1138-.938-.3161-1.342m0 2.684c-.4926.983-1.5094 1.658-2.6839 1.658-1.6569 0-3-1.343-3-3s1.3431-3 3-3c1.1745 0 2.1913.675 2.6839 1.658m0 2.684 6.6322 3.316m-6.6322-6 6.6322-3.316m0 0c.4926.983 1.5094 1.658 2.6839 1.658 1.6569 0 3-1.343 3-3s-1.3431-3-3-3-3 1.343-3 3c0 .482.1138.938.3161 1.342zm0 9.316c-.2023.404-.3161.86-.3161 1.342 0 1.657 1.3431 3 3 3s3-1.343 3-3-1.3431-3-3-3c-1.1745 0-2.1913.675-2.6839 1.658z"
      stroke="#000" stroke-linecap="round" stroke-linejoin="round" stroke-opacity=".1" stroke-width="2" />
    <path
      d="m66 249v1h1v-1zm-8 0h-1v1h1zm5 4c0-.552-.4477-1-1-1s-1 .448-1 1zm-2 2c0 .552.4477 1 1 1s1-.448 1-1zm-5-5h12v-2h-12zm13 1v6h2v-6zm-1 7h-12v2h12zm-13-1v-6h-2v6zm1 1c-.5523 0-1-.448-1-1h-2c0 1.657 1.3431 3 3 3zm13-1c0 .552-.4477 1-1 1v2c1.6569 0 3-1.343 3-3zm-1-7c.5523 0 1 .448 1 1h2c0-1.657-1.3431-3-3-3zm-12-2c-1.6569 0-3 1.343-3 3h2c0-.552.4477-1 1-1zm9-3v4h2v-4zm1 3h-8v2h8zm-7 1v-4h-2v4zm3-7c1.6569 0 3 1.343 3 3h2c0-2.761-2.2386-5-5-5zm0-2c-2.7614 0-5 2.239-5 5h2c0-1.657 1.3431-3 3-3zm-1 13v2h2v-2z"
      fill="#000" fill-opacity=".1" />
    <g stroke="#000" stroke-opacity=".1" stroke-width="2">
      <path d="m60 305-7-7m0 0 7-7m-7 7h18" stroke-linecap="round" stroke-linejoin="round" />
      <path
        d="m117 19v-16c0-1.10457-.895-2-2-2h-10c-1.105 0-2 .89543-2 2v16m14 0h2m-2 0h-5m-9 0h-2m2 0h5m-1-14.00002h1m-1 4h1m4-4h1m-1 4h1m-5 10.00002v-5c0-.5523.448-1 1-1h2c.552 0 1 .4477 1 1v5m-4 0h4"
        stroke-linecap="round" stroke-linejoin="round" />
      <path d="m110 54v4l3 3m6-3c0 4.9706-4.029 9-9 9s-9-4.0294-9-9 4.029-9 9-9 9 4.0294 9 9z" stroke-linecap="round"
        stroke-linejoin="round" />
      <path d="m102 102h16m-16 8h16" stroke-linecap="round" stroke-linejoin="round" />
      <path d="m109 145.055c-4.5.497-8 4.312-8 8.945 0 4.971 4.029 9 9 9 4.633 0 8.448-3.5 8.945-8h-9.945z"
        stroke-linecap="round" stroke-linejoin="round" />
      <path d="m118.488 151h-5.488v-5.488c2.557.904 4.584 2.931 5.488 5.488z" stroke-linecap="round"
        stroke-linejoin="round" />
      <path
        d="m102.318 196.318c-1.757 1.757-1.757 4.607 0 6.364l7.682 7.682 7.682-7.682c1.757-1.757 1.757-4.607 0-6.364s-4.607-1.757-6.364 0l-1.318 1.318-1.318-1.318c-1.757-1.757-4.607-1.757-6.364 0z"
        stroke-linecap="round" stroke-linejoin="round" />
      <path d="m111 245h8m0 0v8m0-8-8 8-4-4-6 6" stroke-linecap="round" stroke-linejoin="round" />
      <path d="m111 295 3 3m0 0-3 3m3-3h-8m13 0c0 4.971-4.029 9-9 9s-9-4.029-9-9 4.029-9 9-9 9 4.029 9 9z"
        stroke-linecap="round" stroke-linejoin="round" />
      <path
        d="m149 4 3 1m0 0-3 9c1.773 1.3334 4.229 1.3334 6.001 0m-3.001-9 3 9m-3-9 6-2m6 2 3-1m-3 1-3 9c1.773 1.3334 4.229 1.3334 6.001 0m-3.001-9 3 9m-3-9-6-2m0-2v2m0 16v-16m0 16h-3m3 0h3"
        stroke-linecap="round" stroke-linejoin="round" />
      <path
        d="m150 62 4.586-4.5858c.781-.781 2.047-.781 2.828 0l4.586 4.5858m-2-2 1.586-1.5858c.781-.781 2.047-.781 2.828 0l1.586 1.5858m-6-6h.01m-8.01 12h12c1.105 0 2-.8954 2-2v-12c0-1.1046-.895-2-2-2h-12c-1.105 0-2 .8954-2 2v12c0 1.1046.895 2 2 2z"
        stroke-linecap="round" stroke-linejoin="round" />
      <path d="m153 110v-12m0 0-4 4m4-4 4 4m6 0v12m0 0 4-4m-4 4-4-4" stroke-linecap="round" stroke-linejoin="round" />
      <path
        d="m153 163h10c1.105 0 2-.895 2-2v-9.586c0-.265-.105-.519-.293-.707l-5.414-5.414c-.188-.188-.442-.293-.707-.293h-5.586c-1.105 0-2 .895-2 2v14c0 1.105.895 2 2 2z"
        stroke-linecap="round" stroke-linejoin="round" />
      <path
        d="m149.055 201h1.945c1.105 0 2 .895 2 2v1c0 1.105.895 2 2 2s2 .895 2 2v2.945m-3-17.009v1.564c0 1.381 1.119 2.5 2.5 2.5h.5c1.105 0 2 .895 2 2s.895 2 2 2 2-.895 2-2 .895-2 2-2h1.064m-5.064 12.488v-2.488c0-1.105.895-2 2-2h3.064m.936-4c0 4.971-4.029 9-9 9s-9-4.029-9-9 4.029-9 9-9 9 4.029 9 9z"
        stroke-linecap="round" stroke-linejoin="round" />
      <path d="m159 255h8m0 0v-8m0 8-8-8-4 4-6-6" stroke-linecap="round" stroke-linejoin="round" />
      <path d="m161 299-3 3m0 0-3-3m3 3v-8m0 13c-4.971 0-9-4.029-9-9s4.029-9 9-9 9 4.029 9 9-4.029 9-9 9z"
        stroke-linecap="round" stroke-linejoin="round" />
      <path
        d="m205 3h-5c-1.105 0-2 .89543-2 2v11c0 1.1046.895 2 2 2h11c1.105 0 2-.8954 2-2v-5m-1.414-9.41421c.781-.781052 2.047-.781052 2.828 0 .781.78104.781 2.04737 0 2.82842l-8.586 8.58579h-2.828v-2.8284z"
        stroke-linecap="round" stroke-linejoin="round" />
      <path
        d="m201 53h.01m-.01-4h5c.512 0 1.024.1952 1.414.5858l7 7c.781.781.781 2.0474 0 2.8284l-7 7c-.781.7811-2.047.7811-2.828 0l-7-7c-.391-.3905-.586-.9024-.586-1.4142v-5c0-2.2091 1.791-4 4-4z"
        stroke-linecap="round" stroke-linejoin="round" />
      <path d="m202 101h12m0 0-4-4m4 4-4 4m0 6h-12m0 0 4 4m-4-4 4-4" stroke-linecap="round" stroke-linejoin="round" />
      <path
        d="m206 152v6m0 0-3-3m3 3 3-3m2 8h-10c-1.105 0-2-.895-2-2v-14c0-1.105.895-2 2-2h5.586c.265 0 .519.105.707.293l5.414 5.414c.188.188.293.442.293.707v9.586c0 1.105-.895 2-2 2z"
        stroke-linecap="round" stroke-linejoin="round" />
      <path
        d="m209.536 198.464c1.952 1.953 1.952 5.119 0 7.072m2.828-9.9c3.515 3.515 3.515 9.213 0 12.728m-12.778-3.364h-1.586c-.552 0-1-.448-1-1v-4c0-.552.448-1 1-1h1.586l4.707-4.707c.63-.63 1.707-.184 1.707.707v14c0 .891-1.077 1.337-1.707.707z"
        stroke-linecap="round" stroke-linejoin="round" />
      <path
        d="m197 242c0-.552.448-1 1-1h16c.552 0 1 .448 1 1v2.586c0 .265-.105.519-.293.707l-6.414 6.414c-.188.188-.293.442-.293.707v2.586l-4 4v-6.586c0-.265-.105-.519-.293-.707l-6.414-6.414c-.188-.188-.293-.442-.293-.707z"
        stroke-linecap="round" stroke-linejoin="round" />
      <path d="m205 301-3-3m0 0 3-3m-3 3h8m-13 0c0-4.971 4.029-9 9-9s9 4.029 9 9-4.029 9-9 9-9-4.029-9-9z"
        stroke-linecap="round" stroke-linejoin="round" />
    </g>
    <path
      d="m262.268 1.73223.707-.7071zm-13.768 17.30327v1c.265 0 .52-.1054.707-.2929zm-3.5 0h-1c0 .5523.448 1 1 1zm0-3.5711-.707-.7071c-.188.1875-.293.4419-.293.7071zm14.439-13.02506c.586-.58579 1.536-.58579 2.122 0l1.414-1.41421c-1.367-1.366839-3.583-1.366839-4.95 0zm2.122 0c.585.58579.585 1.53553 0 2.12132l1.414 1.41421c1.367-1.36683 1.367-3.58291 0-4.94974zm0 2.12132-13.768 13.76774 1.414 1.4142 13.768-13.76773zm-13.061 13.47484h-3.5v2h3.5zm9.525-17.01037-13.732 13.73217 1.414 1.4142 13.732-13.73216zm-14.025 14.43927v3.5711h2v-3.5711zm12.525-11.52506 3.536 3.53553 1.414-1.41421-3.536-3.53553z"
      fill="#000" fill-opacity=".1" />
    <path
      d="m251.228 49.6838-.949.3162zm1.498 4.4934-.949.3162zm-.502 1.2107.447.8944zm-2.257 1.1286-.447-.8944c-.48.24-.685.8162-.465 1.3054zm5.517 5.5165-.412.9116c.49.2206 1.066.0156 1.306-.4644zm1.128-2.2573-.894-.4472zm1.211-.5014-.316.9486zm4.493 1.4978.316-.9487zm-15.316-12.7721c-1.657 0-3 1.3431-3 3h2c0-.5523.448-1 1-1zm3.279 0h-3.279v2h3.279zm1.898 1.3675c-.273-.8166-1.037-1.3675-1.898-1.3675v2zm1.497 4.4935-1.497-4.4935-1.898.6325 1.498 4.4934zm-1.003 2.4213c.891-.4451 1.318-1.4771 1.003-2.4213l-1.897.6324zm-2.257 1.1286 2.257-1.1286-.894-1.7889-2.257 1.1287zm5.481 3.7105c-2.223-1.002-4.014-2.7935-5.016-5.0159l-1.824.822c1.203 2.6671 3.35 4.8146 6.017 6.0171zm-.177-1.7929-1.129 2.2573 1.789.8944 1.129-2.2573zm2.421-1.0029c-.944-.3148-1.976.1127-2.421 1.0029l1.789.8944zm4.493 1.4978-4.493-1.4978-.632 1.8973 4.493 1.4979zm1.368 1.8974c0-.8609-.551-1.6252-1.368-1.8974l-.632 1.8974zm0 3.2792v-3.2792h-2v3.2792zm-3 3c1.657 0 3-1.3431 3-3h-2c0 .5523-.448 1-1 1zm-1 0h1v-2h-1zm-16-16c0 8.8366 7.163 16 16 16v-2c-7.732 0-14-6.268-14-14zm0-1v1h2v-1z"
      fill="#000" fill-opacity=".1" />
    <path d="m248 112 12-12m-12 0 12 12" stroke="#000" stroke-linecap="round" stroke-linejoin="round"
      stroke-opacity=".1" stroke-width="2" />
    <path
      d="m251 155h6m-3-3v6m5 5h-10c-1.105 0-2-.895-2-2v-14c0-1.105.895-2 2-2h5.586c.265 0 .519.105.707.293l5.414 5.414c.188.188.293.442.293.707v9.586c0 1.105-.895 2-2 2z"
      stroke="#000" stroke-linecap="round" stroke-linejoin="round" stroke-opacity=".1" stroke-width="2" />
    <path
      d="m247.586 205h-1.586c-.552 0-1-.448-1-1v-4c0-.552.448-1 1-1h1.586l4.707-4.707c.63-.63 1.707-.184 1.707.707v14c0 .891-1.077 1.337-1.707.707z"
      style="fill-rule:evenodd;clip-rule:evenodd;stroke:#000;stroke-opacity:.1;stroke-width:2;stroke-linecap:round;stroke-linejoin:round" />
    <path d="m259 204 2-2m0 0 2-2m-2 2-2-2m2 2 2 2" stroke="#000" stroke-linecap="round" stroke-linejoin="round"
      stroke-opacity=".1" stroke-width="2" />
    <path
      d="m258 250c0-2.209-1.791-4-4-4s-4 1.791-4 4 1.791 4 4 4 4-1.791 4-4zm0 0v1.5c0 1.381 1.119 2.5 2.5 2.5s2.5-1.119 2.5-2.5v-1.5c0-4.971-4.029-9-9-9s-9 4.029-9 9 4.029 9 9 9m4.5-1.206c-1.42.82-2.97 1.209-4.5 1.207"
      stroke="#000" stroke-linecap="round" stroke-linejoin="round" stroke-opacity=".1" stroke-width="2" />
    <path d="m251 297 3-3m0 0 3 3m-3-3v8m0-13c4.971 0 9 4.029 9 9s-4.029 9-9 9-9-4.029-9-9 4.029-9 9-9z" stroke="#000"
      stroke-linecap="round" stroke-linejoin="round" stroke-opacity=".1" stroke-width="2" />
    <path d="m304.999 10c0 1.6569-1.343 3-3 3s-3-1.3431-3-3c0-1.65685 1.343-3 3-3s3 1.34315 3 3z" stroke="#000"
      stroke-linecap="round" stroke-linejoin="round" stroke-opacity=".1" stroke-width="2" />
    <path
      d="m292.457 9.99997c1.274-4.05709 5.065-6.99997 9.542-6.99997 4.478 0 8.268 2.94291 9.542 7-1.274 4.0571-5.064 7-9.542 7-4.477 0-8.268-2.9429-9.542-7.00003z"
      stroke="#000" stroke-linecap="round" stroke-linejoin="round" stroke-opacity=".1" stroke-width="2" />
    <path
      d="m306 49h5m0 0v5m0-5-6 6m-10-6c-1.105 0-2 .8954-2 2v1c0 8.2843 6.716 15 15 15h1c1.105 0 2-.8954 2-2v-3.2792c0-.4305-.275-.8126-.684-.9487l-4.493-1.4978c-.472-.1574-.988.0563-1.211.5014l-1.128 2.2573c-2.445-1.1022-4.415-3.0718-5.517-5.5165l2.257-1.1286c.445-.2226.659-.7386.502-1.2107l-1.498-4.4934c-.136-.4084-.518-.6838-.949-.6838z"
      stroke="#000" stroke-linecap="round" stroke-linejoin="round" stroke-opacity=".1" stroke-width="2" />
    <path d="m302 98v16m8-8h-16" stroke="#000" stroke-linecap="round" stroke-linejoin="round" stroke-opacity=".1"
      stroke-width="2" />
    <path
      d="m299 155h6m2 8h-10c-1.105 0-2-.895-2-2v-14c0-1.105.895-2 2-2h5.586c.265 0 .519.105.707.293l5.414 5.414c.188.188.293.442.293.707v9.586c0 1.105-.895 2-2 2z"
      stroke="#000" stroke-linecap="round" stroke-linejoin="round" stroke-opacity=".1" stroke-width="2" />
    <path
      d="m302 196v-2m0 2c-1.105 0-2 .895-2 2s.895 2 2 2m0-4c1.105 0 2 .895 2 2s-.895 2-2 2m-6 8c1.105 0 2-.895 2-2s-.895-2-2-2m0 4c-1.105 0-2-.895-2-2s.895-2 2-2m0 4v2m0-6v-10m6 6v10m6-2c1.105 0 2-.895 2-2s-.895-2-2-2m0 4c-1.105 0-2-.895-2-2s.895-2 2-2m0 4v2m0-6v-10"
      stroke="#000" stroke-linecap="round" stroke-linejoin="round" stroke-opacity=".1" stroke-width="2" />
    <path
      d="m309 245-.867 12.142c-.075 1.047-.946 1.858-1.995 1.858h-8.276c-1.049 0-1.92-.811-1.995-1.858l-.867-12.142m5 4v6m4-6v6m1-10v-3c0-.552-.448-1-1-1h-4c-.552 0-1 .448-1 1v3m-5 0h16"
      stroke="#000" stroke-linecap="round" stroke-linejoin="round" stroke-opacity=".1" stroke-width="2" />
    <path d="m293 290h13m-13 4h9m-9 4h6m4 0 4-4m0 0 4 4m-4-4v12" stroke="#000" stroke-linecap="round"
      stroke-linejoin="round" stroke-opacity=".1" stroke-width="2" />
    <path d="m343 3c0-1.10457.895-2 2-2h10c1.105 0 2 .89543 2 2v16l-7-3.5-7 3.5z" stroke="#000" stroke-linecap="round"
      stroke-linejoin="round" stroke-opacity=".1" stroke-width="2" />
    <path
      d="m359 49-6 6m0 0v-5m0 5h5m-15-6c-1.105 0-2 .8954-2 2v1c0 8.2843 6.716 15 15 15h1c1.105 0 2-.8954 2-2v-3.2792c0-.4305-.275-.8126-.684-.9487l-4.493-1.4978c-.472-.1574-.988.0563-1.211.5014l-1.128 2.2573c-2.445-1.1022-4.415-3.0718-5.517-5.5165l2.257-1.1286c.445-.2226.659-.7386.502-1.2107l-1.498-4.4934c-.136-.4084-.518-.6838-.949-.6838z"
      stroke="#000" stroke-linecap="round" stroke-linejoin="round" stroke-opacity=".1" stroke-width="2" />
    <path
      d="m342 98v5h.582m15.356 2c-.492-3.946-3.858-7-7.938-7-3.357 0-6.232 2.068-7.418 5m0 0h4.418m11 11v-5h-.582m0 0c-1.186 2.932-4.061 5-7.418 5-4.08 0-7.446-3.054-7.938-7m15.356 2h-4.418"
      stroke="#000" stroke-linecap="round" stroke-linejoin="round" stroke-opacity=".1" stroke-width="2" />
    <path
      d="m346 149v-4m8 4v-4m-9 8h10m-12 10h14c1.105 0 2-.895 2-2v-12c0-1.105-.895-2-2-2h-14c-1.105 0-2 .895-2 2v12c0 1.105.895 2 2 2z"
      stroke="#000" stroke-linecap="round" stroke-linejoin="round" stroke-opacity=".1" stroke-width="2" />
    <path
      d="m351.828 200.172c-1.562-1.563-4.094-1.563-5.656 0l-4 4c-1.563 1.562-1.563 4.094 0 5.656 1.562 1.563 4.094 1.563 5.656 0l1.102-1.101m-.758-4.899c1.562 1.563 4.094 1.563 5.656 0l4-4c1.563-1.562 1.563-4.094 0-5.656-1.562-1.563-4.094-1.563-5.656 0l-1.1 1.099"
      stroke="#000" stroke-linecap="round" stroke-linejoin="round" stroke-opacity=".1" stroke-width="2" />
    <path d="m351 254h-1v-4h-1m1-4h.01m8.99 4c0 4.971-4.029 9-9 9s-9-4.029-9-9 4.029-9 9-9 9 4.029 9 9z" stroke="#000"
      stroke-linecap="round" stroke-linejoin="round" stroke-opacity=".1" stroke-width="2" />
    <path d="m341 290h13m-13 4h9m-9 4h9m5-4v12m0 0-4-4m4 4 4-4" stroke="#000" stroke-linecap="round"
      stroke-linejoin="round" stroke-opacity=".1" stroke-width="2" />
    <path
      d="m258.153 141.995c-2.814 0-4.998 1.05-6.258 2.94v-10.752h-5.418v29.4h5.418v-11.34c0-3.654 1.974-5.208 4.62-5.208 2.436 0 4.158 1.47 4.158 4.326v12.222h5.418v-12.894c0-5.586-3.486-8.694-7.938-8.694z"
      fill="#fff" />
    <path
      d="m274.455 155.309h15.834c.126-.714.21-1.428.21-2.226 0-6.174-4.41-11.088-10.626-11.088-6.594 0-11.088 4.83-11.088 11.088s4.452 11.088 11.508 11.088c4.032 0 7.182-1.638 9.156-4.494l-4.368-2.52c-.924 1.218-2.604 2.1-4.704 2.1-2.856 0-5.166-1.176-5.922-3.948zm-.084-4.2c.63-2.688 2.604-4.242 5.502-4.242 2.268 0 4.536 1.218 5.208 4.242z"
      fill="#fff" />
    <path
      d="m298.859 146.195v-3.612h-5.418v21h5.418v-10.038c0-4.41 3.57-5.67 6.384-5.334v-6.048c-2.646 0-5.292 1.176-6.384 4.032z"
      fill="#fff" />
    <path
      d="m316.788 164.171c6.174 0 11.13-4.83 11.13-11.088s-4.956-11.088-11.13-11.088-11.088 4.83-11.088 11.088 4.914 11.088 11.088 11.088zm0-5.292c-3.192 0-5.67-2.394-5.67-5.796s2.478-5.796 5.67-5.796c3.234 0 5.712 2.394 5.712 5.796s-2.478 5.796-5.712 5.796z"
      fill="#fff" />
    <path
      d="m333.578 140.063c1.848 0 3.36-1.512 3.36-3.318s-1.512-3.36-3.36-3.36c-1.806 0-3.318 1.554-3.318 3.36s1.512 3.318 3.318 3.318zm-2.688 23.52h5.418v-21h-5.418z"
      fill="#fff" />
    <path
      d="m350.423 164.171c4.116 0 7.686-2.184 9.492-5.46l-4.704-2.688c-.84 1.722-2.646 2.772-4.83 2.772-3.234 0-5.628-2.394-5.628-5.712 0-3.36 2.394-5.754 5.628-5.754 2.142 0 3.948 1.092 4.788 2.814l4.662-2.73c-1.722-3.234-5.292-5.418-9.408-5.418-6.384 0-11.088 4.83-11.088 11.088s4.704 11.088 11.088 11.088z"
      fill="#fff" />
    <path
      d="m371.608 164.171c6.174 0 11.13-4.83 11.13-11.088s-4.956-11.088-11.13-11.088-11.088 4.83-11.088 11.088 4.914 11.088 11.088 11.088zm0-5.292c-3.192 0-5.67-2.394-5.67-5.796s2.478-5.796 5.67-5.796c3.234 0 5.712 2.394 5.712 5.796s-2.478 5.796-5.712 5.796z"
      fill="#fff" />
    <path
      d="m397.386 141.995c-2.814 0-4.998 1.05-6.258 2.94v-2.352h-5.418v21h5.418v-11.34c0-3.654 1.974-5.208 4.62-5.208 2.436 0 4.158 1.47 4.158 4.326v12.222h5.418v-12.894c0-5.586-3.486-8.694-7.938-8.694z"
      fill="#fff" />
    <path
      d="m414.108 148.547c0-1.134 1.092-1.722 2.436-1.722 1.554 0 2.73.798 3.36 2.142l4.62-2.52c-1.638-2.898-4.578-4.452-7.98-4.452-4.326 0-7.98 2.394-7.98 6.678 0 7.392 10.836 5.712 10.836 8.778 0 1.218-1.176 1.806-2.898 1.806-2.1 0-3.528-1.008-4.116-2.73l-4.704 2.646c1.512 3.234 4.62 4.998 8.82 4.998 4.494 0 8.442-2.184 8.442-6.72 0-7.728-10.836-5.796-10.836-8.904z"
      fill="#fff" />
    <path clip-rule="evenodd"
      d="m221.981 134.107c-.546.027-1.095.041-1.648.041-8.196 0-15.672-3.081-21.333-8.148-5.662 5.067-13.138 8.148-21.333 8.148-.553 0-1.102-.014-1.648-.042-.665 2.57-1.019 5.265-1.019 8.042 0 14.911 10.198 27.44 24 30.992 13.802-3.552 24-16.081 24-30.992 0-2.777-.354-5.472-1.019-8.041zm-22.981 32.789c10.448-3.374 18-13.186 18-24.748 0-.725-.03-1.443-.088-2.152-6.599-.59-12.718-2.868-17.912-6.398-5.195 3.529-11.313 5.808-17.913 6.398-.057.709-.087 1.427-.087 2.152 0 11.562 7.552 21.374 18 24.748z"
      fill="#cabffd" fill-rule="evenodd" />
  </g>
</svg>