<svg fill="none" viewBox="0 0 600 126" xmlns="http://www.w3.org/2000/svg">
  <path d="m0 0h600v126h-600z" fill="#fff" />
  <path d="m56 15h96v96h-96z" fill="#fff" />
  <path clip-rule="evenodd"
    d="m101.332 24.0194c1.519-1.3592 3.817-1.3592 5.335.0001 7.788 6.9697 18.061 11.203 29.333 11.203.761 0 1.518-.0193 2.269-.0574 1.896-.0961 3.599 1.1543 4.075 2.9926 1.082 4.1789 1.656 8.5578 1.656 13.065 0 24.2354-16.576 44.5892-39.003 50.3613-.654.169-1.34.169-1.994 0-22.4271-5.7721-39.003-26.1259-39.003-50.3613 0-4.5074.5744-8.8865 1.6561-13.0655.4759-1.8383 2.1786-3.0887 4.075-2.9925.7512.0381 1.5076.0574 2.2689.0574 11.2716 0 21.545-4.2332 29.332-11.2027zm-28.6062 19.1977c-.4764 2.5936-.7258 5.269-.7258 8.0056 0 20.1361 13.5297 37.122 32 42.3448 18.47-5.2228 32-22.2087 32-42.3448 0-2.7365-.249-5.4117-.726-8.0051-11.785-.1614-22.629-4.247-31.274-11.0048-8.6455 6.7575-19.4895 10.8429-31.2742 11.0043zm46.1022 9.1772c1.563 1.5621 1.563 4.0947 0 5.6568l-16 16c-1.562 1.5621-4.0943 1.5621-5.6564 0l-8-8c-1.5621-1.5621-1.5621-4.0947 0-5.6568s4.0947-1.5621 5.6568 0l5.1716 5.1715 13.172-13.1715c1.562-1.5621 4.094-1.5621 5.656 0z"
    fill="#5850ec" fill-rule="evenodd" />
  <path d="m252 15h96v96h-96z" fill="#fff" />
  <path clip-rule="evenodd"
    d="m297.332 23.7968c1.519-1.3593 3.817-1.3593 5.335 0 7.788 6.9698 18.061 11.2031 29.333 11.2031.761 0 1.518-.0193 2.269-.0574 1.896-.0962 3.599 1.1542 4.075 2.9925 1.082 4.1789 1.656 8.5578 1.656 13.065 0 24.2354-16.576 44.5892-39.003 50.362-.654.168-1.34.168-1.994 0-22.427-5.7728-39.003-26.1266-39.003-50.362 0-4.5073.574-8.8864 1.656-13.0655.476-1.8383 2.179-3.0887 4.075-2.9925.751.0381 1.508.0574 2.269.0574 11.272 0 21.545-4.2331 29.332-11.2026zm17.496 28.3748c1.563 1.5621 1.563 4.0948 0 5.6569l-16 16c-1.562 1.5621-4.094 1.5621-5.656 0l-8-8c-1.563-1.5621-1.563-4.0948 0-5.6569 1.562-1.5621 4.094-1.5621 5.656 0l5.172 5.1716 13.172-13.1716c1.562-1.5621 4.094-1.5621 5.656 0z"
    fill="#5850ec" fill-rule="evenodd" />
  <path d="m448 15h96v96h-96z" fill="#fff" />
  <g clip-rule="evenodd" fill-rule="evenodd">
    <path
      d="m493.332 24.0194c1.519-1.3592 3.817-1.3592 5.335.0001 7.788 6.9697 18.061 11.203 29.333 11.203.761 0 1.518-.0193 2.269-.0574 1.896-.0961 3.599 1.1543 4.075 2.9926 1.082 4.1789 1.656 8.5578 1.656 13.065 0 24.2354-16.576 44.5892-39.003 50.3613-.654.169-1.34.169-1.994 0-22.427-5.7721-39.003-26.1259-39.003-50.3613 0-4.5074.574-8.8865 1.656-13.0655.476-1.8383 2.179-3.0887 4.075-2.9925.751.0381 1.508.0574 2.269.0574 11.272 0 21.545-4.2332 29.332-11.2027z"
      fill="#cddbfe" />
    <path
      d="m510.828 52.3942c1.563 1.5621 1.563 4.0948 0 5.6569l-16 16c-1.562 1.5621-4.094 1.5621-5.656 0l-8-8c-1.563-1.5621-1.563-4.0948 0-5.6569 1.562-1.5621 4.094-1.5621 5.656 0l5.172 5.1716 13.172-13.1716c1.562-1.5621 4.094-1.5621 5.656 0z"
      fill="#5850ec" />
  </g>
</svg>