<svg xmlns="http://www.w3.org/2000/svg" width="144" height="48" fill="none" viewBox="0 0 144 48"><rect width="144" height="48" fill="#fff"/><path fill="url(#paint0_linear)" fill-rule="evenodd" d="M108 24C108 23.4477 108.448 23 109 23L124.586 23L122.293 20.7071C121.902 20.3166 121.902 19.6834 122.293 19.2929C122.683 18.9024 123.317 18.9024 123.707 19.2929L127.707 23.2929C128.098 23.6834 128.098 24.3166 127.707 24.7071L123.707 28.7071C123.317 29.0976 122.683 29.0976 122.293 28.7071C121.902 28.3166 121.902 27.6834 122.293 27.2929L124.586 25L109 25C108.448 25 108 24.5523 108 24Z" clip-rule="evenodd"/><path fill="url(#paint1_linear)" fill-rule="evenodd" d="M36 24C36 24.5523 35.5523 25 35 25L19.4142 25L21.7071 27.2929C22.0976 27.6834 22.0976 28.3166 21.7071 28.7071C21.3166 29.0976 20.6834 29.0976 20.2929 28.7071L16.2929 24.7071C15.9024 24.3166 15.9024 23.6834 16.2929 23.2929L20.2929 19.2929C20.6834 18.9024 21.3166 18.9024 21.7071 19.2929C22.0976 19.6834 22.0976 20.3166 21.7071 20.7071L19.4142 23L35 23C35.5523 23 36 23.4477 36 24Z" clip-rule="evenodd"/><path fill="#A5F3FC" fill-rule="evenodd" d="M48 0C45.7909 0 44 1.79086 44 4V44C44 46.2091 45.7909 48 48 48H96C98.2091 48 100 46.2091 100 44V4C100 1.79086 98.2091 0 96 0H48ZM49 7C50.1046 7 51 6.10457 51 5C51 3.89543 50.1046 3 49 3C47.8954 3 47 3.89543 47 5C47 6.10457 47.8954 7 49 7ZM57 5C57 6.10457 56.1046 7 55 7C53.8954 7 53 6.10457 53 5C53 3.89543 53.8954 3 55 3C56.1046 3 57 3.89543 57 5ZM61 7C62.1046 7 63 6.10457 63 5C63 3.89543 62.1046 3 61 3C59.8954 3 59 3.89543 59 5C59 6.10457 59.8954 7 61 7Z" clip-rule="evenodd"/><defs><linearGradient id="paint0_linear" x1="105" x2="127" y1="24" y2="24" gradientUnits="userSpaceOnUse"><stop stop-color="#A5F3FC"/><stop offset="1" stop-color="#22D3EE"/></linearGradient><linearGradient id="paint1_linear" x1="39" x2="17" y1="24" y2="24" gradientUnits="userSpaceOnUse"><stop stop-color="#A5F3FC"/><stop offset="1" stop-color="#22D3EE"/></linearGradient></defs></svg>