<svg xmlns="http://www.w3.org/2000/svg" width="144" height="48" fill="none" viewBox="0 0 144 48"><rect width="144" height="48" fill="#fff"/><path fill="#A5F3FC" fill-rule="evenodd" d="M63.5586 48L92.0006 48C94.2097 48 96.0006 46.2091 96.0006 44V34C96.0006 31.7909 94.2097 30 92.0006 30H81.5586L63.5586 48Z" clip-rule="evenodd"/><path fill="#A5F3FC" fill-rule="evenodd" d="M67.8984 40.4979L87.8405 20.5557C89.4026 18.9936 89.4026 16.461 87.8405 14.8989L80.7695 7.82782C79.2074 6.26573 76.6747 6.26573 75.1126 7.82782L67.9996 14.9408V38.9994C67.9996 39.5077 67.9652 40.0079 67.8984 40.4979Z" clip-rule="evenodd"/><path fill="#22D3EE" fill-rule="evenodd" d="M52 0C49.7909 0 48 1.79086 48 4V39C48 43.9706 52.0294 48 57 48C61.9706 48 66 43.9706 66 39V4C66 1.79086 64.2091 0 62 0H52ZM57 42C58.6569 42 60 40.6569 60 39C60 37.3431 58.6569 36 57 36C55.3431 36 54 37.3431 54 39C54 40.6569 55.3431 42 57 42Z" clip-rule="evenodd"/></svg>