<svg xmlns="http://www.w3.org/2000/svg" width="144" height="48" fill="none" viewBox="0 0 144 48"><rect width="144" height="48" fill="#fff"/><path fill="#A5F3FC" fill-rule="evenodd" d="M62 12C55.3726 12 50 17.3726 50 24C50 30.6274 55.3726 36 62 36H82C88.6274 36 94 30.6274 94 24C94 17.3726 88.6274 12 82 12H62ZM82 34C87.5228 34 92 29.5228 92 24C92 18.4772 87.5228 14 82 14C76.4772 14 72 18.4772 72 24C72 29.5228 76.4772 34 82 34Z" clip-rule="evenodd"/><rect width="24" height="24" fill="#fff" transform="translate(18 12)"/><path fill="#22D3EE" fill-rule="evenodd" d="M30 14C30.5523 14 31 14.4477 31 15V16C31 16.5523 30.5523 17 30 17C29.4477 17 29 16.5523 29 16V15C29 14.4477 29.4477 14 30 14ZM22.9289 16.9289C23.3195 16.5384 23.9526 16.5384 24.3431 16.9289L25.0503 17.636C25.4408 18.0266 25.4408 18.6597 25.0503 19.0503C24.6597 19.4408 24.0266 19.4408 23.636 19.0503L22.9289 18.3431C22.5384 17.9526 22.5384 17.3195 22.9289 16.9289ZM37.0711 16.929C37.4616 17.3195 37.4616 17.9527 37.0711 18.3432L36.364 19.0503C35.9735 19.4408 35.3403 19.4408 34.9498 19.0503C34.5593 18.6598 34.5593 18.0266 34.9498 17.6361L35.6569 16.929C36.0474 16.5385 36.6806 16.5385 37.0711 16.929ZM25 24C25 21.2386 27.2386 19 30 19C32.7614 19 35 21.2386 35 24C35 26.7614 32.7614 29 30 29C27.2386 29 25 26.7614 25 24ZM20 24C20 23.4477 20.4477 23 21 23H22C22.5523 23 23 23.4477 23 24C23 24.5523 22.5523 25 22 25H21C20.4477 25 20 24.5523 20 24ZM37 24C37 23.4477 37.4477 23 38 23H39C39.5523 23 40 23.4477 40 24C40 24.5523 39.5523 25 39 25H38C37.4477 25 37 24.5523 37 24ZM34.9497 28.9497C35.3403 28.5592 35.9734 28.5592 36.364 28.9497L37.0711 29.6569C37.4616 30.0474 37.4616 30.6805 37.0711 31.0711C36.6805 31.4616 36.0474 31.4616 35.6569 31.0711L34.9497 30.364C34.5592 29.9734 34.5592 29.3403 34.9497 28.9497ZM23.6361 28.9498C24.0266 28.5593 24.6598 28.5593 25.0503 28.9498C25.4408 29.3403 25.4408 29.9735 25.0503 30.364L24.3432 31.0711C23.9527 31.4616 23.3195 31.4616 22.929 31.0711C22.5385 30.6806 22.5385 30.0474 22.929 29.6569L23.6361 28.9498ZM30 31C30.5523 31 31 31.4477 31 32V33C31 33.5523 30.5523 34 30 34C29.4477 34 29 33.5523 29 33V32C29 31.4477 29.4477 31 30 31Z" clip-rule="evenodd"/><rect width="24" height="24" fill="#fff" transform="translate(102 12)"/><path fill="#22D3EE" d="M111.353 14.9394C111.636 15.2227 111.723 15.6477 111.574 16.0194C111.204 16.9394 111 17.945 111 19.0007C111 23.419 114.582 27.0007 119 27.0007C120.056 27.0007 121.061 26.7967 121.981 26.427C122.353 26.2776 122.778 26.3645 123.061 26.6478C123.345 26.9311 123.431 27.3561 123.282 27.7278C121.805 31.403 118.207 34.0007 114 34.0007C108.477 34.0007 104 29.5236 104 24.0007C104 19.7936 106.598 16.1956 110.273 14.7186C110.645 14.5693 111.07 14.6561 111.353 14.9394Z"/></svg>