<svg xmlns="http://www.w3.org/2000/svg" width="144" height="48" fill="none" viewBox="0 0 144 48"><rect width="144" height="48" fill="#fff"/><path fill="#22D3EE" d="M71.2929 26.2929C71.5784 26.0075 72.0075 25.9216 72.3808 26.0754L89.3808 33.0754C89.7531 33.2287 89.9971 33.5903 90 33.9929C90.0029 34.3955 89.764 34.7606 89.3939 34.9192L84.7415 36.9131L90.4143 42.5859C90.8048 42.9764 90.8048 43.6096 90.4143 44.0001L89.0001 45.4143C88.6096 45.8048 87.9764 45.8048 87.5859 45.4143L81.9131 39.7415L79.9192 44.3939C79.7606 44.764 79.3955 45.0029 78.9929 45C78.5903 44.9971 78.2287 44.7531 78.0754 44.3808L71.0754 27.3808C70.9216 27.0075 71.0075 26.5784 71.2929 26.2929Z"/><path fill="#22D3EE" d="M46 16C43.7909 16 42 17.7909 42 20V32C42 34.2091 43.7909 36 46 36H72.4616L69.2261 28.1423C68.7649 27.0225 69.0224 25.7351 69.8788 24.8788C70.7351 24.0224 72.0225 23.7649 73.1423 24.2261L90.1423 31.2261C91.2592 31.686 91.9914 32.7708 92 33.9787C92.0054 34.7393 91.7233 35.4553 91.2363 36H98C100.209 36 102 34.2091 102 32V20C102 17.7909 100.209 16 98 16H46Z"/><path fill="#A5F3FC" d="M54 8C51.7909 8 50 9.79086 50 12V14H94V12C94 9.79086 92.2091 8 90 8H54Z"/><path fill="#A5F3FC" d="M62 2C59.7909 2 58 3.79086 58 6L86 6C86 3.79086 84.2091 2 82 2H62Z"/></svg>