<svg xmlns="http://www.w3.org/2000/svg" width="144" height="48" fill="none" viewBox="0 0 144 48"><rect width="144" height="48" fill="#fff"/><path fill="#A5F3FC" d="M46 11C43.7909 11 42 12.7909 42 15V27C42 29.2091 43.7909 31 46 31H72.638L70.2261 25.1423C69.7649 24.0225 70.0224 22.7351 70.8788 21.8788C71.7351 21.0224 73.0225 20.7649 74.1423 21.2261L91.1423 28.2261C92.2592 28.686 92.9914 29.7708 93 30.9787C93.0001 30.9858 93.0001 30.9929 93.0001 31H98C100.209 31 102 29.2091 102 27V15C102 12.7909 100.209 11 98 11H46Z"/><path fill="#22D3EE" d="M72.2929 23.2929C72.5784 23.0075 73.0075 22.9216 73.3808 23.0754L90.3808 30.0754C90.7531 30.2287 90.9971 30.5903 91 30.9929C91.0029 31.3955 90.764 31.7606 90.3939 31.9192L85.7415 33.9131L91.4143 39.5859C91.8048 39.9764 91.8048 40.6096 91.4143 41.0001L90.0001 42.4143C89.6096 42.8048 88.9764 42.8048 88.5859 42.4143L82.9131 36.7415L80.9192 41.3939C80.7606 41.764 80.3955 42.0029 79.9929 42C79.5903 41.9971 79.2287 41.7531 79.0754 41.3808L72.0754 24.3808C71.9216 24.0075 72.0075 23.5784 72.2929 23.2929Z"/><path fill="#22D3EE" d="M38 15C38 10.5817 41.5817 7 46 7H98C102.418 7 106 10.5817 106 15V27C106 31.4183 102.418 35 98 35H89.6569L89.2446 34.5878L91.1818 33.7575C91.5929 33.5814 91.95 33.3203 92.2363 33H98C101.314 33 104 30.3137 104 27V15C104 11.6863 101.314 9 98 9H46C42.6863 9 40 11.6863 40 15V27C40 30.3137 42.6863 33 46 33H73.4616L74.2851 35H46C41.5817 35 38 31.4183 38 27V15Z"/></svg>