<svg xmlns="http://www.w3.org/2000/svg" width="144" height="48" fill="none" viewBox="0 0 144 48"><rect width="144" height="48" fill="#fff"/><path fill="#A5F3FC" fill-rule="evenodd" d="M56 0C51.5817 0 48 3.58172 48 8V40C48 44.4183 51.5817 48 56 48H88C92.4183 48 96 44.4183 96 40V8C96 3.58172 92.4183 0 88 0H56ZM66 8C64.8954 8 64 8.89543 64 10V14C64 15.1046 64.8954 16 66 16H68C69.1046 16 70 15.1046 70 14V10C70 8.89543 69.1046 8 68 8H66ZM74 22C74 20.8954 74.8954 20 76 20H78C79.1046 20 80 20.8954 80 22V26C80 27.1046 79.1046 28 78 28H76C74.8954 28 74 27.1046 74 26V22ZM66 32C64.8954 32 64 32.8954 64 34V38C64 39.1046 64.8954 40 66 40H68C69.1046 40 70 39.1046 70 38V34C70 32.8954 69.1046 32 68 32H66Z" clip-rule="evenodd"/><path fill="#22D3EE" fill-rule="evenodd" d="M56 12C56 10.8954 56.8954 10 58 10H62C62.5523 10 63 10.4477 63 11V13C63 13.5523 62.5523 14 62 14H58C56.8954 14 56 13.1046 56 12ZM58 22C56.8954 22 56 22.8954 56 24C56 25.1046 56.8954 26 58 26H72C72.5523 26 73 25.5523 73 25V23C73 22.4477 72.5523 22 72 22H58ZM58 34C56.8954 34 56 34.8954 56 36C56 37.1046 56.8954 38 58 38H62C62.5523 38 63 37.5523 63 37V35C63 34.4477 62.5523 34 62 34H58ZM72 34C71.4477 34 71 34.4477 71 35V37C71 37.5523 71.4477 38 72 38H86C87.1046 38 88 37.1046 88 36C88 34.8954 87.1046 34 86 34H72ZM71 11C71 10.4477 71.4477 10 72 10H86C87.1046 10 88 10.8954 88 12C88 13.1046 87.1046 14 86 14H72C71.4477 14 71 13.5523 71 13V11ZM82 22C81.4477 22 81 22.4477 81 23V25C81 25.5523 81.4477 26 82 26H86C87.1046 26 88 25.1046 88 24C88 22.8954 87.1046 22 86 22H82Z" clip-rule="evenodd"/></svg>