<svg xmlns="http://www.w3.org/2000/svg" fill="none" viewBox="0 0 262 33"><g fill-rule="evenodd" clip-path="url(#prefix__clip0)" clip-rule="evenodd"><path fill="#06B6D4" d="M27 0c-7.2 0-11.7 3.6-13.5 10.8 2.7-3.6 5.85-4.95 9.45-4.05 2.054.513 3.522 2.004 5.147 3.653C30.744 13.09 33.808 16.2 40.5 16.2c7.2 0 11.7-3.6 13.5-10.8-2.7 3.6-5.85 4.95-9.45 4.05-2.054-.513-3.522-2.004-5.147-3.653C36.756 3.11 33.692 0 27 0zM13.5 16.2C6.3 16.2 1.8 19.8 0 27c2.7-3.6 5.85-4.95 9.45-4.05 2.054.514 3.522 2.004 5.147 3.653C17.244 29.29 20.308 32.4 27 32.4c7.2 0 11.7-3.6 13.5-10.8-2.7 3.6-5.85 4.95-9.45 4.05-2.054-.513-3.522-2.004-5.147-3.653C23.256 19.31 20.192 16.2 13.5 16.2z"/><path fill="#000" d="M80.996 13.652h-4.712v9.12c0 2.432 1.596 2.394 4.712 2.242V28.7c-6.308.76-8.816-.988-8.816-5.928v-9.12h-3.496V9.7h3.496V4.596l4.104-1.216V9.7h4.712v3.952zM98.958 9.7h4.104v19h-4.104v-2.736c-1.444 2.014-3.686 3.23-6.65 3.23-5.168 0-9.462-4.37-9.462-9.994 0-5.662 4.294-9.994 9.462-9.994 2.964 0 5.206 1.216 6.65 3.192V9.7zm-6.004 15.58c3.42 0 6.004-2.546 6.004-6.08 0-3.534-2.584-6.08-6.004-6.08-3.42 0-6.004 2.546-6.004 6.08 0 3.534 2.584 6.08 6.004 6.08zm16.948-18.43c-1.444 0-2.622-1.216-2.622-2.622a2.627 2.627 0 012.622-2.622 2.627 2.627 0 012.622 2.622c0 1.406-1.178 2.622-2.622 2.622zM107.85 28.7v-19h4.104v19h-4.104zm8.854 0V.96h4.104V28.7h-4.104zm30.742-19h4.332l-5.966 19h-4.028l-3.952-12.806-3.99 12.806h-4.028l-5.966-19h4.332l3.686 13.11 3.99-13.11h3.914l3.952 13.11 3.724-13.11zm9.424-2.85c-1.444 0-2.622-1.216-2.622-2.622a2.627 2.627 0 012.622-2.622 2.627 2.627 0 012.622 2.622c0 1.406-1.178 2.622-2.622 2.622zm-2.052 21.85v-19h4.104v19h-4.104zm18.848-19.494c4.256 0 7.296 2.888 7.296 7.828V28.7h-4.104V17.452c0-2.888-1.672-4.408-4.256-4.408-2.698 0-4.826 1.596-4.826 5.472V28.7h-4.104v-19h4.104v2.432c1.254-1.976 3.306-2.926 5.89-2.926zM200.418 2.1h4.104v26.6h-4.104v-2.736c-1.444 2.014-3.686 3.23-6.65 3.23-5.168 0-9.462-4.37-9.462-9.994 0-5.662 4.294-9.994 9.462-9.994 2.964 0 5.206 1.216 6.65 3.192V2.1zm-6.004 23.18c3.42 0 6.004-2.546 6.004-6.08 0-3.534-2.584-6.08-6.004-6.08-3.42 0-6.004 2.546-6.004 6.08 0 3.534 2.584 6.08 6.004 6.08zm23.864 3.914c-5.738 0-10.032-4.37-10.032-9.994 0-5.662 4.294-9.994 10.032-9.994 3.724 0 6.954 1.938 8.474 4.902l-3.534 2.052c-.836-1.786-2.698-2.926-4.978-2.926-3.344 0-5.89 2.546-5.89 5.966 0 3.42 2.546 5.966 5.89 5.966 2.28 0 4.142-1.178 5.054-2.926l3.534 2.014c-1.596 3.002-4.826 4.94-8.55 4.94zm15.314-14.25c0 3.458 10.222 1.368 10.222 8.398 0 3.8-3.306 5.852-7.41 5.852-3.8 0-6.536-1.71-7.752-4.446l3.534-2.052c.608 1.71 2.128 2.736 4.218 2.736 1.824 0 3.23-.608 3.23-2.128 0-3.382-10.222-1.482-10.222-8.284 0-3.572 3.078-5.814 6.954-5.814 3.116 0 5.7 1.444 7.03 3.952l-3.458 1.938c-.684-1.482-2.014-2.166-3.572-2.166-1.482 0-2.774.646-2.774 2.014zm17.518 0c0 3.458 10.222 1.368 10.222 8.398 0 3.8-3.306 5.852-7.41 5.852-3.8 0-6.536-1.71-7.752-4.446l3.534-2.052c.608 1.71 2.128 2.736 4.218 2.736 1.824 0 3.23-.608 3.23-2.128 0-3.382-10.222-1.482-10.222-8.284 0-3.572 3.078-5.814 6.954-5.814 3.116 0 5.7 1.444 7.03 3.952l-3.458 1.938c-.684-1.482-2.014-2.166-3.572-2.166-1.482 0-2.774.646-2.774 2.014z"/></g><defs><clipPath id="prefix__clip0"><path fill="#fff" d="M0 0h262v32.4H0z"/></clipPath></defs></svg>