<svg xmlns="http://www.w3.org/2000/svg" fill="none" viewBox="0 0 600 300">
  <path fill="#000" d="M0 0h600v300H0z" />
  <path fill="#fff"
    d="M202.464 137.075c-4.619 0-8.286 1.688-10.527 5.198v-17.824h-7.335v47.262h7.335v-18.095c0-6.886 3.803-9.722 8.625-9.722 4.618 0 7.607 2.701 7.607 7.832v19.985h7.335v-20.728c0-8.777-5.434-13.908-13.04-13.908zM227.477 157.937h27.03c.136-.945.272-2.025.272-3.038 0-9.722-6.927-17.824-17.047-17.824-10.663 0-17.93 7.764-17.93 17.757 0 10.127 7.267 17.757 18.473 17.757 6.656 0 11.75-2.769 14.874-7.36l-6.044-3.511c-1.63 2.363-4.687 4.186-8.762 4.186-5.433 0-9.712-2.7-10.866-7.967zm-.068-5.941c1.018-5.064 4.754-8.305 10.255-8.305 4.415 0 8.693 2.498 9.712 8.305h-19.967zM286.231 137.952v4.794c-2.58-3.511-6.588-5.671-11.885-5.671-9.237 0-16.911 7.697-16.911 17.757 0 9.992 7.674 17.757 16.911 17.757 5.297 0 9.305-2.161 11.885-5.739v4.861h7.335v-33.759h-7.335zm-10.73 27.682c-6.113 0-10.731-4.523-10.731-10.802s4.618-10.803 10.731-10.803c6.112 0 10.73 4.524 10.73 10.803 0 6.279-4.618 10.802-10.73 10.802zM327.313 124.449v18.297c-2.581-3.511-6.588-5.671-11.885-5.671-9.237 0-16.912 7.697-16.912 17.757 0 9.992 7.675 17.757 16.912 17.757 5.297 0 9.304-2.161 11.885-5.739v4.861h7.335v-47.262h-7.335zm-10.731 41.185c-6.112 0-10.731-4.523-10.731-10.802s4.619-10.803 10.731-10.803c6.113 0 10.731 4.524 10.731 10.803 0 6.279-4.618 10.802-10.731 10.802zM341.5 171.711h7.335v-49.288H341.5v49.288zM361.426 157.937h27.031c.136-.945.272-2.025.272-3.038 0-9.722-6.928-17.824-17.047-17.824-10.663 0-17.93 7.764-17.93 17.757 0 10.127 7.267 17.757 18.473 17.757 6.656 0 11.75-2.769 14.874-7.36l-6.045-3.511c-1.63 2.363-4.686 4.186-8.761 4.186-5.433 0-9.712-2.7-10.867-7.967zm-.068-5.941c1.019-5.064 4.755-8.305 10.256-8.305 4.414 0 8.693 2.498 9.712 8.305h-19.968zM398.747 147.27c0-2.431 2.309-3.579 4.957-3.579 2.785 0 5.162 1.216 6.385 3.849l6.18-3.444c-2.377-4.456-6.995-7.021-12.565-7.021-6.927 0-12.428 3.983-12.428 10.33 0 12.085 18.269 8.709 18.269 14.718 0 2.701-2.513 3.781-5.773 3.781-3.735 0-6.452-1.823-7.538-4.861l-6.317 3.646c2.174 4.861 7.064 7.9 13.855 7.9 7.335 0 13.244-3.646 13.244-10.398 0-12.491-18.269-8.777-18.269-14.921zM426.298 147.27c0-2.431 2.309-3.579 4.958-3.579 2.784 0 5.161 1.216 6.384 3.849l6.18-3.444c-2.377-4.456-6.995-7.021-12.564-7.021-6.928 0-12.429 3.983-12.429 10.33 0 12.085 18.27 8.709 18.27 14.718 0 2.701-2.513 3.781-5.773 3.781-3.736 0-6.452-1.823-7.539-4.861l-6.316 3.646c2.173 4.861 7.063 7.9 13.855 7.9 7.335 0 13.243-3.646 13.243-10.398 0-12.491-18.269-8.777-18.269-14.921zM482.242 163.923c5.089 0 8.856-3.022 8.856-7.983v-15.474h-4.56v15.112c0 2.234-1.19 3.91-4.296 3.91-3.107 0-4.297-1.676-4.297-3.91v-15.112h-4.527v15.474c0 4.961 3.767 7.983 8.824 7.983zM495.868 140.466v22.997h4.56v-22.997h-4.56z" />
  <path fill="#fff" fill-rule="evenodd"
    d="M498.617 129.436h-23.605c-5.215 0-9.442 4.202-9.442 9.386v23.467c0 5.184 4.227 9.386 9.442 9.386h23.605c5.215 0 9.443-4.202 9.443-9.386v-23.467c0-5.184-4.228-9.386-9.443-9.386zm-23.605-4.694c-7.822 0-14.163 6.304-14.163 14.08v23.467c0 7.776 6.341 14.08 14.163 14.08h23.605c7.822 0 14.164-6.304 14.164-14.08v-23.467c0-7.776-6.342-14.08-14.164-14.08h-23.605z"
    clip-rule="evenodd" />
  <path fill="#fff" fill-rule="evenodd"
    d="M475.012 129.436h23.605c5.215 0 9.443 4.202 9.443 9.386v23.467c0 5.184-4.228 9.386-9.443 9.386h-23.605c-5.215 0-9.442-4.202-9.442-9.386v-23.467c0-5.184 4.227-9.386 9.442-9.386zm-14.163 9.386c0-7.776 6.341-14.08 14.163-14.08h23.605c7.822 0 14.164 6.304 14.164 14.08v23.467c0 7.776-6.342 14.08-14.164 14.08h-23.605c-7.822 0-14.163-6.304-14.163-14.08v-23.467z"
    clip-rule="evenodd" />
  <path fill="url(#prefix__paint0_linear)"
    d="M101.74 158.983l45.422-15.076c-.905-5.64-1.551-9.412-2.302-12.288-.807-3.093-1.448-3.922-1.7-4.209a8.857 8.857 0 00-3.189-2.304c-.353-.15-1.344-.5-4.553-.307-3.39.204-7.846.892-14.898 2.003-7.052 1.11-11.503 1.824-14.791 2.672-3.111.802-3.945 1.439-4.234 1.69a8.804 8.804 0 00-2.317 3.171c-.151.35-.503 1.336-.31 4.525.206 3.371.898 7.8 2.015 14.811.313 1.963.595 3.723.857 5.312z" />
  <path fill="url(#prefix__paint1_linear)" fill-rule="evenodd"
    d="M89.217 155.508c-2.16-13.563-3.241-20.345-.9-25.788a20.552 20.552 0 015.407-7.399c4.484-3.895 11.306-4.969 24.949-7.117 13.642-2.148 20.464-3.222 25.94-.895a20.66 20.66 0 017.442 5.375c3.918 4.458 4.998 11.24 7.159 24.802 2.161 13.563 3.242 20.344.901 25.788a20.55 20.55 0 01-5.407 7.398c-4.485 3.895-11.306 4.969-24.949 7.118-13.643 2.148-20.464 3.222-25.94.895a20.666 20.666 0 01-7.443-5.375c-3.918-4.458-4.998-11.24-7.159-24.802zm24.064 24.082c3.655-.22 8.357-.952 15.323-2.049 6.966-1.097 11.666-1.845 15.211-2.759 3.433-.885 5.015-1.749 6.036-2.636a13.232 13.232 0 003.476-4.756c.533-1.24.871-3.002.657-6.522-.221-3.634-.958-8.309-2.061-15.234-1.103-6.924-1.856-11.597-2.775-15.121-.891-3.413-1.76-4.985-2.652-6a13.285 13.285 0 00-4.785-3.456c-1.247-.53-3.019-.866-6.56-.653-3.655.22-8.358.952-15.324 2.049-6.965 1.096-11.666 1.845-15.21 2.759-3.434.885-5.015 1.749-6.036 2.636a13.212 13.212 0 00-3.476 4.756c-.533 1.24-.871 3.002-.657 6.522.22 3.633.957 8.309 2.06 15.233 1.104 6.925 1.857 11.598 2.776 15.121.89 3.414 1.76 4.986 2.652 6.001a13.281 13.281 0 004.784 3.456c1.247.53 3.02.866 6.561.653z"
    clip-rule="evenodd" />
  <defs>
    <linearGradient id="prefix__paint0_linear" x1="116.156" x2="127.833" y1="113" y2="186.41"
      gradientUnits="userSpaceOnUse">
      <stop stop-color="#66E3FF" />
      <stop offset="1" stop-color="#7064F9" />
    </linearGradient>
    <linearGradient id="prefix__paint1_linear" x1="116.156" x2="127.833" y1="113" y2="186.41"
      gradientUnits="userSpaceOnUse">
      <stop stop-color="#66E3FF" />
      <stop offset="1" stop-color="#7064F9" />
    </linearGradient>
  </defs>
</svg>