<?xml version="1.0" standalone="no"?>
<!DOCTYPE svg PUBLIC "-//W3C//DTD SVG 20010904//EN"
 "http://www.w3.org/TR/2001/REC-SVG-20010904/DTD/svg10.dtd">
<svg version="1.0" xmlns="http://www.w3.org/2000/svg"
 width="864.000000pt" height="864.000000pt" viewBox="0 0 864.000000 864.000000"
 preserveAspectRatio="xMidYMid meet">
<metadata>
Created by potrace 1.14, written by Peter Selinger 2001-2017
</metadata>
<g transform="translate(0.000000,864.000000) scale(0.100000,-0.100000)"
fill="#000000" stroke="none">
<path d="M4098 6955 c-2 -2 -37 -6 -78 -10 -102 -9 -131 -13 -160 -20 -14 -3
-39 -7 -55 -9 -25 -4 -105 -21 -185 -41 -84 -21 -259 -82 -302 -106 -10 -5
-24 -9 -32 -9 -8 0 -16 -3 -18 -7 -1 -5 -37 -25 -78 -47 -79 -41 -214 -128
-265 -171 -16 -14 -41 -35 -55 -46 -49 -41 -146 -137 -192 -191 -52 -60 -148
-186 -148 -194 0 -3 -11 -20 -25 -38 -14 -18 -25 -37 -25 -41 0 -5 -6 -16 -14
-24 -19 -21 -156 -296 -156 -313 0 -8 -4 -18 -9 -23 -11 -13 -94 -257 -120
-355 l-20 -75 20 25 c96 119 106 130 188 215 71 73 84 84 166 150 28 22 52 42
55 45 11 12 138 90 192 118 83 44 211 90 298 107 8 2 26 6 40 9 100 23 310 23
435 1 22 -4 47 -9 55 -10 117 -21 287 -92 397 -166 115 -78 249 -195 457 -402
290 -288 389 -382 476 -447 19 -14 45 -34 59 -46 14 -12 67 -48 116 -80 123
-80 124 -81 175 -107 25 -12 47 -25 48 -29 2 -5 7 -8 12 -8 4 0 41 -15 82 -34
122 -57 367 -136 471 -151 23 -4 45 -9 48 -11 4 -2 31 -7 61 -10 29 -3 56 -7
59 -9 3 -2 41 -7 85 -10 43 -4 95 -9 114 -11 43 -4 357 -5 425 0 59 4 172 17
200 22 11 2 38 6 60 9 22 3 51 7 65 10 14 4 36 8 50 11 14 3 34 8 45 11 11 4
27 7 35 8 63 7 331 106 420 155 30 16 66 35 80 42 33 16 188 120 220 147 14
12 36 31 50 42 324 275 563 679 700 1187 6 24 14 51 17 59 7 19 -29 -14 -43
-40 -5 -8 -34 -44 -65 -79 -294 -331 -553 -486 -914 -544 -72 -12 -278 -6
-365 10 -127 23 -143 26 -154 34 -6 3 -20 8 -31 9 -23 3 -34 8 -130 54 -87 41
-161 87 -245 153 -97 75 -116 93 -339 313 -295 293 -417 406 -522 486 -205
155 -419 274 -614 342 -27 9 -57 20 -65 23 -39 14 -212 60 -251 66 -19 3 -45
8 -59 11 -43 9 -104 18 -220 32 -44 6 -517 13 -522 8z"/>
<path d="M1968 4365 c-2 -2 -39 -6 -83 -9 -44 -4 -107 -11 -140 -16 -33 -5
-78 -11 -100 -15 -22 -3 -58 -11 -80 -17 -22 -6 -49 -12 -60 -13 -11 -1 -20
-3 -20 -4 0 -2 -11 -5 -25 -8 -30 -6 -41 -8 -60 -15 -8 -3 -51 -18 -95 -33
-88 -30 -132 -49 -247 -105 -79 -39 -220 -128 -226 -142 -2 -4 -8 -8 -13 -8
-19 0 -94 -65 -209 -181 -142 -142 -195 -211 -293 -372 -48 -79 -118 -211
-118 -224 -1 -5 -6 -14 -12 -22 -6 -7 -17 -27 -23 -45 -28 -75 -87 -233 -94
-251 -5 -11 -11 -29 -13 -40 -3 -11 -17 -60 -31 -110 -28 -100 -29 -100 49 1
40 52 238 251 295 295 67 53 189 133 240 158 25 12 52 26 60 30 21 12 92 40
110 43 8 2 17 5 20 8 7 8 155 42 210 49 60 8 305 7 355 -1 216 -36 379 -103
545 -225 110 -81 182 -147 445 -408 230 -229 296 -292 371 -352 126 -102 154
-123 163 -123 5 0 14 -6 18 -13 7 -11 60 -46 183 -122 19 -11 78 -42 130 -67
80 -38 136 -61 320 -126 8 -3 22 -6 31 -8 8 -2 42 -11 75 -19 32 -9 70 -18 84
-21 14 -2 48 -9 75 -14 28 -5 70 -12 95 -15 25 -3 56 -8 70 -10 98 -16 405
-22 565 -11 132 9 171 14 280 32 51 8 179 36 195 42 8 3 20 6 25 7 6 1 12 3
15 4 3 2 12 4 20 6 119 27 352 130 489 215 199 125 452 373 547 538 10 17 22
32 26 32 4 0 8 4 8 10 0 5 15 33 34 63 28 43 75 137 156 312 11 23 61 155 65
170 1 6 5 17 8 25 6 16 46 146 52 170 2 8 9 30 14 49 l11 34 -28 -29 c-15 -16
-46 -51 -67 -79 -62 -77 -276 -285 -294 -285 -5 0 -11 -4 -13 -9 -4 -10 -137
-99 -193 -129 -94 -50 -234 -105 -303 -118 -163 -31 -311 -37 -450 -18 -49 7
-100 15 -111 19 -11 3 -33 8 -48 11 -86 15 -241 84 -346 156 -143 97 -166 117
-462 410 -132 130 -265 260 -295 288 -74 69 -251 211 -325 260 -33 22 -64 43
-70 48 -48 37 -337 182 -341 170 0 -2 -7 2 -15 8 -19 16 -220 80 -322 103 -93
21 -188 38 -262 46 -27 3 -68 8 -90 11 -41 5 -472 13 -477 9z"/>
</g>
</svg>
