<svg viewBox="0 0 24 26" fill="#838CF1" xmlns="http://www.w3.org/2000/svg">
  <path
    d="M9.434 10C8.632 10 8 10.675 8 11.5S8.646 13 9.434 13c.801 0 1.434-.675 1.434-1.5.014-.825-.633-1.5-1.434-1.5Zm5.132 0c-.801 0-1.434.675-1.434 1.5s.646 1.5 1.434 1.5c.802 0 1.434-.675 1.434-1.5s-.632-1.5-1.434-1.5Z" />
  <path
    d="M21.188 0H2.812c-.37 0-.737.07-1.078.206a2.832 2.832 0 0 0-.913.58 2.666 2.666 0 0 0-.609.869A2.55 2.55 0 0 0 0 2.677v17.577c0 .351.071.698.212 1.023.141.324.348.62.609.868s.571.446.913.58c.341.136.708.206 1.078.206h15.55l-.726-2.404 1.756 1.547 1.659 1.456L24 26V2.678c0-.35-.071-.698-.212-1.022a2.667 2.667 0 0 0-.609-.868 2.833 2.833 0 0 0-.913-.581A2.953 2.953 0 0 0 21.188 0V0Zm-5.294 16.978s-.493-.559-.905-1.053c1.797-.481 2.482-1.547 2.482-1.547a7.997 7.997 0 0 1-1.577.766 9.396 9.396 0 0 1-1.988.56c-1.175.205-2.38.2-3.552-.013a11.992 11.992 0 0 1-2.016-.559 8.246 8.246 0 0 1-1-.442c-.043-.026-.083-.04-.124-.065-.028-.013-.042-.026-.055-.039-.247-.13-.384-.221-.384-.221s.659 1.04 2.4 1.534c-.412.494-.92 1.079-.92 1.079-3.03-.09-4.181-1.976-4.181-1.976 0-4.186 1.974-7.58 1.974-7.58C8.023 6.02 9.9 6.059 9.9 6.059l.138.157C7.57 6.89 6.432 7.917 6.432 7.917s.301-.156.809-.377c1.467-.61 2.633-.78 3.113-.819.083-.013.15-.026.234-.026a11.704 11.704 0 0 1 6.898 1.223s-1.085-.976-3.416-1.653l.193-.207s1.88-.04 3.853 1.365c0 0 1.975 3.394 1.975 7.579 0 0-1.166 1.885-4.197 1.976Z" />
</svg>
