<svg xmlns="http://www.w3.org/2000/svg" width="48" height="48" fill="none"><mask id="a" width="47" height="42" x=".5" y="2.937" fill="#000" maskUnits="userSpaceOnUse"><path fill="#fff" d="M.5 2.937h47v42H.5z"/><path d="M38.5 16.942c-.48-.163-.963-.316-1.45-.457.082-.328.156-.658.224-.99 1.097-5.334.38-9.632-2.068-11.047-2.344-1.357-6.188.058-10.065 3.44-.381.334-.755.678-1.12 1.031a21.79 21.79 0 00-.75-.69c-4.064-3.617-8.138-5.14-10.583-3.72-2.344 1.36-3.04 5.4-2.053 10.455.099.5.21.998.333 1.494-.577.164-1.134.34-1.666.525C4.543 18.647 1.5 21.256 1.5 23.962c0 2.795 3.266 5.598 8.228 7.298.403.137.81.264 1.22.382-.134.53-.252 1.067-.354 1.61-.938 4.968-.207 8.912 2.133 10.264 2.415 1.396 6.468-.038 10.419-3.498.312-.274.625-.563.937-.867.395.382.802.752 1.22 1.112 3.824 3.298 7.601 4.63 9.937 3.275 2.414-1.401 3.198-5.639 2.18-10.794a26.11 26.11 0 00-.27-1.206c.284-.084.563-.171.837-.261 5.156-1.713 8.515-4.482 8.515-7.313-.002-2.718-3.143-5.344-8.003-7.021zm-12.094-7.6c3.321-2.899 6.426-4.042 7.842-3.225 1.506.871 2.092 4.383 1.145 8.989-.062.3-.13.599-.202.897a45.725 45.725 0 00-6.017-.952 45.119 45.119 0 00-3.803-4.758c.336-.326.68-.644 1.033-.952h.002zM14.787 26.272a56.755 56.755 0 002.689 4.65 40.785 40.785 0 01-4.147-.668 43.216 43.216 0 011.458-3.982zm0-4.53a41.669 41.669 0 01-1.43-3.903 43.199 43.199 0 014.08-.702 55.735 55.735 0 00-1.38 2.272 59.123 59.123 0 00-1.273 2.332h.003zm1.022 2.265a54.746 54.746 0 014.096-7.116 54.418 54.418 0 018.203 0 58.437 58.437 0 012.169 3.47 65.07 65.07 0 011.94 3.618 58.812 58.812 0 01-1.936 3.65 63.98 63.98 0 01-2.156 3.492 59.093 59.093 0 01-4.125.145c-1.406 0-2.763-.044-4.074-.129a54.533 54.533 0 01-4.12-7.13h.003zm16.136 4.586c.453-.787.888-1.583 1.305-2.39a41.277 41.277 0 011.512 3.968 40.733 40.733 0 01-4.2.717c.477-.756.938-1.52 1.383-2.295zm1.287-6.85a62.79 62.79 0 00-1.295-2.344 56.29 56.29 0 00-1.368-2.256c1.435.182 2.813.424 4.104.72a41.272 41.272 0 01-1.441 3.88zm-9.21-10.074a41.24 41.24 0 012.648 3.204 55.908 55.908 0 00-5.32 0 42.251 42.251 0 012.672-3.204zM13.656 6.174c1.505-.873 4.834.375 8.343 3.494.224.2.45.41.675.626a46.076 46.076 0 00-3.83 4.754 46.8 46.8 0 00-6.006.937c-.114-.46-.217-.923-.31-1.39-.848-4.333-.286-7.6 1.128-8.42zM11.46 29.785a22.496 22.496 0 01-1.111-.348c-2.194-.75-4.006-1.728-5.25-2.794-1.114-.956-1.678-1.909-1.678-2.681 0-1.642 2.443-3.736 6.517-5.157a27.63 27.63 0 011.55-.488 46.264 46.264 0 002.193 5.695 47.12 47.12 0 00-2.221 5.773zm10.418 8.782c-1.746 1.53-3.496 2.615-5.038 3.161-1.385.49-2.489.505-3.155.12-1.42-.821-2.01-3.989-1.205-8.238.096-.5.205-1 .328-1.5 2 .431 4.025.725 6.065.88a46.989 46.989 0 003.862 4.782c-.28.275-.565.539-.857.795zm2.196-2.177a43.112 43.112 0 01-2.707-3.248c.861.034 1.739.051 2.632.051.917 0 1.824-.02 2.719-.06a41.2 41.2 0 01-2.644 3.257zm11.674 2.68c-.268 1.448-.807 2.413-1.474 2.8-1.418.823-4.451-.247-7.721-3.068a30.75 30.75 0 01-1.132-1.031 45.427 45.427 0 003.772-4.8 44.786 44.786 0 006.094-.942c.091.371.173.735.243 1.091.451 2.278.516 4.339.218 5.95zm1.631-9.622c-.246.081-.499.16-.756.237a45.31 45.31 0 00-2.279-5.713 45.14 45.14 0 002.19-5.63c.46.133.908.274 1.338.423 4.165 1.436 6.705 3.563 6.705 5.197 0 1.743-2.744 4.006-7.198 5.486z"/></mask><path fill="#A1A1AA" d="M38.5 16.942c-.48-.163-.963-.316-1.45-.457.082-.328.156-.658.224-.99 1.097-5.334.38-9.632-2.068-11.047-2.344-1.357-6.188.058-10.065 3.44-.381.334-.755.678-1.12 1.031a21.79 21.79 0 00-.75-.69c-4.064-3.617-8.138-5.14-10.583-3.72-2.344 1.36-3.04 5.4-2.053 10.455.099.5.21.998.333 1.494-.577.164-1.134.34-1.666.525C4.543 18.647 1.5 21.256 1.5 23.962c0 2.795 3.266 5.598 8.228 7.298.403.137.81.264 1.22.382-.134.53-.252 1.067-.354 1.61-.938 4.968-.207 8.912 2.133 10.264 2.415 1.396 6.468-.038 10.419-3.498.312-.274.625-.563.937-.867.395.382.802.752 1.22 1.112 3.824 3.298 7.601 4.63 9.937 3.275 2.414-1.401 3.198-5.639 2.18-10.794a26.11 26.11 0 00-.27-1.206c.284-.084.563-.171.837-.261 5.156-1.713 8.515-4.482 8.515-7.313-.002-2.718-3.143-5.344-8.003-7.021zm-12.094-7.6c3.321-2.899 6.426-4.042 7.842-3.225 1.506.871 2.092 4.383 1.145 8.989-.062.3-.13.599-.202.897a45.725 45.725 0 00-6.017-.952 45.119 45.119 0 00-3.803-4.758c.336-.326.68-.644 1.033-.952h.002zM14.787 26.272a56.755 56.755 0 002.689 4.65 40.785 40.785 0 01-4.147-.668 43.216 43.216 0 011.458-3.982zm0-4.53a41.669 41.669 0 01-1.43-3.903 43.199 43.199 0 014.08-.702 55.735 55.735 0 00-1.38 2.272 59.123 59.123 0 00-1.273 2.332h.003zm1.022 2.265a54.746 54.746 0 014.096-7.116 54.418 54.418 0 018.203 0 58.437 58.437 0 012.169 3.47 65.07 65.07 0 011.94 3.618 58.812 58.812 0 01-1.936 3.65 63.98 63.98 0 01-2.156 3.492 59.093 59.093 0 01-4.125.145c-1.406 0-2.763-.044-4.074-.129a54.533 54.533 0 01-4.12-7.13h.003zm16.136 4.586c.453-.787.888-1.583 1.305-2.39a41.277 41.277 0 011.512 3.968 40.733 40.733 0 01-4.2.717c.477-.756.938-1.52 1.383-2.295zm1.287-6.85a62.79 62.79 0 00-1.295-2.344 56.29 56.29 0 00-1.368-2.256c1.435.182 2.813.424 4.104.72a41.272 41.272 0 01-1.441 3.88zm-9.21-10.074a41.24 41.24 0 012.648 3.204 55.908 55.908 0 00-5.32 0 42.251 42.251 0 012.672-3.204zM13.656 6.174c1.505-.873 4.834.375 8.343 3.494.224.2.45.41.675.626a46.076 46.076 0 00-3.83 4.754 46.8 46.8 0 00-6.006.937c-.114-.46-.217-.923-.31-1.39-.848-4.333-.286-7.6 1.128-8.42zM11.46 29.785a22.496 22.496 0 01-1.111-.348c-2.194-.75-4.006-1.728-5.25-2.794-1.114-.956-1.678-1.909-1.678-2.681 0-1.642 2.443-3.736 6.517-5.157a27.63 27.63 0 011.55-.488 46.264 46.264 0 002.193 5.695 47.12 47.12 0 00-2.221 5.773zm10.418 8.782c-1.746 1.53-3.496 2.615-5.038 3.161-1.385.49-2.489.505-3.155.12-1.42-.821-2.01-3.989-1.205-8.238.096-.5.205-1 .328-1.5 2 .431 4.025.725 6.065.88a46.989 46.989 0 003.862 4.782c-.28.275-.565.539-.857.795zm2.196-2.177a43.112 43.112 0 01-2.707-3.248c.861.034 1.739.051 2.632.051.917 0 1.824-.02 2.719-.06a41.2 41.2 0 01-2.644 3.257zm11.674 2.68c-.268 1.448-.807 2.413-1.474 2.8-1.418.823-4.451-.247-7.721-3.068a30.75 30.75 0 01-1.132-1.031 45.427 45.427 0 003.772-4.8 44.786 44.786 0 006.094-.942c.091.371.173.735.243 1.091.451 2.278.516 4.339.218 5.95zm1.631-9.622c-.246.081-.499.16-.756.237a45.31 45.31 0 00-2.279-5.713 45.14 45.14 0 002.19-5.63c.46.133.908.274 1.338.423 4.165 1.436 6.705 3.563 6.705 5.197 0 1.743-2.744 4.006-7.198 5.486z"/><path stroke="#A1A1AA" stroke-width=".6" d="M38.5 16.942c-.48-.163-.963-.316-1.45-.457.082-.328.156-.658.224-.99 1.097-5.334.38-9.632-2.068-11.047-2.344-1.357-6.188.058-10.065 3.44-.381.334-.755.678-1.12 1.031a21.79 21.79 0 00-.75-.69c-4.064-3.617-8.138-5.14-10.583-3.72-2.344 1.36-3.04 5.4-2.053 10.455.099.5.21.998.333 1.494-.577.164-1.134.34-1.666.525C4.543 18.647 1.5 21.256 1.5 23.962c0 2.795 3.266 5.598 8.228 7.298.403.137.81.264 1.22.382-.134.53-.252 1.067-.354 1.61-.938 4.968-.207 8.912 2.133 10.264 2.415 1.396 6.468-.038 10.419-3.498.312-.274.625-.563.937-.867.395.382.802.752 1.22 1.112 3.824 3.298 7.601 4.63 9.937 3.275 2.414-1.401 3.198-5.639 2.18-10.794a26.11 26.11 0 00-.27-1.206c.284-.084.563-.171.837-.261 5.156-1.713 8.515-4.482 8.515-7.313-.002-2.718-3.143-5.344-8.003-7.021zm-12.094-7.6c3.321-2.899 6.426-4.042 7.842-3.225 1.506.871 2.092 4.383 1.145 8.989-.062.3-.13.599-.202.897h0a45.725 45.725 0 00-6.017-.952v0a45.119 45.119 0 00-3.803-4.758c.336-.326.68-.644 1.033-.952h.002zM14.787 26.272a56.755 56.755 0 002.689 4.65h0a40.785 40.785 0 01-4.147-.668 43.216 43.216 0 011.458-3.982h0zm0-4.53a41.669 41.669 0 01-1.43-3.903 43.199 43.199 0 014.08-.702 55.735 55.735 0 00-1.38 2.272 59.123 59.123 0 00-1.273 2.332h.003zm1.022 2.265a54.746 54.746 0 014.096-7.116 54.418 54.418 0 018.203 0 58.437 58.437 0 012.169 3.47 65.07 65.07 0 011.94 3.618 58.812 58.812 0 01-1.936 3.65 63.98 63.98 0 01-2.156 3.492 59.093 59.093 0 01-4.125.145c-1.406 0-2.763-.044-4.074-.129a54.533 54.533 0 01-4.12-7.13h.003zm16.136 4.586c.453-.787.888-1.583 1.305-2.39a41.277 41.277 0 011.512 3.968 40.733 40.733 0 01-4.2.717c.477-.756.938-1.52 1.383-2.295h0zm1.287-6.85a62.79 62.79 0 00-1.295-2.344 56.29 56.29 0 00-1.368-2.256c1.435.182 2.813.424 4.104.72v0a41.272 41.272 0 01-1.441 3.88v0zm-9.21-10.074a41.24 41.24 0 012.648 3.204 55.908 55.908 0 00-5.32 0 42.251 42.251 0 012.672-3.204zM13.656 6.174c1.505-.873 4.834.375 8.343 3.494.224.2.45.41.675.626h0a46.076 46.076 0 00-3.83 4.754 46.8 46.8 0 00-6.006.937c-.114-.46-.217-.923-.31-1.39-.848-4.333-.286-7.6 1.128-8.42h0zM11.46 29.785a22.496 22.496 0 01-1.111-.348c-2.194-.75-4.006-1.728-5.25-2.794-1.114-.956-1.678-1.909-1.678-2.681 0-1.642 2.443-3.736 6.517-5.157a27.63 27.63 0 011.55-.488h0a46.264 46.264 0 002.193 5.695h0a47.12 47.12 0 00-2.221 5.773h0zm10.418 8.782c-1.746 1.53-3.496 2.615-5.038 3.161-1.385.49-2.489.505-3.155.12-1.42-.821-2.01-3.989-1.205-8.238.096-.5.205-1 .328-1.5h0c2 .431 4.025.725 6.065.88h0a46.989 46.989 0 003.862 4.782c-.28.275-.565.539-.857.795zm2.196-2.177a43.112 43.112 0 01-2.707-3.248c.861.034 1.739.051 2.632.051.917 0 1.824-.02 2.719-.06h0a41.2 41.2 0 01-2.644 3.257h0zm11.674 2.68c-.268 1.448-.807 2.413-1.474 2.8-1.418.823-4.451-.247-7.721-3.068a30.75 30.75 0 01-1.132-1.031v0a45.427 45.427 0 003.772-4.8h0a44.786 44.786 0 006.094-.942c.091.371.173.735.243 1.091.451 2.278.516 4.339.218 5.95zm1.631-9.622c-.246.081-.499.16-.756.237a45.31 45.31 0 00-2.279-5.713v0a45.14 45.14 0 002.19-5.63c.46.133.908.274 1.338.423 4.165 1.436 6.705 3.563 6.705 5.197 0 1.743-2.744 4.006-7.198 5.486v0z" mask="url(#a)"/><path fill="#A1A1AA" d="M23.999 27.989a4.031 4.031 0 10-4.018-4.044v.013a4.023 4.023 0 004.014 4.031h.004z"/></svg>