<svg width="64" height="64" viewBox="0 0 64 64" fill="none" xmlns="http://www.w3.org/2000/svg">
  <circle cx="32" cy="32" r="32" fill="white" />
  <circle cx="32" cy="32" r="29" fill="#E0E7FF" />
  <mask id="mask0_0:3542" style="mask-type:alpha" maskUnits="userSpaceOnUse" x="3" y="3" width="58" height="58">
    <circle cx="32" cy="32" r="29" fill="url(#paint0_radial_0:3542)" />
  </mask>
  <g mask="url(#mask0_0:3542)">
    <rect opacity="0.06" y="30" width="63" height="31" fill="#312E81" />
    <path opacity="0.12" d="M8.8125 53.1245L31.8438 29.7808L54.3438 52.187L63 60.9995H0L8.8125 53.1245Z"
      fill="#312E81" />
    <rect opacity="0.07" y="30" width="63" height="1" fill="#4338CA" />
    <rect opacity="0.07" x="32.5" y="-1.00049" width="63" height="1" transform="rotate(90 32.5 -1.00049)"
      fill="#4338CA" />
    <rect opacity="0.07" x="54.6274" y="8.5791" width="63" height="1" transform="rotate(135 54.6274 8.5791)"
      fill="#4338CA" />
    <rect opacity="0.07" x="10.0792" y="7.87256" width="63" height="1" transform="rotate(45 10.0792 7.87256)"
      fill="#4338CA" />
    <g filter="url(#filter0_d_0:3542)">
      <path
        d="M31.0483 17.9402C31.3468 17.0173 32.6525 17.0173 32.9511 17.9402L35.3055 25.2165C35.439 25.6291 35.8232 25.9086 36.2569 25.9086H44.2145C45.1525 25.9086 45.5744 27.0837 44.8506 27.6803L38.6885 32.7593C38.3782 33.0151 38.2513 33.4318 38.3663 33.8171L40.8388 42.0961C41.1147 43.0198 40.0525 43.7606 39.281 43.1825L32.5996 38.1761C32.2442 37.9098 31.7558 37.9098 31.4004 38.1761L24.719 43.1825C23.9475 43.7606 22.8853 43.0198 23.1612 42.0961L25.6337 33.8171C25.7487 33.4318 25.6218 33.0151 25.3115 32.7593L19.1494 27.6803C18.4256 27.0837 18.8475 25.9086 19.7855 25.9086H27.7428C28.1765 25.9086 28.5607 25.6291 28.6942 25.2164L31.0483 17.9402Z"
        fill="white" />
      <path
        d="M33.4268 17.7863C32.9789 16.4019 31.0204 16.402 30.5725 17.7863L28.2185 25.0625C28.1517 25.2688 27.9596 25.4086 27.7428 25.4086H19.7855C18.3785 25.4086 17.7457 27.1712 18.8314 28.0661L24.9935 33.1451C25.1486 33.273 25.2121 33.4814 25.1546 33.674L22.6821 41.953C22.2683 43.3386 23.8616 44.4498 25.0189 43.5826L31.7002 38.5762C31.8779 38.4431 32.1221 38.4431 32.2998 38.5762L38.9811 43.5826C40.1384 44.4497 41.7317 43.3386 41.3179 41.953L38.8454 33.674C38.7879 33.4814 38.8514 33.273 39.0065 33.1451L45.1686 28.0661C46.2543 27.1712 45.6215 25.4086 44.2145 25.4086H36.2569C36.0401 25.4086 35.8479 25.2688 35.7812 25.0625L33.4268 17.7863Z"
        stroke="#122F3F" stroke-opacity="0.05" />
    </g>
  </g>
  <path
    d="M60.5 32C60.5 47.7401 47.7401 60.5 32 60.5C16.2599 60.5 3.5 47.7401 3.5 32C3.5 16.2599 16.2599 3.5 32 3.5C47.7401 3.5 60.5 16.2599 60.5 32Z"
    stroke="#334155" stroke-opacity="0.06" />
  <defs>
    <filter id="filter0_d_0:3542" x="14.7815" y="15.248" width="34.437" height="34.1431" filterUnits="userSpaceOnUse"
      color-interpolation-filters="sRGB">
      <feFlood flood-opacity="0" result="BackgroundImageFix" />
      <feColorMatrix in="SourceAlpha" type="matrix" values="0 0 0 0 0 0 0 0 0 0 0 0 0 0 0 0 0 0 127 0"
        result="hardAlpha" />
      <feOffset dy="2" />
      <feGaussianBlur stdDeviation="1.5" />
      <feColorMatrix type="matrix" values="0 0 0 0 0.0354167 0 0 0 0 0.0391579 0 0 0 0 0.2125 0 0 0 0.1 0" />
      <feBlend mode="normal" in2="BackgroundImageFix" result="effect1_dropShadow_0:3542" />
      <feBlend mode="normal" in="SourceGraphic" in2="effect1_dropShadow_0:3542" result="shape" />
    </filter>
    <radialGradient id="paint0_radial_0:3542" cx="0" cy="0" r="1" gradientUnits="userSpaceOnUse"
      gradientTransform="translate(32 32) rotate(90) scale(29 76.4189)">
      <stop offset="0.297414" stop-color="#C4C4C4" />
      <stop offset="1" stop-color="#C4C4C4" stop-opacity="0" />
    </radialGradient>
  </defs>
</svg>
