<svg width="64" height="64" viewBox="0 0 64 64" fill="none" xmlns="http://www.w3.org/2000/svg">
  <circle cx="32" cy="32" r="32" fill="white" />
  <circle cx="32" cy="32" r="29" fill="#FCE7F3" />
  <path fill-rule="evenodd" clip-rule="evenodd"
    d="M27.1429 13.6429C27.1429 13.2878 26.855 13 26.5 13C26.145 13 25.8571 13.2878 25.8571 13.6429C25.8571 15.4181 24.4181 16.8571 22.6429 16.8571C22.2878 16.8571 22 17.145 22 17.5C22 17.855 22.2878 18.1429 22.6429 18.1429C24.4181 18.1429 25.8571 19.5819 25.8571 21.3571C25.8571 21.7122 26.145 22 26.5 22C26.855 22 27.1429 21.7122 27.1429 21.3571C27.1429 19.5819 28.5819 18.1429 30.3571 18.1429C30.7122 18.1429 31 17.855 31 17.5C31 17.145 30.7122 16.8571 30.3571 16.8571C28.5819 16.8571 27.1429 15.4181 27.1429 13.6429Z"
    fill="#F9A8D4" />
  <mask id="mask0_0:1773" style="mask-type:alpha" maskUnits="userSpaceOnUse" x="3" y="3" width="58" height="58">
    <circle cx="32" cy="32" r="29" fill="url(#paint0_radial_0:1773)" />
  </mask>
  <g mask="url(#mask0_0:1773)">
    <rect opacity="0.06" x="18" width="63" height="1" transform="rotate(90 18 0)" fill="#831843" />
    <rect opacity="0.06" x="47" width="63" height="1" transform="rotate(90 47 0)" fill="#831843" />
    <rect opacity="0.08" y="42" width="64" height="1" fill="#831843" />
    <rect opacity="0.08" y="21" width="64" height="1" fill="#831843" />
    <g filter="url(#filter0_d_0:1773)">
      <path
        d="M16 23C16 21.3431 17.3431 20 19 20H45C46.6569 20 48 21.3431 48 23V41C48 42.6569 46.6569 44 45 44H19C17.3431 44 16 42.6569 16 41V23Z"
        fill="url(#paint1_linear_0:1773)" />
      <path
        d="M19 19.5C17.067 19.5 15.5 21.067 15.5 23V41C15.5 42.933 17.067 44.5 19 44.5H45C46.933 44.5 48.5 42.933 48.5 41V23C48.5 21.067 46.933 19.5 45 19.5H19Z"
        stroke="#EC4899" stroke-opacity="0.1" />
    </g>
    <path d="M16 23C16 21.3431 17.3431 20 19 20H34V44H19C17.3431 44 16 42.6569 16 41V23Z"
      fill="url(#paint2_linear_0:1773)" />
    <path d="M31 26H42" stroke="#EC4899" stroke-width="2" stroke-linecap="round" stroke-linejoin="round" />
    <path d="M31 30H39" stroke="#EC4899" stroke-width="2" stroke-linecap="round" stroke-linejoin="round" />
    <path d="M31 38H37" stroke="#EC4899" stroke-width="2" stroke-linecap="round" stroke-linejoin="round" />
    <path d="M31 34H44" stroke="#EC4899" stroke-width="2" stroke-linecap="round" stroke-linejoin="round" />
    <path fill-rule="evenodd" clip-rule="evenodd"
      d="M19 19C19 18.4477 18.5523 18 18 18C17.4477 18 17 18.4477 17 19C17 21.7614 14.7614 24 12 24C11.4477 24 11 24.4477 11 25C11 25.5523 11.4477 26 12 26C14.7614 26 17 28.2386 17 31C17 31.5523 17.4477 32 18 32C18.5523 32 19 31.5523 19 31C19 28.2386 21.2386 26 24 26C24.5523 26 25 25.5523 25 25C25 24.4477 24.5523 24 24 24C21.2386 24 19 21.7614 19 19Z"
      fill="#EC4899" />
  </g>
  <path
    d="M60.5 32C60.5 47.7401 47.7401 60.5 32 60.5C16.2599 60.5 3.5 47.7401 3.5 32C3.5 16.2599 16.2599 3.5 32 3.5C47.7401 3.5 60.5 16.2599 60.5 32Z"
    stroke="#334155" stroke-opacity="0.06" />
  <defs>
    <filter id="filter0_d_0:1773" x="12" y="18" width="40" height="32" filterUnits="userSpaceOnUse"
      color-interpolation-filters="sRGB">
      <feFlood flood-opacity="0" result="BackgroundImageFix" />
      <feColorMatrix in="SourceAlpha" type="matrix" values="0 0 0 0 0 0 0 0 0 0 0 0 0 0 0 0 0 0 127 0"
        result="hardAlpha" />
      <feOffset dy="2" />
      <feGaussianBlur stdDeviation="1.5" />
      <feColorMatrix type="matrix" values="0 0 0 0 0.366667 0 0 0 0 0.100833 0 0 0 0 0.232129 0 0 0 0.1 0" />
      <feBlend mode="normal" in2="BackgroundImageFix" result="effect1_dropShadow_0:1773" />
      <feBlend mode="normal" in="SourceGraphic" in2="effect1_dropShadow_0:1773" result="shape" />
    </filter>
    <radialGradient id="paint0_radial_0:1773" cx="0" cy="0" r="1" gradientUnits="userSpaceOnUse"
      gradientTransform="translate(32 32) rotate(90) scale(29 76.4189)">
      <stop offset="0.646552" stop-color="#C4C4C4" />
      <stop offset="0.945946" stop-color="#C4C4C4" stop-opacity="0" />
    </radialGradient>
    <linearGradient id="paint1_linear_0:1773" x1="32" y1="20" x2="32" y2="44" gradientUnits="userSpaceOnUse">
      <stop stop-color="white" stop-opacity="0.7" />
      <stop offset="0.369792" stop-color="white" />
    </linearGradient>
    <linearGradient id="paint2_linear_0:1773" x1="25" y1="20" x2="25" y2="44" gradientUnits="userSpaceOnUse">
      <stop stop-color="#FDF2F8" stop-opacity="0.5" />
      <stop offset="0.361979" stop-color="#FDF2F8" />
    </linearGradient>
  </defs>
</svg>
