<svg width="64" height="64" fill="none" xmlns="http://www.w3.org/2000/svg">
  <circle cx="32" cy="32" r="32" fill="#fff" />
  <circle cx="32" cy="32" r="29" fill="#E0E7FF" />
  <mask id="b" style="mask-type:alpha" maskUnits="userSpaceOnUse" x="3" y="3" width="58" height="58">
    <circle cx="32" cy="32" r="29" fill="url(#a)" />
  </mask>
  <g mask="url(#b)">
    <path opacity=".1" fill="#4338CA" d="M46 63V0h1v63zM17 63V0h1v63z" />
    <path opacity=".1" fill="#4338CA" d="M63 18H0v-1h63z" />
    <path opacity=".06" fill="#312E81" d="M47 47H17V17h30z" />
    <path opacity=".1" fill="#4338CA" d="M63 47H0v-1h63z" />
    <g filter="url(#c)">
      <rect x="18" y="18" width="12" height="12" rx="4" fill="#fff" />
      <rect x="17.5" y="17.5" width="13" height="13" rx="4.5" stroke="#122F3F" stroke-opacity=".05" />
    </g>
    <g filter="url(#d)">
      <path
        d="M38.576 34.524a2 2 0 0 1 2.841.007l4.007 4.061a2 2 0 0 1-.003 2.813l-4.007 4.043a2 2 0 0 1-2.835.006l-4.043-4.043a2 2 0 0 1-.003-2.825l4.043-4.062Z"
        fill="#4F46E5" />
      <path
        d="M41.773 34.18a2.5 2.5 0 0 0-3.551-.009l-4.044 4.062a2.5 2.5 0 0 0 .005 3.532l4.043 4.043a2.5 2.5 0 0 0 3.543-.008l4.007-4.043a2.5 2.5 0 0 0 .004-3.516l-4.007-4.062Z"
        stroke="#4F46E5" />
    </g>
    <g filter="url(#e)">
      <mask id="f" maskUnits="userSpaceOnUse" x="33" y="17" width="14" height="14" fill="#000">
        <path fill="#fff" d="M33 17h14v14H33z" />
        <path fill-rule="evenodd" clip-rule="evenodd"
          d="M40 18a6 6 0 1 0 0 12 6 6 0 0 0 0-12Zm0 3a3 3 0 1 0 0 6 3 3 0 0 0 0-6Z" />
      </mask>
      <path fill-rule="evenodd" clip-rule="evenodd"
        d="M40 18a6 6 0 1 0 0 12 6 6 0 0 0 0-12Zm0 3a3 3 0 1 0 0 6 3 3 0 0 0 0-6Z" fill="#fff" />
      <path
        d="M35 24a5 5 0 0 1 5-5v-2a7 7 0 0 0-7 7h2Zm5 5a5 5 0 0 1-5-5h-2a7 7 0 0 0 7 7v-2Zm5-5a5 5 0 0 1-5 5v2a7 7 0 0 0 7-7h-2Zm-5-5a5 5 0 0 1 5 5h2a7 7 0 0 0-7-7v2Zm-2 5a2 2 0 0 1 2-2v-2a4 4 0 0 0-4 4h2Zm2 2a2 2 0 0 1-2-2h-2a4 4 0 0 0 4 4v-2Zm2-2a2 2 0 0 1-2 2v2a4 4 0 0 0 4-4h-2Zm-2-2a2 2 0 0 1 2 2h2a4 4 0 0 0-4-4v2Z"
        fill="#122F3F" fill-opacity=".05" mask="url(#f)" />
    </g>
    <g filter="url(#g)">
      <path fill-rule="evenodd" clip-rule="evenodd"
        d="M22.856 34.707c.471-.943 1.816-.943 2.288 0l4.72 9.442A1.28 1.28 0 0 1 28.72 46h-9.44c-.95 0-1.569-1-1.143-1.851l4.72-9.442Z"
        fill="#fff" />
      <path
        d="M25.59 34.483c-.654-1.31-2.526-1.31-3.18 0l-4.72 9.442a1.779 1.779 0 0 0 1.59 2.575h9.44a1.779 1.779 0 0 0 1.59-2.575l-4.72-9.441Z"
        stroke="#122F3F" stroke-opacity=".05" />
    </g>
  </g>
  <path d="M60.5 32c0 15.74-12.76 28.5-28.5 28.5S3.5 47.74 3.5 32 16.26 3.5 32 3.5 60.5 16.26 60.5 32Z" stroke="#334155"
    stroke-opacity=".06" />
  <defs>
    <filter id="c" x="14" y="16" width="20" height="20" filterUnits="userSpaceOnUse" color-interpolation-filters="sRGB">
      <feFlood flood-opacity="0" result="BackgroundImageFix" />
      <feColorMatrix in="SourceAlpha" values="0 0 0 0 0 0 0 0 0 0 0 0 0 0 0 0 0 0 127 0" result="hardAlpha" />
      <feOffset dy="2" />
      <feGaussianBlur stdDeviation="1.5" />
      <feColorMatrix values="0 0 0 0 0.0354167 0 0 0 0 0.0391579 0 0 0 0 0.2125 0 0 0 0.1 0" />
      <feBlend in2="BackgroundImageFix" result="effect1_dropShadow_0:1733" />
      <feBlend in="SourceGraphic" in2="effect1_dropShadow_0:1733" result="shape" />
    </filter>
    <filter id="d" x="29.95" y="31.935" width="20.05" height="20.105" filterUnits="userSpaceOnUse"
      color-interpolation-filters="sRGB">
      <feFlood flood-opacity="0" result="BackgroundImageFix" />
      <feColorMatrix in="SourceAlpha" values="0 0 0 0 0 0 0 0 0 0 0 0 0 0 0 0 0 0 127 0" result="hardAlpha" />
      <feOffset dy="2" />
      <feGaussianBlur stdDeviation="1.5" />
      <feColorMatrix values="0 0 0 0 0.0354167 0 0 0 0 0.0391579 0 0 0 0 0.2125 0 0 0 0.2 0" />
      <feBlend in2="BackgroundImageFix" result="effect1_dropShadow_0:1733" />
      <feBlend in="SourceGraphic" in2="effect1_dropShadow_0:1733" result="shape" />
    </filter>
    <filter id="e" x="30" y="16" width="20" height="20" filterUnits="userSpaceOnUse" color-interpolation-filters="sRGB">
      <feFlood flood-opacity="0" result="BackgroundImageFix" />
      <feColorMatrix in="SourceAlpha" values="0 0 0 0 0 0 0 0 0 0 0 0 0 0 0 0 0 0 127 0" result="hardAlpha" />
      <feOffset dy="2" />
      <feGaussianBlur stdDeviation="1.5" />
      <feColorMatrix values="0 0 0 0 0.0354167 0 0 0 0 0.0391579 0 0 0 0 0.2125 0 0 0 0.1 0" />
      <feBlend in2="BackgroundImageFix" result="effect1_dropShadow_0:1733" />
      <feBlend in="SourceGraphic" in2="effect1_dropShadow_0:1733" result="shape" />
    </filter>
    <filter id="g" x="13.999" y="32" width="20.003" height="20" filterUnits="userSpaceOnUse"
      color-interpolation-filters="sRGB">
      <feFlood flood-opacity="0" result="BackgroundImageFix" />
      <feColorMatrix in="SourceAlpha" values="0 0 0 0 0 0 0 0 0 0 0 0 0 0 0 0 0 0 127 0" result="hardAlpha" />
      <feOffset dy="2" />
      <feGaussianBlur stdDeviation="1.5" />
      <feColorMatrix values="0 0 0 0 0.0354167 0 0 0 0 0.0391579 0 0 0 0 0.2125 0 0 0 0.1 0" />
      <feBlend in2="BackgroundImageFix" result="effect1_dropShadow_0:1733" />
      <feBlend in="SourceGraphic" in2="effect1_dropShadow_0:1733" result="shape" />
    </filter>
    <radialGradient id="a" cx="0" cy="0" r="1" gradientUnits="userSpaceOnUse"
      gradientTransform="matrix(0 29 -77 0 32 32)">
      <stop offset=".444" stop-color="#C4C4C4" />
      <stop offset=".961" stop-color="#C4C4C4" stop-opacity="0" />
    </radialGradient>
  </defs>
</svg>
