<svg width="64" height="64" viewBox="0 0 64 64" fill="none" xmlns="http://www.w3.org/2000/svg">
  <circle cx="32" cy="32" r="32" fill="white" />
  <circle cx="32" cy="32" r="29" fill="#FCE7F3" />
  <mask id="mask0_0:3408" style="mask-type:alpha" maskUnits="userSpaceOnUse" x="3" y="3" width="58" height="58">
    <circle cx="32" cy="32" r="29" fill="url(#paint0_linear_0:3408)" />
  </mask>
  <g mask="url(#mask0_0:3408)">
    <rect opacity="0.08" x="18" width="64" height="1" transform="rotate(90 18 0)" fill="#831843" />
    <rect opacity="0.08" x="47" width="64" height="1" transform="rotate(90 47 0)" fill="#831843" />
    <path opacity="0.08" d="M0 19L64 19V20L0 20L0 19Z" fill="#831843" />
    <rect opacity="0.08" y="44" width="64" height="1" fill="#831843" />
  </g>
  <g filter="url(#filter0_d_0:3408)">
    <mask id="path-8-outside-1_0:3408" maskUnits="userSpaceOnUse" x="15" y="14.8284" width="34" height="33"
      fill="black">
      <rect fill="white" x="15" y="14.8284" width="34" height="33" />
      <path fill-rule="evenodd" clip-rule="evenodd"
        d="M29.5857 17.4142C29.2106 17.7893 28.7019 18 28.1715 18H20C17.7909 18 16 19.7908 16 22V42C16 44.2091 17.7909 46 20 46H44C46.2091 46 48 44.2091 48 42V22C48 19.7908 46.2091 18 44 18H35.8285C35.2981 18 34.7894 17.7893 34.4143 17.4142L33.4142 16.4141C32.6331 15.6331 31.3669 15.6331 30.5858 16.4141L29.5857 17.4142Z" />
    </mask>
    <path fill-rule="evenodd" clip-rule="evenodd"
      d="M29.5857 17.4142C29.2106 17.7893 28.7019 18 28.1715 18H20C17.7909 18 16 19.7908 16 22V42C16 44.2091 17.7909 46 20 46H44C46.2091 46 48 44.2091 48 42V22C48 19.7908 46.2091 18 44 18H35.8285C35.2981 18 34.7894 17.7893 34.4143 17.4142L33.4142 16.4141C32.6331 15.6331 31.3669 15.6331 30.5858 16.4141L29.5857 17.4142Z"
      fill="white" />
    <path
      d="M34.4143 17.4142L33.7072 18.1213L34.4143 17.4142ZM20 19H28.1715V17H20V19ZM17 22C17 20.3431 18.3431 19 20 19V17C17.2386 17 15 19.2385 15 22H17ZM17 42V22H15V42H17ZM20 45C18.3431 45 17 43.6568 17 42H15C15 44.7614 17.2386 47 20 47V45ZM44 45H20V47H44V45ZM47 42C47 43.6568 45.6569 45 44 45V47C46.7614 47 49 44.7614 49 42H47ZM47 22V42H49V22H47ZM44 19C45.6569 19 47 20.3431 47 22H49C49 19.2385 46.7614 17 44 17V19ZM35.8285 19H44V17H35.8285V19ZM35.1214 16.7071L34.1213 15.707L32.7071 17.1213L33.7072 18.1213L35.1214 16.7071ZM29.8787 15.707L28.8786 16.7071L30.2928 18.1213L31.2929 17.1213L29.8787 15.707ZM34.1213 15.707C32.9497 14.5355 31.0503 14.5355 29.8787 15.707L31.2929 17.1213C31.6834 16.7307 32.3166 16.7307 32.7071 17.1213L34.1213 15.707ZM35.8285 17C35.5633 17 35.3089 16.8946 35.1214 16.7071L33.7072 18.1213C34.2698 18.6839 35.0328 19 35.8285 19V17ZM28.1715 19C28.9672 19 29.7302 18.6839 30.2928 18.1213L28.8786 16.7071C28.6911 16.8946 28.4367 17 28.1715 17V19Z"
      fill="#EC4899" fill-opacity="0.1" mask="url(#path-8-outside-1_0:3408)" />
  </g>
  <path d="M16 32H48V42C48 44.2091 46.2091 46 44 46H20C17.7909 46 16 44.2091 16 42V32Z" fill="#FDF2F8" />
  <circle cx="20" cy="24" r="2" fill="#FDF2F8" />
  <circle cx="26" cy="24" r="2" fill="#FCE7F3" />
  <circle cx="32" cy="24" r="2" fill="#FBCFE8" />
  <circle cx="38" cy="24" r="2" fill="#F9A8D4" />
  <circle cx="44" cy="24" r="2" fill="#F472B6" />
  <circle cx="20" cy="32" r="2" fill="#EC4899" />
  <circle cx="26" cy="32" r="2" fill="#DB2777" />
  <circle cx="32" cy="32" r="2" fill="#BE185D" />
  <circle cx="38" cy="32" r="2" fill="#9D174D" />
  <circle cx="44" cy="32" r="2" fill="#831843" />
  <circle cx="20" cy="40" r="1.5" stroke="#831843" stroke-opacity="0.07" />
  <circle cx="26" cy="40" r="1.5" stroke="#831843" stroke-opacity="0.07" />
  <circle cx="32" cy="40" r="1.5" stroke="#831843" stroke-opacity="0.07" />
  <circle cx="38" cy="40" r="1.5" stroke="#831843" stroke-opacity="0.07" />
  <circle cx="44" cy="40" r="1.5" stroke="#831843" stroke-opacity="0.07" />
  <path
    d="M60.5 32C60.5 47.7401 47.7401 60.5 32 60.5C16.2599 60.5 3.5 47.7401 3.5 32C3.5 16.2599 16.2599 3.5 32 3.5C47.7401 3.5 60.5 16.2599 60.5 32Z"
    stroke="#334155" stroke-opacity="0.06" />
  <defs>
    <filter id="filter0_d_0:3408" x="12" y="13.8284" width="40" height="38.1716" filterUnits="userSpaceOnUse"
      color-interpolation-filters="sRGB">
      <feFlood flood-opacity="0" result="BackgroundImageFix" />
      <feColorMatrix in="SourceAlpha" type="matrix" values="0 0 0 0 0 0 0 0 0 0 0 0 0 0 0 0 0 0 127 0"
        result="hardAlpha" />
      <feOffset dy="2" />
      <feGaussianBlur stdDeviation="1.5" />
      <feColorMatrix type="matrix" values="0 0 0 0 0.366667 0 0 0 0 0.100833 0 0 0 0 0.232129 0 0 0 0.1 0" />
      <feBlend mode="normal" in2="BackgroundImageFix" result="effect1_dropShadow_0:3408" />
      <feBlend mode="normal" in="SourceGraphic" in2="effect1_dropShadow_0:3408" result="shape" />
    </filter>
    <linearGradient id="paint0_linear_0:3408" x1="32" y1="24" x2="32" y2="61" gradientUnits="userSpaceOnUse">
      <stop offset="0.385135" stop-color="#C4C4C4" />
      <stop offset="0.945946" stop-color="#C4C4C4" stop-opacity="0" />
    </linearGradient>
  </defs>
</svg>
