<svg width="64" height="64" viewBox="0 0 64 64" fill="none" xmlns="http://www.w3.org/2000/svg">
  <circle cx="32" cy="32" r="32" fill="white" />
  <circle cx="32" cy="32" r="29" fill="#E0E7FF" />
  <mask id="mask0_0:2215" style="mask-type:alpha" maskUnits="userSpaceOnUse" x="3" y="3" width="58" height="58">
    <circle cx="32" cy="32" r="29" fill="url(#paint0_linear_0:2215)" />
  </mask>
  <g mask="url(#mask0_0:2215)">
    <rect opacity="0.07" y="26" width="63" height="1" fill="#4338CA" />
    <rect opacity="0.07" x="18" y="4" width="63" height="1" transform="rotate(90 18 4)" fill="#4338CA" />
    <rect opacity="0.07" x="47" y="4" width="63" height="1" transform="rotate(90 47 4)" fill="#4338CA" />
    <g filter="url(#filter0_d_0:2215)">
      <path
        d="M16 25C16 21.6863 18.6863 19 22 19H42C45.3137 19 48 21.6863 48 25V61C48 64.3137 45.3137 67 42 67H22C18.6863 67 16 64.3137 16 61V25Z"
        fill="white" />
      <path
        d="M22 18.5C18.4101 18.5 15.5 21.4101 15.5 25V61C15.5 64.5899 18.4101 67.5 22 67.5H42C45.5899 67.5 48.5 64.5899 48.5 61V25C48.5 21.4101 45.5899 18.5 42 18.5H22Z"
        stroke="#6366F1" stroke-opacity="0.1" />
    </g>
    <path
      d="M18 25C18 22.7909 19.7909 21 22 21H25.2792C25.7097 21 26.0918 21.2754 26.2279 21.6838L26.5442 22.6325C26.8164 23.4491 27.5807 24 28.4415 24H32H35.5585C36.4193 24 37.1836 23.4491 37.4558 22.6325L37.7721 21.6838C37.9082 21.2754 38.2903 21 38.7208 21H42C44.2091 21 46 22.7909 46 25V66C46 66.5523 45.5523 67 45 67H19C18.4477 67 18 66.5523 18 66V25Z"
      fill="url(#paint1_linear_0:2215)" />
    <path
      d="M18.5 25C18.5 23.067 20.067 21.5 22 21.5H25.2792C25.4945 21.5 25.6855 21.6377 25.7536 21.8419L26.0698 22.7906C26.4101 23.8114 27.3654 24.5 28.4415 24.5H32H35.5585C36.6346 24.5 37.5899 23.8114 37.9302 22.7906L38.2464 21.8419C38.3145 21.6377 38.5055 21.5 38.7208 21.5H42C43.933 21.5 45.5 23.067 45.5 25V66C45.5 66.2761 45.2761 66.5 45 66.5H19C18.7239 66.5 18.5 66.2761 18.5 66V25Z"
      stroke="#1F2051" stroke-opacity="0.04" />
  </g>
  <path
    d="M60.5 32C60.5 47.7401 47.7401 60.5 32 60.5C16.2599 60.5 3.5 47.7401 3.5 32C3.5 16.2599 16.2599 3.5 32 3.5C47.7401 3.5 60.5 16.2599 60.5 32Z"
    stroke="#334155" stroke-opacity="0.06" />
  <defs>
    <filter id="filter0_d_0:2215" x="12" y="17" width="40" height="56" filterUnits="userSpaceOnUse"
      color-interpolation-filters="sRGB">
      <feFlood flood-opacity="0" result="BackgroundImageFix" />
      <feColorMatrix in="SourceAlpha" type="matrix" values="0 0 0 0 0 0 0 0 0 0 0 0 0 0 0 0 0 0 127 0"
        result="hardAlpha" />
      <feOffset dy="2" />
      <feGaussianBlur stdDeviation="1.5" />
      <feColorMatrix type="matrix" values="0 0 0 0 0.0354167 0 0 0 0 0.0391579 0 0 0 0 0.2125 0 0 0 0.1 0" />
      <feBlend mode="normal" in2="BackgroundImageFix" result="effect1_dropShadow_0:2215" />
      <feBlend mode="normal" in="SourceGraphic" in2="effect1_dropShadow_0:2215" result="shape" />
    </filter>
    <linearGradient id="paint0_linear_0:2215" x1="32" y1="24" x2="32" y2="61" gradientUnits="userSpaceOnUse">
      <stop offset="0.628378" stop-color="#C4C4C4" />
      <stop offset="0.952703" stop-color="#C4C4C4" stop-opacity="0" />
    </linearGradient>
    <linearGradient id="paint1_linear_0:2215" x1="32" y1="21" x2="32" y2="67" gradientUnits="userSpaceOnUse">
      <stop stop-color="#EEF2FF" />
      <stop offset="0.869565" stop-color="white" />
    </linearGradient>
  </defs>
</svg>
