<svg width="64" height="64" viewBox="0 0 64 64" fill="none" xmlns="http://www.w3.org/2000/svg">
  <circle cx="32" cy="32" r="32" fill="white" />
  <circle cx="32" cy="32" r="29" fill="#E0F2FE" />
  <mask id="mask0_0:2174" style="mask-type:alpha" maskUnits="userSpaceOnUse" x="3" y="3" width="58" height="58">
    <circle cx="32" cy="32" r="29" fill="url(#paint0_radial_0:2174)" />
  </mask>
  <g mask="url(#mask0_0:2174)">
    <rect opacity="0.08" x="16" width="63" height="1" transform="rotate(90 16 0)" fill="#075985" />
    <rect opacity="0.08" x="64" y="16" width="64" height="1" transform="rotate(-180 64 16)" fill="#075985" />
    <rect opacity="0.08" x="64" y="49" width="64" height="1" transform="rotate(-180 64 49)" fill="#075985" />
    <rect opacity="0.08" x="49" width="63" height="1" transform="rotate(90 49 0)" fill="#075985" />
    <circle opacity="0.5" cx="32" cy="32" r="20" fill="#7DD3FC" />
    <g filter="url(#filter0_d_0:2174)">
      <circle cx="32" cy="32" r="16" fill="white" />
      <circle cx="32" cy="32" r="16.5" stroke="#17A8EA" stroke-opacity="0.2" />
    </g>
    <path fill-rule="evenodd" clip-rule="evenodd" d="M18 32C18 24.268 24.268 18 32 18C39.732 18 46 24.268 46 32H18Z"
      fill="url(#paint1_linear_0:2174)" fill-opacity="0.25" />
    <g filter="url(#filter1_dd_0:2174)">
      <path d="M32 32L45 32.0003" stroke="url(#paint2_linear_0:2174)" stroke-width="2" stroke-linecap="round" />
    </g>
    <g filter="url(#filter2_d_0:2174)">
      <circle r="3" transform="matrix(-1 0 0 1 32 32)" fill="white" />
      <circle r="3.5" transform="matrix(-1 0 0 1 32 32)" stroke="#0EA5E9" stroke-opacity="0.15" />
    </g>
    <circle r="1" transform="matrix(-1 0 0 1 32 32)" fill="#BAE6FD" />
    <path d="M32 19V20" stroke="#38BDF8" stroke-width="2" stroke-linecap="round" />
    <path d="M38.5 20.7417L38 21.6077" stroke="#0EA5E9" stroke-width="2" stroke-linecap="round" />
    <path d="M43.2578 25.5L42.3918 26" stroke="#0284C7" stroke-width="2" stroke-linecap="round" />
    <path d="M43.2578 38.5L42.3918 38" stroke="#F0F9FF" stroke-width="2" stroke-linecap="round" />
    <path d="M21.6074 38L20.7414 38.5" stroke="#F0F9FF" stroke-width="2" stroke-linecap="round" />
    <path d="M20 32L19 32" stroke="#E0F2FE" stroke-width="2" stroke-linecap="round" />
    <path d="M21.6074 26L20.7414 25.5" stroke="#BAE6FD" stroke-width="2" stroke-linecap="round" />
    <path d="M26 21.6074L25.5 20.7414" stroke="#7DD3FC" stroke-width="2" stroke-linecap="round" />
  </g>
  <path
    d="M60.5 32C60.5 47.7401 47.7401 60.5 32 60.5C16.2599 60.5 3.5 47.7401 3.5 32C3.5 16.2599 16.2599 3.5 32 3.5C47.7401 3.5 60.5 16.2599 60.5 32Z"
    stroke="#334155" stroke-opacity="0.06" />
  <defs>
    <filter id="filter0_d_0:2174" x="12" y="14" width="40" height="40" filterUnits="userSpaceOnUse"
      color-interpolation-filters="sRGB">
      <feFlood flood-opacity="0" result="BackgroundImageFix" />
      <feColorMatrix in="SourceAlpha" type="matrix" values="0 0 0 0 0 0 0 0 0 0 0 0 0 0 0 0 0 0 127 0"
        result="hardAlpha" />
      <feOffset dy="2" />
      <feGaussianBlur stdDeviation="1.5" />
      <feColorMatrix type="matrix" values="0 0 0 0 0.0354167 0 0 0 0 0.0391579 0 0 0 0 0.2125 0 0 0 0.1 0" />
      <feBlend mode="normal" in2="BackgroundImageFix" result="effect1_dropShadow_0:2174" />
      <feBlend mode="normal" in="SourceGraphic" in2="effect1_dropShadow_0:2174" result="shape" />
    </filter>
    <filter id="filter1_dd_0:2174" x="28" y="29" width="21" height="8.00024" filterUnits="userSpaceOnUse"
      color-interpolation-filters="sRGB">
      <feFlood flood-opacity="0" result="BackgroundImageFix" />
      <feColorMatrix in="SourceAlpha" type="matrix" values="0 0 0 0 0 0 0 0 0 0 0 0 0 0 0 0 0 0 127 0"
        result="hardAlpha" />
      <feOffset dy="1" />
      <feGaussianBlur stdDeviation="1" />
      <feColorMatrix type="matrix" values="0 0 0 0 0 0 0 0 0 0 0 0 0 0 0 0 0 0 0.06 0" />
      <feBlend mode="normal" in2="BackgroundImageFix" result="effect1_dropShadow_0:2174" />
      <feColorMatrix in="SourceAlpha" type="matrix" values="0 0 0 0 0 0 0 0 0 0 0 0 0 0 0 0 0 0 127 0"
        result="hardAlpha" />
      <feOffset dy="1" />
      <feGaussianBlur stdDeviation="1.5" />
      <feColorMatrix type="matrix" values="0 0 0 0 0 0 0 0 0 0 0 0 0 0 0 0 0 0 0.1 0" />
      <feBlend mode="normal" in2="effect1_dropShadow_0:2174" result="effect2_dropShadow_0:2174" />
      <feBlend mode="normal" in="SourceGraphic" in2="effect2_dropShadow_0:2174" result="shape" />
    </filter>
    <filter id="filter2_d_0:2174" x="27" y="28" width="10" height="10" filterUnits="userSpaceOnUse"
      color-interpolation-filters="sRGB">
      <feFlood flood-opacity="0" result="BackgroundImageFix" />
      <feColorMatrix in="SourceAlpha" type="matrix" values="0 0 0 0 0 0 0 0 0 0 0 0 0 0 0 0 0 0 127 0"
        result="hardAlpha" />
      <feOffset dy="1" />
      <feGaussianBlur stdDeviation="0.5" />
      <feColorMatrix type="matrix" values="0 0 0 0 0.0354167 0 0 0 0 0.0391579 0 0 0 0 0.2125 0 0 0 0.1 0" />
      <feBlend mode="normal" in2="BackgroundImageFix" result="effect1_dropShadow_0:2174" />
      <feBlend mode="normal" in="SourceGraphic" in2="effect1_dropShadow_0:2174" result="shape" />
    </filter>
    <radialGradient id="paint0_radial_0:2174" cx="0" cy="0" r="1" gradientUnits="userSpaceOnUse"
      gradientTransform="translate(32 32) rotate(90) scale(29 76.4189)">
      <stop offset="0.297414" stop-color="#C4C4C4" />
      <stop offset="1" stop-color="#C4C4C4" stop-opacity="0" />
    </radialGradient>
    <linearGradient id="paint1_linear_0:2174" x1="23.5869" y1="26.7472" x2="37.3511" y2="30.6096"
      gradientUnits="userSpaceOnUse">
      <stop stop-color="#A6E0FD" stop-opacity="0" />
      <stop offset="1" stop-color="#10A6E9" />
    </linearGradient>
    <linearGradient id="paint2_linear_0:2174" x1="39.5" y1="32" x2="32" y2="32" gradientUnits="userSpaceOnUse">
      <stop stop-color="#0EA5E9" />
      <stop offset="1" stop-color="#0EA5E9" stop-opacity="0" />
    </linearGradient>
  </defs>
</svg>
