<svg width="64" height="64" viewBox="0 0 64 64" fill="none" xmlns="http://www.w3.org/2000/svg">
  <circle cx="32" cy="32" r="32" fill="white" />
  <circle cx="32" cy="32" r="29" fill="#DBEAFE" />
  <mask id="mask0_0:3280" style="mask-type:alpha" maskUnits="userSpaceOnUse" x="3" y="3" width="58" height="58">
    <circle cx="32" cy="32" r="29" fill="url(#paint0_radial_0:3280)" />
  </mask>
  <g mask="url(#mask0_0:3280)">
    <path d="M24 0L24 63L3 63L3 -5.68248e-07L24 0Z" fill="#BFDBFE" />
    <rect opacity="0.1" x="24" width="63" height="1" transform="rotate(90 24 0)" fill="#475569" />
    <path
      d="M15 26C15 23.7909 16.7909 22 19 22H67C69.2091 22 71 23.7909 71 26V39C71 41.2091 69.2091 43 67 43H19C16.7909 43 15 41.2091 15 39V26Z"
      fill="#3B82F6" />
    <path
      d="M67 21.25H19C16.3766 21.25 14.25 23.3766 14.25 26V39C14.25 41.6234 16.3766 43.75 19 43.75H67C69.6234 43.75 71.75 41.6234 71.75 39V26C71.75 23.3766 69.6233 21.25 67 21.25Z"
      fill="white" stroke="#3B82F6" stroke-width="1.5" />
    <path
      d="M15 55C15 52.7909 16.7909 51 19 51H67C69.2091 51 71 52.7909 71 55V67C71 69.2091 69.2091 71 67 71H19C16.7909 71 15 69.2091 15 67V55Z"
      fill="#EFF6FF" />
    <path
      d="M67 50.5H19C16.5147 50.5 14.5 52.5147 14.5 55V67C14.5 69.4853 16.5147 71.5 19 71.5H67C69.4853 71.5 71.5 69.4853 71.5 67V55C71.5 52.5147 69.4853 50.5 67 50.5Z"
      stroke="#334155" stroke-opacity="0.04" />
    <path
      d="M15 -2C15 -4.20914 16.7909 -6 19 -6H67C69.2091 -6 71 -4.20914 71 -2V10C71 12.2091 69.2091 14 67 14H19C16.7909 14 15 12.2091 15 10V-2Z"
      fill="#EFF6FF" />
    <path
      d="M19 -6.5C16.5147 -6.5 14.5 -4.48528 14.5 -2V10C14.5 12.4853 16.5147 14.5 19 14.5H67C69.4853 14.5 71.5 12.4853 71.5 10V-2C71.5 -4.48528 69.4853 -6.5 67 -6.5H19Z"
      stroke="#334155" stroke-opacity="0.04" />
  </g>
  <g filter="url(#filter0_d_0:3280)">
    <path
      d="M31 34.3346V48.858C31 49.1556 31.3728 49.3046 31.5908 49.0942L34.337 46.444C34.827 45.9711 35.6495 46.0811 35.9878 46.6647L38.1182 50.3404C38.4683 50.9445 39.2505 51.1736 39.8895 50.8593C40.5643 50.5273 40.8181 49.7206 40.4483 49.0826L38.4505 45.6358C38.0991 45.0294 38.4735 44.2696 39.1828 44.1501L42.7131 43.5553C43.0053 43.506 43.1022 43.1481 42.8722 42.9673L31.5647 34.0757C31.3386 33.8979 31 34.0532 31 34.3346Z"
      fill="white" />
    <path
      d="M30.5 34.3346V48.858C30.5 49.6329 31.4288 49.9454 31.9381 49.454L34.6842 46.8037C34.9452 46.5519 35.383 46.6184 35.5552 46.9155L37.6856 50.5911C38.1718 51.4299 39.2428 51.7346 40.1102 51.3079C41.0355 50.8527 41.401 49.7292 40.8809 48.8319L38.8831 45.385C38.7175 45.0993 38.8791 44.7083 39.2658 44.6432L42.7962 44.0483C43.4927 43.931 43.7712 43.0381 43.1813 42.5742L31.8738 33.6827C31.3466 33.2681 30.5 33.602 30.5 34.3346Z"
      stroke="#122F3F" stroke-opacity="0.1" />
  </g>
  <path
    d="M60.5 32C60.5 47.7401 47.7401 60.5 32 60.5C16.2599 60.5 3.5 47.7401 3.5 32C3.5 16.2599 16.2599 3.5 32 3.5C47.7401 3.5 60.5 16.2599 60.5 32Z"
    stroke="#334155" stroke-opacity="0.06" />
  <defs>
    <filter id="filter0_d_0:3280" x="27" y="32.0043" width="20.0046" height="24.9953" filterUnits="userSpaceOnUse"
      color-interpolation-filters="sRGB">
      <feFlood flood-opacity="0" result="BackgroundImageFix" />
      <feColorMatrix in="SourceAlpha" type="matrix" values="0 0 0 0 0 0 0 0 0 0 0 0 0 0 0 0 0 0 127 0"
        result="hardAlpha" />
      <feOffset dy="2" />
      <feGaussianBlur stdDeviation="1.5" />
      <feColorMatrix type="matrix" values="0 0 0 0 0.0354167 0 0 0 0 0.0391579 0 0 0 0 0.2125 0 0 0 0.1 0" />
      <feBlend mode="normal" in2="BackgroundImageFix" result="effect1_dropShadow_0:3280" />
      <feBlend mode="normal" in="SourceGraphic" in2="effect1_dropShadow_0:3280" result="shape" />
    </filter>
    <radialGradient id="paint0_radial_0:3280" cx="0" cy="0" r="1" gradientUnits="userSpaceOnUse"
      gradientTransform="translate(32 32) rotate(90) scale(29)">
      <stop offset="0.603448" stop-color="#C4C4C4" />
      <stop offset="1" stop-color="#C4C4C4" stop-opacity="0" />
    </radialGradient>
  </defs>
</svg>
