<svg viewBox="0 0 175 21" xmlns="http://www.w3.org/2000/svg"><path d="M52.284 9.01h-2.877v5.296c0 1.374.993 1.4 2.877 1.298v2.978c-4.608.509-6.16-.84-6.16-4.277V9.012h-2.215V5.855h2.215V2.647l3.283-.992v4.2h2.877V9.01zm12.192-3.155h3.284v12.727h-3.284V17.08c-.916 1.146-2.29 1.858-4.149 1.858-3.385 0-6.185-2.927-6.185-6.72 0-3.793 2.8-6.72 6.185-6.72 1.858 0 3.233.713 4.15 1.858V5.855zm-3.538 9.952c2.036 0 3.538-1.45 3.538-3.589 0-2.138-1.502-3.589-3.538-3.589-2.01 0-3.513 1.451-3.513 3.59 0 2.137 1.502 3.588 3.513 3.588zm11.43-11.48a2.032 2.032 0 0 1-2.012-2.01c0-1.095.917-2.037 2.011-2.037 1.12 0 2.037.942 2.037 2.036 0 1.095-.917 2.011-2.037 2.011zm-1.63 14.255V5.855h3.284v12.727h-3.284zm6.287 0V0h3.284v18.582h-3.284zM97.644 5.855h3.487l-4.047 12.727h-3.131l-2.342-7.713-2.342 7.713h-3.13L82.09 5.855h3.487l2.164 7.814 2.316-7.814h3.106l2.316 7.84 2.164-7.84zm6.898-1.528a2.032 2.032 0 0 1-2.011-2.01c0-1.095.916-2.037 2.011-2.037 1.12 0 2.036.942 2.036 2.036 0 1.095-.916 2.011-2.036 2.011zm-1.629 14.255V5.855h3.283v12.727h-3.283zm13.363-13.084c2.699 0 4.811 1.884 4.811 5.27v7.814h-3.283v-7.408c0-1.73-1.044-2.621-2.52-2.621-1.604 0-2.8.942-2.8 3.156v6.873H109.2V5.855h3.284V7.28c.763-1.145 2.087-1.782 3.792-1.782zM133.535.764h3.283v17.818h-3.283V17.08c-.917 1.17-2.266 1.858-4.124 1.858-3.411 0-6.211-2.927-6.211-6.72 0-3.793 2.8-6.72 6.211-6.72 1.858 0 3.207.687 4.124 1.858V.764zm-3.513 15.043c2.011 0 3.513-1.45 3.513-3.589 0-2.138-1.502-3.589-3.513-3.589-2.037 0-3.538 1.451-3.538 3.59 0 2.137 1.501 3.588 3.538 3.588zm15.858 3.131c-3.869 0-6.72-2.927-6.72-6.72 0-3.793 2.851-6.72 6.72-6.72 2.495 0 4.658 1.324 5.702 3.284l-2.826 1.654c-.509-1.043-1.603-1.705-2.902-1.705-1.959 0-3.41 1.45-3.41 3.487 0 2.011 1.451 3.462 3.41 3.462 1.324 0 2.419-.636 2.928-1.68l2.851 1.63c-1.095 1.984-3.258 3.308-5.753 3.308zm10.614-9.469c0 1.884 6.568.713 6.568 5.397 0 2.748-2.393 4.072-5.117 4.072-2.545 0-4.429-1.069-5.345-3.029l2.851-1.604c.356 1.044 1.222 1.655 2.494 1.655 1.044 0 1.757-.356 1.757-1.095 0-1.858-6.568-.84-6.568-5.32 0-2.596 2.215-4.047 4.837-4.047 2.062 0 3.843.942 4.836 2.698l-2.8 1.528c-.382-.815-1.094-1.299-2.036-1.299-.815 0-1.477.357-1.477 1.044zm11.837 0c0 1.884 6.567.713 6.567 5.397 0 2.748-2.393 4.072-5.116 4.072-2.546 0-4.429-1.069-5.346-3.029l2.851-1.604c.357 1.044 1.222 1.655 2.495 1.655 1.043 0 1.756-.356 1.756-1.095 0-1.858-6.567-.84-6.567-5.32 0-2.596 2.214-4.047 4.836-4.047 2.062 0 3.844.942 4.837 2.698l-2.8 1.528c-.382-.815-1.095-1.299-2.037-1.299-.814 0-1.476.357-1.476 1.044z" fill="#2D3748"/><path d="M8.59 7.064C9.737 2.482 12.6.19 17.183.19c6.873 0 7.732 5.154 11.168 6.014 2.29.572 4.295-.287 6.014-2.578-1.146 4.582-4.01 6.873-8.591 6.873-6.873 0-7.732-5.155-11.168-6.014-2.291-.572-4.296.287-6.014 2.578zM0 17.373C1.145 12.79 4.01 10.5 8.59 10.5c6.874 0 7.733 5.155 11.17 6.014 2.29.572 4.294-.287 6.013-2.578-1.146 4.582-4.01 6.873-8.591 6.873-6.873 0-7.732-5.154-11.168-6.014-2.291-.572-4.296.287-6.014 2.578z" fill="url(#a)"/><defs><linearGradient id="a" y1="6.789" x2="28.542" y2="23.914" gradientUnits="userSpaceOnUse"><stop stop-color="#2383AE"/><stop offset="1" stop-color="#6DD7B9"/></linearGradient></defs></svg>