<svg viewBox="0 0 112 112" xmlns="http://www.w3.org/2000/svg" xmlns:xlink="http://www.w3.org/1999/xlink"><defs><circle id="b" cx="48" cy="28" r="28"/><filter x="-12.5%" y="-8.9%" width="125%" height="125%" id="a"><feOffset dy="2" in="SourceAlpha" result="shadowOffsetOuter1"/><feGaussianBlur stdDeviation="2" in="shadowOffsetOuter1" result="shadowBlurOuter1"/><feColorMatrix values="0 0 0 0 0 0 0 0 0 0 0 0 0 0 0 0 0 0 0.1 0" in="shadowBlurOuter1"/></filter><linearGradient x1="0%" y1="0%" y2="100%" id="c"><stop stop-color="#2383AE" offset="0%"/><stop stop-color="#6DD7B9" offset="100%"/></linearGradient></defs><g transform="translate(8 16)"><use filter="url(#a)" xlink:href="#b"/><use fill="#FFF" xlink:href="#b"/></g><path d="M38 24c1.333-5.333 4.667-8 10-8 8 0 9 6 13 7 2.667.667 5-.333 7-3-1.333 5.333-4.667 8-10 8-8 0-9-6-13-7-2.667-.667-5 .333-7 3zM28 36c1.333-5.333 4.667-8 10-8 8 0 9 6 13 7 2.667.667 5-.333 7-3-1.333 5.333-4.667 8-10 8-8 0-9-6-13-7-2.667-.667-5 .333-7 3z" fill="url(#c)" transform="translate(8 16)"/><path d="M11.445 86.352H8v-2.064h9.294v2.064H13.85v9.36h-2.405v-9.36zm10.347 8.304c-.33.373-.702.677-1.114.912-.41.235-.942.352-1.594.352-.374 0-.73-.048-1.065-.144a2.449 2.449 0 0 1-.883-.448 2.19 2.19 0 0 1-.6-.776c-.15-.315-.225-.69-.225-1.128 0-.576.128-1.045.385-1.408a2.607 2.607 0 0 1 1.01-.848 5.042 5.042 0 0 1 1.4-.432c.52-.085 1.045-.14 1.58-.16l1.073-.048v-.416c0-.512-.14-.864-.425-1.056a1.737 1.737 0 0 0-1-.288c-.888 0-1.395.336-1.523 1.008l-2.05-.192c.148-.875.533-1.507 1.152-1.896.62-.39 1.453-.584 2.5-.584.64 0 1.186.077 1.634.232.45.155.81.376 1.082.664.272.288.47.637.593 1.048.123.41.184.872.184 1.384v5.28h-2.115v-1.056zm-.048-2.672l-.993.048c-.47.02-.85.07-1.137.144-.288.075-.51.168-.665.28a.825.825 0 0 0-.312.392c-.054.15-.08.315-.08.496 0 .277.096.496.288.656.192.16.46.24.8.24.578 0 1.048-.133 1.41-.4.204-.15.37-.34.498-.568.128-.23.192-.515.192-.856v-.432zm3.986-4.624h2.243v8.352H25.73V87.36zm-.032-3.072h2.307v2.016h-2.307v-2.016zm4.194 0h2.243v11.424h-2.243V84.288zm3.25 3.072h2.434l1.17 5.536 1.602-5.472h1.955l1.522 5.472 1.17-5.536h2.34l-2.436 8.352h-2.18l-1.49-5.504-1.507 5.504h-2.147L33.14 87.36zm13.198 0h2.243v8.352H46.34V87.36zm-.032-3.072h2.307v2.016h-2.307v-2.016zm4.178 3.072h2.18v1.152c.33-.49.723-.848 1.177-1.072a3.168 3.168 0 0 1 1.418-.336c.952 0 1.657.248 2.116.744.46.496.69 1.277.69 2.344v5.52H55.82v-5.216c0-.587-.112-.987-.337-1.2-.224-.213-.523-.32-.897-.32-.288 0-.537.043-.745.128a2.073 2.073 0 0 0-.585.368c-.15.15-.275.328-.377.536-.1.208-.15.435-.15.68v5.024h-2.244V87.36zm15.186 7.248c-.64.907-1.506 1.36-2.596 1.36-1.175 0-2.05-.395-2.628-1.184-.576-.79-.865-1.883-.865-3.28 0-.65.083-1.245.25-1.784.164-.54.402-1.003.712-1.392.31-.39.69-.69 1.137-.904.45-.213.956-.32 1.523-.32.416 0 .83.075 1.24.224.413.15.8.437 1.163.864v-3.904h2.243v11.424h-2.178v-1.104zm-.048-3.168c0-.533-.045-.96-.136-1.28a1.77 1.77 0 0 0-.44-.784 1.382 1.382 0 0 0-.634-.376 2.679 2.679 0 0 0-.68-.088c-.246 0-.48.048-.698.144-.22.096-.41.245-.577.448a2.24 2.24 0 0 0-.393.8c-.096.33-.144.725-.144 1.184 0 .5.045.92.136 1.256.09.336.215.608.375.816.16.208.348.357.56.448.215.09.445.136.69.136.534 0 .972-.155 1.314-.464.213-.213.37-.472.472-.776.1-.304.152-.696.152-1.176v-.288zm17.538.32a5.277 5.277 0 0 1-.425 1.688 4.16 4.16 0 0 1-.945 1.344c-.4.38-.892.675-1.475.888-.582.213-1.257.32-2.026.32-.865 0-1.626-.144-2.283-.432a4.488 4.488 0 0 1-1.65-1.216c-.444-.523-.777-1.155-1.002-1.896-.224-.74-.336-1.56-.336-2.456 0-.928.122-1.76.367-2.496.246-.736.6-1.365 1.058-1.888a4.573 4.573 0 0 1 1.666-1.2c.653-.277 1.39-.416 2.213-.416.726 0 1.36.09 1.898.272.54.18.995.443 1.363.784.37.34.665.752.89 1.232.224.48.39 1.02.496 1.616l-2.372.304c-.118-.672-.345-1.2-.68-1.584-.338-.384-.87-.576-1.595-.576-.92 0-1.616.344-2.09 1.032-.477.688-.715 1.66-.715 2.92 0 1.27.254 2.245.762 2.928.507.683 1.188 1.024 2.043 1.024.737 0 1.28-.19 1.626-.568.346-.38.562-.92.648-1.624h2.564zm3.49.224c.052.704.28 1.216.68 1.536.4.32.99.48 1.77.48.374 0 .69-.04.946-.12.256-.08.464-.187.625-.32.16-.133.275-.29.344-.472.07-.18.104-.38.104-.592 0-.3-.11-.58-.335-.84-.225-.26-.636-.45-1.234-.568l-1.49-.272a8.84 8.84 0 0 1-1.554-.416 3.594 3.594 0 0 1-1.13-.664 2.66 2.66 0 0 1-.696-1c-.16-.395-.24-.864-.24-1.408 0-.544.11-1.024.328-1.44.22-.416.523-.763.913-1.04s.86-.488 1.403-.632A7.015 7.015 0 0 1 88.881 84c.833 0 1.528.096 2.083.288.556.192 1.005.445 1.347.76.342.315.595.68.76 1.096a5.1 5.1 0 0 1 .33 1.296l-2.26.288c-.117-.63-.344-1.083-.68-1.36-.337-.277-.847-.416-1.53-.416-.407 0-.74.035-1.002.104-.262.07-.473.16-.633.272a.935.935 0 0 0-.337.392c-.064.15-.096.304-.096.464 0 .427.12.747.36.96.24.213.648.38 1.225.496l1.57.304c1.24.245 2.148.643 2.725 1.192.576.55.865 1.34.865 2.376 0 .5-.094.963-.28 1.384-.188.42-.465.79-.834 1.104-.367.315-.83.56-1.385.736-.555.176-1.207.264-1.955.264-1.56 0-2.753-.333-3.58-1-.83-.667-1.275-1.672-1.34-3.016h2.42zm10.394 0c.053.704.28 1.216.68 1.536.4.32.992.48 1.77.48.375 0 .69-.04.947-.12.256-.08.464-.187.625-.32.16-.133.275-.29.344-.472.07-.18.104-.38.104-.592 0-.3-.112-.58-.336-.84-.224-.26-.636-.45-1.234-.568l-1.49-.272a8.792 8.792 0 0 1-1.554-.416 3.56 3.56 0 0 1-1.13-.664 2.663 2.663 0 0 1-.697-1c-.16-.395-.24-.864-.24-1.408 0-.544.11-1.024.328-1.44a2.96 2.96 0 0 1 .913-1.04 4.3 4.3 0 0 1 1.402-.632A7.015 7.015 0 0 1 99.273 84c.833 0 1.528.096 2.083.288.556.192 1.004.445 1.346.76.342.315.596.68.76 1.096a5.1 5.1 0 0 1 .33 1.296l-2.26.288c-.117-.63-.344-1.083-.68-1.36-.337-.277-.847-.416-1.53-.416-.407 0-.74.035-1.002.104-.262.07-.473.16-.633.272a.935.935 0 0 0-.337.392c-.064.15-.096.304-.096.464 0 .427.12.747.36.96.24.213.65.38 1.226.496l1.57.304c1.24.245 2.148.643 2.725 1.192.577.55.865 1.34.865 2.376 0 .5-.093.963-.28 1.384a3.09 3.09 0 0 1-.834 1.104c-.368.315-.83.56-1.386.736-.555.176-1.207.264-1.954.264-1.56 0-2.754-.333-3.582-1-.828-.667-1.274-1.672-1.338-3.016h2.42z" fill="#24292E"/></svg>