<svg xmlns="http://www.w3.org/2000/svg" fill="none" viewBox="0 0 190 140">
  <path fill="#161E2E" d="M0 0h190v140H0z"/>
  <mask id="a" width="190" height="140" x="0" y="0" mask-type="alpha" maskUnits="userSpaceOnUse">
    <rect width="190" height="140" fill="#252F3F" rx="8"/>
  </mask>
  <g mask="url(#a)">
    <path fill="#252F3F" d="M-563.019-164.554s207.553 9.026 359.38 49.708S132.448 21.795 132.448 21.795s184.259 95.96 336.086 136.642c151.827 40.682 359.38 49.708 359.38 49.708l26.659-99.49-1390.934-372.7-26.658 99.491z"/>
    <path fill="#374151" d="M-563.302-163.499l.276-.042.121-.019.031-.005.007-.001s.002 0-.014-.105l-.138-.883c.155.988.158.987.158.987l.007-.001.029-.004.118-.019.472-.072.334-.051.654-.098.873-.13a724.3 724.3 0 017.206-1.022c6.283-.861 15.431-2.047 26.884-3.342a1437.432 1437.432 0 0191.891-7.384c73.749-3.524 166.381-1.957 242.142 18.343S-35.484-92.087 26.622-52.162A1437.944 1437.944 0 01102.51.178c9.271 6.85 16.6 12.45 21.611 16.337a711.469 711.469 0 016.625 5.2l.403.32.174.14.372.299.094.075.023.018.005.005s.002.001.561-.69l-.423.524c-.135.168-.134.17-.134.17l.007.004.024.02.095.076.376.302a719.908 719.908 0 007.225 5.678 1161.275 1161.275 0 0021.648 16.365 1440.033 1440.033 0 0075.996 52.414c62.156 39.958 143.371 85.053 219.436 105.435 76.066 20.381 168.948 21.935 242.756 18.409a1440.323 1440.323 0 0092.02-7.394 1157.804 1157.804 0 0026.931-3.349 690.515 690.515 0 009.097-1.305l.199-.03.283-1.056.283-1.055-.276.042-.159.025s-.003 0 .152.988l-.132-.84c-.024-.148-.025-.147-.025-.147l-.007.001-.148.023-.472.072c-.418.064-1.041.158-1.86.279-1.64.242-4.065.591-7.207 1.022-6.283.861-15.431 2.047-26.883 3.342a1438.208 1438.208 0 01-91.892 7.384c-73.749 3.524-166.381 1.957-242.142-18.343S300.38 135.679 238.273 95.753a1437.782 1437.782 0 01-75.888-52.34 1158.093 1158.093 0 01-21.611-16.337 733.017 733.017 0 01-5.73-4.489c-.649-.514-1.142-.907-1.472-1.171l-.372-.299-.093-.075-.024-.018-.005-.005s-.002-.002-.63.777l.501-.622c.126-.157.125-.158.125-.158l-.006-.005-.024-.02-.096-.076-.376-.302-.258-.206-.409-.326-.812-.645a724.645 724.645 0 00-5.746-4.501A1161.332 1161.332 0 00103.699-1.43a1440.133 1440.133 0 00-75.995-52.414c-62.156-39.958-143.371-85.053-219.437-105.435-76.066-20.381-168.948-21.935-242.755-18.409a1440.363 1440.363 0 00-92.021 7.394 1157.586 1157.586 0 00-26.93 3.349 695.43 695.43 0 00-7.227 1.025l-.893.132-.977.148-.2.03-.283 1.056-.283 1.055z"/>
    <path fill="#374151" d="M-563.285-163.565l.213.01h.007s.003 0 .035-.735l-.021.489-.005.125-.004.112v.009h.007l.028.002.561.025 1.765.084c1.555.076 3.857.193 6.841.356 5.968.326 14.664.837 25.574 1.578a2518.318 2518.318 0 0187.917 7.549c70.849 7.34 160.633 19.761 236.47 40.081C-128.06-93.56-44.095-59.424 20.932-30.356a2517.785 2517.785 0 0179.913 37.42c9.819 4.814 17.606 8.72 22.937 11.421a1132.618 1132.618 0 017.673 3.922l.498.259.025.012.006.004s.002 0 .464-.886c-.462.887-.46.888-.46.888l.007.003.527.273a1242.406 1242.406 0 007.688 3.93 1963.98 1963.98 0 0022.961 11.433 2520.53 2520.53 0 0079.977 37.45c65.059 29.083 149.138 63.269 225.128 83.63 75.99 20.362 165.896 32.795 236.781 40.139a2519.512 2519.512 0 0087.987 7.555c10.92.741 19.625 1.253 25.601 1.58a1201.074 1201.074 0 008.624.44l.38.018.266-.992.264-.987-.069-.003-.142-.006-.007-.001s-.002 0-.008.125l-.038.872c.043-.997.041-.997.041-.997l-.148-.006-.447-.021a1189.426 1189.426 0 01-8.607-.439c-5.967-.326-14.664-.838-25.574-1.578a2518.707 2518.707 0 01-87.917-7.55c-70.849-7.34-160.633-19.76-236.47-40.081-75.837-20.32-159.802-54.455-224.829-83.523a2518.101 2518.101 0 01-79.913-37.42 1954.521 1954.521 0 01-22.937-11.422 1181.957 1181.957 0 01-7.673-3.922l-.498-.258-.025-.013-.006-.003s-.002-.001-.425.81l.339-.652.082-.16-.007-.004-.527-.273a1206.607 1206.607 0 00-7.688-3.93 1955.214 1955.214 0 00-22.961-11.433 2519.53 2519.53 0 00-79.977-37.45c-65.06-29.083-149.138-63.268-225.128-83.63-75.99-20.361-165.896-32.795-236.781-40.138a2519.9 2519.9 0 00-87.987-7.556 1954.243 1954.243 0 00-25.601-1.579c-2.988-.163-5.294-.28-6.853-.357-.779-.038-1.372-.065-1.77-.084l-.382-.017-.531 1.978z"/>
    <path fill="#374151" fill-rule="evenodd" d="M828.175 207.173l-.107-.016c-.002 0-.003 0-.153.986.15-.986.149-.986.148-.987l-2.298-.354c-1.513-.235-3.753-.585-6.659-1.046-5.81-.92-14.281-2.28-24.921-4.039a4869.172 4869.172 0 01-85.933-15.02c-69.401-12.774-157.76-30.628-233.635-50.959-75.876-20.331-161.324-49.048-227.814-72.686a4861.196 4861.196 0 01-81.93-29.959 3767.539 3767.539 0 01-23.603-8.962 2215.412 2215.412 0 01-6.289-2.424l-.865-.335-.756-.294-.546-.213c-.002 0-.002 0-.366.93.364-.93.363-.931.361-.932l-.006-.002-2.166-.841c-1.43-.554-3.547-1.372-6.295-2.427a3741.043 3741.043 0 00-23.615-8.967 4863.955 4863.955 0 00-81.964-29.971C-47.745-44.99-133.25-73.727-209.203-94.079c-75.952-20.351-164.372-38.217-233.792-50.994a4870.17 4870.17 0 00-85.968-15.026 3762.894 3762.894 0 00-24.935-4.042 2236.796 2236.796 0 00-8.385-1.312l-.476-.073-.259.967-.262.977.101.015.007.001c.002 0 .003 0 .153-.988l-.116.766c-.034.223-.033.223-.032.223l2.297.354c1.514.235 3.754.586 6.659 1.046 5.811.92 14.282 2.28 24.922 4.039a4869.317 4869.317 0 0185.932 15.02c69.402 12.774 157.761 30.629 233.636 50.96C-133.845-71.817-48.397-43.1 18.093-19.46a4861.28 4861.28 0 0181.93 29.958 3733.448 3733.448 0 0123.602 8.962 2234.74 2234.74 0 017.91 3.053l.547.213c.001 0 .002.001.366-.93-.364.931-.363.931-.362.932l.007.002.542.212 1.623.63c1.431.553 3.548 1.371 6.296 2.426 5.496 2.11 13.516 5.169 23.615 8.967a4862.23 4862.23 0 0081.964 29.971c66.507 23.645 152.014 52.382 227.966 72.734 75.952 20.351 164.371 38.217 233.791 50.994a4862.325 4862.325 0 0085.969 15.026c10.644 1.76 19.12 3.121 24.934 4.042a2346.612 2346.612 0 008.386 1.312l.475.073.261-.974.26-.97z" clip-rule="evenodd"/>
    <path fill="#16BDCA" d="M-563.292-163.537l.175-.01.118-.007.029-.001.008-.001s.002 0-.057-.998c.059.998.062.998.062.998l.007-.001.144-.008.46-.026.642-.035 1.17-.062c1.598-.083 3.961-.2 7.024-.334 6.125-.268 15.047-.605 26.228-.882 22.363-.556 53.763-.873 89.903.081 72.298 1.908 163.506 8.899 239.305 29.209 75.799 20.311 158.283 59.86 221.848 94.357a1776.71 1776.71 0 0177.899 44.88 1402.426 1402.426 0 0122.274 13.88 850.16 850.16 0 015.915 3.8c.671.435 1.18.767 1.522.99l.385.253.12.079.006.004.553-.834c-.551.835-.549.837-.549.837l.006.004.025.016.098.065.389.254.485.317 1.042.678c1.347.873 3.34 2.159 5.93 3.81 5.181 3.3 12.749 8.06 22.305 13.898a1778.634 1778.634 0 0077.988 44.932c63.609 34.52 146.257 74.159 222.285 94.53 76.028 20.372 167.422 27.368 239.769 29.277 36.182.955 67.616.638 90.006.082 11.195-.278 20.129-.616 26.266-.884a874.021 874.021 0 008.86-.432l.289-.017.272-1.017.273-1.017-.175.01-.117.007-.03.001-.008.001s-.002 0 .057.998c-.059-.998-.061-.998-.061-.998h-.008l-.144.009a95.19 95.19 0 01-.459.026l-.502.028-1.311.069c-1.597.083-3.961.2-7.023.334-6.126.267-15.048.605-26.229.882-22.363.556-53.762.872-89.903-.081-72.298-1.908-163.506-8.899-239.305-29.21-75.799-20.31-158.282-59.859-221.848-94.356a1776.502 1776.502 0 01-77.899-44.88 1401.954 1401.954 0 01-22.273-13.88 851.658 851.658 0 01-7.437-4.79l-.385-.253-.121-.08-.006-.003s-.002-.001-.552.833c.55-.834.548-.836.548-.836l-.006-.004-.025-.016-.098-.065-.388-.254-.66-.431-.868-.564a864.232 864.232 0 00-5.93-3.81c-5.18-3.3-12.749-8.06-22.305-13.898a1778.89 1778.89 0 00-77.988-44.932c-63.609-34.52-146.256-74.159-222.285-94.53-76.028-20.372-167.422-27.368-239.769-29.277a1778.562 1778.562 0 00-90.005-.082c-11.195.278-20.13.616-26.267.884a871.04 871.04 0 00-8.86.432l-.288.016-.273 1.018-.273 1.017z"/>
  </g>
  <path fill="#16BDCA" fill-rule="evenodd" d="M30.622 102.613c-3.632 0-5.902 1.816-6.81 5.449 1.362-1.817 2.95-2.498 4.767-2.044 1.036.26 1.777 1.011 2.597 1.843 1.335 1.356 2.881 2.925 6.257 2.925 3.633 0 5.903-1.816 6.81-5.449-1.361 1.817-2.95 2.498-4.767 2.044-1.036-.259-1.777-1.011-2.596-1.843-1.336-1.356-2.882-2.925-6.258-2.925zm-6.811 8.173c-3.633 0-5.903 1.816-6.811 5.449 1.362-1.816 2.951-2.498 4.768-2.044 1.036.26 1.776 1.011 2.596 1.844 1.336 1.355 2.881 2.924 6.258 2.924 3.632 0 5.902-1.816 6.81-5.449-1.362 1.817-2.95 2.498-4.767 2.044-1.036-.259-1.777-1.011-2.597-1.843-1.335-1.356-2.881-2.925-6.257-2.925z" clip-rule="evenodd"/>
  <mask id="b" fill="#fff">
    <path fill-rule="evenodd" d="M78.108 116.916h-2.207V102h2.207v14.916zm-5.872-11.749c.776 0 1.41-.654 1.41-1.41 0-.776-.634-1.41-1.41-1.41-.776 0-1.41.634-1.41 1.41 0 .756.634 1.41 1.41 1.41zm-15.556 1.532v2.125h-2.533v4.904c0 1.308.858 1.287 2.533 1.206v1.982c-3.392.408-4.74-.532-4.74-3.188v-4.904h-1.88v-2.125h1.88v-2.206l2.207-.654v2.86h2.533zm9.674 1.451v-1.451h2.207v10.217h-2.207v-1.471c-.777 1.082-1.982 1.736-3.576 1.736-2.779 0-5.088-2.349-5.088-5.373 0-3.045 2.31-5.374 5.088-5.374 1.594 0 2.8.654 3.576 1.716zm-6.457 3.658c0 1.9 1.39 3.269 3.228 3.269 1.84 0 3.229-1.369 3.229-3.269 0-1.901-1.39-3.27-3.229-3.27-1.839 0-3.228 1.369-3.228 3.27zm32.542-5.109l-2.002 7.05-2.125-7.05h-2.105l-2.145 7.05-1.982-7.05h-2.33l3.209 10.217h2.166l2.145-6.886 2.125 6.886h2.166l3.208-10.217h-2.33zm-21.306 10.217h2.206v-10.217h-2.207v10.217zm27.774-13.159c0 .756-.633 1.41-1.41 1.41-.776 0-1.41-.654-1.41-1.41 0-.776.634-1.41 1.41-1.41.776 0 1.41.634 1.41 1.41zm-.307 13.159h-2.206v-10.217H98.6v10.217zm7.936-10.482c-1.389 0-2.492.511-3.167 1.573v-1.308h-2.206v10.217h2.206v-5.476c0-2.084 1.145-2.942 2.595-2.942 1.39 0 2.289.817 2.289 2.37v6.048h2.206v-6.273c0-2.656-1.634-4.209-3.923-4.209zm14.391 1.716v-5.537h2.206v14.303h-2.206v-1.471c-.777 1.082-1.982 1.736-3.576 1.736-2.779 0-5.088-2.349-5.088-5.373 0-3.045 2.309-5.374 5.088-5.374 1.594 0 2.799.654 3.576 1.716zm-6.457 3.658c0 1.9 1.389 3.269 3.228 3.269 1.839 0 3.229-1.369 3.229-3.269 0-1.901-1.39-3.27-3.229-3.27-1.839 0-3.228 1.369-3.228 3.27zm24.444-7.833h-6.811a2.725 2.725 0 00-2.725 2.725v6.81a2.725 2.725 0 002.725 2.725h6.811a2.725 2.725 0 002.724-2.725v-6.81a2.725 2.725 0 00-2.724-2.725zm-6.811-1.362a4.087 4.087 0 00-4.087 4.087v6.81a4.087 4.087 0 004.087 4.087h6.811A4.087 4.087 0 00143 113.51v-6.81a4.087 4.087 0 00-4.086-4.087h-6.811zm2.086 11.372c1.469 0 2.556-.878 2.556-2.317v-4.491h-1.316v4.386c0 .648-.343 1.134-1.24 1.134-.896 0-1.239-.486-1.239-1.134v-4.386h-1.307v4.491c0 1.439 1.087 2.317 2.546 2.317zm3.932-6.808v6.674h1.316v-6.674h-1.316z" clip-rule="evenodd"/>
  </mask>
  <path fill="#fff" fill-rule="evenodd" d="M78.108 116.916h-2.207V102h2.207v14.916zm-5.872-11.749c.776 0 1.41-.654 1.41-1.41 0-.776-.634-1.41-1.41-1.41-.776 0-1.41.634-1.41 1.41 0 .756.634 1.41 1.41 1.41zm-15.556 1.532v2.125h-2.533v4.904c0 1.308.858 1.287 2.533 1.206v1.982c-3.392.408-4.74-.532-4.74-3.188v-4.904h-1.88v-2.125h1.88v-2.206l2.207-.654v2.86h2.533zm9.674 1.451v-1.451h2.207v10.217h-2.207v-1.471c-.777 1.082-1.982 1.736-3.576 1.736-2.779 0-5.088-2.349-5.088-5.373 0-3.045 2.31-5.374 5.088-5.374 1.594 0 2.8.654 3.576 1.716zm-6.457 3.658c0 1.9 1.39 3.269 3.228 3.269 1.84 0 3.229-1.369 3.229-3.269 0-1.901-1.39-3.27-3.229-3.27-1.839 0-3.228 1.369-3.228 3.27zm32.542-5.109l-2.002 7.05-2.125-7.05h-2.105l-2.145 7.05-1.982-7.05h-2.33l3.209 10.217h2.166l2.145-6.886 2.125 6.886h2.166l3.208-10.217h-2.33zm-21.306 10.217h2.206v-10.217h-2.207v10.217zm27.774-13.159c0 .756-.633 1.41-1.41 1.41-.776 0-1.41-.654-1.41-1.41 0-.776.634-1.41 1.41-1.41.776 0 1.41.634 1.41 1.41zm-.307 13.159h-2.206v-10.217H98.6v10.217zm7.936-10.482c-1.389 0-2.492.511-3.167 1.573v-1.308h-2.206v10.217h2.206v-5.476c0-2.084 1.145-2.942 2.595-2.942 1.39 0 2.289.817 2.289 2.37v6.048h2.206v-6.273c0-2.656-1.634-4.209-3.923-4.209zm14.391 1.716v-5.537h2.206v14.303h-2.206v-1.471c-.777 1.082-1.982 1.736-3.576 1.736-2.779 0-5.088-2.349-5.088-5.373 0-3.045 2.309-5.374 5.088-5.374 1.594 0 2.799.654 3.576 1.716zm-6.457 3.658c0 1.9 1.389 3.269 3.228 3.269 1.839 0 3.229-1.369 3.229-3.269 0-1.901-1.39-3.27-3.229-3.27-1.839 0-3.228 1.369-3.228 3.27zm24.444-7.833h-6.811a2.725 2.725 0 00-2.725 2.725v6.81a2.725 2.725 0 002.725 2.725h6.811a2.725 2.725 0 002.724-2.725v-6.81a2.725 2.725 0 00-2.724-2.725zm-6.811-1.362a4.087 4.087 0 00-4.087 4.087v6.81a4.087 4.087 0 004.087 4.087h6.811A4.087 4.087 0 00143 113.51v-6.81a4.087 4.087 0 00-4.086-4.087h-6.811zm2.086 11.372c1.469 0 2.556-.878 2.556-2.317v-4.491h-1.316v4.386c0 .648-.343 1.134-1.24 1.134-.896 0-1.239-.486-1.239-1.134v-4.386h-1.307v4.491c0 1.439 1.087 2.317 2.546 2.317zm3.932-6.808v6.674h1.316v-6.674h-1.316z" clip-rule="evenodd"/>
  <path fill="#fff" d="M75.901 116.916h-2v2h2v-2zm2.207 0v2h2v-2h-2zM75.901 102v-2h-2v2h2zm2.207 0h2v-2h-2v2zm-21.428 6.824v2h2v-2h-2zm0-2.125h2v-2h-2v2zm-2.533 2.125v-2h-2v2h2zm2.533 6.11h2v-2.1l-2.097.102.097 1.998zm0 1.982l.24 1.985 1.76-.212v-1.773h-2zm-4.74-8.092h2v-2h-2v2zm-1.88 0h-2v2h2v-2zm0-2.125v-2h-2v2h2zm1.88 0v2h2v-2h-2zm0-2.206l-.568-1.918-1.432.424v1.494h2zm2.207-.654h2v-2.679l-2.569.761.569 1.918zm0 2.86h-2v2h2v-2zm12.207 0v-2h-2v2h2zm0 1.451l-1.615 1.18 3.615 4.947v-6.127h-2zm2.207-1.451h2v-2h-2v2zm0 10.217v2h2v-2h-2zm-2.207 0h-2v2h2v-2zm0-1.471h2v-6.222l-3.626 5.056 1.626 1.166zm24.083-1.696l-1.915.577 1.972 6.541 1.867-6.572-1.924-.546zm2.002-7.05v-2h-1.51l-.413 1.454 1.923.546zm-4.127 0l1.915-.577-.429-1.423h-1.486v2zm-2.105 0v-2h-1.481l-.432 1.418 1.913.582zm-2.145 7.05l-1.925.541 1.85 6.577 1.989-6.536-1.914-.582zm-1.982-7.05l1.925-.541-.41-1.459H82.08v2zm-2.33 0v-2h-2.723l.816 2.6 1.908-.6zm3.209 10.217l-1.908.599.44 1.401h1.468v-2zm2.166 0v2h1.471l.438-1.405-1.91-.595zm2.145-6.886l1.911-.59-1.902-6.163-1.918 6.158 1.909.595zm2.125 6.886l-1.911.589.435 1.411h1.476v-2zm2.166 0v2h1.468l.44-1.401-1.908-.599zm3.208-10.217l1.908.6.816-2.6h-2.724v2zm-21.43 10.217v2h2v-2h-2zm-2.207 0h-2v2h2v-2zm2.207-10.217h2v-2h-2v2zm-2.207 0v-2h-2v2h2zm25.262 10.217h-2v2h2v-2zm2.206 0v2h2v-2h-2zm-2.206-10.217v-2h-2v2h2zm2.206 0h2v-2h-2v2zm4.769 1.308h-2v6.884l3.689-5.812-1.689-1.072zm0-1.308h2v-2h-2v2zm-2.206 0v-2h-2v2h2zm0 10.217h-2v2h2v-2zm2.206 0v2h2v-2h-2zm4.884 0h-2v2h2v-2zm2.206 0v2h2v-2h-2zm10.468-14.303v-2h-2v2h2zm0 5.537l-1.615 1.18 3.615 4.947v-6.127h-2zm2.206-5.537h2v-2h-2v2zm0 14.303v2h2v-2h-2zm-2.206 0h-2v2h2v-2zm0-1.471h2v-6.222l-3.626 5.056 1.626 1.166zm15.818-8.268h2v-2h-2v2zm-1.316 0v-2h-2v2h2zm-2.479 0h2v-2h-2v2zm-1.307 0v-2h-2v2h2zm6.478 6.674h-2v2h2v-2zm0-6.674v-2h-2v2h2zm1.316 6.674v2h2v-2h-2zm0-6.674h2v-2h-2v2zm-63.536 11.739h2.207v-4h-2.207v4zm-2-16.916v14.916h4V102h-4zm4.207-2h-2.207v4h2.207v-4zm2 16.916V102h-4v14.916h4zm-8.462-13.159c0-.186.076-.329.165-.419a.6.6 0 01.425-.171v4c1.9 0 3.41-1.568 3.41-3.41h-4zm.59.59a.587.587 0 01-.59-.59h4a3.413 3.413 0 00-3.41-3.41v4zm.59-.59c0 .328-.262.59-.59.59v-4a3.413 3.413 0 00-3.41 3.41h4zm-.59-.59a.6.6 0 01.425.171c.088.09.165.233.165.419h-4c0 1.842 1.51 3.41 3.41 3.41v-4zm-13.556 5.657v-2.125h-4v2.125h4zm-4.533 2h2.533v-4h-2.533v4zm2 2.904v-4.904h-4v4.904h4zm.436-.792c-.434.021-.729.033-.961.028-.246-.005-.262-.03-.177 0 .057.02.161.065.28.155.122.095.227.214.304.344.145.245.117.402.117.265h-4c0 .518.08 1.162.438 1.768a2.844 2.844 0 001.541 1.244c.51.178 1.022.215 1.408.223.4.009.84-.012 1.245-.032l-.195-3.995zm2.097 3.98v-1.982h-4v1.982h4zm-8.74-3.188c0 1.618.416 3.341 1.976 4.399 1.395.946 3.217.99 5.003.774l-.478-3.971c-1.606.194-2.154-.028-2.28-.114-.02-.013-.052-.032-.097-.145-.057-.145-.124-.432-.124-.943h-4zm0-4.904v4.904h4v-4.904h-4zm.12 2h1.88v-4h-1.88v4zm-2-4.125v2.125h4v-2.125h-4zm3.88-2h-1.88v4h1.88v-4zm-2-.206v2.206h4v-2.206h-4zm3.638-2.572l-2.206.654 1.136 3.835 2.207-.653-1.137-3.836zm2.569 4.778v-2.86h-4v2.86h4zm.533-2h-2.533v4h2.533v-4zm7.674 2v1.451h4v-1.451h-4zm4.207-2h-2.207v4h2.207v-4zm2 12.217v-10.217h-4v10.217h4zm-4.207 2h2.207v-4h-2.207v4zm-2-3.471v1.471h4v-1.471h-4zm-1.576 3.736c2.206 0 4.03-.938 5.201-2.571l-3.25-2.331c-.383.533-.97.902-1.95.902v4zm-7.088-7.373c0 4.046 3.124 7.373 7.088 7.373v-4c-1.593 0-3.088-1.372-3.088-3.373h-4zm7.088-7.374c-3.96 0-7.088 3.302-7.088 7.374h4c0-2.018 1.49-3.374 3.088-3.374v-4zm5.19 2.536c-1.17-1.601-2.987-2.536-5.19-2.536v4c.985 0 1.578.372 1.961.896l3.23-2.36zm-4.843 6.107c-.726 0-1.228-.465-1.228-1.269h-4c0 2.996 2.277 5.269 5.228 5.269v-4zm1.229-1.269c0 .804-.502 1.269-1.229 1.269v4c2.952 0 5.229-2.273 5.229-5.269h-4zm-1.229-1.27c.727 0 1.229.466 1.229 1.27h4c0-2.997-2.277-5.27-5.229-5.27v4zm-1.228 1.27c0-.804.502-1.27 1.228-1.27v-4c-2.951 0-5.228 2.273-5.228 5.27h4zm30.464 2.487l2.002-7.049-3.847-1.093-2.003 7.049 3.848 1.093zm-5.964-7.018l2.125 7.049 3.83-1.155-2.125-7.049-3.83 1.155zm-.19 1.422h2.105v-4h-2.105v4zm-.231 5.632l2.145-7.049-3.827-1.165-2.145 7.049 3.826 1.165zm-5.821-7.09l1.982 7.049 3.85-1.083-1.981-7.049-3.851 1.083zm-.404 1.458h2.33v-4h-2.33v4zm5.116 7.618L81.659 106.1l-3.816 1.199 3.208 10.216 3.816-1.198zm.258-1.401h-2.166v4h2.166v-4zm.236-5.481l-2.146 6.886 3.82 1.19 2.145-6.886-3.82-1.19zm5.945 6.891l-2.125-6.886-3.822 1.18 2.125 6.885 3.822-1.179zm.255-1.41h-2.166v4h2.166v-4zm1.3-8.816l-3.208 10.217 3.816 1.198 3.208-10.216-3.816-1.199zm-.422 2.599h2.33v-4h-2.33v4zm-19.1 6.217h-2.207v4h2.207v-4zm-2-8.217v10.217h4v-10.217h-4zm-.207 2h2.207v-4h-2.207v4zm2 8.217v-10.217h-4v10.217h4zm24.365-9.749c1.9 0 3.41-1.568 3.41-3.41h-4c0-.186.077-.329.165-.419a.6.6 0 01.425-.171v4zm-3.41-3.41c0 1.842 1.51 3.41 3.41 3.41v-4a.6.6 0 01.425.171c.089.09.165.233.165.419h-4zm3.41-3.41a3.413 3.413 0 00-3.41 3.41h4c0 .328-.262.59-.59.59v-4zm3.41 3.41a3.413 3.413 0 00-3.41-3.41v4a.587.587 0 01-.59-.59h4zm-4.513 15.159H98.6v-4h-2.206v4zm-2-12.217v10.217h4v-10.217h-4zm4.206-2h-2.206v4H98.6v-4zm2 12.217v-10.217h-4v10.217h4zm4.458-7.837c.232-.365.619-.645 1.478-.645v-4c-1.919 0-3.738.742-4.855 2.501l3.377 2.144zm-3.689-2.38v1.308h4v-1.308h-4zm-.206 2h2.206v-4h-2.206v4zm2 8.217v-10.217h-4v10.217h4zm.206-2h-2.206v4h2.206v-4zm-2-3.476v5.476h4v-5.476h-4zm4.595-4.942c-1.113 0-2.331.335-3.267 1.286-.937.953-1.328 2.254-1.328 3.656h4c0-.341.047-.558.091-.682a.447.447 0 01.088-.168.198.198 0 01.081-.046c.059-.021.167-.046.335-.046v-4zm4.289 4.37c0-1.161-.344-2.317-1.209-3.182-.863-.863-1.996-1.188-3.08-1.188v4a.8.8 0 01.265.033c.024.009.01.007-.014-.017s-.02-.034-.007.005c.016.043.045.151.045.349h4zm0 6.048v-6.048h-4v6.048h4zm.206-2h-2.206v4h2.206v-4zm-2-4.273v6.273h4v-6.273h-4zm-1.923-2.209c.681 0 1.115.221 1.381.497.269.279.542.798.542 1.712h4c0-1.743-.543-3.328-1.663-4.489-1.124-1.165-2.652-1.72-4.26-1.72v4zm12.391-5.821v5.537h4v-5.537h-4zm4.206-2h-2.206v4h2.206v-4zm2 16.303v-14.303h-4v14.303h4zm-4.206 2h2.206v-4h-2.206v4zm-2-3.471v1.471h4v-1.471h-4zm-1.576 3.736c2.206 0 4.031-.938 5.201-2.571l-3.251-2.331c-.382.533-.968.902-1.95.902v4zm-7.088-7.373c0 4.046 3.124 7.373 7.088 7.373v-4c-1.594 0-3.088-1.372-3.088-3.373h-4zm7.088-7.374c-3.959 0-7.088 3.302-7.088 7.374h4c0-2.018 1.49-3.374 3.088-3.374v-4zm5.191 2.536c-1.17-1.601-2.988-2.536-5.191-2.536v4c.985 0 1.578.372 1.961.896l3.23-2.36zm-4.844 6.107c-.726 0-1.228-.465-1.228-1.269h-4c0 2.996 2.277 5.269 5.228 5.269v-4zm1.229-1.269c0 .804-.503 1.269-1.229 1.269v4c2.952 0 5.229-2.273 5.229-5.269h-4zm-1.229-1.27c.726 0 1.229.466 1.229 1.27h4c0-2.997-2.277-5.27-5.229-5.27v4zm-1.228 1.27c0-.804.502-1.27 1.228-1.27v-4c-2.951 0-5.228 2.273-5.228 5.27h4zm15.633-5.833h6.811v-4h-6.811v4zm-.725.725c0-.4.325-.725.725-.725v-4a4.725 4.725 0 00-4.725 4.725h4zm0 6.81v-6.81h-4v6.81h4zm.725.725a.726.726 0 01-.725-.725h-4a4.725 4.725 0 004.725 4.725v-4zm6.811 0h-6.811v4h6.811v-4zm.724-.725c0 .4-.324.725-.724.725v4a4.724 4.724 0 004.724-4.725h-4zm0-6.81v6.81h4v-6.81h-4zm-.724-.725c.4 0 .724.325.724.725h4a4.724 4.724 0 00-4.724-4.725v4zm-8.898.725c0-1.153.934-2.087 2.087-2.087v-4a6.087 6.087 0 00-6.087 6.087h4zm0 6.81v-6.81h-4v6.81h4zm2.087 2.087a2.087 2.087 0 01-2.087-2.087h-4a6.087 6.087 0 006.087 6.087v-4zm6.811 0h-6.811v4h6.811v-4zM141 113.51a2.086 2.086 0 01-2.086 2.087v4A6.086 6.086 0 00145 113.51h-4zm0-6.81v6.81h4v-6.81h-4zm-2.086-2.087c1.152 0 2.086.934 2.086 2.087h4a6.086 6.086 0 00-6.086-6.087v4zm-6.811 0h6.811v-4h-6.811v4zm2.642 7.055a.401.401 0 01-.025.166.067.067 0 01-.021.028c-.024.021-.164.123-.51.123v4c1.123 0 2.26-.338 3.147-1.115.915-.802 1.409-1.943 1.409-3.202h-4zm0-4.491v4.491h4v-4.491h-4zm.684 2h1.316v-4h-1.316v4zm2 2.386v-4.386h-4v4.386h4zm-3.24 3.134c.801 0 1.7-.223 2.387-.927.676-.692.853-1.55.853-2.207h-4c0-.009.005-.3.285-.587.291-.298.571-.279.475-.279v4zm-3.239-3.134c0 .657.176 1.515.852 2.207.687.704 1.586.927 2.387.927v-4c-.095 0 .184-.019.475.279.281.287.286.578.286.587h-4zm0-4.386v4.386h4v-4.386h-4zm.693 2h1.307v-4h-1.307v4zm2 2.491v-4.491h-4v4.491h4zm.546.317c-.338 0-.475-.1-.499-.121a.066.066 0 01-.022-.029.413.413 0 01-.025-.167h-4c0 1.259.494 2.398 1.406 3.2.884.778 2.019 1.117 3.14 1.117v-4zm5.932 1.866v-6.674h-4v6.674h4zm-.684-2h-1.316v4h1.316v-4zm-2-4.674v6.674h4v-6.674h-4zm.684 2h1.316v-4h-1.316v4z" mask="url(#b)"/>
  <path fill="#fff" d="M22.09 41h5.46l3.42-12.39L34.39 41h5.46l5.79-21H40.6l-3.63 14.7L32.92 20h-3.9l-4.05 14.7L21.34 20H16.3l5.79 21zm27.734-5.7h10.65c.12-.57.18-1.17.18-1.8 0-4.53-3.24-7.92-7.62-7.92-4.74 0-7.98 3.45-7.98 7.92s3.18 7.92 8.31 7.92c2.85 0 5.07-1.05 6.54-3.09l-3.6-2.07c-.6.66-1.65 1.14-2.88 1.14-1.65 0-3.03-.54-3.6-2.1zm-.09-3.36c.42-1.53 1.56-2.37 3.27-2.37 1.35 0 2.7.63 3.18 2.37h-6.45zM67.12 20h-4.8l-1.2 8.85h3.6l2.4-8.85zm7.5 8.67V26h-4.5v15h4.5v-6.78c0-2.97 2.64-3.72 4.5-3.42v-5.1c-1.89 0-3.9.96-4.5 2.97zm10.185 6.63h10.65c.12-.57.18-1.17.18-1.8 0-4.53-3.24-7.92-7.62-7.92-4.74 0-7.98 3.45-7.98 7.92s3.18 7.92 8.31 7.92c2.85 0 5.07-1.05 6.54-3.09l-3.6-2.07c-.6.66-1.65 1.14-2.88 1.14-1.65 0-3.03-.54-3.6-2.1zm-.09-3.36c.42-1.53 1.56-2.37 3.27-2.37 1.35 0 2.7.63 3.18 2.37h-6.45zM26.44 55.58c-1.98 0-3.48.72-4.29 1.83V50h-4.5v21h4.5v-8.19c0-2.13 1.14-3.09 2.79-3.09 1.44 0 2.61.87 2.61 2.73V71h4.5v-9.21c0-4.05-2.58-6.21-5.61-6.21zm10.95-.9c1.47 0 2.7-1.23 2.7-2.7 0-1.47-1.23-2.7-2.7-2.7-1.47 0-2.7 1.23-2.7 2.7 0 1.47 1.23 2.7 2.7 2.7zM35.14 71h4.5V56h-4.5v15zm12.293-12.33V56h-4.5v15h4.5v-6.78c0-2.97 2.64-3.72 4.5-3.42v-5.1c-1.89 0-3.9.96-4.5 2.97zm8.854-3.99c1.47 0 2.7-1.23 2.7-2.7 0-1.47-1.23-2.7-2.7-2.7-1.47 0-2.7 1.23-2.7 2.7 0 1.47 1.23 2.7 2.7 2.7zM54.037 71h4.5V56h-4.5v15zM70.62 55.58c-1.98 0-3.48.72-4.29 1.83V56h-4.5v15h4.5v-8.19c0-2.13 1.14-3.09 2.79-3.09 1.44 0 2.61.87 2.61 2.73V71h4.5v-9.21c0-4.05-2.58-6.21-5.61-6.21zm19.71.42v1.53c-.99-1.23-2.43-1.95-4.38-1.95-4.26 0-7.38 3.48-7.38 7.62 0 4.14 3.12 7.62 7.38 7.62 1.95 0 3.39-.72 4.38-1.95v1.38c0 2.13-1.29 3.21-3.39 3.21-1.98 0-2.85-.84-3.42-1.89l-3.84 2.22c1.38 2.46 3.99 3.63 7.11 3.63 3.99 0 7.92-2.13 7.92-7.17V56h-4.38zM86.7 66.68c-2.13 0-3.63-1.41-3.63-3.48 0-2.07 1.5-3.48 3.63-3.48s3.63 1.41 3.63 3.48c0 2.07-1.5 3.48-3.63 3.48zM98.76 63.5h3.6l.9-7.5v-6h-5.4v6l.9 7.5zm1.8 7.92c1.56 0 2.85-1.29 2.85-2.85s-1.29-2.85-2.85-2.85-2.85 1.29-2.85 2.85 1.29 2.85 2.85 2.85z"/>
</svg>
