<svg width="128" height="128" viewBox="0 0 256 256" fill="#0EA5E9" xmlns="http://www.w3.org/2000/svg">
  <path d="m174.12 17.348-1.779.914.722 1.406 1.535-.378-.478-1.942ZM167 13v-2h-.005l.005 2Zm-.041 0-1.993-.164-.179 2.17 2.177-.006-.005-2ZM150.568.845l-1.957.413.491 2.322 2.205-.877-.739-1.858ZM111.025 4l-.003 2 1.906.002.094-1.904L111.025 4ZM111 4l.002-2H111v2Zm-9.891 5.204-1.015 1.723 1.605.946 1.057-1.535-1.647-1.134ZM78.151 17.03l.14 1.995 1.248-.088.468-1.16-1.856-.747ZM79 39c-5.523 0-10-4.477-10-10h-4c0 7.732 6.268 14 14 14v-4Zm98 0H79v4h98v-4Zm10-10c0 5.523-4.477 10-10 10v4c7.732 0 14-6.268 14-14h-4Zm-10-10c5.523 0 10 4.477 10 10h4c0-7.732-6.268-14-14-14v4Zm-2.402.29c.767-.19 1.572-.29 2.402-.29v-4c-1.155 0-2.281.14-3.359.406l.957 3.884ZM167 15a6 6 0 0 1 5.341 3.262l3.557-1.828A9.999 9.999 0 0 0 167 11v4Zm-.036 0h.041l-.01-4h-.041l.01 4ZM165 12c0 .282-.012.56-.034.836l3.986.329c.032-.385.048-.773.048-1.165h-4ZM155 2c5.523 0 10 4.477 10 10h4c0-7.732-6.268-14-14-14v4Zm-3.693.704A9.969 9.969 0 0 1 155 2v-4c-1.823 0-3.569.35-5.171.987l1.478 3.716ZM131-13c8.657 0 15.89 6.113 17.611 14.258l3.914-.826C150.421-9.526 141.586-17 131-17v4ZM113.022 4.098C113.491-5.423 121.361-13 131-13v-4c-11.782 0-21.4 9.26-21.973 20.902l3.995.196ZM110.998 6h.024l.005-4h-.025l-.004 4Zm-8.242 4.338A9.987 9.987 0 0 1 111 6V2c-4.79 0-9.018 2.408-11.539 6.07l3.295 2.268ZM93 9c2.593 0 5.015.703 7.094 1.927l2.03-3.446A17.928 17.928 0 0 0 93 5v4Zm-12.993 8.776C82.078 12.628 87.117 9 93 9V5c-7.57 0-14.044 4.672-16.704 11.283l3.71 1.493ZM69 29c0-5.284 4.1-9.613 9.29-9.975l-.278-3.99C70.74 15.542 65 21.6 65 29h4Z"/>
  <path d="m174.12 273.348-1.779.914.722 1.406 1.535-.378-.478-1.942ZM167 269v-2h-.005l.005 2Zm-.041 0-1.993-.164-.179 2.17 2.177-.006-.005-2Zm-16.391-12.155-1.957.414.491 2.321 2.205-.876-.739-1.859ZM111.025 260l-.003 2 1.906.002.094-1.904-1.997-.098Zm-.025 0 .002-2H111v2Zm-9.891 5.204-1.015 1.723 1.605.946 1.057-1.535-1.647-1.134Zm-22.958 7.826.14 1.995 1.248-.088.468-1.161-1.856-.746ZM79 295c-5.523 0-10-4.477-10-10h-4c0 7.732 6.268 14 14 14v-4Zm98 0H79v4h98v-4Zm10-10c0 5.523-4.477 10-10 10v4c7.732 0 14-6.268 14-14h-4Zm-10-10c5.523 0 10 4.477 10 10h4c0-7.732-6.268-14-14-14v4Zm-2.402.29c.767-.189 1.572-.29 2.402-.29v-4c-1.155 0-2.281.14-3.359.406l.957 3.884ZM167 271a6 6 0 0 1 5.341 3.262l3.557-1.828A9.998 9.998 0 0 0 167 267v4Zm-.036 0h.041l-.01-4h-.041l.01 4ZM165 268c0 .282-.012.561-.034.836l3.986.329c.032-.385.048-.773.048-1.165h-4Zm-10-10c5.523 0 10 4.477 10 10h4c0-7.732-6.268-14-14-14v4Zm-3.693.704A9.955 9.955 0 0 1 155 258v-4a13.95 13.95 0 0 0-5.171.987l1.478 3.717ZM131 243c8.657 0 15.89 6.113 17.611 14.259l3.914-.827C150.421 246.474 141.586 239 131 239v4Zm-17.978 17.098C113.491 250.577 121.361 243 131 243v-4c-11.782 0-21.4 9.261-21.973 20.902l3.995.196ZM110.998 262h.024l.005-4h-.025l-.004 4Zm-8.242 4.338A9.988 9.988 0 0 1 111 262v-4c-4.79 0-9.018 2.408-11.539 6.07l3.295 2.268ZM93 265c2.593 0 5.015.703 7.094 1.927l2.03-3.446A17.926 17.926 0 0 0 93 261v4Zm-12.993 8.776C82.078 268.628 87.117 265 93 265v-4c-7.57 0-14.044 4.672-16.704 11.283l3.71 1.493ZM69 285c0-5.284 4.1-9.613 9.29-9.975l-.278-3.991C70.74 271.543 65 277.6 65 285h4Z"/>
  <path d="m203.997 157.253-1.999-.042-.055 2.637 2.554-.659-.5-1.936Zm-14.039-12.08-1.99.204.219 2.129 2.109-.362-.338-1.971Zm-13.376-5.059-1.572 1.237 1.336 1.699 1.591-1.465-1.355-1.471Zm-19.349-4.617-1.923.549.645 2.256 2.125-.993-.847-1.812Zm-39.177 3.993.492 1.938 1.395-.353.108-1.436-1.995-.149Zm-10.905 9.54.14 1.995 1.248-.088.467-1.161-1.855-.746ZM108 171c-5.523 0-10-4.477-10-10h-4c0 7.732 6.268 14 14 14v-4Zm98 0h-98v4h98v-4Zm6-6a6 6 0 0 1-6 6v4c5.523 0 10-4.477 10-10h-4Zm-6-6a6 6 0 0 1 6 6h4c0-5.523-4.477-10-10-10v4Zm-1.503.189A6.02 6.02 0 0 1 206 159v-4c-.861 0-1.7.109-2.502.316l.999 3.873ZM202 157l-.002.211 3.999.083L206 157h-4Zm-10-10c5.523 0 10 4.477 10 10h4c0-7.732-6.268-14-14-14v4Zm-1.704.144A10.15 10.15 0 0 1 192 147v-4c-.81 0-1.605.069-2.38.202l.676 3.942ZM182 140a6 6 0 0 1 5.968 5.377l3.979-.408c-.517-5.04-4.772-8.969-9.947-8.969v4Zm-4.063 1.585A5.968 5.968 0 0 1 182 140v-4a9.97 9.97 0 0 0-6.773 2.643l2.71 2.942ZM164 136c4.466 0 8.443 2.089 11.01 5.351l3.143-2.473A17.97 17.97 0 0 0 164 132v4Zm-5.92 1.309A13.944 13.944 0 0 1 164 136v-4c-2.717 0-5.299.603-7.613 1.685l1.693 3.624ZM138 123c8.221 0 15.159 5.512 17.31 13.046l3.847-1.098C156.528 125.742 148.054 119 138 119v4Zm-17.949 16.639C120.745 130.334 128.517 123 138 123v-4c-11.592 0-21.089 8.965-21.938 20.341l3.989.298Zm-11.045 10.137a14.037 14.037 0 0 1 9.542-8.348l-.983-3.877a18.035 18.035 0 0 0-12.269 10.732l3.71 1.493ZM98 161c0-5.284 4.1-9.613 9.291-9.975l-.279-3.991C99.74 147.543 94 153.6 94 161h4Z"/>
  <path d="m56 216.969.123-1.996-2.123-.131v2.127h2ZM56.89 185l-1.988.22.198 1.792 1.804-.012-.014-2Zm-35.446-1.992-.072 1.999 1.657.06.366-1.617-1.95-.442ZM9.136 193.189l-.354 1.969 2.024.363.307-2.032-1.977-.3ZM56 217v2h2v-2h-2Zm1-2c-.295 0-.587-.009-.877-.027l-.246 3.992c.372.023.746.035 1.123.035v-4Zm14-14c0 7.732-6.268 14-14 14v4c9.941 0 18-8.059 18-18h-4Zm-14-14c7.732 0 14 6.268 14 14h4c0-9.941-8.059-18-18-18v4Zm-.096 0H57v-4h-.123l.027 4ZM39 171c8.234 0 15.018 6.222 15.902 14.22l3.976-.439C57.773 174.778 49.296 167 39 167v4Zm-15.605 12.45C25.009 176.321 31.385 171 39 171v-4c-9.524 0-17.489 6.655-19.506 15.566l3.9.884ZM21 185c.125 0 .248.002.372.007l.145-3.998A14.791 14.791 0 0 0 21 181v4Zm-9.887 8.489C11.84 188.684 15.992 185 21 185v-4c-7.016 0-12.823 5.159-13.842 11.89l3.955.599ZM7 195c.61 0 1.205.054 1.782.158l.707-3.937A14.106 14.106 0 0 0 7 191v4Zm-10 10c0-5.523 4.477-10 10-10v-4c-7.732 0-14 6.268-14 14h4Zm10 10c-5.523 0-10-4.477-10-10h-4c0 7.732 6.268 14 14 14v-4Zm49 0H7v4h49v-4Zm-2 1.969V217h4v-.031h-4Z"/>
  <path d="m312 216.969.123-1.996-2.123-.131v2.127h2Zm.89-31.969-1.988.22.198 1.792 1.804-.012-.014-2Zm-35.446-1.992-.073 1.999 1.658.06.366-1.617-1.951-.442Zm-12.308 10.181-.354 1.969 2.024.363.307-2.032-1.977-.3ZM312 217v2h2v-2h-2Zm1-2c-.295 0-.587-.009-.877-.027l-.246 3.992c.372.023.746.035 1.123.035v-4Zm14-14c0 7.732-6.268 14-14 14v4c9.941 0 18-8.059 18-18h-4Zm-14-14c7.732 0 14 6.268 14 14h4c0-9.941-8.059-18-18-18v4Zm-.096 0H313v-4h-.123l.027 4ZM295 171c8.234 0 15.018 6.222 15.902 14.22l3.976-.439C313.773 174.778 305.296 167 295 167v4Zm-15.605 12.45c1.614-7.129 7.99-12.45 15.605-12.45v-4c-9.524 0-17.489 6.655-19.506 15.566l3.901.884ZM277 185c.124 0 .248.002.371.007l.146-3.998A14.814 14.814 0 0 0 277 181v4Zm-9.887 8.489c.727-4.805 4.879-8.489 9.887-8.489v-4c-7.016 0-12.823 5.159-13.842 11.89l3.955.599ZM263 195c.61 0 1.205.054 1.782.158l.707-3.937A14.101 14.101 0 0 0 263 191v4Zm-10 10c0-5.523 4.477-10 10-10v-4c-7.732 0-14 6.268-14 14h4Zm10 10c-5.523 0-10-4.477-10-10h-4c0 7.732 6.268 14 14 14v-4Zm49 0h-49v4h49v-4Zm-2 1.969V217h4v-.031h-4Z"/>
  <path d="m220.859 77.054-1.857.743.556 1.388 1.488-.14-.187-1.991Zm-30.725 8.026-.281 1.98 2.603.37-.339-2.608-1.983.258ZM189 99a6 6 0 0 1-6-6h-4c0 5.523 4.477 10 10 10v-4Zm33 0h-33v4h33v-4Zm10-10c0 5.523-4.477 10-10 10v4c7.732 0 14-6.268 14-14h-4Zm-10-10c5.523 0 10 4.477 10 10h4c0-7.732-6.268-14-14-14v4Zm-.954.045c.314-.03.632-.045.954-.045v-4c-.448 0-.891.021-1.329.062l.375 3.983ZM206 69c5.89 0 10.935 3.638 13.002 8.797l3.713-1.487C220.061 69.685 213.58 65 206 65v4Zm-14 14c0-7.732 6.268-14 14-14v-4c-9.941 0-18 8.059-18 18h4Zm.117 1.822A14.208 14.208 0 0 1 192 83h-4c0 .791.051 1.571.151 2.337l3.966-.515ZM189 87c.291 0 .575.02.853.06l.562-3.96c-.463-.066-.936-.1-1.415-.1v4Zm-6 6a6 6 0 0 1 6-6v-4c-5.523 0-10 4.477-10 10h4Z"/>
  <path d="m20.621 25.44-1.905-.61-.594 1.86 1.844.639.655-1.89ZM8.556 16.346l-1.819.833.978 2.136 1.953-1.307-1.112-1.662Zm-30.422 8.733-.281 1.98 2.603.37-.339-2.608-1.983.258ZM-23 39a6 6 0 0 1-6-6h-4c0 5.523 4.477 10 10 10v-4Zm41 0h-41v4h41v-4Zm6-6a6 6 0 0 1-6 6v4c5.523 0 10-4.477 10-10h-4Zm-4.034-5.671A6.003 6.003 0 0 1 24 33h4c0-4.378-2.813-8.095-6.724-9.45l-1.31 3.779ZM19 23c0 .641-.1 1.256-.284 1.83l3.81 1.219A9.994 9.994 0 0 0 23 23h-4Zm-6-6a6 6 0 0 1 6 6h4c0-5.523-4.477-10-10-10v4Zm-3.332 1.01A5.962 5.962 0 0 1 13 17v-4c-2.053 0-3.967.62-5.557 1.685l2.225 3.324ZM-6 9c5.652 0 10.526 3.35 12.737 8.18l3.637-1.665C7.535 9.315 1.274 5-6 5v4Zm-14 14c0-7.732 6.268-14 14-14V5c-9.941 0-18 8.059-18 18h4Zm.117 1.822A14.153 14.153 0 0 1-20 23h-4c0 .791.051 1.571.15 2.337l3.967-.515ZM-23 27c.29 0 .575.02.853.06l.562-3.96c-.463-.066-.936-.1-1.415-.1v4Zm-6 6a6 6 0 0 1 6-6v-4c-5.523 0-10 4.477-10 10h4Z"/>
  <path d="m276.621 25.44-1.905-.61-.594 1.86 1.844.639.655-1.89Zm-12.065-9.093-1.819.833.978 2.136 1.953-1.307-1.112-1.662Zm-30.422 8.733-.281 1.98 2.603.37-.339-2.608-1.983.258ZM233 39a6 6 0 0 1-6-6h-4c0 5.523 4.477 10 10 10v-4Zm41 0h-41v4h41v-4Zm6-6a6 6 0 0 1-6 6v4c5.523 0 10-4.477 10-10h-4Zm-4.034-5.671A6.003 6.003 0 0 1 280 33h4c0-4.378-2.813-8.095-6.724-9.45l-1.31 3.779ZM275 23c0 .641-.1 1.256-.284 1.83l3.81 1.219A10 10 0 0 0 279 23h-4Zm-6-6a6 6 0 0 1 6 6h4c0-5.523-4.477-10-10-10v4Zm-3.332 1.01A5.963 5.963 0 0 1 269 17v-4c-2.053 0-3.967.62-5.557 1.685l2.225 3.324ZM250 9c5.652 0 10.526 3.35 12.737 8.18l3.637-1.665C263.535 9.315 257.274 5 250 5v4Zm-14 14c0-7.732 6.268-14 14-14V5c-9.941 0-18 8.059-18 18h4Zm.117 1.822A14.208 14.208 0 0 1 236 23h-4c0 .791.051 1.571.151 2.337l3.966-.515ZM233 27c.291 0 .575.02.853.06l.562-3.96c-.463-.066-.936-.1-1.415-.1v4Zm-6 6a6 6 0 0 1 6-6v-4c-5.523 0-10 4.477-10 10h4Z"/>
  <path d="M211 215h-2v2h2v-2Zm-24 0h-2v.005l2-.005Zm0 .062-.247 1.985 2.253.281-.006-2.271-2 .005ZM211 217a6 6 0 0 1 6 6h4c0-5.523-4.477-10-10-10v4Zm-12-12c5.523 0 10 4.477 10 10h4c0-7.732-6.268-14-14-14v4Zm-10 10c0-5.523 4.477-10 10-10v-4c-7.732 0-14 6.268-14 14h4Zm0 .057v-.062l-4 .01v.062l4-.01ZM186 217c.256 0 .507.016.753.047l.495-3.97A10.1 10.1 0 0 0 186 213v4Zm-6 6a6 6 0 0 1 6-6v-4c-5.523 0-10 4.477-10 10h4Zm6 6a6 6 0 0 1-6-6h-4c0 5.523 4.477 10 10 10v-4Zm25 0h-25v4h25v-4Zm6-6a6 6 0 0 1-6 6v4c5.523 0 10-4.477 10-10h-4Z"/>
  <path d="m67 76.041-2-.002-.002 1.844 1.837.151.165-1.993ZM67 76l2 .003V76h-2Zm10.488 8.522-1.914.579.58 1.92 1.919-.586-.585-1.913Zm-50.412-8.496.114 1.997 1.205-.069.5-1.098-1.819-.83Zm9.492-6.941.236 1.986 1.091-.13.476-.99-1.803-.866ZM69 76.044v-.041l-4-.006v.041l4 .006Zm10.403 7.9c-1.632-5.396-6.429-9.417-12.239-9.896l-.329 3.986c4.141.342 7.573 3.212 8.739 7.067l3.829-1.158ZM81 82a14 14 0 0 0-4.096.61l1.169 3.825A9.998 9.998 0 0 1 81 86v-4Zm14 14c0-7.732-6.268-14-14-14v4c5.523 0 10 4.477 10 10h4Zm-14 14c7.732 0 14-6.268 14-14h-4c0 5.523-4.477 10-10 10v4Zm0-4H28v4h53v-4ZM10 92c0 9.941 8.059 18 18 18v-4c-7.732 0-14-6.268-14-14h-4Zm16.962-17.97C17.503 74.567 10 82.406 10 92h4c0-7.46 5.836-13.558 13.19-13.977l-.228-3.993Zm9.37-6.931c-4.945.588-9.092 3.748-11.076 8.097l3.64 1.66a10.01 10.01 0 0 1 7.908-5.785l-.473-3.972ZM51 58c-7.158 0-13.336 4.178-16.236 10.22l3.607 1.73C40.63 65.243 45.438 62 51 62v-4Zm18 18c0-9.941-8.059-18-18-18v4c7.732 0 14 6.268 14 14h4Z"/>
</svg>
