<svg width="352" height="232" fill="none" xmlns="http://www.w3.org/2000/svg">
  <g>
    <g opacity=".8">
      <g filter="url(#filter0_dd)">
        <rect width="352" height="232" rx="12" fill="#fff"/>
      </g>
      <rect x="307.5" y="10.5" width="8" height="6" rx=".5" stroke="#FDA4AF"/>
      <path d="M265 11a1 1 0 011-1h4v7h-4a1 1 0 01-1-1v-5z" fill="#FECDD3"/>
      <rect x="265.5" y="10.5" width="8" height="6" rx=".5" stroke="#FDA4AF"/>
      <path fill="#FDA4AF" d="M269 10h1v7h-1z"/>
      <path d="M286 11a1 1 0 011-1h7a1 1 0 011 1v3h-9v-3z" fill="#FECDD3"/>
      <rect x="286.5" y="10.5" width="8" height="6" rx=".5" stroke="#FDA4AF"/>
      <path fill="#FDA4AF" d="M286 13h9v1h-9z"/>
      <path fill-rule="evenodd" clip-rule="evenodd" d="M335 10h-5v1h1a1 1 0 011 1v4h3v-6zm-4 6v-4h-3v4h3zm-2-5h-1a1 1 0 00-1 1v4a1 1 0 001 1h7a1 1 0 001-1v-6a1 1 0 00-1-1h-5a1 1 0 00-1 1v1z" fill="#FDA4AF"/>
      <circle cx="10" cy="54" r="2" fill="#FDA4AF"/>
      <circle cx="10" cy="62" r="2" fill="#FDA4AF"/>
      <circle cx="10" cy="70" r="2" fill="#FDA4AF"/>
      <circle cx="10" cy="78" r="2" fill="#FDA4AF"/>
      <circle cx="10" cy="86" r="2" fill="#FDA4AF"/>
      <circle cx="10" cy="94" r="2" fill="#FDA4AF"/>
      <circle cx="10" cy="102" r="2" fill="#FDA4AF"/>
      <circle cx="10" cy="110" r="2" fill="#FDA4AF"/>
      <circle cx="10" cy="118" r="2" fill="#FDA4AF"/>
      <circle cx="10" cy="126" r="2" fill="#FDA4AF"/>
      <circle cx="10" cy="134" r="2" fill="#FDA4AF"/>
      <circle cx="10" cy="142" r="2" fill="#FDA4AF"/>
      <circle cx="10" cy="150" r="2" fill="#FDA4AF"/>
      <circle cx="10" cy="158" r="2" fill="#FDA4AF"/>
      <circle cx="10" cy="166" r="2" fill="#FDA4AF"/>
      <circle cx="10" cy="174" r="2" fill="#FDA4AF"/>
      <circle cx="10" cy="182" r="2" fill="#FDA4AF"/>
      <circle cx="10" cy="190" r="2" fill="#FDA4AF"/>
      <circle cx="10" cy="198" r="2" fill="#FDA4AF"/>
      <circle cx="10" cy="206" r="2" fill="#FDA4AF"/>
      <circle cx="10" cy="214" r="2" fill="#FDA4AF"/>
      <circle cx="10" cy="222" r="2" fill="#FDA4AF"/>
      <path fill-rule="evenodd" clip-rule="evenodd" d="M17 8c-2.4 0-3.9 1.212-4.5 3.637.9-1.213 1.95-1.667 3.15-1.364.685.173 1.174.675 1.716 1.23.882.905 1.903 1.952 4.134 1.952 2.4 0 3.9-1.212 4.5-3.637-.9 1.213-1.95 1.667-3.15 1.364-.685-.173-1.174-.675-1.716-1.23C20.252 9.047 19.231 8 17 8zm-4.5 5.456c-2.4 0-3.9 1.212-4.5 3.636.9-1.212 1.95-1.666 3.15-1.363.685.173 1.174.674 1.716 1.23.882.905 1.903 1.952 4.134 1.952 2.4 0 3.9-1.212 4.5-3.637-.9 1.212-1.95 1.667-3.15 1.364-.685-.173-1.174-.675-1.716-1.23-.882-.905-1.903-1.952-4.134-1.952z" fill="#FB7185"/>
      <path d="M177 29h175v191c0 6.627-5.373 12-12 12H177V29z" fill="#FFF1F2"/>
      <path fill="#FECDD3" d="M0 27h352v2H0zM0 43h176v1H0z"/>
      <path fill="#FECDD3" d="M175 29h2v203h-2z"/>
      <rect x="20" y="52" width="31" height="4" rx="2" fill="#FB7185"/>
      <rect x="8" y="34" width="15" height="4" rx="2" fill="#FB7185"/>
      <rect x="27" y="34" width="15" height="4" rx="2" fill="#FECDD3"/>
      <rect x="46" y="34" width="15" height="4" rx="2" fill="#FECDD3"/>
      <rect x="28" y="60" width="87" height="4" rx="2" fill="#FB7185"/>
      <rect x="36" y="68" width="95" height="4" rx="2" fill="#FB7185"/>
      <rect x="36" y="76" width="87" height="4" rx="2" fill="#FB7185"/>
      <rect x="36" y="84" width="15" height="4" rx="2" fill="#FB7185"/>
      <rect x="28" y="92" width="15" height="4" rx="2" fill="#FB7185"/>
      <rect x="20" y="100" width="15" height="4" rx="2" fill="#FB7185"/>
      <rect x="20" y="108" width="39" height="4" rx="2" fill="#FB7185"/>
      <rect x="28" y="116" width="63" height="4" rx="2" fill="#FB7185"/>
      <rect x="36" y="124" width="87" height="4" rx="2" fill="#FB7185"/>
      <rect x="36" y="164" width="15" height="4" rx="2" fill="#FB7185"/>
      <rect x="36" y="172" width="15" height="4" rx="2" fill="#FB7185"/>
      <path d="M44 134a2 2 0 012-2h129v4H46a2 2 0 01-2-2zM52 142a2 2 0 012-2h121v4H54a2 2 0 01-2-2zM52 150a2 2 0 012-2h121v4H54a2 2 0 01-2-2zM44 158a2 2 0 012-2h59a2 2 0 110 4H46a2 2 0 01-2-2zM44 182a2 2 0 012-2h19a2 2 0 110 4H46a2 2 0 01-2-2zM52 190a2 2 0 012-2h51a2 2 0 110 4H54a2 2 0 01-2-2zM52 214a2 2 0 012-2h51a2 2 0 110 4H54a2 2 0 01-2-2zM44 222a2 2 0 012-2h35a2 2 0 110 4H46a2 2 0 01-2-2zM60 198a2 2 0 012-2h113v4H62a2 2 0 01-2-2zM60 206a2 2 0 012-2h113v4H62a2 2 0 01-2-2z" fill="#FB7185"/>
      <rect x="232" y="99" width="64" height="64" rx="8" fill="#fff"/>
      <rect x="240" y="115" width="48" height="4" rx="2" fill="#FB7185"/>
      <rect x="244" y="123" width="40" height="4" rx="2" fill="#FB7185"/>
      <rect x="252" y="135" width="24" height="2" rx="1" fill="#FECDD3"/>
      <rect x="240" y="145" width="48" height="10" rx="5" fill="#FB7185"/>
      <circle cx="264" cy="99" r="8" fill="#FECDD3"/>
    </g>
  </g>
  <defs>
    <filter id="filter0_dd" x="-15" y="-7" width="382" height="262" filterUnits="userSpaceOnUse" color-interpolation-filters="sRGB">
      <feFlood flood-opacity="0" result="BackgroundImageFix"/>
      <feColorMatrix in="SourceAlpha" values="0 0 0 0 0 0 0 0 0 0 0 0 0 0 0 0 0 0 127 0"/>
      <feOffset dy="3"/>
      <feGaussianBlur stdDeviation="3"/>
      <feColorMatrix values="0 0 0 0 0 0 0 0 0 0 0 0 0 0 0 0 0 0 0.05 0"/>
      <feBlend in2="BackgroundImageFix" result="effect1_dropShadow"/>
      <feColorMatrix in="SourceAlpha" values="0 0 0 0 0 0 0 0 0 0 0 0 0 0 0 0 0 0 127 0"/>
      <feOffset dy="8"/>
      <feGaussianBlur stdDeviation="7.5"/>
      <feColorMatrix values="0 0 0 0 0 0 0 0 0 0 0 0 0 0 0 0 0 0 0.1 0"/>
      <feBlend in2="effect1_dropShadow" result="effect2_dropShadow"/>
      <feBlend in="SourceGraphic" in2="effect2_dropShadow" result="shape"/>
    </filter>
  </defs>
</svg>
