<svg width="221" height="66" fill="none" xmlns="http://www.w3.org/2000/svg">
  <path
    d="M156.054 47.056c.654-.807 1.164-1.759 1.529-2.838a22.52 22.52 0 0027.066 6.836 22.52 22.52 0 005.554-37.556 22.52 22.52 0 00-36.401 10.786h-3.084A25.497 25.497 0 01175.654 5a25.499 25.499 0 0111.306 48.252 25.498 25.498 0 01-30.906-6.197z"
    fill="url(#paint0_linear)" />
  <path fill-rule="evenodd" clip-rule="evenodd"
    d="M29.344 32.398l5.77 7.886h-3.866l-5.269-7.478h-1.767v7.478H21V21.743h5.608c4.971 0 6.738 2.72 6.738 5.574 0 2.634-1.826 4.538-3.993 5.081h-.009zm.68-5.004c0-1.87-1.139-2.966-3.203-2.966h-2.61v5.846h2.635c2.04 0 3.178-1.223 3.178-2.88zm11.54-.57c4.486.026 6.55 3.51 6.55 6.824 0 .271 0 .628-.05.9H38.002c0 2.04 1.793 3.807 3.883 3.807 1.334 0 2.235-.544 2.915-1.47h3.127a6.262 6.262 0 01-6.033 3.858c-4.003 0-6.943-2.932-6.943-7.095 0-3.671 2.507-6.824 6.611-6.824zm0 2.286a3.484 3.484 0 00-3.536 3.229h7.044a3.51 3.51 0 00-3.509-3.229zm7.562.705v-2.549h1.852v-2.158c0-2.932 1.547-4.538 4.435-4.538.731 0 1.445.085 1.98.247v2.498a5.489 5.489 0 00-1.47-.212c-1.36 0-1.903.815-1.903 2.064v2.09h2.914v2.558H54.02v10.469h-3.042V29.815h-1.852zm21.897-2.549v13.018h-2.966v-1.657h-.085a5.506 5.506 0 01-4.452 2.124c-2.94 0-6.254-2.345-6.254-6.993 0-4.13 2.94-6.908 6.475-6.908 2.175 0 3.484 1.147 4.265 2.175h.051v-1.767h2.974l-.008.008zm-10.63 6.483c0 2.176 1.249 4.326 3.942 4.326 2.014 0 3.858-1.742 3.858-4.249 0-2.634-1.708-4.376-3.823-4.376-2.703 0-3.977 2.175-3.977 4.3zm19.713-6.933c3.739 0 5.608 2.447 6.016 4.35h-3.127C82.587 30.13 81.61 29.4 80.09 29.4c-2.209 0-3.781 1.606-3.781 4.35 0 2.473 1.521 4.377 3.883 4.377 1.691 0 2.558-.952 2.991-1.955h3.161a6.093 6.093 0 01-6.203 4.563c-3.908 0-6.967-2.804-6.967-7.01 0-3.807 2.668-6.908 6.942-6.908h-.009zm6.84 2.99v-2.548h1.632v-4.164h3.042v4.164h3.237v2.549h-3.229v5.82c0 1.768.536 2.252 1.785 2.252.518 0 1.121-.102 1.58-.212v2.472a9.258 9.258 0 01-2.31.298c-3.23 0-4.105-1.954-4.105-4.623v-6.007h-1.632zm8.787 3.943a6.765 6.765 0 016.967-6.933c4.079 0 6.959 2.99 6.959 6.933a6.849 6.849 0 01-4.279 6.483 6.862 6.862 0 01-2.688.502 6.852 6.852 0 01-6.468-4.296 6.85 6.85 0 01-.492-2.689zm3.101 0c0 2.499 1.767 4.266 3.858 4.266 2.311 0 3.891-1.844 3.891-4.266 0-2.31-1.47-4.248-3.891-4.248-2.337 0-3.858 1.827-3.858 4.248zm20.835-6.823v2.83c-.382-.06-.85-.136-1.529-.136-2.057 0-3.28 1.36-3.28 4.079v6.576h-3.051V27.258h2.991v1.852h.085a4.23 4.23 0 013.645-2.26c.485 0 .816.025 1.139.085v-.009zm1.665 13.35V27.257h3.042v13.026h-3.042v-.009zm-.169-15.907v-3.102h3.381v3.102H121.165zm6.236 15.906V27.258h3.025v1.631h.051a4.751 4.751 0 013.969-2.065c2.693 0 5.055 1.768 5.055 5.948v7.512h-3.042v-7.342c0-2.226-1.062-3.424-2.804-3.424-1.903 0-3.203 1.334-3.203 3.858v6.908h-3.051v-.009zm27.854-13.026v12.619c0 4.783-2.175 7.392-6.883 7.392-3.636 0-5.982-2.005-6.491-5.107h3.042c.356 1.445 1.385 2.583 3.585 2.583 2.507 0 3.841-1.606 3.841-4.486v-1.632h-.059a5.686 5.686 0 01-4.427 2.014c-3.433 0-6.373-2.668-6.373-6.908 0-3.968 2.753-6.883 6.475-6.883 2.234 0 3.568 1.147 4.299 2.1h.085v-1.692h2.906zM144.6 33.741c0 2.09 1.274 4.24 3.908 4.24 2.125 0 3.892-1.716 3.892-4.189 0-2.609-1.682-4.325-3.832-4.325-2.634 0-3.968 2.175-3.968 4.274zm26.791 7.146c-3.671 0-6.959-2.065-6.959-7.962V21.743h3.212v11.471c0 2.966 1.385 4.895 3.747 4.895 2.745 0 3.731-2.09 3.731-4.895V21.743h3.177v11.114c0 5.82-2.991 8.022-6.908 8.022v.008zm9.959-.595V21.743h3.212v18.54h-3.212v.01z"
    fill="#fff" />
  <path
    d="M64.933 54.254c-.313-2.262-2.053-3.575-4.31-3.575-2.66 0-4.664 1.939-4.664 5.23 0 3.286 1.979 5.23 4.664 5.23 2.42 0 4.027-1.566 4.31-3.51l-1.86-.01c-.233 1.194-1.208 1.865-2.426 1.865-1.65 0-2.833-1.238-2.833-3.575 0-2.297 1.173-3.575 2.838-3.575 1.238 0 2.208.701 2.422 1.92h1.859zm11.137 1.655c0-3.291-2.008-5.23-4.678-5.23-2.675 0-4.678 1.939-4.678 5.23 0 3.286 2.003 5.23 4.678 5.23 2.67 0 4.678-1.939 4.678-5.23zm-1.854 0c0 2.317-1.164 3.575-2.824 3.575-1.656 0-2.824-1.258-2.824-3.575s1.168-3.575 2.824-3.575c1.66 0 2.824 1.258 2.824 3.575zm3.948-5.09V61h1.77v-7.01h.094l2.814 6.98h1.323l2.813-6.965h.095V61h1.77V50.818h-2.257l-3.023 7.378h-.12l-3.022-7.378h-2.257zM91.2 61h1.845v-3.44h1.949c2.351 0 3.614-1.412 3.614-3.371 0-1.944-1.248-3.37-3.59-3.37h-3.818V61zm1.845-4.957V52.36h1.69c1.382 0 1.994.746 1.994 1.83s-.612 1.854-1.984 1.854h-1.7zM100.56 61h6.329v-1.546h-4.484v-8.636h-1.845V61zm8.28 0h6.662v-1.546h-4.818v-2.78h4.435V55.13h-4.435v-2.765h4.778v-1.546h-6.622V61zm8.406-8.636h3.147V61h1.83v-8.636h3.147v-1.546h-8.124v1.546zM127.287 61h6.662v-1.546h-4.818v-2.78h4.435V55.13h-4.435v-2.765h4.778v-1.546h-6.622V61z"
    fill="url(#paint1_linear)" />
  <defs>
    <linearGradient id="paint0_linear" x1="175.833" y1="5" x2="175.833" y2="56" gradientUnits="userSpaceOnUse">
      <stop stop-color="#3DACEC" />
      <stop offset="1" stop-color="#5A77F3" />
    </linearGradient>
    <linearGradient id="paint1_linear" x1="55" y1="56" x2="135" y2="56" gradientUnits="userSpaceOnUse">
      <stop stop-color="#5A78F3" />
      <stop offset="1" stop-color="#3DACEC" />
    </linearGradient>
  </defs>
</svg>
