<svg xmlns="http://www.w3.org/2000/svg" width="420" height="204" fill="none"><g><g opacity=".8"><g filter="url(#filter0_d)"><rect width="96" height="60" x="324" fill="#FFFBEB" rx="9"/></g><path fill="#FCD34D" d="M324 49.5h96V51a9 9 0 01-9 9h-78a9 9 0 01-9-9v-1.5z"/><path fill="#FBBF24" d="M324 46.502h96v3h-96v-3z"/><path fill="#F59E0B" d="M324 46.502h36.75v3H324v-3z"/><circle cx="371.25" cy="23.25" r="11.25" fill="#FCD34D"/><path fill="#F59E0B" fill-rule="evenodd" d="M369.042 18.927a1.5 1.5 0 011.54.075l4.5 3a1.5 1.5 0 010 2.496l-4.5 3a1.5 1.5 0 01-2.332-1.248v-6a1.5 1.5 0 01.792-1.323z" clip-rule="evenodd"/><g filter="url(#filter1_d)"><rect width="96" height="60" x="216" fill="#FFFBEB" rx="9"/></g><path fill="#FCD34D" d="M216 49.5h96V51a9 9 0 01-9 9h-78a9 9 0 01-9-9v-1.5z"/><path fill="#FBBF24" d="M216 46.502h96v3h-96v-3z"/><path fill="#F59E0B" d="M216 46.502h36.75v3H216v-3z"/><circle cx="263.25" cy="23.25" r="11.25" fill="#FCD34D"/><path fill="#F59E0B" fill-rule="evenodd" d="M261.042 18.927a1.5 1.5 0 011.54.075l4.5 3a1.5 1.5 0 010 2.496l-4.5 3a1.5 1.5 0 01-2.332-1.248v-6a1.5 1.5 0 01.792-1.323z" clip-rule="evenodd"/><g filter="url(#filter2_d)"><rect width="96" height="60" x="270" y="72" fill="#FFFBEB" rx="9"/></g><path fill="#FCD34D" d="M270 121.5h96v1.5a9 9 0 01-9 9h-78a9 9 0 01-9-9v-1.5z"/><path fill="#FBBF24" d="M270 118.502h96v3h-96v-3z"/><path fill="#F59E0B" d="M270 118.502h44.75v3H270v-3z"/><circle cx="317.25" cy="95.25" r="11.25" fill="#FCD34D"/><path fill="#F59E0B" fill-rule="evenodd" d="M315.042 90.927a1.5 1.5 0 011.54.075l4.5 3a1.5 1.5 0 010 2.496l-4.5 3a1.5 1.5 0 01-2.332-1.248v-6a1.5 1.5 0 01.792-1.323z" clip-rule="evenodd"/><rect width="96" height="60" x="216" y="143.998" fill="#FFFBEB" rx="9"/><path fill="#FCD34D" d="M216 193.5h96v1.5a9 9 0 01-9 9h-78a9 9 0 01-9-9v-1.5z"/><path fill="#FBBF24" d="M216 190.5h96v3h-96v-3z"/><path fill="#F59E0B" d="M216 190.5h36.75v3H216v-3z"/><circle cx="263.254" cy="167.25" r="11.25" fill="#FCD34D"/><path fill="#F59E0B" fill-rule="evenodd" d="M261.046 162.927a1.5 1.5 0 011.54.075l4.5 3a1.5 1.5 0 010 2.496l-4.5 3a1.5 1.5 0 01-2.332-1.248v-6c0-.553.304-1.061.792-1.323z" clip-rule="evenodd"/><g filter="url(#filter3_d)"><rect width="96" height="60" x="162" y="72.002" fill="#FFFBEB" rx="9"/></g><path fill="#FCD34D" d="M162 121.502h96v1.5a9 9 0 01-9 9h-78a9 9 0 01-9-9v-1.5z"/><path fill="#FBBF24" d="M162 118.502h96v3h-96v-3z"/><path fill="#F59E0B" d="M162 118.502h20.75v3H162v-3z"/><circle cx="209.254" cy="95.252" r="11.25" fill="#FCD34D"/><path fill="#F59E0B" fill-rule="evenodd" d="M207.046 90.93a1.5 1.5 0 011.54.074l4.5 3a1.5 1.5 0 010 2.496l-4.5 3a1.5 1.5 0 01-2.332-1.248v-6a1.5 1.5 0 01.792-1.323z" clip-rule="evenodd"/><g filter="url(#filter4_d)"><rect width="96" height="60" x="54" y="72.002" fill="#FFFBEB" rx="9"/></g><path fill="#FCD34D" d="M54 121.502h96v1.5a9 9 0 01-9 9H63a9 9 0 01-9-9v-1.5z"/><path fill="#FBBF24" d="M54 118.502h96v3H54v-3z"/><path fill="#F59E0B" d="M54 118.502h52.75v3H54v-3z"/><circle cx="101.25" cy="95.252" r="11.25" fill="#FCD34D"/><path fill="#F59E0B" fill-rule="evenodd" d="M99.042 90.93a1.5 1.5 0 011.54.074l4.5 3a1.5 1.5 0 010 2.496l-4.5 3a1.5 1.5 0 01-2.332-1.248v-6a1.5 1.5 0 01.792-1.323z" clip-rule="evenodd"/><rect width="96" height="60" x="108" y="144.002" fill="#FFFBEB" rx="9"/><path fill="#FCD34D" d="M108 193.5h96v1.5a9 9 0 01-9 9h-78a9 9 0 01-9-9v-1.5z"/><path fill="#FBBF24" d="M108 190.502h96v3h-96v-3z"/><path fill="#F59E0B" d="M108 190.502h36.75v3H108v-3z"/><circle cx="155.25" cy="167.252" r="11.25" fill="#FCD34D"/><path fill="#F59E0B" fill-rule="evenodd" d="M153.046 162.927a1.5 1.5 0 011.54.075l4.5 3a1.5 1.5 0 010 2.496l-4.5 3a1.5 1.5 0 01-2.332-1.248v-6c0-.553.304-1.061.792-1.323z" clip-rule="evenodd"/><rect width="96" height="60" y="144.002" fill="#FFFBEB" rx="9"/><path fill="#FCD34D" d="M0 193.502h96v1.5a9 9 0 01-9 9H9a9 9 0 01-9-9v-1.5z"/><path fill="#FBBF24" d="M0 190.502h96v3H0v-3z"/><path fill="#F59E0B" d="M0 190.502h36.75v3H0v-3z"/><circle cx="47.25" cy="167.252" r="11.25" fill="#FCD34D"/><path fill="#F59E0B" fill-rule="evenodd" d="M45.042 162.929a1.5 1.5 0 011.54.075l4.5 3a1.499 1.499 0 010 2.496l-4.5 3a1.5 1.5 0 01-2.332-1.248v-6c0-.553.304-1.062.792-1.323z" clip-rule="evenodd"/></g></g><defs><filter id="filter0_d" width="105" height="69" x="319.5" y="-2.25" color-interpolation-filters="sRGB" filterUnits="userSpaceOnUse"><feFlood flood-opacity="0" result="BackgroundImageFix"/><feColorMatrix in="SourceAlpha" values="0 0 0 0 0 0 0 0 0 0 0 0 0 0 0 0 0 0 127 0"/><feOffset dy="2.25"/><feGaussianBlur stdDeviation="2.25"/><feColorMatrix values="0 0 0 0 0 0 0 0 0 0 0 0 0 0 0 0 0 0 0.05 0"/><feBlend in2="BackgroundImageFix" result="effect1_dropShadow"/><feBlend in="SourceGraphic" in2="effect1_dropShadow" result="shape"/></filter><filter id="filter1_d" width="105" height="69" x="211.5" y="-2.25" color-interpolation-filters="sRGB" filterUnits="userSpaceOnUse"><feFlood flood-opacity="0" result="BackgroundImageFix"/><feColorMatrix in="SourceAlpha" values="0 0 0 0 0 0 0 0 0 0 0 0 0 0 0 0 0 0 127 0"/><feOffset dy="2.25"/><feGaussianBlur stdDeviation="2.25"/><feColorMatrix values="0 0 0 0 0 0 0 0 0 0 0 0 0 0 0 0 0 0 0.05 0"/><feBlend in2="BackgroundImageFix" result="effect1_dropShadow"/><feBlend in="SourceGraphic" in2="effect1_dropShadow" result="shape"/></filter><filter id="filter2_d" width="105" height="69" x="265.5" y="69.75" color-interpolation-filters="sRGB" filterUnits="userSpaceOnUse"><feFlood flood-opacity="0" result="BackgroundImageFix"/><feColorMatrix in="SourceAlpha" values="0 0 0 0 0 0 0 0 0 0 0 0 0 0 0 0 0 0 127 0"/><feOffset dy="2.25"/><feGaussianBlur stdDeviation="2.25"/><feColorMatrix values="0 0 0 0 0 0 0 0 0 0 0 0 0 0 0 0 0 0 0.05 0"/><feBlend in2="BackgroundImageFix" result="effect1_dropShadow"/><feBlend in="SourceGraphic" in2="effect1_dropShadow" result="shape"/></filter><filter id="filter3_d" width="105" height="69" x="157.5" y="69.752" color-interpolation-filters="sRGB" filterUnits="userSpaceOnUse"><feFlood flood-opacity="0" result="BackgroundImageFix"/><feColorMatrix in="SourceAlpha" values="0 0 0 0 0 0 0 0 0 0 0 0 0 0 0 0 0 0 127 0"/><feOffset dy="2.25"/><feGaussianBlur stdDeviation="2.25"/><feColorMatrix values="0 0 0 0 0 0 0 0 0 0 0 0 0 0 0 0 0 0 0.05 0"/><feBlend in2="BackgroundImageFix" result="effect1_dropShadow"/><feBlend in="SourceGraphic" in2="effect1_dropShadow" result="shape"/></filter><filter id="filter4_d" width="105" height="69" x="49.5" y="69.752" color-interpolation-filters="sRGB" filterUnits="userSpaceOnUse"><feFlood flood-opacity="0" result="BackgroundImageFix"/><feColorMatrix in="SourceAlpha" values="0 0 0 0 0 0 0 0 0 0 0 0 0 0 0 0 0 0 127 0"/><feOffset dy="2.25"/><feGaussianBlur stdDeviation="2.25"/><feColorMatrix values="0 0 0 0 0 0 0 0 0 0 0 0 0 0 0 0 0 0 0.05 0"/><feBlend in2="BackgroundImageFix" result="effect1_dropShadow"/><feBlend in="SourceGraphic" in2="effect1_dropShadow" result="shape"/></filter></defs></svg>