<svg xmlns="http://www.w3.org/2000/svg" fill="none" viewBox="0 0 221 72"><path fill="#22D3EE" d="M38 16c-5.333 0-8.667 2.667-10 8 2-2.667 4.333-3.667 7-3 1.522.38 2.609 1.484 3.813 2.706C40.773 25.696 43.043 28 48 28c5.333 0 8.667-2.667 10-8-2 2.667-4.333 3.667-7 3-1.521-.38-2.609-1.484-3.813-2.706C45.227 18.304 42.957 16 38 16zM28 28c-5.333 0-8.667 2.667-10 8 2-2.667 4.333-3.667 7-3 1.521.38 2.609 1.484 3.813 2.706C30.773 37.696 33.043 40 38 40c5.333 0 8.667-2.667 10-8-2 2.667-4.333 3.667-7 3-1.521-.38-2.609-1.484-3.813-2.706C35.227 30.304 32.957 28 28 28z"/><path fill="#fff" d="M76.26 26.12V23h-3.72v-4.2l-3.24.96V23h-2.76v3.12h2.76v7.2c0 3.9 1.98 5.28 6.96 4.68v-2.91c-2.46.12-3.72.15-3.72-1.77v-7.2h3.72zM90.463 23v2.13c-1.14-1.56-2.91-2.52-5.25-2.52-4.08 0-7.47 3.42-7.47 7.89 0 4.44 3.39 7.89 7.47 7.89 2.34 0 4.11-.96 5.25-2.55V38h3.24V23h-3.24zm-4.74 12.3c-2.7 0-4.74-2.01-4.74-4.8s2.04-4.8 4.74-4.8 4.74 2.01 4.74 4.8-2.04 4.8-4.74 4.8zM99.1 20.75c1.14 0 2.07-.96 2.07-2.07 0-1.14-.93-2.07-2.07-2.07-1.14 0-2.07.93-2.07 2.07 0 1.11.93 2.07 2.07 2.07zM97.48 38h3.24V23h-3.24v15zm7.002 0h3.24V16.1h-3.24V38zm24.282-15l-2.94 10.35-3.12-10.35h-3.09l-3.15 10.35-2.91-10.35h-3.42l4.71 15h3.18l3.15-10.11 3.12 10.11h3.18l4.71-15h-3.42zm7.426-2.25c1.14 0 2.07-.96 2.07-2.07 0-1.14-.93-2.07-2.07-2.07-1.14 0-2.07.93-2.07 2.07 0 1.11.93 2.07 2.07 2.07zM134.57 38h3.24V23h-3.24v15zm14.892-15.39c-2.04 0-3.66.75-4.65 2.31V23h-3.24v15h3.24v-8.04c0-3.06 1.68-4.32 3.81-4.32 2.04 0 3.36 1.2 3.36 3.48V38h3.24v-9.21c0-3.9-2.4-6.18-5.76-6.18zM170.59 17v8.13c-1.14-1.56-2.91-2.52-5.25-2.52-4.08 0-7.47 3.42-7.47 7.89 0 4.44 3.39 7.89 7.47 7.89 2.34 0 4.11-.96 5.25-2.55V38h3.24V17h-3.24zm-4.74 18.3c-2.7 0-4.74-2.01-4.74-4.8s2.04-4.8 4.74-4.8 4.74 2.01 4.74 4.8-2.04 4.8-4.74 4.8z"/><path fill="#fff" fill-rule="evenodd" d="M187 19h10a3.998 3.998 0 014 4v10a3.997 3.997 0 01-4 4h-10a3.998 3.998 0 01-4-4V23a3.997 3.997 0 014-4zm-6 4a6 6 0 016-6h10a6.002 6.002 0 016 6v10a6 6 0 01-6 6h-10a6.002 6.002 0 01-6-6V23zm12.816 7.293c0 2.114-1.596 3.402-3.752 3.402-2.142 0-3.738-1.288-3.738-3.402V23.7h1.918v6.44c0 .952.504 1.666 1.82 1.666s1.82-.714 1.82-1.666V23.7h1.932v6.594-.001zm2.021 3.206V23.7h1.932v9.8h-1.932v-.001z" clip-rule="evenodd"/><path fill="#22D3EE" d="M2.794 61l.84-2.51h3.829L8.308 61h1.969l-3.59-10.182H4.41L.825 61h1.97zm1.338-3.992l1.377-4.102h.08l1.376 4.102H4.132zM11.967 61h1.845v-3.44h1.949c2.351 0 3.614-1.412 3.614-3.371 0-1.944-1.248-3.37-3.59-3.37h-3.818V61zm1.845-4.957V52.36h1.69c1.382 0 1.994.746 1.994 1.83s-.612 1.854-1.984 1.854h-1.7zM21.327 61h1.845v-3.44h1.949c2.351 0 3.614-1.412 3.614-3.371 0-1.944-1.248-3.37-3.59-3.37h-3.818V61zm1.845-4.957V52.36h1.69c1.382 0 1.994.746 1.994 1.83s-.612 1.854-1.984 1.854h-1.7zM30.687 61h6.329v-1.546h-4.484v-8.636h-1.845V61zm10.124-10.182h-1.844V61h1.844V50.818zm11.063 3.436c-.314-2.262-2.053-3.575-4.31-3.575-2.66 0-4.664 1.939-4.664 5.23 0 3.286 1.979 5.23 4.663 5.23 2.422 0 4.027-1.566 4.31-3.51l-1.859-.01c-.233 1.194-1.208 1.865-2.426 1.865-1.65 0-2.834-1.238-2.834-3.575 0-2.297 1.174-3.575 2.84-3.575 1.237 0 2.207.701 2.42 1.92h1.86zM55.097 61l.84-2.51h3.829L60.61 61h1.969l-3.59-10.182h-2.277L53.13 61h1.968zm1.338-3.992l1.377-4.102h.08l1.377 4.102h-2.834zm6.158-4.644h3.147V61h1.83v-8.636h3.146v-1.546h-8.123v1.546zm11.884-1.546h-1.845V61h1.845V50.818zm11.445 5.091c0-3.291-2.008-5.23-4.678-5.23-2.675 0-4.678 1.939-4.678 5.23 0 3.286 2.003 5.23 4.678 5.23 2.67 0 4.678-1.939 4.678-5.23zm-1.854 0c0 2.317-1.164 3.575-2.824 3.575-1.656 0-2.824-1.258-2.824-3.575s1.168-3.575 2.824-3.575c1.66 0 2.824 1.258 2.824 3.575zm12.315-5.09H94.55v6.94h-.09l-4.793-6.94h-1.65V61h1.844v-6.935h.085L94.743 61h1.64V50.818zm12.601 0v6.497c0 1.278-.89 2.192-2.287 2.192-1.402 0-2.287-.914-2.287-2.192v-6.498h-1.844v6.652c0 2.188 1.64 3.684 4.131 3.684 2.481 0 4.131-1.496 4.131-3.684v-6.652h-1.844zm6.044 0h-1.845V61h1.845V50.818zm9.093 8.55h1.561v-2.66h2.66v-1.56h-2.66v-2.66h-1.561v2.66h-2.66v1.56h2.66v2.66zm10.669-8.55V61h1.77v-7.01h.095l2.813 6.98h1.323l2.814-6.965h.094V61h1.77V50.818h-2.257l-3.023 7.378h-.119l-3.023-7.378h-2.257zM149.135 61l.84-2.51h3.829l.845 2.51h1.968l-3.589-10.182h-2.277L147.166 61h1.969zm1.338-3.992l1.377-4.102h.079l1.377 4.102h-2.833zM158.309 61h1.844v-3.729h1.879L164.031 61h2.058l-2.202-4.037c1.198-.482 1.829-1.506 1.829-2.888 0-1.944-1.253-3.257-3.589-3.257h-3.818V61zm1.844-5.26v-3.38h1.69c1.377 0 1.994.63 1.994 1.715 0 1.083-.617 1.665-1.984 1.665h-1.7zm7.611 5.26h1.844v-3.033l1.129-1.332L173.775 61h2.217l-3.972-5.613 3.937-4.569h-2.252l-3.972 4.678h-.125v-4.678h-1.844V61zm9.825 0h6.662v-1.546h-4.818v-2.78h4.435V55.13h-4.435v-2.765h4.778v-1.546h-6.622V61zm8.406-8.636h3.147V61h1.83v-8.636h3.147v-1.546h-8.124v1.546zm11.884-1.546h-1.844V61h1.844V50.818zm10.715 0h-1.835v6.94h-.089l-4.793-6.94h-1.65V61h1.844v-6.935h.084L206.953 61h1.641V50.818zm9.181 3.252h1.879c-.313-1.999-2.044-3.391-4.296-3.391-2.664 0-4.663 1.959-4.663 5.24 0 3.222 1.909 5.22 4.718 5.22 2.521 0 4.325-1.62 4.325-4.245V55.67h-4.131v1.442h2.346c-.029 1.452-.999 2.372-2.53 2.372-1.705 0-2.874-1.278-2.874-3.585 0-2.292 1.189-3.565 2.834-3.565 1.228 0 2.063.657 2.392 1.736z"/></svg>