<svg xmlns="http://www.w3.org/2000/svg" width="188" height="28" fill="none" viewBox="0 0 188 28"><path fill="#16BDCA" d="M22 2c-5.333 0-8.667 2.667-10 8 2-2.667 4.333-3.667 7-3 1.522.38 2.609 1.484 3.813 2.706C24.773 11.696 27.043 14 32 14c5.333 0 8.667-2.667 10-8-2 2.667-4.333 3.667-7 3-1.521-.38-2.609-1.484-3.813-2.706C29.227 4.304 26.957 2 22 2zM12 14c-5.333 0-8.667 2.667-10 8 2-2.667 4.333-3.667 7-3 1.521.38 2.609 1.484 3.813 2.706C14.773 23.696 17.043 26 22 26c5.333 0 8.667-2.667 10-8-2 2.667-4.333 3.667-7 3-1.521-.38-2.609-1.484-3.813-2.706C19.227 16.304 16.957 14 12 14z"/><path fill="#FFF" d="M60.26 11.12V8h-3.72V3.8l-3.24.96V8h-2.76v3.12h2.76v7.2c0 3.9 1.98 5.28 6.96 4.68v-2.91c-2.46.12-3.72.15-3.72-1.77v-7.2h3.72zM74.463 8v2.13c-1.14-1.56-2.91-2.52-5.25-2.52-4.08 0-7.47 3.42-7.47 7.89 0 4.44 3.39 7.89 7.47 7.89 2.34 0 4.11-.96 5.25-2.55V23h3.24V8h-3.24zm-4.74 12.3c-2.7 0-4.74-2.01-4.74-4.8s2.04-4.8 4.74-4.8 4.74 2.01 4.74 4.8-2.04 4.8-4.74 4.8zM83.1 5.75c1.14 0 2.07-.96 2.07-2.07 0-1.14-.93-2.07-2.07-2.07-1.14 0-2.07.93-2.07 2.07 0 1.11.93 2.07 2.07 2.07zM81.48 23h3.24V8h-3.24v15zM88.482 23h3.24V1.1h-3.24V23zM112.764 8l-2.94 10.35L106.704 8h-3.09l-3.15 10.35L97.554 8h-3.42l4.71 15h3.18l3.15-10.11 3.12 10.11h3.18l4.71-15h-3.42zM120.19 5.75c1.14 0 2.07-.96 2.07-2.07 0-1.14-.93-2.07-2.07-2.07-1.14 0-2.07.93-2.07 2.07 0 1.11.93 2.07 2.07 2.07zM118.57 23h3.24V8h-3.24v15zM133.462 7.61c-2.04 0-3.66.75-4.65 2.31V8h-3.24v15h3.24v-8.04c0-3.06 1.68-4.32 3.81-4.32 2.04 0 3.36 1.2 3.36 3.48V23h3.24v-9.21c0-3.9-2.4-6.18-5.76-6.18zM154.59 2v8.13c-1.14-1.56-2.91-2.52-5.25-2.52-4.08 0-7.47 3.42-7.47 7.89 0 4.44 3.39 7.89 7.47 7.89 2.34 0 4.11-.96 5.25-2.55V23h3.24V2h-3.24zm-4.74 18.3c-2.7 0-4.74-2.01-4.74-4.8s2.04-4.8 4.74-4.8 4.74 2.01 4.74 4.8-2.04 4.8-4.74 4.8z"/><path fill="#FFF" fill-rule="evenodd" d="M171 4h10a4 4 0 014 4v10a4 4 0 01-4 4h-10a4 4 0 01-4-4V8a4 4 0 014-4zm-6 4a6 6 0 016-6h10a6 6 0 016 6v10a6 6 0 01-6 6h-10a6 6 0 01-6-6V8zm12.816 7.293c0 2.114-1.596 3.402-3.752 3.402-2.142 0-3.738-1.288-3.738-3.402V8.7h1.918v6.44c0 .952.504 1.666 1.82 1.666s1.82-.714 1.82-1.666V8.7h1.932v6.594zm2.021 3.206V8.7h1.932v9.8h-1.932z" clip-rule="evenodd"/></svg>