<svg xmlns="http://www.w3.org/2000/svg" width="240" height="60" fill="none" viewBox="0 0 240 60"><path fill="#fff" d="M72.165 23.711c-2.245 0-4.03.821-5.12 2.529v-8.67h-3.568v22.99h3.568v-8.802c0-3.35 1.85-4.73 4.196-4.73 2.246 0 3.7 1.314 3.7 3.81v9.722h3.568V30.477c0-4.27-2.642-6.766-6.343-6.766zM84.333 33.86h13.15c.066-.46.132-.986.132-1.478 0-4.73-3.37-8.67-8.292-8.67-5.188 0-8.722 3.777-8.722 8.637 0 4.927 3.534 8.639 8.986 8.639 3.238 0 5.715-1.348 7.235-3.58l-2.94-1.709c-.793 1.15-2.28 2.037-4.262 2.037-2.643 0-4.724-1.314-5.287-3.875v-.001zm-.032-2.89c.495-2.463 2.312-4.04 4.988-4.04 2.148 0 4.23 1.215 4.725 4.04h-9.713zm28.615-6.832v2.331c-1.256-1.707-3.205-2.758-5.783-2.758-4.493 0-8.226 3.744-8.226 8.638 0 4.86 3.733 8.639 8.226 8.639 2.578 0 4.527-1.052 5.783-2.793v2.366h3.567V24.137h-3.567v.001zm-5.22 13.466c-2.974 0-5.221-2.2-5.221-5.255 0-3.054 2.247-5.255 5.221-5.255 2.973 0 5.22 2.2 5.22 5.255 0 3.054-2.247 5.256-5.22 5.256v-.001zM132.9 17.57v8.9c-1.256-1.708-3.205-2.759-5.782-2.759-4.493 0-8.226 3.744-8.226 8.638 0 4.86 3.733 8.639 8.226 8.639 2.577 0 4.526-1.052 5.782-2.793v2.366h3.568V17.569H132.9zm-5.22 20.035c-2.973 0-5.22-2.202-5.22-5.256 0-3.054 2.247-5.255 5.22-5.255s5.22 2.2 5.22 5.255c0 3.054-2.247 5.256-5.22 5.256zm12.121 2.955h3.568V16.584h-3.568V40.56zm9.693-6.7h13.15c.066-.46.132-.986.132-1.478 0-4.73-3.37-8.67-8.293-8.67-5.187 0-8.722 3.777-8.722 8.637 0 4.927 3.535 8.639 8.987 8.639 3.237 0 5.715-1.348 7.235-3.58l-2.94-1.709c-.794 1.15-2.28 2.037-4.263 2.037-2.642 0-4.724-1.314-5.286-3.875v-.001zm-.032-2.89c.495-2.463 2.312-4.04 4.988-4.04 2.147 0 4.229 1.215 4.725 4.04h-9.713zm18.187-2.299c0-1.182 1.123-1.741 2.412-1.741 1.355 0 2.511.591 3.105 1.872l3.007-1.675c-1.156-2.168-3.403-3.416-6.112-3.416-3.37 0-6.046 1.937-6.046 5.026 0 5.879 8.887 4.236 8.887 7.16 0 1.313-1.222 1.839-2.808 1.839-1.817 0-3.139-.887-3.668-2.365l-3.072 1.774c1.057 2.364 3.436 3.843 6.74 3.843 3.568 0 6.442-1.775 6.442-5.06 0-6.075-8.887-4.268-8.887-7.257zm13.403 0c0-1.182 1.123-1.741 2.411-1.741 1.355 0 2.511.591 3.106 1.872l3.006-1.675c-1.156-2.168-3.403-3.416-6.112-3.416-3.37 0-6.046 1.937-6.046 5.026 0 5.879 8.887 4.236 8.887 7.16 0 1.313-1.222 1.839-2.808 1.839-1.817 0-3.139-.887-3.667-2.365l-3.072 1.774c1.056 2.364 3.436 3.843 6.739 3.843 3.569 0 6.443-1.775 6.443-5.06 0-6.075-8.887-4.268-8.887-7.257zm27.213 8.1c2.476 0 4.309-1.47 4.309-3.882V25.36h-2.218v7.352c0 1.087-.58 1.902-2.091 1.902-1.511 0-2.09-.815-2.09-1.903v-7.35h-2.202v7.527c0 2.412 1.833 3.882 4.292 3.882zm6.629-11.41V36.55h2.219V25.36h-2.219z"/><path fill="#fff" fill-rule="evenodd" d="M216.232 19.996h-11.483c-2.537 0-4.593 2.045-4.593 4.566v11.416c0 2.521 2.056 4.566 4.593 4.566h11.483c2.537 0 4.593-2.044 4.593-4.566V24.562c0-2.521-2.056-4.566-4.593-4.566zm-11.483-2.283c-3.805 0-6.89 3.067-6.89 6.848v11.417c0 3.782 3.085 6.848 6.89 6.848h11.483c3.805 0 6.89-3.066 6.89-6.848V24.562c0-3.782-3.085-6.848-6.89-6.848h-11.483v-.001z" clip-rule="evenodd"/><path fill="#fff" fill-rule="evenodd" d="M204.749 19.995h11.483c2.537 0 4.593 2.045 4.593 4.566v11.416c0 2.522-2.056 4.566-4.593 4.566h-11.483c-2.537 0-4.593-2.044-4.593-4.566V24.562c0-2.522 2.056-4.567 4.593-4.567zm-6.89 4.566c0-3.782 3.085-6.848 6.89-6.848h11.483c3.805 0 6.89 3.066 6.89 6.848v11.416c0 3.783-3.085 6.849-6.89 6.849h-11.483c-3.805 0-6.89-3.066-6.89-6.85V24.562z" clip-rule="evenodd"/><path fill="url(#paint0_linear)" d="M23.17 34.37l22.096-7.334c-.44-2.744-.754-4.579-1.12-5.978-.392-1.505-.704-1.908-.827-2.048a4.308 4.308 0 00-1.552-1.12c-.171-.073-.653-.243-2.214-.15-1.649.1-3.816.435-7.247.975-3.43.54-5.596.887-7.195 1.3-1.514.39-1.92.7-2.06.822-.487.423-.872.95-1.127 1.543-.073.17-.245.649-.15 2.201.1 1.64.437 3.794.98 7.204.152.955.288 1.812.416 2.585z"/><path fill="url(#paint1_linear)" fill-rule="evenodd" d="M17.078 32.678c-1.05-6.597-1.577-9.895-.437-12.543a9.998 9.998 0 012.63-3.6c2.18-1.895 5.499-2.418 12.136-3.463s9.954-1.567 12.618-.435a10.054 10.054 0 013.62 2.614c1.906 2.169 2.432 5.469 3.483 12.066 1.051 6.598 1.578 9.896.438 12.545a10 10 0 01-2.63 3.599c-2.181 1.894-5.5 2.417-12.136 3.462-6.637 1.045-9.955 1.567-12.62.435a10.054 10.054 0 01-3.62-2.614c-1.904-2.17-2.43-5.47-3.482-12.067v.001zm11.707 11.715c1.777-.107 4.065-.462 7.454-.996 3.388-.534 5.674-.898 7.399-1.343 1.67-.43 2.44-.85 2.937-1.282a6.43 6.43 0 001.69-2.314c.26-.603.424-1.46.32-3.172-.108-1.768-.466-4.042-1.003-7.41-.536-3.37-.903-5.642-1.35-7.357-.433-1.66-.856-2.425-1.29-2.918a6.464 6.464 0 00-2.328-1.681c-.605-.258-1.468-.422-3.19-.318-1.778.107-4.066.463-7.455.997-3.389.533-5.675.897-7.4 1.341-1.67.431-2.438.851-2.936 1.283a6.43 6.43 0 00-1.69 2.314c-.26.603-.424 1.46-.32 3.172.107 1.768.466 4.042 1.003 7.411.536 3.369.903 5.642 1.35 7.355.433 1.661.857 2.426 1.29 2.92a6.463 6.463 0 002.327 1.68c.606.258 1.469.422 3.192.317v.001z" clip-rule="evenodd"/><defs><linearGradient id="paint0_linear" x1="30.183" x2="35.863" y1="12.001" y2="47.711" gradientUnits="userSpaceOnUse"><stop stop-color="#66E3FF"/><stop offset="1" stop-color="#7064F9"/></linearGradient><linearGradient id="paint1_linear" x1="30.183" x2="35.864" y1="12" y2="47.711" gradientUnits="userSpaceOnUse"><stop stop-color="#66E3FF"/><stop offset="1" stop-color="#7064F9"/></linearGradient></defs></svg>