<svg xmlns="http://www.w3.org/2000/svg" width="240" height="60" fill="none" viewBox="0 0 240 60"><path fill="#fff" d="M88.503 24.216c-2.15 0-3.817.802-4.78 2.245V18.25h-4.137v22.452h4.138v-8.66c0-2.79 1.507-3.977 3.528-3.977 1.86 0 3.175 1.122 3.175 3.303v9.334h4.138v-9.847c0-4.266-2.662-6.64-6.062-6.64zM100.952 34.383h12.092c.097-.545.161-1.09.161-1.7 0-4.714-3.368-8.467-8.115-8.467-5.036 0-8.468 3.688-8.468 8.468 0 4.779 3.4 8.467 8.789 8.467 3.079 0 5.484-1.25 6.992-3.432l-3.336-1.924c-.706.93-1.988 1.603-3.592 1.603-2.181 0-3.945-.898-4.523-3.015zm-.064-3.207c.481-2.053 1.989-3.24 4.202-3.24 1.732 0 3.464.93 3.977 3.24h-8.179zM119.589 27.423v-2.758h-4.137v16.037h4.137v-7.666c0-3.367 2.727-4.33 4.876-4.073v-4.619c-2.021 0-4.042.898-4.876 3.08zM133.282 41.151c4.715 0 8.499-3.688 8.499-8.468 0-4.779-3.784-8.467-8.499-8.467-4.715 0-8.468 3.688-8.468 8.468 0 4.779 3.753 8.467 8.468 8.467zm0-4.041c-2.438 0-4.33-1.828-4.33-4.426s1.892-4.427 4.33-4.427c2.469 0 4.362 1.828 4.362 4.427 0 2.598-1.893 4.426-4.362 4.426zM146.103 22.74c1.412 0 2.566-1.154 2.566-2.533 0-1.38-1.154-2.566-2.566-2.566-1.379 0-2.534 1.186-2.534 2.566 0 1.379 1.155 2.534 2.534 2.534zm-2.052 17.962h4.137V24.665h-4.137v16.037zM158.967 41.151c3.144 0 5.87-1.668 7.249-4.17l-3.592-2.052c-.642 1.315-2.021 2.117-3.689 2.117-2.469 0-4.298-1.829-4.298-4.362 0-2.566 1.829-4.395 4.298-4.395 1.636 0 3.015.834 3.657 2.15l3.56-2.085c-1.315-2.47-4.041-4.138-7.185-4.138-4.875 0-8.467 3.688-8.467 8.468 0 4.779 3.592 8.467 8.467 8.467zM175.146 41.151c4.715 0 8.5-3.688 8.5-8.468 0-4.779-3.785-8.467-8.5-8.467s-8.467 3.688-8.467 8.468c0 4.779 3.752 8.467 8.467 8.467zm0-4.041c-2.437 0-4.33-1.828-4.33-4.426s1.893-4.427 4.33-4.427c2.47 0 4.362 1.828 4.362 4.427 0 2.598-1.892 4.426-4.362 4.426zM194.832 24.216c-2.149 0-3.817.802-4.779 2.245v-1.796h-4.138v16.037h4.138v-8.66c0-2.79 1.507-3.977 3.528-3.977 1.86 0 3.175 1.122 3.175 3.303v9.334h4.138v-9.847c0-4.266-2.662-6.64-6.062-6.64zM207.602 29.22c0-.866.834-1.316 1.861-1.316 1.186 0 2.084.61 2.566 1.636l3.528-1.924c-1.251-2.213-3.496-3.4-6.094-3.4-3.304 0-6.094 1.828-6.094 5.1 0 5.645 8.275 4.362 8.275 6.703 0 .93-.898 1.38-2.213 1.38-1.604 0-2.695-.77-3.144-2.085l-3.592 2.02c1.155 2.47 3.528 3.817 6.736 3.817 3.432 0 6.447-1.668 6.447-5.132 0-5.901-8.276-4.426-8.276-6.8z"/><path stroke="#AC94FA" stroke-linecap="round" stroke-linejoin="round" stroke-width="4" d="M43.328 14.608a26.329 26.329 0 0015.953 5.613c.247 1.331.376 2.705.376 4.111 0 10.272-6.905 18.937-16.329 21.597C33.904 43.269 27 34.604 27 24.332c0-1.406.13-2.78.376-4.112a26.328 26.328 0 0015.952-5.612z"/></svg>