<svg xmlns="http://www.w3.org/2000/svg" width="341" height="192" fill="none"><mask id="a" width="341" height="192" x="0" y="0" maskUnits="userSpaceOnUse"><rect width="341" height="192" fill="url(#paint0_linear)" rx="24"/></mask><g mask="url(#a)" opacity=".1"><path stroke="#000" stroke-linecap="round" stroke-linejoin="round" stroke-width="2" d="M35 25.255A23.931 23.931 0 0126 27c-3.183 0-6.22-.62-9-1.745M30 18v-2a2 2 0 00-2-2h-4a2 2 0 00-2 2v2m4 6h.01M19 32h14a2 2 0 002-2V20a2 2 0 00-2-2H19a2 2 0 00-2 2v10a2 2 0 002 2zM31 80h5v-2a3 3 0 00-5.356-1.857M31 80H21m10 0v-2c0-.656-.126-1.283-.356-1.857M21 80h-5v-2a3 3 0 015.356-1.857M21 80v-2c0-.656.126-1.283.356-1.857m0 0a5.002 5.002 0 019.288 0M29 67a3 3 0 11-6 0 3 3 0 016 0zm6 3a2 2 0 11-4 0 2 2 0 014 0zm-14 0a2 2 0 11-4 0 2 2 0 014 0zM19 116h14m-14 0a2 2 0 110-4h14a2 2 0 110 4m-14 0v10a2 2 0 002 2h10a2 2 0 002-2v-10m-9 4h4M18 162h16m-16 6h16m-7 6h7M71 23.999l2 2 4-4m5.618-4.016A11.955 11.955 0 0174 14.943a11.955 11.955 0 01-8.618 3.04C65.132 18.947 65 19.957 65 21c0 5.592 3.824 10.29 9 11.622 5.176-1.332 9-6.03 9-11.622a12.02 12.02 0 00-.382-3.016zM81 81V65a2 2 0 00-2-2H69a2 2 0 00-2 2v16m14 0h2m-2 0h-5m-9 0h-2m2 0h5m-1-14h1m-1 4h1m4-4h1m-1 4h1m-5 10v-5a1 1 0 011-1h2a1 1 0 011 1v5m-4 0h4M74 116v4l3 3m6-3a9 9 0 01-9 9 9 9 0 01-9-9 9 9 0 019-9 9 9 0 019 9zM66 164h16m-16 8h16M130.618 17.983a11.956 11.956 0 01-8.618-3.04 11.956 11.956 0 01-8.618 3.04A12.04 12.04 0 00113 21c0 5.592 3.824 10.29 9 11.622 5.176-1.332 9-6.03 9-11.622 0-1.041-.133-2.052-.382-3.016zM122 21v2m0 4h.01M113 66l3 1m0 0l-3 9a5.001 5.001 0 006.001 0M116 67l3 9m-3-9l6-2m6 2l3-1m-3 1l-3 9a5.001 5.001 0 006.001 0M128 67l3 9m-3-9l-6-2m0-2v2m0 16V65m0 16h-3m3 0h3M114 124l4.586-4.586a2 2 0 012.828 0L126 124m-2-2l1.586-1.586a2 2 0 012.828 0L130 122m-6-6h.01M116 128h12a2 2 0 002-2v-12a2 2 0 00-2-2h-12a2 2 0 00-2 2v12a2 2 0 002 2zM117 172v-12m0 0l-4 4m4-4l4 4m6 0v12m0 0l4-4m-4 4l-4-4M168.325 16.317c.426-1.756 2.924-1.756 3.35 0a1.725 1.725 0 002.573 1.066c1.543-.94 3.31.826 2.369 2.37a1.724 1.724 0 001.066 2.572c1.756.426 1.756 2.924 0 3.35a1.724 1.724 0 00-1.066 2.573c.941 1.543-.826 3.31-2.369 2.37a1.725 1.725 0 00-2.573 1.065c-.426 1.756-2.924 1.756-3.35 0a1.725 1.725 0 00-2.573-1.066c-1.543.94-3.31-.826-2.369-2.37a1.724 1.724 0 00-1.066-2.572c-1.756-.426-1.756-2.924 0-3.35a1.724 1.724 0 001.066-2.573c-.941-1.543.826-3.31 2.369-2.37.997.608 2.297.07 2.573-1.065z"/><path stroke="#000" stroke-linecap="round" stroke-linejoin="round" stroke-width="2" d="M173 24a3 3 0 11-6 0 3 3 0 016 0zM169 65h-5a2 2 0 00-2 2v11a2 2 0 002 2h11a2 2 0 002-2v-5m-1.414-9.414a2 2 0 112.828 2.828L169.828 75H167v-2.828l8.586-8.586zM165 115h.01m-.01-4h5a1.99 1.99 0 011.414.586l7 7a2 2 0 010 2.828l-7 7a2 2 0 01-2.828 0l-7-7A1.99 1.99 0 01161 120v-5a4 4 0 014-4zM166 163h12m0 0l-4-4m4 4l-4 4m0 6h-12m0 0l4 4m-4-4l4-4M211 25l4 4 10-10"/><path fill="#000" d="M226.268 63.732l.707-.707-.707.707zM212.5 81.035v1a1 1 0 00.707-.292l-.707-.707zm-3.5 0h-1a1 1 0 001 1v-1zm0-3.57l-.707-.708a.998.998 0 00-.293.707h1zm14.439-13.026a1.501 1.501 0 012.122 0l1.414-1.414a3.5 3.5 0 00-4.95 0l1.414 1.414zm2.122 0a1.502 1.502 0 010 2.122l1.414 1.414a3.5 3.5 0 000-4.95l-1.414 1.414zm0 2.122l-13.768 13.767 1.414 1.415 13.768-13.768-1.414-1.414zM212.5 80.035H209v2h3.5v-2zm9.525-17.01l-13.732 13.732 1.414 1.414 13.732-13.732-1.414-1.414zM208 77.465v3.57h2v-3.57h-2zm12.525-11.526l3.536 3.536 1.414-1.414-3.536-3.536-1.414 1.414zM215.228 111.684l-.949.316.949-.316zm1.498 4.493l-.949.316.949-.316zm-.502 1.211l.447.894-.447-.894zm-2.257 1.128l-.447-.894c-.48.24-.685.816-.465 1.306l.912-.412zm5.517 5.517l-.412.912c.49.22 1.066.015 1.306-.465l-.894-.447zm1.128-2.257l-.894-.447.894.447zm1.211-.502l-.316.949.316-.949zm4.493 1.498l.316-.949-.316.949zM211 110a3 3 0 00-3 3h2a1 1 0 011-1v-2zm3.279 0H211v2h3.279v-2zm1.898 1.368a2.001 2.001 0 00-1.898-1.368v2l1.898-.632zm1.497 4.493l-1.497-4.493-1.898.632 1.498 4.493 1.897-.632zm-1.003 2.421a1.999 1.999 0 001.003-2.421l-1.897.632.894 1.789zm-2.257 1.129l2.257-1.129-.894-1.789-2.257 1.129.894 1.789zm5.481 3.71a10.038 10.038 0 01-5.016-5.016l-1.824.823a12.046 12.046 0 006.017 6.017l.823-1.824zm-.177-1.792l-1.129 2.257 1.789.894 1.129-2.257-1.789-.894zm2.421-1.003a1.999 1.999 0 00-2.421 1.003l1.789.894.632-1.897zm4.493 1.497l-4.493-1.497-.632 1.897 4.493 1.498.632-1.898zm1.368 1.898c0-.861-.551-1.625-1.368-1.898l-.632 1.898h2zm0 3.279v-3.279h-2V127h2zm-3 3a3 3 0 003-3h-2a1 1 0 01-1 1v2zm-1 0h1v-2h-1v2zm-16-16c0 8.837 7.163 16 16 16v-2c-7.732 0-14-6.268-14-14h-2zm0-1v1h2v-1h-2z"/><path stroke="#000" stroke-linecap="round" stroke-linejoin="round" stroke-width="2" d="M212 174l12-12m-12 0l12 12M257 17h12m-6-2v2m1.048 9.5a18.03 18.03 0 01-3.636-5.5m6.088 9h7m-8.5 3l5-10 5 10m-8.249-16c-.968 5.77-4.681 10.61-9.751 13.129M268.999 72a3 3 0 11-6 0 3 3 0 016 0z"/><path stroke="#000" stroke-linecap="round" stroke-linejoin="round" stroke-width="2" d="M256.457 72c1.274-4.057 5.065-7 9.542-7 4.478 0 8.268 2.943 9.542 7-1.274 4.057-5.064 7-9.542 7-4.477 0-8.268-2.943-9.542-7zM270 111h5m0 0v5m0-5l-6 6m-10-6a2 2 0 00-2 2v1c0 8.284 6.716 15 15 15h1a2 2 0 002-2v-3.279a1 1 0 00-.684-.949l-4.493-1.498a1.001 1.001 0 00-1.211.502l-1.128 2.257a11.04 11.04 0 01-5.517-5.517l2.257-1.128c.445-.223.659-.739.502-1.211l-1.498-4.493a1 1 0 00-.949-.684H259zM266 160v16m8-8h-16M319 21v-2a2 2 0 00-2-2h-10a2 2 0 00-2 2v6a2 2 0 002 2h2m2 4h10a2 2 0 002-2v-6a2 2 0 00-2-2h-10a2 2 0 00-2 2v6a2 2 0 002 2zm7-5a2 2 0 11-4 0 2 2 0 014 0zM307 65a2 2 0 012-2h10a2 2 0 012 2v16l-7-3.5-7 3.5V65zM323 111l-6 6m0 0v-5m0 5h5m-15-6a2 2 0 00-2 2v1c0 8.284 6.716 15 15 15h1a2 2 0 002-2v-3.279a1 1 0 00-.684-.949l-4.493-1.498a1.001 1.001 0 00-1.211.502l-1.128 2.257a11.04 11.04 0 01-5.517-5.517l2.257-1.128c.445-.223.659-.739.502-1.211l-1.498-4.493a1 1 0 00-.949-.684H307zM306 160v5h.582m15.356 2a8.001 8.001 0 00-15.356-2m0 0H311m11 11v-5h-.582m0 0a8.001 8.001 0 01-15.356-2m15.356 2H317"/></g><defs><linearGradient id="paint0_linear" x1="0" x2="341.751" y1="0" y2="1.346" gradientUnits="userSpaceOnUse"><stop stop-color="#7C3AED"/><stop offset=".985" stop-color="#A855F7"/></linearGradient></defs></svg>