<svg xmlns="http://www.w3.org/2000/svg" width="341" height="192" fill="none" viewBox="0 0 341 192"><path fill="#000" fill-rule="evenodd" d="M341 191.991v-1.122c-.449.228-.866.464-1.26.711-.229.143-.461.283-.697.42h1.94l.017-.009zm-41.969.009c3.025-2.148 6.225-3.552 10.089-4.52 13.35-3.33 20.46-5.5 25.5-7.7a50.396 50.396 0 005.39-2.75c.331-.195.661-.392.99-.59v-1.168c-.561.342-.98.591-1.5.898a49.316 49.316 0 01-5.28 2.7c-4.97 2.17-12.04 4.32-25.34 7.64-4.233 1.066-7.951 2.886-11.386 5.49h1.537zm-18.562 0c8.589-10.428 18.798-18 25.531-18 12.74 0 20.79-2.06 30.59-9.19a195.12 195.12 0 014.41-3.138v-2.41c-1.52 1.011-3.33 2.294-5.59 3.938-9.41 6.84-17.05 8.8-29.41 8.8-7.731 0-19 8.499-28.118 20h2.587zm-19.858 0c24.468-26.342 35.83-33.5 54.389-33.5 8.47 0 14.9-2 22.5-6.43.504-.292 1.799-1.106 3.5-2.181v-1.186c-1.951 1.234-3.455 2.182-4 2.497-7.46 4.35-13.72 6.3-22 6.3-19.066 0-30.683 7.41-55.76 34.5h1.371zm-19.857 0c10.293-6.232 20.94-15.133 28.616-23.67 10.19-11.32 34.5-22.83 51.63-22.83 5.24 0 10.08-1.37 15.71-4.17a87.164 87.164 0 004.29-2.303v-1.151a91.186 91.186 0 01-4.74 2.554c-5.49 2.74-10.19 4.07-15.26 4.07-17.42 0-42 11.64-52.37 23.17-7.976 8.858-19.209 18.137-29.844 24.33h1.968zm-26.924 0c4.493-3.432 8.555-5.914 12.58-7.84 1.63-.78 3.21-1.46 5.01-2.14.93-.36 3.84-1.43 4.27-1.59 5.13-1.95 7.78-3.72 10.6-7.69a44.268 44.268 0 004.16-7.53c3.05-6.77 3.49-10.95 2.8-17.42-.26-2.5-.32-3.26-.26-4.43.21-4.59 3.03-8.66 11.31-14.96 9.69-7.38 12.19-14.11 8.89-20.26-2.32-4.32-6.47-7.43-13.95-11.58-1.72-.95-3.86-1.44-6.81-1.68-.826-.08-1.365-.11-2.958-.198l-.022-.002c-5.15-.27-6.72-.73-6.79-2.38-.08-2.41 3.45-7.37 11.7-15.95 6.51-6.78 11.7-11.64 16.25-15.38 1.679-1.382 3.4-2.713 5.16-3.99l4.11-2.94c.8-.58 1.48-1.1 2.13-1.62 3.33-2.64 6.29-5.76 10.39-11.12l2.51-3.32 2.3-3.09a133.219 133.219 0 014.25-5.44c8.29-9.94 16.54-13.62 37.09-14.99-.298.023.777-.058 2.45-.18v-1c-1.879.138-3.177.237-3.03.23-20.29 1.34-28.8 5.13-37.27 15.3-1.25 1.48-2.49 3.09-4.29 5.48l-2.31 3.09a382.302 382.302 0 01-2.5 3.32c-4.05 5.29-6.95 8.34-10.21 10.94-.64.51-1.31 1.01-2.1 1.59l-4.12 2.94a119.89 119.89 0 00-5.2 4.03c-4.58 3.76-9.8 8.65-16.33 15.45-8.47 8.82-12.07 13.88-11.97 16.69.09 2.49 1.95 3.04 7.72 3.34l.035.002c1.583.089 2.121.119 2.915.188 2.82.24 4.85.69 6.42 1.57 7.3 4.05 11.35 7.08 13.55 11.17 3.04 5.66.71 11.89-8.62 19-8.49 6.46-11.48 10.76-11.7 15.7a27.192 27.192 0 00.27 4.58c.67 6.31.25 10.32-2.72 16.9-1.38 3.07-2.71 5.47-4.06 7.37-2.7 3.78-5.19 5.45-10.14 7.33-.16.061-.685.255-1.325.491-1.036.383-2.374.877-2.955 1.099-1.81.7-3.42 1.38-5.08 2.18a73.163 73.163 0 00-13.29 8.35c-.167.13-.333.259-.498.39h1.638zm-23.441 0l.151-.22c.15-.23 1.18-1.77 1.47-2.18 1.52-2.18 2.61-3.1 3.99-3.1 7.81 0 15.26-2.05 20.35-7.15 1.7-1.69 3.83-2.71 8.68-4.46l1.02-.37c4.27-1.56 6.49-2.58 8.47-4.16 2.61-2.08 3.98-4.77 3.98-8.36 0-16.27 3.45-28.59 11.75-33.57 5.18-3.11 9.7-7.96 11.1-12.02 1.66-4.84-1.15-7.91-8.35-7.91-4.27 0-7.87-1.1-12.65-3.44l-1.26-.63a51.094 51.094 0 00-3.54-1.7c-1.71-.75-3.06-1.14-4.32-1.2-3.03-.13-5.43 1.75-7.68 6.25-6.96 13.92-28.9 37.85-43.83 47.8-6.68 4.45-18.64 8.42-38.23 13.35-2.141.537-7.081 1.745-11.629 2.857-4.013.982-7.722 1.889-8.931 2.193-7.4 1.85-12.39 3.24-16.1 4.55-4.1 1.45-7.14 2.89-9.44 4.43-2.9 1.95-4.34 3.7-6.27 7.06-.428.749-.805 1.401-1.148 1.98h1.164c.264-.45.546-.941.854-1.48 1.86-3.24 3.21-4.88 5.96-6.73 2.22-1.49 5.19-2.9 9.22-4.32 3.67-1.29 8.63-2.68 16-4.52 1.102-.277 4.28-1.053 7.873-1.931a2332.235 2332.235 0 0012.687-3.119c19.71-4.96 31.74-8.94 38.55-13.48 15.07-10.05 37.13-34.12 44.17-48.19 2.09-4.18 4.16-5.8 6.74-5.7.463.022.773.019 1.08.053.977.107 1.914.583 7.64 3.377 4.9 2.4 8.64 3.54 13.09 3.54 6.57 0 8.82 2.46 7.4 6.59-1.31 3.81-5.66 8.48-10.66 11.48-8.71 5.23-12.24 17.83-12.24 34.43 0 5.91-3.19 8.45-11.79 11.58l-1.02.37c-5 1.8-7.21 2.86-9.04 4.7-4.87 4.85-12.08 6.85-19.65 6.85-1.81 0-3.11 1.09-4.81 3.52l-1.48 2.2c-.185.271-.367.531-.547.78h1.226zm-49.728 0a9.657 9.657 0 00.839-4c0-3.34-1.27-5.13-3.79-5.69-1.82-.4-3.24-.27-8.46.5-3.25.49-5.17.69-7.25.69-1.14 0-2.12-.01-3.77-.04-8.41-.15-10.8.22-14.18 2.93-.47.37-.94.79-1.4 1.26l-.446.415c-.759.705-2.392 2.22-4.225 3.935h1.463c.906-.847 1.734-1.618 2.393-2.232.884-.824 1.463-1.363 1.515-1.418.44-.44.88-.83 1.32-1.18 3.14-2.51 5.36-2.85 13.54-2.71 1.66.03 2.64.04 3.79.04 2.14 0 4.1-.2 7.4-.7 5.05-.75 6.45-.87 8.1-.5 2.03.44 3 1.81 3 4.7 0 1.435-.318 2.76-.949 4h1.11zm-65.733 0c13.74-12.538 27.511-22.5 33.062-22.5 10.08 0 54.16-12.02 66.22-18.05 9.66-4.83 24.58-21.35 37.18-38.15.229-.302 1.583-2.443 3.515-5.498 4.389-6.94 11.761-18.598 15.705-24.132 9.27-13.01 18.06-22.34 26.63-27.24 7.43-4.24 13.41-10.47 19.13-19.04.723-1.085 2.346-3.773 4.214-6.869 3.193-5.29 7.103-11.77 8.466-13.46 1.45-1.82 2.8-3 4.14-3.6 13.96-6.21 23.99-8.96 38.8-8.96H341v-1h-9.01c-14.98 0-25.13 2.79-39.2 9.04-1.52.68-2.98 1.96-4.52 3.89-1.404 1.752-5.38 8.34-8.59 13.66-1.845 3.055-3.436 5.691-4.14 6.75-5.64 8.45-11.51 14.56-18.8 18.73-8.73 4.98-17.6 14.4-26.95 27.53-4.035 5.662-11.623 17.664-15.963 24.53-1.791 2.833-3.03 4.792-3.237 5.069-12.5 16.67-27.36 33.12-36.82 37.85-11.94 5.97-55.86 17.95-65.78 17.95-5.961 0-20.382 10.462-34.554 23.5h1.492zm-10.163 0c.206-.219.411-.439.615-.66 7.65-8.42 12.7-13.27 19.92-18.43 9.84-7.03 21.17-12.24 34.82-15.42 37.2-8.68 51.19-12.75 59.17-18.07 8.8-5.87 21.55-24.99 37.16-55.19 5.16-9.97 12.13-18.17 20.89-25.4 5.09-4.2 9.49-7.19 17.44-12.15 7.53-4.69 9.74-6.22 11.6-8.35a22.012 22.012 0 003.1-5.1c.62-1.32 2.89-6.51 3.01-6.79a72.733 72.733 0 013.9-7.63C281.825 9.684 289.336 3.365 300.725 0h-3.23c-10.023 3.63-16.891 9.776-21.965 18.3-1.39 2.33-2.59 4.73-3.95 7.73-.13.3-2.39 5.47-3 6.77a21.15 21.15 0 01-2.95 4.87c-1.76 2.02-3.96 3.54-11.38 8.16-7.99 4.98-12.42 7.99-17.55 12.23-8.86 7.31-15.91 15.61-21.13 25.71-15.54 30.04-28.24 49.08-36.84 54.81-7.83 5.23-21.8 9.29-58.83 17.93-13.78 3.22-25.24 8.48-35.18 15.58-7.3 5.21-12.38 10.11-20.08 18.57-.416.451-.838.898-1.264 1.34h1.389zm-16.645 0c.72-.47 1.477-.962 2.247-1.463 4.13-2.688 8.652-5.63 10.203-6.717a52.35 52.35 0 006.6-5.65c1.243-1.219 4.994-5.094 6.509-6.658l.641-.662c7-7.12 12.32-11.23 19.05-13.92 3.27-1.31 8-2.74 17.24-5.32 3.938-1.077 7.871-2.17 11.8-3.28 4.247-1.19 8.48-2.427 12.7-3.71 20.7-6.32 34.49-12.25 41.57-18.89 9.04-8.47 12.22-14.39 16.27-26.86 1.98-6.12 3.03-8.85 4.93-12.4 9.34-17.34 28.23-38.67 42.5-44.55C255.2 35.82 261 29.27 261 22c0-2.32 2.57-7.5 6.42-12.52 2.79-3.63 5.973-6.886 9.342-9.48h-3.161c-2.792 2.398-5.42 5.207-7.771 8.27C261.73 13.6 259 19.11 259 22c0 6.34-5.23 12.25-19.38 18.08-14.79 6.08-33.96 27.74-43.5 45.45-1.98 3.68-3.05 6.5-5.07 12.72-3.95 12.18-6.99 17.82-15.73 26.02-6.79 6.36-20.39 12.2-40.79 18.44a599.698 599.698 0 01-12.67 3.7 9801.818 9801.818 0 00-11.78 3.28c-9.32 2.59-14.09 4.04-17.45 5.38-7.04 2.82-12.56 7.08-19.74 14.38-.16.17-5.59 5.8-7.12 7.3a50.515 50.515 0 01-6.34 5.43c-1.52 1.06-5.953 3.946-10.05 6.613A1851.608 1851.608 0 0044.464 192h3.657zm-21.574 0a204.737 204.737 0 014.474-3.1c1.971-1.336 6.175-4.033 10.193-6.611 4.012-2.574 7.838-5.029 9.067-5.889a97.976 97.976 0 007.84-6.37s7.24-6.38 9.48-8.3a137.528 137.528 0 0112.95-10.07c4.63-3.09 8.79-5.18 12.56-6.19a864.527 864.527 0 0021.8-5.97c12.6-3.66 22.06-6.94 28.3-10.06a44.752 44.752 0 017.33-2.73c8.77-2.7 12.22-4.17 17.3-8.27 6.9-5.57 13.29-14.49 19.6-28.25 15.92-34.63 18.95-39.12 31.85-48.8 3.07-2.3 6.24-4.02 11.25-6.29l2.31-1.04c5.98-2.67 8.81-4.14 11.93-6.4a30.603 30.603 0 009.66-11.45c1.94-3.88 2.57-6.48 3.47-12.56.211-1.414.416-2.608.644-3.65h-1.021a60.075 60.075 0 00-.613 3.51c-.89 5.98-1.49 8.5-3.37 12.27-4.23 8.45-9.17 12.03-21.1 17.38l-2.33 1.04c-5.06 2.3-8.29 4.04-11.43 6.4-13.07 9.8-16.18 14.42-32.15 49.19-6.26 13.62-12.55 22.41-19.33 27.87-4.95 4-8.31 5.44-16.97 8.1a45.496 45.496 0 00-7.47 2.79c-6.18 3.1-15.59 6.36-28.14 10-6.17 1.79-8.99 2.56-21.77 5.97-3.9 1.04-8.15 3.17-12.87 6.32-3.96 2.65-8.08 5.89-13.05 10.15-2.24 1.91-9.49 8.3-9.47 8.3-3.44 3-5.78 4.9-7.77 6.3-1.19.83-4.857 3.185-8.76 5.692-4.095 2.632-8.452 5.431-10.48 6.808a203.69 203.69 0 00-5.601 3.91h1.687zM0 189.563c.651-.431 1.318-.869 2-1.313 1.195-.788 4.54-2.935 7.51-4.84 2.078-1.333 3.972-2.548 4.82-3.1 4.97-3.24 9.02-6.01 12.97-8.91 5.4-3.98 10.23-8.12 18.81-15.88l1.7-1.54c17.67-16 25.83-22.3 36.38-26.52 3.95-1.58 8.71-3.05 15.63-4.92.2-.05 14.87-3.9 19.24-5.13 20.06-5.66 32.61-11.42 40.31-20.08 5.85-6.57 10.05-14.17 17.35-29.87l2.08-4.49c8.82-18.97 14.34-28.27 22.54-35.6a64.474 64.474 0 0115.16-10.25l4.03-1.96c6.46-3.19 9.78-5.98 13.38-12.18A68.888 68.888 0 00235.499 0h-1.105c-.427.839-.872 1.67-1.334 2.49-3.49 6-6.66 8.67-12.96 11.77l-4.04 1.97a65.481 65.481 0 00-15.38 10.4c-8.33 7.44-13.9 16.83-22.77 35.9l-2.09 4.5c-7.25 15.62-11.42 23.16-17.18 29.64-7.53 8.47-19.95 14.17-39.85 19.78-3.52.996-13.793 3.7-17.695 4.728l-1.525.402c-6.95 1.87-11.75 3.36-15.75 4.96-10.69 4.27-18.91 10.61-36.67 26.7l-1.7 1.54c-8.55 7.74-13.37 11.87-18.74 15.82-3.92 2.89-7.96 5.65-12.92 8.87-1.17.765-4.356 2.812-7.255 4.674-2.179 1.4-4.196 2.696-5.075 3.266-.495.323-.981.642-1.46.958v1.195zM0 15.569v1.152a319.69 319.69 0 0118.18-9.45c1.347-.648 2.724-1.296 4.17-1.976l.69-.325C24.944 4.093 29.601 2 34.065 0h-2.442a1246.987 1246.987 0 00-9.003 4.07A320.667 320.667 0 000 15.57zM89.498 0c1.22.817 2.483 1.684 3.792 2.6 7.91 5.54 13.24 13.25 16.45 22.66 3.02 8.83 3.76 16.51 3.76 27.75 0 8.32-.66 12.95-3.68 18.97-4.18 8.36-12.3 16.14-25.58 23.47-24.45 13.49-38.83 27.55-52.83 47.84-4.645 6.734-17.621 18.618-31.41 29.818v-1.291c13.483-10.989 26.066-22.539 30.59-29.087 14.08-20.42 28.57-34.59 53.17-48.16 13.12-7.23 21.09-14.87 25.17-23.03 2.92-5.86 3.57-10.35 3.57-18.53 0-11.13-.74-18.73-3.7-27.43-3.15-9.22-8.36-16.75-16.09-22.16A209.037 209.037 0 0087.687 0h1.811zM0 28.027c.794-.164 1.635-.328 2.53-.497 2.75-.52 3.67-.7 5.06-1.02 5.48-1.24 9.48-2.93 13.1-5.89C31.11 12.09 46.09 6.51 57 6.51c5.33 0 16.77 7.58 25.74 17.16 10.73 11.46 15.96 23.27 12.73 32.5-3.18 9.1-11.39 18.57-23.03 27.86-8.44 6.73-18.36 13-25.22 16.43-3.72 1.86-6.59 4.88-9.77 9.99-.172.274-.944 1.664-2.085 3.715-3.444 6.195-10.241 18.42-13.945 24.115-4.421 6.805-11.417 13.647-21.42 21.417v-1.269c9.591-7.512 16.324-14.14 20.58-20.698 3.627-5.581 10.274-17.519 13.77-23.799 1.227-2.203 2.066-3.71 2.25-4.001 3.27-5.26 6.26-8.41 10.18-10.37 6.79-3.4 16.65-9.63 25.03-16.32 11.52-9.18 19.61-18.53 22.72-27.4 3.07-8.78-2.02-20.27-12.52-31.49C73.21 14.95 61.97 7.51 57 7.51c-10.67 0-25.43 5.5-35.68 13.89-3.76 3.07-7.9 4.81-13.5 6.09-1.41.32-2.35.5-5.11 1.02-.965.182-1.866.36-2.71.535v-1.018zm0 9.857c.63-.023 1.295-.034 2-.034 3.93 0 6.97-.98 10.47-3.16.779-.484 2.941-2.023 5.2-3.63 2.265-1.612 4.628-3.294 5.79-4.05 9.2-5.98 11.34-7 25.2-11.95 6.95-2.48 15.18 1.28 22.33 9.12C77.54 31.37 82 40.79 82 47.85c0 7.56-.6 10.92-2.6 14.3-.818 1.369-4.657 6.262-6.958 9.194A203.782 203.782 0 0070.8 73.45c-5.96 7.94-9.33 10.28-17.26 13.76-1.34.58-2.2 1-3.03 1.5-.55.33-1.2.66-2 1.02-.326.152-1.29.564-2.342 1.013-1.242.53-2.604 1.112-3.178 1.377-6.05 2.78-8.99 5.8-8.99 10.73 0 10.851-18.54 35.574-34 44.578v-2.332c14.688-9.147 32-32.44 32-42.246 0-5.9 3.47-9.48 10.16-12.55.656-.298 2.252-.98 3.578-1.545.898-.383 1.671-.713 1.942-.835.74-.34 1.32-.64 1.8-.93.92-.55 1.85-1 3.25-1.62 7.65-3.35 10.75-5.5 16.47-13.12.281-.375.976-1.26 1.855-2.38 2.309-2.942 5.89-7.506 6.615-8.73C79.46 58.131 80 55.082 80 47.848c-.001-6.5-4.25-15.479-10.49-22.318-6.67-7.32-14.16-10.74-20.17-8.59-13.73 4.9-15.73 5.85-24.8 11.75-1.095.714-3.359 2.326-5.578 3.907-2.321 1.653-4.594 3.272-5.432 3.793-3.8 2.36-7.2 3.46-11.53 3.46-.713 0-1.378.01-2 .032v-1.998zm0 9.949C2.318 46.184 4.968 45.5 9 45.5c3.94 0 5.9-.92 8.18-3.36-.17.18 2.75-3.14 3.85-4.22a30.951 30.951 0 016.79-5c1.5-.83 3.15-1.62 4.99-2.38a64.907 64.907 0 0010.01-5.1v.01c.15-.1 2.4-1.51 2.95-1.84.96-.57 1.7-.94 2.43-1.17 2.57-.83 5.06-.1 11.04 3.12 14.86 8 19.43 22.87 9.18 38.71-4.04 6.24-9.37 9-18.72 11.11-.701.165-1.062.242-2.25.494l-.88.186c-6.04 1.29-8.78 2.08-11.6 3.65-3.63 2.02-6.09 4.98-7.5 9.44C21.073 109.413 12.047 125.37 0 134.375v-1.256c11.547-8.941 20.288-24.526 26.52-44.279 1.49-4.7 4.12-7.86 7.97-10 2.93-1.63 5.74-2.45 11.87-3.76 1.59-.331 2.11-.45 2.72-.589l.4-.09c9.12-2.06 14.24-4.7 18.1-10.67 9.92-15.34 5.55-29.55-8.82-37.29-5.75-3.1-8.03-3.76-10.25-3.05-.65.2-1.33.54-2.23 1.08-.55.32-2.77 1.72-2.93 1.82a65.907 65.907 0 01-10.16 5.17c-1.8.75-3.42 1.52-4.89 2.33a29.951 29.951 0 00-6.57 4.84 116.765 116.765 0 00-3.82 4.2C15.45 45.46 13.23 46.5 9 46.5c-4.154 0-6.7.732-9 2.582v-1.25zm0 17.41c8.34.216 14.282 2.645 18.38 7.427 5.08 5.93 1.13 21.42-5.93 35.55-3.159 6.318-6.761 11.352-12.45 16.624v-1.372c5.208-4.957 8.576-9.744 11.55-15.692 6.86-13.72 10.75-29 6.07-34.45C13.726 68.79 8.046 66.46 0 66.242v-.999zm0 47.655c5.041-5.754 9.261-11.701 10.48-15.758 2.34-7.8 3.19-11.92 2.77-15.94-.59-5.62-4.13-8.7-11.25-8.7-.678 0-1.307-.004-2-.015v1c.692.01 1.322.015 2 .015 6.61 0 9.72 2.7 10.25 7.8.41 3.85-.43 7.89-2.73 15.56-1.112 3.71-4.9 9.138-9.52 14.511v1.527zm0-14.473c.973-2.02 1.5-4.167 1.5-6.425 0-2.022-.525-3.754-1.5-5.22V89c.33.91.5 1.91.5 3.001 0 1.23-.172 2.429-.5 3.594v2.831zM116.144 0h1.35C128.731 12.368 135.5 27.12 135.5 40c0 19.12-.73 25.13-5.18 33.2a45.31 45.31 0 01-4.94 7.12c-6.47 7.77-11.81 16.2-12.76 21.27-1.2 6.34 4.69 7.03 20.17-.05 13.31-6.08 22.4-14.95 28.5-26.32a80.543 80.543 0 006.1-15.13c.634-2.098 1.947-7.018 2.752-10.035.338-1.268.587-2.2.658-2.445a28.984 28.984 0 011.75-4.83c7.47-14.93 21.09-30.5 36.25-37.24 3.031-1.346 5.711-3.151 8.242-5.54h1.432c-2.827 2.824-5.824 4.918-9.274 6.45-14.9 6.63-28.38 22.03-35.75 36.77a28.168 28.168 0 00-1.69 4.67c-.068.235-.311 1.152-.645 2.406-.801 3.012-2.12 7.969-2.755 10.094a81.462 81.462 0 01-6.19 15.3c-6.2 11.56-15.44 20.58-28.96 26.76-16.1 7.36-23 6.55-21.58-1.04 1-5.29 6.4-13.83 12.99-21.73a44.333 44.333 0 004.82-6.96c4.35-7.88 5.06-13.77 5.06-32.72 0-12.855-6.924-27.678-18.356-40zm77.384 0h1.831c-4.169 2.714-8.323 5.462-11.069 7.41-10.34 7.32-16.3 17.87-21.19 34.23-.58 1.96-1.15 4-1.82 6.47l-1.69 6.35c-2.98 11.18-5 16.9-8.17 21.81-5.05 7.81-11.37 12.68-15.89 12.98-4.7.31-5.3-4.23-.94-10.53 11.52-16.64 14.82-34.03 7.92-61.6-1.586-6.35-4.162-12.019-7.674-17.12h1.211c3.382 5.047 5.881 10.64 7.443 16.88 6.96 27.85 3.6 45.53-8.08 62.4-3.97 5.75-3.52 9.2.06 8.97 4.14-.28 10.21-4.95 15.11-12.52 3.1-4.8 5.1-10.45 8.05-21.53l1.69-6.35c.66-2.47 1.24-4.52 1.83-6.5 4.93-16.56 11-27.28 21.56-34.76 2.477-1.753 6.086-4.151 9.818-6.59zm-15.251 0h2.088c-8.817 4.762-13.613 7.958-18.015 12.36-5.14 5.14-8.75 4.15-12.45-2.22-.452-.775-1.818-3.612-3.463-7.029-.481-1-.986-2.049-1.5-3.111h1.113l1.446 3.002c1.565 3.255 2.843 5.914 3.264 6.638 3.4 5.85 6.26 6.63 10.89 2 4.208-4.2 8.741-7.307 16.627-11.64zM15.045 0h2.47A1872.063 1872.063 0 0011.7 2.58 625.121 625.121 0 000 7.912V6.805A626.294 626.294 0 0111.3 1.66c.884-.394 2.218-.985 3.745-1.66zM341 131.825c-7.319 2.922-13.456 2.44-20.08-.865-3.56-1.77-17.2-11-17.2-11.01a102.736 102.736 0 00-5.2-3.07c-16.04-8.83-34.27-24.16-34.52-31.85-.11-3.46 1.99-6.57 6.28-10.26 1.03-.9 2.18-1.81 3.68-2.95l1.223-.929c1.042-.79 2.344-1.778 2.717-2.07 4.47-3.4 7.18-5.79 9.32-8.45 11.12-13.82 26.55-28.68 34.36-32.28 7.948-3.652 14.036-4.997 19.42-3.803v2.064c-5.03-1.27-10.776-.034-18.58 3.558-7.45 3.42-22.7 18.12-33.64 31.72-2.27 2.82-5.08 5.3-9.67 8.79l-3.94 2.98a80.179 80.179 0 00-3.59 2.88c-3.87 3.33-5.67 6-5.58 8.69.21 6.64 18.14 21.72 33.48 30.15 1.76.97 3.5 2 5.3 3.13l.079.053c1.116.755 13.669 9.236 16.951 10.867 6.327 3.156 12.073 3.539 19.19.493v2.162zm0-70.855l-1.821-1.767c-1.937-1.883-4.252-4.132-5.139-4.953-2.9-2.67-5.19-4.42-7.43-5.52-5.17-2.57-9.89-1.51-14.97 3.92a95.29 95.29 0 01-4.72 4.66 230.263 230.263 0 01-8.89 7.74c-13.93 11.66-14.83 12.45-18.1 16.33-4.62 5.49-4.99 9.53-.17 12.13a81.22 81.22 0 018.63 5.7c.555.398 2.405 1.76 4.456 3.27 2.387 1.757 5.045 3.714 6.244 4.58 4.94 3.54 9.01 6.27 12.94 8.54 10.29 5.96 18.55 8.19 25.14 5.86.41-.145 1.854-.633 3.83-1.3v-1.054c-2.147.725-3.735 1.261-4.17 1.414-6.23 2.2-14.24.04-24.3-5.78a154.61 154.61 0 01-12.85-8.49 1436.42 1436.42 0 01-7.14-5.235 1093.431 1093.431 0 00-3.56-2.615c-3.84-2.78-6.51-4.57-8.74-5.77-4.12-2.21-3.82-5.53.46-10.61 3.21-3.81 4.12-4.61 17.98-16.21 3.76-3.15 6.44-5.47 8.92-7.77a96.332 96.332 0 004.76-4.71c4.8-5.11 9.05-6.07 13.8-3.71 2.14 1.07 4.37 2.76 7.2 5.37.971.892 3.679 3.525 5.708 5.498.798.776 1.491 1.45 1.932 1.875V60.97zm0 28.178c-2.254-.943-4.478-1.962-7.02-3.188-5.9-2.84-6.49-3.11-8.64-3.77-2.7-.83-5.29-1.07-8.4-.7v.01c-5.33.63-9.72 2.25-12.2 4.7-2.89 2.86-3.06 6.65-.16 11.06 3.82 5.8 7.5 9.75 12.15 12.3 5.95 3.25 12.98 3.72 21.43.9.986-.328 1.932-.653 2.84-.975v-1.058c-1.004.361-2.057.725-3.16 1.093-8.19 2.73-14.92 2.27-20.62-.84-4.5-2.46-8.07-6.29-11.8-11.97-2.66-4.03-2.51-7.3.02-9.8 2.29-2.26 6.49-3.82 11.62-4.42h-.01a18.42 18.42 0 018 .66c2.08.64 2.66.9 8.5 3.71 2.703 1.3 5.048 2.371 7.45 3.367v-1.079zM37.76 61.43c11.79 6.56 24 6.5 26.72-3.3l.01.01c3.68-13.27 1.86-22.94-7.3-26.6-5.18-2.08-9.27-1.71-14 .72a50.16 50.16 0 00-3.92 2.3l-2.03 1.3a66.533 66.533 0 01-4.48 2.7c-8.8 4.89-5.17 17.23 5 22.87zm2.05-26.03a49.293 49.293 0 013.84-2.25v.01c4.48-2.32 8.27-2.65 13.17-.7 8.55 3.43 10.27 12.57 6.7 25.4-2.48 8.93-13.97 8.99-25.28 2.7-9.59-5.32-12.94-16.72-5-21.12.78-.43 1.56-.89 2.38-1.39.557-.337 1.114-.69 1.779-1.11l.381-.24 2.03-1.3zm15.05 19.86c4.2-.96 6.64-4.26 6.64-9.96 0-11.76-14.1-13.66-20.9-4.6-4.47 5.96-4.41 8.55-.34 10.93.45.26.96.54 1.63.88l1.89.94c3.52 1.76 7.78 2.57 11.08 1.81zm-1.68-19.12c4.45.61 7.32 3.86 7.32 9.16v-.01c0 5.26-2.13 8.14-5.86 9-3.06.7-7.08-.07-10.42-1.74l-1.87-.93c-.66-.34-1.15-.6-1.59-.85-3.46-2.03-3.51-3.93.64-9.47 2.79-3.72 7.55-5.73 11.78-5.16zm180.31 115.78c-1-6-.9-7.32.98-12.76 1.27-3.65 3.42-5.95 14.02-16.05a213.818 213.818 0 003.86-3.76c2.34-2.34 2.75-4.01 1.14-4.9-1.05-.58-2.67-.71-5.83-.66l-.72.01c-2.95.06-4.05.01-4.75-.26a19.973 19.973 0 01-3.1-1.6l-1.39-.84c-1.38-.82-2.41-1.29-3.58-1.59-4.54-1.13-7.81 2.26-12.25 10.4l-.339.629c-.628 1.169-1.944 3.618-2.381 4.381a21.866 21.866 0 01-2.52 3.75c-5.99 6.64-8.13 12.43-8.13 26.33 0 8.3 3.86 12.38 10.41 13.44 2.11.34 4.08.35 6.94.17l.64-.04a16.918 16.918 0 011.51-.07c4.11 0 6.67-9.52 5.49-16.58zm14.31-29.54c-10.81 10.29-12.93 12.56-14.27 16.46-1.94 5.6-2.05 7.08-1.03 13.24 1.1 6.52-1.3 15.42-4.5 15.42-.26 0-.57.01-.99.04-.41.024-.82.048-1.23.07-2.79.18-4.7.17-6.71-.16-6.09-.98-9.57-4.66-9.57-12.45 0-13.67 2.06-19.2 7.87-25.67a22.692 22.692 0 002.65-3.92c.59-1.04 2.8-5.15 2.73-5.02 4.21-7.73 7.25-10.87 11.13-9.9 1.171.321 2.287.817 3.31 1.47l1.38.83c1.28.77 2.19 1.26 3.25 1.67.88.36 2 .4 5.14.34l.72-.01c2.95-.05 4.5.08 5.32.53.82.45.59 1.38-1.35 3.33-1.12 1.11-2.3 2.26-3.85 3.73zm-20.98 30.81c-.05-.03-1.97-1.41-2.55-1.93-2.2-1.98-3.02-2.54-4.2-2.28-1.56.35-2.07 2.21-2.07 6.02 0 7.64 5.09 10.19 8.83 4.55 2.03-3.05 1.95-4.79-.01-6.36zm-6.32-2.25c.2-.05.93.45 2.43 1.8v.01c.69.6 2.67 2.03 2.64 2 1.07.86 1.1 1.44-.4 3.7-2.5 3.76-5.17 2.42-5.17-3.45 0-2.83.33-4.03.5-4.06z" clip-rule="evenodd" opacity=".1"/></svg>