<svg xmlns="http://www.w3.org/2000/svg" width="240" height="60" fill="none" viewBox="0 0 240 60"><path fill="#fff" d="M64.503 24.214c-2.15 0-3.817.802-4.78 2.245v-8.211h-4.137V40.7h4.138v-8.66c0-2.79 1.507-3.977 3.528-3.977 1.86 0 3.175 1.122 3.175 3.303V40.7h4.138v-9.847c0-4.266-2.662-6.64-6.062-6.64zM76.952 34.382h12.092a9.56 9.56 0 00.16-1.7c0-4.715-3.367-8.468-8.114-8.468-5.036 0-8.468 3.689-8.468 8.468s3.4 8.467 8.789 8.467c3.079 0 5.484-1.25 6.992-3.432l-3.336-1.924c-.705.93-1.988 1.604-3.592 1.604-2.181 0-3.945-.899-4.523-3.015zm-.064-3.208c.481-2.053 1.989-3.24 4.202-3.24 1.732 0 3.464.93 3.977 3.24h-8.179zM95.59 27.421v-2.758h-4.138V40.7h4.137v-7.666c0-3.367 2.727-4.33 4.876-4.073v-4.619c-2.021 0-4.042.898-4.876 3.08zM109.282 41.15c4.715 0 8.499-3.69 8.499-8.468 0-4.78-3.784-8.468-8.499-8.468-4.715 0-8.468 3.689-8.468 8.468s3.753 8.467 8.468 8.467zm0-4.042c-2.438 0-4.33-1.828-4.33-4.426 0-2.599 1.892-4.427 4.33-4.427 2.469 0 4.362 1.829 4.362 4.427s-1.893 4.426-4.362 4.426zM129.384 24.214c-2.341 0-4.041.866-5.196 2.341v-1.892h-4.137v22.452h4.137v-8.307c1.155 1.475 2.855 2.341 5.196 2.341 4.298 0 7.826-3.688 7.826-8.467 0-4.78-3.528-8.468-7.826-8.468zm-.77 12.99c-2.533 0-4.426-1.828-4.426-4.522 0-2.695 1.893-4.523 4.426-4.523 2.566 0 4.459 1.828 4.459 4.523 0 2.694-1.893 4.522-4.459 4.522zM151.675 24.663v1.892c-1.154-1.443-2.886-2.341-5.228-2.341-4.266 0-7.794 3.689-7.794 8.468s3.528 8.467 7.794 8.467c2.342 0 4.074-.898 5.228-2.341V40.7h4.138V24.663h-4.138zm-4.458 12.541c-2.534 0-4.426-1.828-4.426-4.522 0-2.695 1.892-4.523 4.426-4.523 2.566 0 4.458 1.828 4.458 4.523 0 2.694-1.892 4.522-4.458 4.522zM168.097 28.64v-3.977h-3.625v-4.49l-4.137 1.25v3.24h-2.791v3.977h2.791v6.672c0 4.33 1.956 6.03 7.762 5.388v-3.753c-2.374.129-3.625.097-3.625-1.635V28.64h3.625zM178.919 28.64v-3.977h-3.624v-4.49l-4.138 1.25v3.24h-2.79v3.977h2.79v6.672c0 4.33 1.957 6.03 7.762 5.388v-3.753c-2.373.129-3.624.097-3.624-1.635V28.64h3.624zM184.19 34.382h12.092a9.58 9.58 0 00.16-1.7c0-4.715-3.367-8.468-8.114-8.468-5.036 0-8.468 3.689-8.468 8.468s3.4 8.467 8.788 8.467c3.079 0 5.485-1.25 6.993-3.432l-3.336-1.924c-.706.93-1.989 1.604-3.593 1.604-2.181 0-3.945-.899-4.522-3.015zm-.064-3.208c.481-2.053 1.988-3.24 4.202-3.24 1.732 0 3.464.93 3.977 3.24h-8.179zM202.827 27.421v-2.758h-4.138V40.7h4.138v-7.666c0-3.367 2.726-4.33 4.875-4.073v-4.619c-2.02 0-4.041.898-4.875 3.08zM218.397 24.214c-2.149 0-3.816.802-4.779 2.245v-1.796h-4.137V40.7h4.137v-8.66c0-2.79 1.508-3.977 3.528-3.977 1.861 0 3.176 1.122 3.176 3.303V40.7h4.137v-9.847c0-4.266-2.662-6.64-6.062-6.64zM231.168 29.218c0-.866.834-1.316 1.86-1.316 1.187 0 2.085.61 2.566 1.636l3.528-1.924c-1.251-2.213-3.496-3.4-6.094-3.4-3.304 0-6.094 1.828-6.094 5.1 0 5.645 8.275 4.362 8.275 6.703 0 .93-.898 1.38-2.213 1.38-1.604 0-2.694-.77-3.143-2.085l-3.593 2.02c1.155 2.47 3.529 3.817 6.736 3.817 3.432 0 6.447-1.668 6.447-5.132 0-5.901-8.275-4.426-8.275-6.8z"/><path stroke="#AFECEF" stroke-linecap="round" stroke-linejoin="round" stroke-width="4" d="M19.328 14.608a26.329 26.329 0 0015.953 5.613c.247 1.331.376 2.705.376 4.111 0 10.272-6.905 18.937-16.329 21.597C9.904 43.269 3 34.604 3 24.332c0-1.406.13-2.78.376-4.112a26.328 26.328 0 0015.952-5.612z"/></svg>