<svg xmlns="http://www.w3.org/2000/svg" width="240" height="60" fill="none" viewBox="0 0 240 60"><path fill="#16BDCA" d="M42.429 17.965c-5.714 0-9.287 2.857-10.715 8.571 2.143-2.857 4.643-3.929 7.5-3.214 1.631.407 2.796 1.59 4.086 2.9 2.1 2.131 4.532 4.6 9.843 4.6 5.714 0 9.286-2.857 10.714-8.571-2.143 2.857-4.642 3.928-7.5 3.214-1.63-.407-2.795-1.59-4.085-2.9-2.1-2.132-4.532-4.6-9.843-4.6zM31.714 30.822c-5.714 0-9.286 2.857-10.714 8.571 2.143-2.857 4.642-3.928 7.5-3.214 1.63.407 2.795 1.59 4.085 2.9 2.1 2.132 4.532 4.6 9.844 4.6 5.713 0 9.286-2.857 10.714-8.571-2.143 2.857-4.643 3.929-7.5 3.214-1.63-.407-2.796-1.59-4.086-2.9-2.1-2.131-4.532-4.6-9.843-4.6z"/><path fill="#fff" d="M83.418 27.736v-3.343h-3.986v-4.5l-3.471 1.028v3.472h-2.957v3.343h2.957v7.714c0 4.179 2.121 5.657 7.457 5.014v-3.118c-2.636.129-3.986.161-3.986-1.896v-7.714h3.986zm15.218-3.343v2.282c-1.222-1.671-3.118-2.7-5.625-2.7-4.372 0-8.004 3.664-8.004 8.454 0 4.757 3.632 8.453 8.004 8.453 2.507 0 4.403-1.028 5.625-2.732v2.314h3.471V24.393h-3.471zM93.557 37.57c-2.893 0-5.079-2.153-5.079-5.142 0-2.99 2.186-5.143 5.08-5.143 2.892 0 5.078 2.153 5.078 5.143 0 2.989-2.186 5.142-5.079 5.142zm14.333-15.589c1.221 0 2.217-1.028 2.217-2.218a2.222 2.222 0 00-2.217-2.218 2.222 2.222 0 00-2.218 2.218c0 1.19.996 2.218 2.218 2.218zm-1.736 18.482h3.471V24.393h-3.471v16.071zm7.502 0h3.471V17h-3.471v23.464zm26.016-16.071l-3.15 11.09-3.342-11.09h-3.311l-3.375 11.09-3.118-11.09h-3.664l5.046 16.071h3.407l3.375-10.832 3.343 10.832h3.407l5.047-16.071h-3.665zm7.957-2.41c1.221 0 2.218-1.03 2.218-2.219a2.223 2.223 0 00-2.218-2.218 2.222 2.222 0 00-2.218 2.218c0 1.19.996 2.218 2.218 2.218zm-1.736 18.481h3.472V24.393h-3.472v16.071zm15.956-16.489c-2.186 0-3.922.804-4.982 2.475v-2.057h-3.472v16.071h3.472V31.85c0-3.279 1.8-4.629 4.082-4.629 2.186 0 3.6 1.286 3.6 3.729v9.514h3.471v-9.868c0-4.178-2.571-6.621-6.171-6.621zm22.637-6.01v8.71c-1.221-1.671-3.118-2.7-5.625-2.7-4.371 0-8.004 3.664-8.004 8.454 0 4.757 3.633 8.453 8.004 8.453 2.507 0 4.404-1.028 5.625-2.732v2.314h3.471v-22.5h-3.471zm-5.079 19.606c-2.892 0-5.078-2.153-5.078-5.142 0-2.99 2.186-5.143 5.078-5.143 2.893 0 5.079 2.153 5.079 5.143 0 2.989-2.186 5.142-5.079 5.142z"/><path fill="#fff" fill-rule="evenodd" d="M202.069 20.108h10.714a4.287 4.287 0 014.286 4.285v10.715a4.285 4.285 0 01-4.286 4.285h-10.714a4.285 4.285 0 01-4.286-4.285V24.393a4.285 4.285 0 014.286-4.285zm-6.428 4.285a6.427 6.427 0 016.428-6.428h10.714a6.428 6.428 0 016.429 6.428v10.715a6.427 6.427 0 01-6.429 6.428h-10.714a6.426 6.426 0 01-6.428-6.428V24.393zm13.731 7.814c0 2.265-1.71 3.645-4.02 3.645-2.295 0-4.005-1.38-4.005-3.645v-7.064h2.055v6.9c0 1.02.54 1.785 1.95 1.785s1.95-.765 1.95-1.785v-6.9h2.07v7.065zm2.165 3.435V25.143h2.07v10.5h-2.07z" clip-rule="evenodd"/></svg>