<svg xmlns="http://www.w3.org/2000/svg" viewBox="0 0 520 520"><path d="M234.5 106.6c-42.6 6.4-73 28.1-90.9 65-2.7 5.4-5.2 10.7-5.7 11.6-.5 1-.9 2.3-.9 2.9 0 .6-.6 2.5-1.4 4.2-1.7 3.9-4.6 13.2-4.6 14.8 0 .6 3.9-2.9 8.6-7.9 20.2-21.6 38.5-30.2 62.4-29.8 25.3.5 38 7.1 65.7 34.2 17 16.7 23.1 22.3 28.8 27 15.4 12.5 32.7 21.4 51.5 26.3 6.9 1.8 10.2 2.5 18.5 3.7 5.6.9 37 1.2 43 .4 21.9-2.8 33.4-6.3 49.5-14.8 25.7-13.7 45.4-39 56.5-72.5 3.9-11.9 4.5-15.8 1.7-11.7-3.4 4.9-12.9 14.5-20 20.1-8.3 6.7-20.8 13.1-30.2 15.6-8.6 2.3-27.9 2.3-36.8-.1-17.4-4.6-25.7-10.5-53.2-37.6-15.1-14.9-19.1-18.5-27.3-24.8-18.5-14.1-40.7-23.3-64.2-26.6-12.6-1.8-39.2-1.8-51 0zM114.9 260.4c-.2.2-2.9.6-5.9.9-3 .4-6.6.8-8 1.1-1.4.2-4.3.7-6.5 1.1-7.6 1.3-25 7.6-32.5 11.7-28 15.4-46.2 39-58.1 75.3-3.5 10.8-3.4 13.3.4 7.8 3.6-5.2 14.6-15.7 22-21.2 24.3-17.8 56.9-19.8 82-4.9 8.6 5 16 11.4 36.2 31.3 30.6 30.1 51 42.1 82.1 48.6 11.2 2.3 45.6 3.5 55.4 1.9 3-.5 7.1-1.2 9-1.5 29.5-4.6 57.1-21.5 74.4-45.4 9-12.6 19.3-34.4 22.5-48 .5-2 1.2-4.5 1.7-5.6.4-1.1-1.5.7-4.3 4-19.4 23.2-39.3 34.2-63.3 35-27.4 1-40.9-5.7-70.6-35-26.4-26.1-36.4-34-53.9-42.8-7.6-3.8-21.9-9.2-26.6-10.1-.8-.1-3.9-.8-6.9-1.4-3-.6-7.1-1.4-9-1.7-4-.7-39.5-1.7-40.1-1.1z"/></svg>