<svg xmlns="http://www.w3.org/2000/svg" width="32" height="32" fill="none" viewBox="0 0 32 32"><g clip-path="url(#clip0)"><g filter="url(#filter0_dd)"><path fill="#E9D5FF" fill-rule="evenodd" d="M5.20399 8.75538C6.3155 9.24083 7.46609 9.65362 8.64983 9.98773C9.01611 8.37716 9.52695 6.91105 10.1558 5.65329C10.4656 5.03377 10.8133 4.44874 11.1965 3.91614C8.74396 4.89183 6.65814 6.59276 5.20399 8.75538ZM4.21478 10.505C5.5233 11.0876 6.88285 11.5762 8.28475 11.9622C8.09866 13.2499 8 14.6049 8 16C8 17.3951 8.09866 18.7501 8.28475 20.0378C6.88285 20.4238 5.52329 20.9124 4.21477 21.495C3.43549 19.8268 3 17.9654 3 16C3 14.0346 3.43549 12.1732 4.21478 10.505ZM10 16C10 17.2422 10.0838 18.4399 10.2389 19.5724C11.7852 19.2607 13.3758 19.072 15 19.0169V12.9831C13.3758 12.928 11.7852 12.7393 10.2389 12.4276C10.0838 13.5601 10 14.7578 10 16ZM17 12.9831V19.0169C18.6242 19.072 20.2148 19.2607 21.7611 19.5724C21.9162 18.4399 22 17.2422 22 16C22 14.7578 21.9162 13.5601 21.7611 12.4276C20.2148 12.7393 18.6242 12.928 17 12.9831ZM15 21.0182C13.4964 21.0729 12.0244 21.2505 10.5938 21.5412C10.928 23.0195 11.3899 24.3428 11.9447 25.4523C12.8643 27.2916 13.9436 28.3805 15 28.8001V21.0182ZM17 28.8001V21.0182C18.5036 21.0729 19.9756 21.2505 21.4062 21.5412C21.072 23.0195 20.6101 24.3428 20.0553 25.4523C19.1357 27.2916 18.0564 28.3805 17 28.8001ZM17 10.9818V3.19985C18.0564 3.61946 19.1357 4.70841 20.0553 6.54772C20.6101 7.65722 21.072 8.98046 21.4062 10.4588C19.9756 10.7495 18.5036 10.9271 17 10.9818ZM15 3.19985V10.9818C13.4964 10.9271 12.0244 10.7495 10.5938 10.4588C10.928 8.98046 11.3899 7.65722 11.9447 6.54772C12.8643 4.70841 13.9436 3.61946 15 3.19985ZM5.20399 23.2446C6.3155 22.7592 7.46609 22.3464 8.64983 22.0123C9.01611 23.6228 9.52695 25.089 10.1558 26.3467C10.4656 26.9662 10.8133 27.5513 11.1965 28.0839C8.74396 27.1082 6.65814 25.4072 5.20399 23.2446ZM21.8442 26.3467C21.5344 26.9662 21.1867 27.5513 20.8035 28.0839C23.256 27.1082 25.3419 25.4072 26.796 23.2446C25.6845 22.7592 24.5339 22.3464 23.3502 22.0123C22.9839 23.6228 22.4731 25.089 21.8442 26.3467ZM27.7852 21.495C26.4767 20.9124 25.1172 20.4238 23.7152 20.0378C23.9013 18.7501 24 17.3951 24 16C24 14.6049 23.9013 13.2499 23.7152 11.9622C25.1172 11.5762 26.4767 11.0876 27.7852 10.505C28.5645 12.1732 29 14.0346 29 16C29 17.9654 28.5645 19.8268 27.7852 21.495ZM26.796 8.75538C25.6845 9.24083 24.5339 9.65362 23.3502 9.98773C22.9839 8.37716 22.4731 6.91105 21.8442 5.65329C21.5344 5.03377 21.1867 4.44874 20.8035 3.91614C23.256 4.89183 25.3419 6.59276 26.796 8.75538ZM2.89051 8.70497C5.4521 4.11087 10.3621 1 16 1C21.6379 1 26.5479 4.11087 29.1095 8.70497C30.314 10.8653 31 13.354 31 16C31 18.646 30.314 21.1347 29.1095 23.295C26.5479 27.8891 21.6379 31 16 31C10.3621 31 5.4521 27.8891 2.89051 23.295C1.68596 21.1347 1 18.646 1 16C1 13.354 1.68597 10.8653 2.89051 8.70497Z" clip-rule="evenodd"/></g></g><defs><filter id="filter0_dd" width="36" height="36" x="-2" y="-1" color-interpolation-filters="sRGB" filterUnits="userSpaceOnUse"><feFlood flood-opacity="0" result="BackgroundImageFix"/><feColorMatrix in="SourceAlpha" type="matrix" values="0 0 0 0 0 0 0 0 0 0 0 0 0 0 0 0 0 0 127 0"/><feOffset dy="1"/><feGaussianBlur stdDeviation="1"/><feColorMatrix type="matrix" values="0 0 0 0 0 0 0 0 0 0 0 0 0 0 0 0 0 0 0.06 0"/><feBlend in2="BackgroundImageFix" mode="normal" result="effect1_dropShadow"/><feColorMatrix in="SourceAlpha" type="matrix" values="0 0 0 0 0 0 0 0 0 0 0 0 0 0 0 0 0 0 127 0"/><feOffset dy="1"/><feGaussianBlur stdDeviation="1.5"/><feColorMatrix type="matrix" values="0 0 0 0 0 0 0 0 0 0 0 0 0 0 0 0 0 0 0.1 0"/><feBlend in2="effect1_dropShadow" mode="normal" result="effect2_dropShadow"/><feBlend in="SourceGraphic" in2="effect2_dropShadow" mode="normal" result="shape"/></filter><clipPath id="clip0"><rect width="32" height="32" fill="#fff"/></clipPath></defs></svg>