<svg width="32" height="32" viewBox="0 0 32 32" fill="none" xmlns="http://www.w3.org/2000/svg">
  <g clip-path="url(#clip0)">
    <g filter="url(#filter0_d)">
      <path
        fill-rule="evenodd"
        clip-rule="evenodd"
        d="M25.4142 6.58579C26.1953 7.36683 26.1953 8.63317 25.4142 9.41421L5.41421 29.4142C4.63317 30.1953 3.36683 30.1953 2.58579 29.4142C1.80474 28.6332 1.80474 27.3668 2.58579 26.5858L22.5858 6.58579C23.3668 5.80474 24.6332 5.80474 25.4142 6.58579Z"
        fill="#FDBA74"
      />
    </g>
    <g filter="url(#filter1_dd)">
      <path
        d="M26.8497 3.84375C27.6718 3.50502 28.494 4.32724 28.1553 5.14931L26.3138 9.61833L29.4492 13.2996C30.0262 13.977 29.4975 15.014 28.6104 14.945L23.7928 14.5702L21.2636 18.6862C20.798 19.444 19.649 19.2624 19.4397 18.398L18.3015 13.6975L13.601 12.5593C12.7366 12.35 12.5551 11.201 13.3128 10.7354L17.4288 8.20627L17.0541 3.38867C16.9851 2.50154 18.0221 1.97286 18.6995 2.54982L22.3807 5.68519L26.8497 3.84375Z"
        fill="#FFEDD5"
      />
    </g>
    <g filter="url(#filter2_dd)">
      <path
        d="M6.53535 3.17935C6.70181 2.75727 7.29915 2.75727 7.46561 3.17935L8.41469 5.58578L10.8211 6.53486C11.2432 6.70132 11.2432 7.29866 10.8211 7.46512L8.41469 8.4142L7.46561 10.8206C7.29915 11.2427 6.70181 11.2427 6.53535 10.8206L5.58626 8.4142L3.17984 7.46512C2.75776 7.29866 2.75776 6.70132 3.17984 6.53486L5.58626 5.58578L6.53535 3.17935Z"
        fill="#FED7AA"
      />
    </g>
    <g filter="url(#filter3_dd)">
      <path
        d="M20.5353 23.1793C20.7018 22.7573 21.2991 22.7573 21.4656 23.1793L22.1318 24.8686L23.8211 25.5349C24.2432 25.7013 24.2432 26.2987 23.8211 26.4651L22.1318 27.1314L21.4656 28.8206C21.2991 29.2427 20.7018 29.2427 20.5353 28.8206L19.8691 27.1314L18.1798 26.4651C17.7578 26.2987 17.7578 25.7013 18.1798 25.5349L19.8691 24.8686L20.5353 23.1793Z"
        fill="#FED7AA"
      />
    </g>
  </g>
  <defs>
    <filter
      id="filter0_d"
      x="0"
      y="5"
      width="28"
      height="28"
      filterUnits="userSpaceOnUse"
      color-interpolation-filters="sRGB"
    >
      <feFlood flood-opacity="0" result="BackgroundImageFix" />
      <feColorMatrix
        in="SourceAlpha"
        type="matrix"
        values="0 0 0 0 0 0 0 0 0 0 0 0 0 0 0 0 0 0 127 0"
      />
      <feOffset dy="1" />
      <feGaussianBlur stdDeviation="1" />
      <feColorMatrix type="matrix" values="0 0 0 0 0 0 0 0 0 0 0 0 0 0 0 0 0 0 0.05 0" />
      <feBlend mode="normal" in2="BackgroundImageFix" result="effect1_dropShadow" />
      <feBlend mode="normal" in="SourceGraphic" in2="effect1_dropShadow" result="shape" />
    </filter>
    <filter
      id="filter1_dd"
      x="9.83594"
      y="0.308594"
      width="22.8545"
      height="22.8545"
      filterUnits="userSpaceOnUse"
      color-interpolation-filters="sRGB"
    >
      <feFlood flood-opacity="0" result="BackgroundImageFix" />
      <feColorMatrix
        in="SourceAlpha"
        type="matrix"
        values="0 0 0 0 0 0 0 0 0 0 0 0 0 0 0 0 0 0 127 0"
      />
      <feOffset dy="1" />
      <feGaussianBlur stdDeviation="1" />
      <feColorMatrix type="matrix" values="0 0 0 0 0 0 0 0 0 0 0 0 0 0 0 0 0 0 0.06 0" />
      <feBlend mode="normal" in2="BackgroundImageFix" result="effect1_dropShadow" />
      <feColorMatrix
        in="SourceAlpha"
        type="matrix"
        values="0 0 0 0 0 0 0 0 0 0 0 0 0 0 0 0 0 0 127 0"
      />
      <feOffset dy="1" />
      <feGaussianBlur stdDeviation="1.5" />
      <feColorMatrix type="matrix" values="0 0 0 0 0 0 0 0 0 0 0 0 0 0 0 0 0 0 0.1 0" />
      <feBlend mode="normal" in2="effect1_dropShadow" result="effect2_dropShadow" />
      <feBlend mode="normal" in="SourceGraphic" in2="effect2_dropShadow" result="shape" />
    </filter>
    <filter
      id="filter2_dd"
      x="-0.136719"
      y="0.862793"
      width="14.2744"
      height="14.2744"
      filterUnits="userSpaceOnUse"
      color-interpolation-filters="sRGB"
    >
      <feFlood flood-opacity="0" result="BackgroundImageFix" />
      <feColorMatrix
        in="SourceAlpha"
        type="matrix"
        values="0 0 0 0 0 0 0 0 0 0 0 0 0 0 0 0 0 0 127 0"
      />
      <feOffset dy="1" />
      <feGaussianBlur stdDeviation="1" />
      <feColorMatrix type="matrix" values="0 0 0 0 0 0 0 0 0 0 0 0 0 0 0 0 0 0 0.06 0" />
      <feBlend mode="normal" in2="BackgroundImageFix" result="effect1_dropShadow" />
      <feColorMatrix
        in="SourceAlpha"
        type="matrix"
        values="0 0 0 0 0 0 0 0 0 0 0 0 0 0 0 0 0 0 127 0"
      />
      <feOffset dy="1" />
      <feGaussianBlur stdDeviation="1.5" />
      <feColorMatrix type="matrix" values="0 0 0 0 0 0 0 0 0 0 0 0 0 0 0 0 0 0 0.1 0" />
      <feBlend mode="normal" in2="effect1_dropShadow" result="effect2_dropShadow" />
      <feBlend mode="normal" in="SourceGraphic" in2="effect2_dropShadow" result="shape" />
    </filter>
    <filter
      id="filter3_dd"
      x="14.8633"
      y="20.8628"
      width="12.2744"
      height="12.2744"
      filterUnits="userSpaceOnUse"
      color-interpolation-filters="sRGB"
    >
      <feFlood flood-opacity="0" result="BackgroundImageFix" />
      <feColorMatrix
        in="SourceAlpha"
        type="matrix"
        values="0 0 0 0 0 0 0 0 0 0 0 0 0 0 0 0 0 0 127 0"
      />
      <feOffset dy="1" />
      <feGaussianBlur stdDeviation="1" />
      <feColorMatrix type="matrix" values="0 0 0 0 0 0 0 0 0 0 0 0 0 0 0 0 0 0 0.06 0" />
      <feBlend mode="normal" in2="BackgroundImageFix" result="effect1_dropShadow" />
      <feColorMatrix
        in="SourceAlpha"
        type="matrix"
        values="0 0 0 0 0 0 0 0 0 0 0 0 0 0 0 0 0 0 127 0"
      />
      <feOffset dy="1" />
      <feGaussianBlur stdDeviation="1.5" />
      <feColorMatrix type="matrix" values="0 0 0 0 0 0 0 0 0 0 0 0 0 0 0 0 0 0 0.1 0" />
      <feBlend mode="normal" in2="effect1_dropShadow" result="effect2_dropShadow" />
      <feBlend mode="normal" in="SourceGraphic" in2="effect2_dropShadow" result="shape" />
    </filter>
    <clipPath id="clip0">
      <rect width="32" height="32" fill="white" />
    </clipPath>
  </defs>
</svg>
