<svg xmlns="http://www.w3.org/2000/svg" width="32" height="32" fill="none" viewBox="0 0 32 32"><g clip-path="url(#clip0)"><path fill="#FDE68A" fill-rule="evenodd" d="M2 5C2 3.34315 3.34315 2 5 2H11C12.6569 2 14 3.34315 14 5V11C14 12.6569 12.6569 14 11 14H5C3.34315 14 2 12.6569 2 11V5ZM18 5C18 3.34315 19.3431 2 21 2H27C28.6569 2 30 3.34315 30 5V11C30 12.6569 28.6569 14 27 14H21C19.3431 14 18 12.6569 18 11V5ZM5 18C3.34315 18 2 19.3431 2 21V27C2 28.6569 3.34315 30 5 30H11C12.6569 30 14 28.6569 14 27V21C14 19.3431 12.6569 18 11 18H5Z" clip-rule="evenodd"/><g filter="url(#filter0_dd)"><path fill="#FEF3C7" fill-rule="evenodd" d="M24 18C22.8954 18 22 18.8954 22 20V22H20C18.8954 22 18 22.8954 18 24C18 25.1046 18.8954 26 20 26H22V28C22 29.1046 22.8954 30 24 30C25.1046 30 26 29.1046 26 28V26H28C29.1046 26 30 25.1046 30 24C30 22.8954 29.1046 22 28 22H26V20C26 18.8954 25.1046 18 24 18Z" clip-rule="evenodd"/></g></g><defs><filter id="filter0_dd" width="18" height="18" x="15" y="16" color-interpolation-filters="sRGB" filterUnits="userSpaceOnUse"><feFlood flood-opacity="0" result="BackgroundImageFix"/><feColorMatrix in="SourceAlpha" type="matrix" values="0 0 0 0 0 0 0 0 0 0 0 0 0 0 0 0 0 0 127 0"/><feOffset dy="1"/><feGaussianBlur stdDeviation="1"/><feColorMatrix type="matrix" values="0 0 0 0 0 0 0 0 0 0 0 0 0 0 0 0 0 0 0.06 0"/><feBlend in2="BackgroundImageFix" mode="normal" result="effect1_dropShadow"/><feColorMatrix in="SourceAlpha" type="matrix" values="0 0 0 0 0 0 0 0 0 0 0 0 0 0 0 0 0 0 127 0"/><feOffset dy="1"/><feGaussianBlur stdDeviation="1.5"/><feColorMatrix type="matrix" values="0 0 0 0 0 0 0 0 0 0 0 0 0 0 0 0 0 0 0.1 0"/><feBlend in2="effect1_dropShadow" mode="normal" result="effect2_dropShadow"/><feBlend in="SourceGraphic" in2="effect2_dropShadow" mode="normal" result="shape"/></filter><clipPath id="clip0"><rect width="32" height="32" fill="#fff"/></clipPath></defs></svg>