<svg xmlns="http://www.w3.org/2000/svg" width="32" height="32" fill="none" viewBox="0 0 32 32"><g clip-path="url(#clip0)"><g filter="url(#filter0_dd)"><rect width="12" height="12" x="18" y="18" fill="#F3E8FF" rx="2"/></g><path fill="#D8B4FE" fill-rule="evenodd" d="M24 16C27.866 16 31 12.866 31 9C31 5.13401 27.866 2 24 2C20.134 2 17 5.13401 17 9C17 12.866 20.134 16 24 16ZM24 12C25.6569 12 27 10.6569 27 9C27 7.34315 25.6569 6 24 6C22.3431 6 21 7.34315 21 9C21 10.6569 22.3431 12 24 12Z" clip-rule="evenodd"/><path fill="#D8B4FE" d="M15.4226 23C15.7799 23.6188 15.7799 24.3812 15.4226 25L13.0773 29.0622C12.7201 29.681 12.0598 30.0622 11.3453 30.0622L6.6547 30.0622C5.94017 30.0622 5.27992 29.681 4.92265 29.0622L2.57735 25C2.22008 24.3812 2.22008 23.6188 2.57735 23L4.92265 18.9378C5.27992 18.319 5.94017 17.9378 6.6547 17.9378L11.3453 17.9378C12.0598 17.9378 12.7201 18.319 13.0774 18.9378L15.4226 23Z"/><g filter="url(#filter1_dd)"><path fill="#F3E8FF" d="M7.26795 3C8.03775 1.66667 9.96225 1.66667 10.7321 3L15.9282 12C16.698 13.3333 15.7358 15 14.1962 15H3.80385C2.26425 15 1.302 13.3333 2.0718 12L7.26795 3Z"/></g></g><defs><filter id="filter0_dd" width="18" height="18" x="15" y="16" color-interpolation-filters="sRGB" filterUnits="userSpaceOnUse"><feFlood flood-opacity="0" result="BackgroundImageFix"/><feColorMatrix in="SourceAlpha" type="matrix" values="0 0 0 0 0 0 0 0 0 0 0 0 0 0 0 0 0 0 127 0"/><feOffset dy="1"/><feGaussianBlur stdDeviation="1"/><feColorMatrix type="matrix" values="0 0 0 0 0 0 0 0 0 0 0 0 0 0 0 0 0 0 0.06 0"/><feBlend in2="BackgroundImageFix" mode="normal" result="effect1_dropShadow"/><feColorMatrix in="SourceAlpha" type="matrix" values="0 0 0 0 0 0 0 0 0 0 0 0 0 0 0 0 0 0 127 0"/><feOffset dy="1"/><feGaussianBlur stdDeviation="1.5"/><feColorMatrix type="matrix" values="0 0 0 0 0 0 0 0 0 0 0 0 0 0 0 0 0 0 0.1 0"/><feBlend in2="effect1_dropShadow" mode="normal" result="effect2_dropShadow"/><feBlend in="SourceGraphic" in2="effect2_dropShadow" mode="normal" result="shape"/></filter><filter id="filter1_dd" width="20.398" height="19" x="-1.199" y="0" color-interpolation-filters="sRGB" filterUnits="userSpaceOnUse"><feFlood flood-opacity="0" result="BackgroundImageFix"/><feColorMatrix in="SourceAlpha" type="matrix" values="0 0 0 0 0 0 0 0 0 0 0 0 0 0 0 0 0 0 127 0"/><feOffset dy="1"/><feGaussianBlur stdDeviation="1"/><feColorMatrix type="matrix" values="0 0 0 0 0 0 0 0 0 0 0 0 0 0 0 0 0 0 0.06 0"/><feBlend in2="BackgroundImageFix" mode="normal" result="effect1_dropShadow"/><feColorMatrix in="SourceAlpha" type="matrix" values="0 0 0 0 0 0 0 0 0 0 0 0 0 0 0 0 0 0 127 0"/><feOffset dy="1"/><feGaussianBlur stdDeviation="1.5"/><feColorMatrix type="matrix" values="0 0 0 0 0 0 0 0 0 0 0 0 0 0 0 0 0 0 0.1 0"/><feBlend in2="effect1_dropShadow" mode="normal" result="effect2_dropShadow"/><feBlend in="SourceGraphic" in2="effect2_dropShadow" mode="normal" result="shape"/></filter><clipPath id="clip0"><rect width="32" height="32" fill="#fff"/></clipPath></defs></svg>