<svg xmlns="http://www.w3.org/2000/svg" width="32" height="32" fill="none" viewBox="0 0 32 32"><g clip-path="url(#clip0)"><g filter="url(#filter0_dd)"><path fill="#CFFAFE" fill-rule="evenodd" d="M9.41421 9.58579C10.1953 10.3668 10.1953 11.6332 9.41421 12.4142L5.82843 16L9.41421 19.5858C10.1953 20.3668 10.1953 21.6332 9.41421 22.4142C8.63316 23.1953 7.36684 23.1953 6.58579 22.4142L1.58579 17.4142C0.804738 16.6332 0.804738 15.3668 1.58579 14.5858L6.58579 9.58579C7.36684 8.80474 8.63316 8.80474 9.41421 9.58579Z" clip-rule="evenodd"/></g><g filter="url(#filter1_dd)"><path fill="#CFFAFE" fill-rule="evenodd" d="M22.5858 9.58579C23.3668 8.80474 24.6332 8.80474 25.4142 9.58579L30.4142 14.5858C31.1953 15.3668 31.1953 16.6332 30.4142 17.4142L25.4142 22.4142C24.6332 23.1953 23.3668 23.1953 22.5858 22.4142C21.8047 21.6332 21.8047 20.3668 22.5858 19.5858L26.1716 16L22.5858 12.4142C21.8047 11.6332 21.8047 10.3668 22.5858 9.58579Z" clip-rule="evenodd"/></g><g filter="url(#filter2_dd)"><path fill="#67E8F9" fill-rule="evenodd" d="M19.4855 2.06019C20.5571 2.32809 21.2087 3.41395 20.9408 4.48554L14.9408 28.4855C14.6729 29.5571 13.587 30.2087 12.5154 29.9408C11.4438 29.6729 10.7923 28.587 11.0602 27.5154L17.0602 3.5154C17.3281 2.44381 18.414 1.79229 19.4855 2.06019Z" clip-rule="evenodd"/></g></g><defs><filter id="filter0_dd" width="15" height="20" x="-2" y="7" color-interpolation-filters="sRGB" filterUnits="userSpaceOnUse"><feFlood flood-opacity="0" result="BackgroundImageFix"/><feColorMatrix in="SourceAlpha" type="matrix" values="0 0 0 0 0 0 0 0 0 0 0 0 0 0 0 0 0 0 127 0"/><feOffset dy="1"/><feGaussianBlur stdDeviation="1"/><feColorMatrix type="matrix" values="0 0 0 0 0 0 0 0 0 0 0 0 0 0 0 0 0 0 0.06 0"/><feBlend in2="BackgroundImageFix" mode="normal" result="effect1_dropShadow"/><feColorMatrix in="SourceAlpha" type="matrix" values="0 0 0 0 0 0 0 0 0 0 0 0 0 0 0 0 0 0 127 0"/><feOffset dy="1"/><feGaussianBlur stdDeviation="1.5"/><feColorMatrix type="matrix" values="0 0 0 0 0 0 0 0 0 0 0 0 0 0 0 0 0 0 0.1 0"/><feBlend in2="effect1_dropShadow" mode="normal" result="effect2_dropShadow"/><feBlend in="SourceGraphic" in2="effect2_dropShadow" mode="normal" result="shape"/></filter><filter id="filter1_dd" width="15" height="20" x="19" y="7" color-interpolation-filters="sRGB" filterUnits="userSpaceOnUse"><feFlood flood-opacity="0" result="BackgroundImageFix"/><feColorMatrix in="SourceAlpha" type="matrix" values="0 0 0 0 0 0 0 0 0 0 0 0 0 0 0 0 0 0 127 0"/><feOffset dy="1"/><feGaussianBlur stdDeviation="1"/><feColorMatrix type="matrix" values="0 0 0 0 0 0 0 0 0 0 0 0 0 0 0 0 0 0 0.06 0"/><feBlend in2="BackgroundImageFix" mode="normal" result="effect1_dropShadow"/><feColorMatrix in="SourceAlpha" type="matrix" values="0 0 0 0 0 0 0 0 0 0 0 0 0 0 0 0 0 0 127 0"/><feOffset dy="1"/><feGaussianBlur stdDeviation="1.5"/><feColorMatrix type="matrix" values="0 0 0 0 0 0 0 0 0 0 0 0 0 0 0 0 0 0 0.1 0"/><feBlend in2="effect1_dropShadow" mode="normal" result="effect2_dropShadow"/><feBlend in="SourceGraphic" in2="effect2_dropShadow" mode="normal" result="shape"/></filter><filter id="filter2_dd" width="16.001" height="34.001" x="8" y="0" color-interpolation-filters="sRGB" filterUnits="userSpaceOnUse"><feFlood flood-opacity="0" result="BackgroundImageFix"/><feColorMatrix in="SourceAlpha" type="matrix" values="0 0 0 0 0 0 0 0 0 0 0 0 0 0 0 0 0 0 127 0"/><feOffset dy="1"/><feGaussianBlur stdDeviation="1"/><feColorMatrix type="matrix" values="0 0 0 0 0 0 0 0 0 0 0 0 0 0 0 0 0 0 0.06 0"/><feBlend in2="BackgroundImageFix" mode="normal" result="effect1_dropShadow"/><feColorMatrix in="SourceAlpha" type="matrix" values="0 0 0 0 0 0 0 0 0 0 0 0 0 0 0 0 0 0 127 0"/><feOffset dy="1"/><feGaussianBlur stdDeviation="1.5"/><feColorMatrix type="matrix" values="0 0 0 0 0 0 0 0 0 0 0 0 0 0 0 0 0 0 0.1 0"/><feBlend in2="effect1_dropShadow" mode="normal" result="effect2_dropShadow"/><feBlend in="SourceGraphic" in2="effect2_dropShadow" mode="normal" result="shape"/></filter><clipPath id="clip0"><rect width="32" height="32" fill="#fff"/></clipPath></defs></svg>