<svg width="32" height="32" viewBox="0 0 32 32" fill="none" xmlns="http://www.w3.org/2000/svg">
  <g clip-path="url(#clip0)">
    <path
      d="M8.22183 24.7782C3.92606 20.4824 3.92606 13.5176 8.22183 9.22183C12.5176 4.92606 19.4824 4.92606 23.7782 9.22183C28.0739 13.5176 28.0739 20.4824 23.7782 24.7782"
      stroke="#86EFAC"
      stroke-width="6"
      stroke-linecap="round"
      stroke-linejoin="round"
    />
    <g filter="url(#filter0_dd)">
      <path
        fill-rule="evenodd"
        clip-rule="evenodd"
        d="M21.6569 11.3431C18.5327 8.21895 13.4673 8.21895 10.3431 11.3431C7.21895 14.4673 7.21895 19.5327 10.3431 22.6569C11.5147 23.8284 11.5147 25.7279 10.3431 26.8995C9.17157 28.0711 7.27208 28.0711 6.10051 26.8995C0.633165 21.4322 0.633165 12.5678 6.10051 7.10051C11.5678 1.63316 20.4322 1.63316 25.8995 7.10051C27.0711 8.27208 27.0711 10.1716 25.8995 11.3431C24.7279 12.5147 22.8284 12.5147 21.6569 11.3431Z"
        fill="#DCFCE7"
      />
    </g>
  </g>
  <defs>
    <filter
      id="filter0_dd"
      x="-1"
      y="1"
      width="30.7782"
      height="30.7782"
      filterUnits="userSpaceOnUse"
      color-interpolation-filters="sRGB"
    >
      <feFlood flood-opacity="0" result="BackgroundImageFix" />
      <feColorMatrix
        in="SourceAlpha"
        type="matrix"
        values="0 0 0 0 0 0 0 0 0 0 0 0 0 0 0 0 0 0 127 0"
      />
      <feOffset dy="1" />
      <feGaussianBlur stdDeviation="1" />
      <feColorMatrix type="matrix" values="0 0 0 0 0 0 0 0 0 0 0 0 0 0 0 0 0 0 0.06 0" />
      <feBlend mode="normal" in2="BackgroundImageFix" result="effect1_dropShadow" />
      <feColorMatrix
        in="SourceAlpha"
        type="matrix"
        values="0 0 0 0 0 0 0 0 0 0 0 0 0 0 0 0 0 0 127 0"
      />
      <feOffset dy="1" />
      <feGaussianBlur stdDeviation="1.5" />
      <feColorMatrix type="matrix" values="0 0 0 0 0 0 0 0 0 0 0 0 0 0 0 0 0 0 0.1 0" />
      <feBlend mode="normal" in2="effect1_dropShadow" result="effect2_dropShadow" />
      <feBlend mode="normal" in="SourceGraphic" in2="effect2_dropShadow" result="shape" />
    </filter>
    <clipPath id="clip0">
      <rect width="32" height="32" fill="white" />
    </clipPath>
  </defs>
</svg>
