<svg xmlns="http://www.w3.org/2000/svg" width="32" height="32" fill="none" viewBox="0 0 32 32"><g clip-path="url(#clip0)"><path fill="#86EFAC" fill-rule="evenodd" d="M22.364 11.636C18.8492 8.12132 13.1508 8.12132 9.63604 11.636C6.12132 15.1508 6.12132 20.8492 9.63604 24.364C10.8076 25.5355 10.8076 27.435 9.63604 28.6066C8.46447 29.7782 6.56497 29.7782 5.3934 28.6066C-0.464466 22.7487 -0.464466 13.2513 5.3934 7.3934C11.2513 1.53553 20.7487 1.53553 26.6066 7.3934C32.4645 13.2513 32.4645 22.7487 26.6066 28.6066C25.435 29.7782 23.5355 29.7782 22.364 28.6066C21.1924 27.435 21.1924 25.5355 22.364 24.364C25.8787 20.8492 25.8787 15.1508 22.364 11.636Z" clip-rule="evenodd"/><g filter="url(#filter0_dd)"><path fill="#F0FDF4" fill-rule="evenodd" d="M22.364 11.636C18.8492 8.12132 13.1508 8.12132 9.63604 11.636C6.12132 15.1508 6.12132 20.8492 9.63604 24.364C10.8076 25.5355 10.8076 27.435 9.63604 28.6066C8.46447 29.7782 6.56497 29.7782 5.3934 28.6066C-0.464466 22.7487 -0.464466 13.2513 5.3934 7.3934C11.2513 1.53553 20.7487 1.53553 26.6066 7.3934C27.7782 8.56497 27.7782 10.4645 26.6066 11.636C25.435 12.8076 23.5355 12.8076 22.364 11.636Z" clip-rule="evenodd"/></g></g><defs><filter id="filter0_dd" width="32.485" height="32.485" x="-2" y="1" color-interpolation-filters="sRGB" filterUnits="userSpaceOnUse"><feFlood flood-opacity="0" result="BackgroundImageFix"/><feColorMatrix in="SourceAlpha" type="matrix" values="0 0 0 0 0 0 0 0 0 0 0 0 0 0 0 0 0 0 127 0"/><feOffset dy="1"/><feGaussianBlur stdDeviation="1"/><feColorMatrix type="matrix" values="0 0 0 0 0 0 0 0 0 0 0 0 0 0 0 0 0 0 0.06 0"/><feBlend in2="BackgroundImageFix" mode="normal" result="effect1_dropShadow"/><feColorMatrix in="SourceAlpha" type="matrix" values="0 0 0 0 0 0 0 0 0 0 0 0 0 0 0 0 0 0 127 0"/><feOffset dy="1"/><feGaussianBlur stdDeviation="1.5"/><feColorMatrix type="matrix" values="0 0 0 0 0 0 0 0 0 0 0 0 0 0 0 0 0 0 0.1 0"/><feBlend in2="effect1_dropShadow" mode="normal" result="effect2_dropShadow"/><feBlend in="SourceGraphic" in2="effect2_dropShadow" mode="normal" result="shape"/></filter><clipPath id="clip0"><rect width="32" height="32" fill="#fff"/></clipPath></defs></svg>