<svg xmlns="http://www.w3.org/2000/svg" width="32" height="32" fill="none" viewBox="0 0 32 32"><g clip-path="url(#clip0)"><circle cx="9" cy="9" r="9" fill="#67E8F9" opacity=".5"/><circle cx="9" cy="9" r="6" fill="#A5F3FC" opacity=".5"/><g filter="url(#filter0_dd)"><path fill="#CFFAFE" d="M9.89448 7.2112C9.12451 6.82621 8.19456 6.97712 7.58584 7.58584C6.97712 8.19456 6.82621 9.12451 7.2112 9.89448L16.2112 27.8945C16.55 28.5721 17.2425 29.0001 18.0001 29.0001C18.7576 29.0001 19.4501 28.5721 19.7889 27.8945L21.548 24.3764L27.5858 30.4142C28.3668 31.1953 29.6332 31.1953 30.4142 30.4142C31.1953 29.6332 31.1953 28.3668 30.4142 27.5858L24.3764 21.548L27.8945 19.7889C28.5721 19.4501 29.0001 18.7576 29.0001 18.0001C29.0001 17.2425 28.5721 16.55 27.8945 16.2112L9.89448 7.2112Z"/></g></g><defs><filter id="filter0_dd" width="30" height="30" x="4" y="5" color-interpolation-filters="sRGB" filterUnits="userSpaceOnUse"><feFlood flood-opacity="0" result="BackgroundImageFix"/><feColorMatrix in="SourceAlpha" type="matrix" values="0 0 0 0 0 0 0 0 0 0 0 0 0 0 0 0 0 0 127 0"/><feOffset dy="1"/><feGaussianBlur stdDeviation="1"/><feColorMatrix type="matrix" values="0 0 0 0 0 0 0 0 0 0 0 0 0 0 0 0 0 0 0.06 0"/><feBlend in2="BackgroundImageFix" mode="normal" result="effect1_dropShadow"/><feColorMatrix in="SourceAlpha" type="matrix" values="0 0 0 0 0 0 0 0 0 0 0 0 0 0 0 0 0 0 127 0"/><feOffset dy="1"/><feGaussianBlur stdDeviation="1.5"/><feColorMatrix type="matrix" values="0 0 0 0 0 0 0 0 0 0 0 0 0 0 0 0 0 0 0.1 0"/><feBlend in2="effect1_dropShadow" mode="normal" result="effect2_dropShadow"/><feBlend in="SourceGraphic" in2="effect2_dropShadow" mode="normal" result="shape"/></filter><clipPath id="clip0"><rect width="32" height="32" fill="#fff"/></clipPath></defs></svg>