<svg width="40" height="40" viewBox="0 0 40 40" fill="none" xmlns="http://www.w3.org/2000/svg">
<path d="M29.5797 18.8278C29.5797 17.6215 28.1598 16.5516 25.977 15.8983C26.502 13.6805 26.2728 11.9153 25.2274 11.3185C24.9711 11.1762 24.6818 11.1038 24.3886 11.1085C23.4138 11.1085 22.1813 11.7893 20.9364 12.9676C19.6916 11.798 18.4631 11.1208 17.4889 11.1208C17.1914 11.1143 16.8976 11.188 16.6384 11.3343C15.5983 11.9328 15.3831 13.6875 15.9011 15.8948C13.7282 16.5446 12.3153 17.6057 12.3118 18.8062C12.3083 20.0079 13.734 21.0824 15.9168 21.734C15.3918 23.9535 15.6193 25.717 16.6664 26.3137C16.9213 26.4566 17.2107 26.5295 17.5029 26.5237C18.48 26.5237 19.7126 25.843 20.9574 24.6646C22.1999 25.8342 23.4296 26.5115 24.4049 26.5115C24.7024 26.5171 24.9959 26.4434 25.2554 26.298C26.2955 25.6995 26.5096 23.9448 25.9928 21.7462C28.1651 21.0876 29.5779 20.0265 29.5803 18.8278H29.5797ZM21.7391 13.3625C23.1729 12.0792 24.0689 11.941 24.3874 11.941C24.5356 11.9363 24.682 11.9713 24.8115 12.0425C25.312 12.3283 25.5115 13.3345 25.3523 14.6686C25.3115 15.0094 25.2531 15.3478 25.1773 15.6825C24.4517 15.5139 23.7159 15.3929 22.9746 15.3202C22.5332 14.7008 22.0513 14.1113 21.532 13.5556C21.599 13.4893 21.668 13.4251 21.7391 13.3631V13.3625ZM17.3991 19.82C17.535 20.0825 17.6803 20.345 17.8308 20.6093C17.9818 20.8735 18.1393 21.1413 18.3143 21.4055C17.8534 21.3398 17.3955 21.2546 16.9418 21.15C17.0643 20.7055 17.22 20.268 17.3985 19.82H17.3991ZM16.9138 16.4863C17.3571 16.383 17.8208 16.2973 18.3021 16.2308C18.1271 16.4898 17.9766 16.7558 17.8191 17.034C17.6616 17.3123 17.5228 17.559 17.388 17.8256C17.2146 17.3848 17.0564 16.9381 16.9138 16.4863V16.4863ZM17.8261 18.8214C18.0476 18.3542 18.2863 17.8954 18.5418 17.4459C18.803 16.991 19.0817 16.5463 19.3772 16.113C19.9012 16.073 20.4266 16.0538 20.9522 16.0552C21.4935 16.057 22.0033 16.0762 22.5097 16.1165C22.7996 16.5405 23.0778 16.992 23.3409 17.4389C23.6034 17.8851 23.8449 18.3524 24.0619 18.8097C23.8467 19.2682 23.6069 19.7285 23.3479 20.1835C23.0872 20.639 22.8086 21.0841 22.5126 21.5175C21.4699 21.5983 20.4226 21.5972 19.3801 21.514C19.085 21.0848 18.8071 20.6441 18.5471 20.1928C18.292 19.745 18.0538 19.2877 17.8331 18.822H17.8261V18.8214ZM23.5789 16.236C24.0549 16.3025 24.5158 16.3877 24.9515 16.4898C24.8172 16.937 24.663 17.3781 24.4895 17.8116C24.2071 17.2759 23.9057 16.7503 23.5859 16.236H23.5789ZM24.0619 20.5988C24.2124 20.334 24.3565 20.0691 24.493 19.8055C24.668 20.2605 24.843 20.709 24.9655 21.1471C24.5075 21.2529 24.0448 21.3373 23.5789 21.4003C23.7481 21.1413 23.9114 20.8741 24.0689 20.5988H24.0619V20.5988ZM20.9399 14.1512C21.2549 14.4872 21.5647 14.8512 21.8674 15.242C21.5623 15.2288 21.257 15.2218 20.9516 15.221C20.6424 15.221 20.3257 15.221 20.0188 15.242C20.3082 14.8638 20.6155 14.4998 20.9399 14.1512V14.1512ZM17.0567 12.05C17.1896 11.9798 17.3387 11.946 17.4889 11.952C17.8044 11.9654 18.1138 12.0437 18.3978 12.1819C19.0394 12.484 19.6298 12.8848 20.1483 13.3684L20.3537 13.5562C19.8392 14.1075 19.362 14.6925 18.9245 15.3062C18.1794 15.3788 17.4397 15.4996 16.7102 15.6679C16.6331 15.3403 16.5747 15.0086 16.5352 14.6745C16.3526 13.3526 16.5632 12.3446 17.0549 12.057L17.0567 12.05V12.05ZM16.1303 20.9266C15.8015 20.8262 15.478 20.7094 15.1608 20.5766C13.9178 20.0516 13.1472 19.3773 13.1472 18.8015C13.1472 18.2252 13.9213 17.555 15.1626 17.0381C15.4741 16.9093 15.7918 16.796 16.1146 16.6986C16.3333 17.4237 16.6005 18.1336 16.9132 18.8237C16.607 19.507 16.3455 20.2094 16.1303 20.9266V20.9266ZM20.1571 24.2709C18.7233 25.5542 17.8273 25.6907 17.5064 25.6907C17.3587 25.6956 17.2124 25.6605 17.0829 25.5892C16.5824 25.3034 16.3829 24.2971 16.5422 22.963C16.583 22.6224 16.6413 22.2846 16.7172 21.951C17.4428 22.1178 18.1784 22.2385 18.9193 22.3115C19.3601 22.9313 19.8421 23.5208 20.3618 24.076L20.1577 24.2709H20.1571ZM20.9574 23.481C20.6424 23.145 20.3321 22.781 20.0276 22.3902C20.3333 22.4043 20.6392 22.4113 20.9452 22.4112C21.2549 22.4112 21.5717 22.4112 21.8785 22.392C21.5752 22.7805 21.2672 23.1445 20.9557 23.481H20.9574ZM24.8407 25.5822C24.7079 25.6549 24.558 25.6906 24.4067 25.6855C24.0876 25.6855 23.1811 25.5455 21.7525 24.2674L21.5472 24.0795C22.0606 23.5281 22.5372 22.9435 22.974 22.3295C23.7201 22.2581 24.4606 22.1372 25.1907 21.9679C25.2677 22.308 25.3289 22.6405 25.3657 22.9613C25.5389 24.2814 25.3377 25.2894 24.8389 25.5746L24.8407 25.5822V25.5822ZM26.7313 20.6029C26.432 20.7254 26.1153 20.8391 25.7793 20.9412C25.5595 20.2156 25.2922 19.5053 24.9789 18.815C25.2865 18.1327 25.5492 17.431 25.7653 16.7144C26.0943 16.8147 26.4174 16.9314 26.7348 17.0644C27.9761 17.5894 28.7484 18.2637 28.7467 18.84C28.7449 19.4158 27.9726 20.079 26.7295 20.5959L26.7313 20.6029ZM20.9399 20.4244C21.3662 20.4248 21.7751 20.256 22.0768 19.9549C22.3785 19.6539 22.5483 19.2453 22.5488 18.819C22.5492 18.3928 22.3804 17.9839 22.0793 17.6822C21.7782 17.3804 21.3697 17.2107 20.9434 17.2102C20.5172 17.2098 20.1082 17.3786 19.8065 17.6797C19.5048 17.9807 19.3351 18.3893 19.3346 18.8155C19.3341 19.2418 19.503 19.6507 19.8041 19.9524C20.1051 20.2542 20.5137 20.4239 20.9399 20.4244V20.4244ZM10.2603 9.12988V28.5024H31.6318V9.12988H10.2603ZM30.7965 27.6688H11.0973V9.96463H30.7965V27.6688V27.6688ZM15.9157 21.734C15.3901 23.9535 15.6176 25.717 16.6647 26.3137C16.9196 26.4566 17.2089 26.5295 17.5012 26.5237C18.4783 26.5237 19.7108 25.843 20.9557 24.6646C22.1982 25.8342 23.4278 26.5115 24.4032 26.5115C24.7006 26.5171 24.9942 26.4434 25.2537 26.298C26.2938 25.6995 26.5078 23.9448 25.991 21.7462C28.1633 21.0946 29.5762 20.0335 29.5785 18.8348C29.5797 17.6355 28.1581 16.5586 25.9753 15.9053C26.5003 13.6875 26.271 11.9223 25.2257 11.3255C24.9693 11.1832 24.68 11.1108 24.3868 11.1155C23.4121 11.1155 22.1795 11.7963 20.9347 12.9746C19.6898 11.805 18.4613 11.1278 17.4872 11.1278C17.1896 11.1213 16.8959 11.195 16.6367 11.3413C15.5966 11.9398 15.3813 13.6945 15.8993 15.9018C13.7264 16.5516 12.3136 17.6127 12.3101 18.8132C12.3066 20.0149 13.7334 21.0789 15.9168 21.734H15.9151H15.9157ZM20.1536 24.2709C18.7198 25.5542 17.8238 25.6907 17.5029 25.6907C17.3552 25.6956 17.2089 25.6605 17.0794 25.5892C16.5789 25.3034 16.3794 24.2971 16.5387 22.963C16.5795 22.6224 16.6378 22.2846 16.7137 21.951C17.4393 22.1178 18.1749 22.2385 18.9158 22.3115C19.3566 22.9313 19.8386 23.5208 20.3583 24.076L20.1542 24.2709H20.1536ZM24.4936 17.8122C24.3553 17.5497 24.2118 17.2872 24.0596 17.0224C23.9079 16.7581 23.7446 16.4974 23.5836 16.2366C24.0596 16.3031 24.5204 16.3883 24.9562 16.4904C24.8278 16.9226 24.6744 17.3654 24.4953 17.8122H24.4942H24.4936ZM24.9702 21.1384C24.5121 21.2443 24.0495 21.329 23.5836 21.3921C23.9122 20.8746 24.2172 20.3424 24.4977 19.7973C24.6761 20.2392 24.8327 20.6897 24.9667 21.1471L24.9702 21.1384ZM24.0578 18.8015C23.8426 19.26 23.6028 19.7203 23.3438 20.1753C23.0831 20.6309 22.8045 21.0759 22.5085 21.5094C21.4659 21.59 20.4185 21.5889 19.376 21.5059C19.0809 21.0767 18.803 20.6359 18.543 20.1846C18.2856 19.7369 18.0451 19.2796 17.822 18.8138C18.0435 18.3462 18.2822 17.887 18.5378 17.4371C18.7989 16.9824 19.0776 16.538 19.3731 16.1048C19.8971 16.0649 20.4225 16.0456 20.9481 16.047C21.4894 16.0488 21.9993 16.068 22.5056 16.1083C22.7955 16.5324 23.0738 16.9839 23.3368 17.4307C23.5993 17.877 23.8426 18.353 24.0602 18.8097L24.0578 18.8015V18.8015ZM18.3138 21.4061C17.8528 21.3404 17.3949 21.2552 16.9412 21.1506C17.0707 20.7201 17.227 20.2756 17.4049 19.8288C17.5414 20.0913 17.6867 20.3538 17.8378 20.6186C17.9883 20.8829 18.1388 21.1419 18.3138 21.4061V21.4061ZM17.8255 17.0294C17.6727 17.2919 17.5292 17.5544 17.3944 17.821C17.2162 17.3829 17.0556 16.9379 16.9132 16.4869C17.3565 16.3836 17.8203 16.2979 18.3015 16.2314C18.1382 16.4904 17.983 16.7581 17.8255 17.0294ZM20.9557 23.481C20.6407 23.145 20.3303 22.781 20.0258 22.3902C20.3315 22.4043 20.6374 22.4113 20.9434 22.4112C21.2532 22.4112 21.5699 22.4112 21.8768 22.392C21.5857 22.7684 21.2782 23.1318 20.9551 23.481H20.9557ZM24.8389 25.5822C24.7061 25.6549 24.5562 25.6906 24.4049 25.6855C24.0858 25.6855 23.1793 25.5455 21.7508 24.2674L21.5454 24.0795C22.0588 23.5281 22.5354 22.9435 22.9723 22.3295C23.7183 22.258 24.4588 22.1372 25.1889 21.9679C25.2659 22.308 25.3272 22.6405 25.3639 22.9613C25.5389 24.2814 25.3377 25.2894 24.8389 25.5746V25.5822ZM25.7635 16.7126C26.0925 16.813 26.4157 16.9296 26.733 17.0626C27.9743 17.5876 28.7467 18.262 28.7449 18.8383C28.7432 19.414 27.9726 20.0919 26.7295 20.6081C26.4303 20.7306 26.1135 20.8444 25.7775 20.9465C25.5578 20.2209 25.2904 19.5106 24.9772 18.8202C25.2854 18.1334 25.548 17.427 25.7635 16.7056V16.7126ZM21.7368 13.3701C23.1706 12.0868 24.0666 11.9485 24.3851 11.9485C24.5333 11.9439 24.6797 11.9789 24.8092 12.05C25.3097 12.3359 25.5092 13.3421 25.3499 14.6762C25.3092 15.017 25.2508 15.3554 25.1749 15.69C24.4494 15.5214 23.7136 15.4004 22.9723 15.3278C22.5309 14.7084 22.049 14.1189 21.5297 13.5632C21.5962 13.4915 21.6668 13.4261 21.7385 13.3631L21.7368 13.3701ZM20.9399 14.1512C21.2549 14.4872 21.5647 14.8512 21.8674 15.242C21.5623 15.2288 21.257 15.2218 20.9516 15.221C20.6424 15.221 20.3257 15.221 20.0188 15.242C20.3082 14.8638 20.6155 14.4998 20.9399 14.1512V14.1512ZM17.0567 12.05C17.1896 11.9798 17.3387 11.946 17.4889 11.952C17.8044 11.9654 18.1138 12.0437 18.3978 12.1819C19.0394 12.484 19.6298 12.8848 20.1483 13.3684L20.3537 13.5562C19.8392 14.1075 19.362 14.6925 18.9245 15.3062C18.1794 15.3788 17.4397 15.4996 16.7102 15.6679C16.6331 15.3403 16.5747 15.0086 16.5352 14.6745C16.3526 13.3526 16.5632 12.3446 17.0549 12.057L17.0567 12.05V12.05ZM15.1626 17.0381C15.4741 16.9093 15.7918 16.796 16.1146 16.6986C16.3333 17.4237 16.6005 18.1336 16.9132 18.8237C16.6058 19.5063 16.3432 20.2082 16.1268 20.9249C15.798 20.8245 15.4745 20.7077 15.1573 20.5749C13.9143 20.0499 13.1437 19.3755 13.1437 18.7998C13.1437 18.2235 13.9213 17.555 15.162 17.0381H15.1626ZM20.9399 17.2131C20.6221 17.2128 20.3113 17.3067 20.0468 17.483C19.7823 17.6593 19.5761 17.9101 19.4541 18.2036C19.3321 18.4971 19.3 18.8202 19.3616 19.132C19.4233 19.4438 19.5761 19.7304 19.8006 19.9554C20.0251 20.1804 20.3113 20.3337 20.6229 20.3961C20.9346 20.4584 21.2578 20.427 21.5516 20.3056C21.8454 20.1843 22.0966 19.9786 22.2734 19.7145C22.4503 19.4504 22.5449 19.1398 22.5453 18.822C22.547 18.6101 22.5067 18.4 22.4268 18.2038C22.3468 18.0076 22.2288 17.8291 22.0796 17.6787C21.9303 17.5283 21.7528 17.409 21.5572 17.3276C21.3616 17.2462 21.1518 17.2043 20.9399 17.2044V17.2131ZM20.9399 17.2131C20.6221 17.2128 20.3113 17.3067 20.0468 17.483C19.7823 17.6593 19.5761 17.9101 19.4541 18.2036C19.3321 18.4971 19.3 18.8202 19.3616 19.132C19.4233 19.4438 19.5761 19.7304 19.8006 19.9554C20.0251 20.1804 20.3113 20.3337 20.6229 20.3961C20.9346 20.4584 21.2578 20.427 21.5516 20.3056C21.8454 20.1843 22.0966 19.9786 22.2734 19.7145C22.4503 19.4504 22.5449 19.1398 22.5453 18.822C22.547 18.6101 22.5067 18.4 22.4268 18.2038C22.3468 18.0076 22.2288 17.8291 22.0796 17.6787C21.9303 17.5283 21.7528 17.409 21.5572 17.3276C21.3616 17.2462 21.1518 17.2043 20.9399 17.2044V17.2131ZM20.9399 17.2131C20.6221 17.2128 20.3113 17.3067 20.0468 17.483C19.7823 17.6593 19.5761 17.9101 19.4541 18.2036C19.3321 18.4971 19.3 18.8202 19.3616 19.132C19.4233 19.4438 19.5761 19.7304 19.8006 19.9554C20.0251 20.1804 20.3113 20.3337 20.6229 20.3961C20.9346 20.4584 21.2578 20.427 21.5516 20.3056C21.8454 20.1843 22.0966 19.9786 22.2734 19.7145C22.4503 19.4504 22.5449 19.1398 22.5453 18.822C22.547 18.6101 22.5067 18.4 22.4268 18.2038C22.3468 18.0076 22.2288 17.8291 22.0796 17.6787C21.9303 17.5283 21.7528 17.409 21.5572 17.3276C21.3616 17.2462 21.1518 17.2043 20.9399 17.2044V17.2131ZM29.5797 18.8307C29.5797 17.625 28.1598 16.5551 25.977 15.9024C26.502 13.684 26.2728 11.9188 25.2274 11.322C24.9711 11.1797 24.6818 11.1073 24.3886 11.112C23.4138 11.112 22.1813 11.7928 20.9364 12.9711C19.6916 11.8015 18.4631 11.1243 17.4889 11.1243C17.1914 11.1178 16.8976 11.1915 16.6384 11.3378C15.5983 11.9363 15.3831 13.691 15.9011 15.8983C13.7282 16.5481 12.3153 17.6092 12.3118 18.8097C12.3083 20.0114 13.734 21.0859 15.9168 21.7375C15.3918 23.957 15.6193 25.7205 16.6664 26.3172C16.9213 26.4601 17.2107 26.533 17.5029 26.5272C18.48 26.5272 19.7126 25.8465 20.9574 24.6681C22.1999 25.8377 23.4296 26.515 24.4049 26.515C24.7024 26.5206 24.9959 26.4469 25.2554 26.3015C26.2955 25.703 26.5096 23.9483 25.9928 21.7497C28.1651 21.0876 29.5779 20.0265 29.5803 18.8272V18.8307H29.5797ZM21.7391 13.3637C23.1729 12.0804 24.0689 11.9421 24.3874 11.9421C24.5356 11.9375 24.682 11.9725 24.8115 12.0436C25.312 12.3295 25.5115 13.3357 25.3523 14.6698C25.3115 15.0105 25.2531 15.3489 25.1773 15.6836C24.4517 15.5151 23.7159 15.394 22.9746 15.3214C22.5332 14.702 22.0513 14.1125 21.532 13.5568C21.599 13.4904 21.668 13.4262 21.7391 13.3643V13.3637ZM17.3991 19.8212C17.535 20.0837 17.6803 20.3462 17.8308 20.6105C17.9818 20.8747 18.1393 21.1425 18.3143 21.4067C17.8534 21.341 17.3955 21.2558 16.9418 21.1512C17.0643 20.7067 17.22 20.2692 17.3985 19.8212H17.3991ZM16.9138 16.4875C17.3571 16.3842 17.8208 16.2985 18.3021 16.232C18.1271 16.491 17.9766 16.757 17.8191 17.0352C17.6616 17.3135 17.5228 17.5602 17.388 17.8268C17.2146 17.3859 17.0564 16.9392 16.9138 16.4875V16.4875ZM17.8261 18.8225C18.0476 18.3554 18.2863 17.8965 18.5418 17.447C18.803 16.9922 19.0817 16.5475 19.3772 16.1141C19.9012 16.0742 20.4266 16.0549 20.9522 16.0564C21.4935 16.0581 22.0033 16.0774 22.5097 16.1176C22.7996 16.5417 23.0778 16.9932 23.3409 17.44C23.6034 17.8863 23.8449 18.3535 24.0619 18.8109C23.8467 19.2694 23.6069 19.7296 23.3479 20.1846C23.0872 20.6402 22.8086 21.0852 22.5126 21.5187C21.4699 21.5995 20.4226 21.5983 19.3801 21.5152C19.085 21.086 18.8071 20.6453 18.5471 20.194C18.292 19.7461 18.0538 19.2889 17.8331 18.8231H17.8261V18.8225ZM23.5789 16.2372C24.0549 16.3037 24.5158 16.3889 24.9515 16.491C24.8172 16.9382 24.663 17.3792 24.4895 17.8128C24.2071 17.277 23.9057 16.7515 23.5859 16.2372H23.5789ZM24.0619 20.6C24.2124 20.3351 24.3565 20.0703 24.493 19.8066C24.668 20.2616 24.843 20.7102 24.9655 21.1483C24.5075 21.254 24.0448 21.3385 23.5789 21.4015C23.7481 21.1425 23.9114 20.8753 24.0689 20.6H24.0619V20.6ZM20.9399 14.1512C21.2549 14.4872 21.5647 14.8512 21.8674 15.242C21.5623 15.2288 21.257 15.2218 20.9516 15.221C20.6424 15.221 20.3257 15.221 20.0188 15.242C20.3082 14.8638 20.6155 14.4998 20.9399 14.1512V14.1512ZM17.0567 12.05C17.1896 11.9798 17.3387 11.946 17.4889 11.952C17.8044 11.9654 18.1138 12.0437 18.3978 12.1819C19.0394 12.484 19.6298 12.8848 20.1483 13.3684L20.3537 13.5562C19.8392 14.1075 19.362 14.6925 18.9245 15.3062C18.1794 15.3788 17.4397 15.4996 16.7102 15.6679C16.6331 15.3403 16.5747 15.0086 16.5352 14.6745C16.3526 13.3526 16.5632 12.3446 17.0549 12.057L17.0567 12.05V12.05ZM16.1303 20.9266C15.8015 20.8262 15.478 20.7094 15.1608 20.5766C13.9178 20.0516 13.1472 19.3773 13.1472 18.8015C13.1472 18.2252 13.9213 17.555 15.1626 17.0381C15.4741 16.9093 15.7918 16.796 16.1146 16.6986C16.3333 17.4237 16.6005 18.1336 16.9132 18.8237C16.607 19.507 16.3455 20.2094 16.1303 20.9266V20.9266ZM20.1571 24.2709C18.7233 25.5542 17.8273 25.6907 17.5064 25.6907C17.3587 25.6956 17.2124 25.6605 17.0829 25.5892C16.5824 25.3034 16.3829 24.2971 16.5422 22.963C16.583 22.6224 16.6413 22.2846 16.7172 21.951C17.4428 22.1178 18.1784 22.2385 18.9193 22.3115C19.3601 22.9313 19.8421 23.5208 20.3618 24.076L20.1577 24.2709H20.1571ZM20.9574 23.481C20.6424 23.145 20.3321 22.781 20.0276 22.3902C20.3333 22.4043 20.6392 22.4113 20.9452 22.4112C21.2549 22.4112 21.5717 22.4112 21.8785 22.392C21.5752 22.7805 21.2672 23.1445 20.9557 23.481H20.9574ZM24.8407 25.5822C24.7079 25.6549 24.558 25.6906 24.4067 25.6855C24.0876 25.6855 23.1811 25.5455 21.7525 24.2674L21.5472 24.0795C22.0606 23.5281 22.5372 22.9435 22.974 22.3295C23.7201 22.2581 24.4606 22.1372 25.1907 21.9679C25.2677 22.308 25.3289 22.6405 25.3657 22.9613C25.5389 24.2814 25.3377 25.2894 24.8389 25.5746L24.8407 25.5822V25.5822ZM26.7313 20.6029C26.432 20.7254 26.1153 20.8391 25.7793 20.9412C25.5595 20.2156 25.2922 19.5053 24.9789 18.815C25.2865 18.1327 25.5492 17.431 25.7653 16.7144C26.0943 16.8147 26.4174 16.9314 26.7348 17.0644C27.9761 17.5894 28.7484 18.2637 28.7467 18.84C28.7449 19.4158 27.9726 20.079 26.7295 20.5959L26.7313 20.6029ZM20.9399 20.4244C21.3662 20.4248 21.7751 20.256 22.0768 19.9549C22.3785 19.6539 22.5483 19.2453 22.5488 18.819C22.5492 18.3928 22.3804 17.9839 22.0793 17.6822C21.7782 17.3804 21.3697 17.2107 20.9434 17.2102C20.5172 17.2098 20.1082 17.3786 19.8065 17.6797C19.5048 17.9807 19.3351 18.3893 19.3346 18.8155C19.3341 19.2418 19.503 19.6507 19.8041 19.9524C20.1051 20.2542 20.5137 20.4239 20.9399 20.4244V20.4244ZM8.80368 29.966V10.5865L7.96484 11.427V30.8013H29.3329L30.17 29.966H8.80368Z" fill="#09D3AC"/>
</svg>
