<svg xmlns="http://www.w3.org/2000/svg" fill="none" viewBox="0 0 48 48"><g clip-path="url(#prefix__clip0)"><path fill="#09D3AC" d="M40.421 21.99c0-2.068-2.434-3.902-6.176-5.022.9-3.802.507-6.828-1.285-7.851a2.866 2.866 0 00-1.438-.36c-1.671 0-3.784 1.167-5.918 3.187-2.134-2.005-4.24-3.166-5.91-3.166a2.84 2.84 0 00-1.458.366c-1.783 1.026-2.152 4.034-1.264 7.818-3.725 1.114-6.147 2.933-6.153 4.991-.006 2.06 2.438 3.902 6.18 5.019-.9 3.805-.51 6.828 1.285 7.851.437.245.933.37 1.434.36 1.675 0 3.788-1.167 5.922-3.187 2.13 2.005 4.238 3.166 5.91 3.166.51.01 1.013-.117 1.458-.366 1.783-1.026 2.15-4.034 1.264-7.803 3.724-1.129 6.146-2.948 6.15-5.003zM26.98 12.621c2.458-2.2 3.994-2.437 4.54-2.437.254-.008.505.052.727.174.858.49 1.2 2.215.927 4.502-.07.584-.17 1.165-.3 1.738a29.323 29.323 0 00-3.776-.621 29.54 29.54 0 00-2.473-3.025 7.53 7.53 0 01.355-.33zm-7.44 11.07c.233.45.482.9.74 1.353.259.453.529.912.829 1.365a28.224 28.224 0 01-2.353-.438c.21-.762.477-1.512.783-2.28zm-.832-5.715c.76-.177 1.555-.324 2.38-.438-.3.444-.558.9-.828 1.377-.27.477-.508.9-.739 1.357a35.303 35.303 0 01-.813-2.296zm1.564 4.003a35.87 35.87 0 011.227-2.358 34.91 34.91 0 011.432-2.285 34.292 34.292 0 012.7-.099c.928.003 1.802.036 2.67.105.497.727.974 1.501 1.425 2.267.45.765.864 1.566 1.236 2.35-.369.786-.78 1.575-1.224 2.355a34.05 34.05 0 01-1.432 2.287 34.268 34.268 0 01-5.37-.006 33.674 33.674 0 01-1.428-2.265 35.2 35.2 0 01-1.224-2.35h-.012zm9.862-4.432c.816.114 1.606.26 2.353.435-.222.741-.486 1.5-.792 2.266-.238-.45-.484-.9-.745-1.354-.26-.453-.537-.91-.804-1.347h-.012zm.828 7.479c.258-.454.505-.908.739-1.36.3.78.6 1.549.81 2.3a26.13 26.13 0 01-2.377.434c.29-.444.57-.902.84-1.374h-.012zM25.61 13.973c.54.576 1.071 1.2 1.59 1.87a38.384 38.384 0 00-1.57-.036c-.53 0-1.073 0-1.599.036a25.4 25.4 0 011.579-1.87zm-6.657-3.602c.228-.12.484-.179.741-.168.541.023 1.071.157 1.558.394 1.1.518 2.112 1.205 3.001 2.034l.352.322c-.882.945-1.7 1.948-2.45 3a29.68 29.68 0 00-3.796.62 15.277 15.277 0 01-.3-1.703c-.313-2.266.048-3.994.891-4.487l.003-.012zm-1.588 15.217a17.63 17.63 0 01-1.662-.6c-2.131-.9-3.452-2.056-3.452-3.043 0-.988 1.327-2.137 3.455-3.023.534-.221 1.079-.415 1.632-.582.375 1.243.833 2.46 1.369 3.643a29.636 29.636 0 00-1.342 3.605zm6.903 5.733c-2.458 2.2-3.994 2.434-4.544 2.434a1.409 1.409 0 01-.726-.174c-.858-.49-1.2-2.215-.927-4.502.07-.584.17-1.163.3-1.735 1.244.286 2.505.493 3.775.618a29.157 29.157 0 002.473 3.025l-.35.334zm1.372-1.354c-.54-.576-1.072-1.2-1.594-1.87a33.9 33.9 0 001.573.036c.531 0 1.074 0 1.6-.033-.52.666-1.048 1.29-1.582 1.867h.003zm6.657 3.602a1.447 1.447 0 01-.744.177c-.547 0-2.101-.24-4.55-2.431l-.352-.322a29.522 29.522 0 002.446-3 29.104 29.104 0 003.8-.62c.132.583.237 1.153.3 1.703.297 2.263-.048 3.991-.903 4.48l.003.013zm3.241-8.536c-.513.21-1.056.405-1.632.58a29.554 29.554 0 00-1.372-3.645 29.44 29.44 0 001.348-3.601c.564.172 1.118.372 1.662.6 2.128.9 3.452 2.056 3.449 3.044-.003.987-1.327 2.124-3.458 3.01l.003.012zm-9.928-.306a2.755 2.755 0 10.006-5.51 2.755 2.755 0 00-.006 5.51zM7.302 5.365v33.21h36.637V5.365H7.302zm35.205 31.781H8.737V6.796h33.77v30.35zm-25.51-10.174c-.901 3.805-.511 6.828 1.284 7.851.437.245.933.37 1.434.36 1.675 0 3.788-1.167 5.922-3.187 2.13 2.005 4.238 3.166 5.91 3.166.51.01 1.013-.117 1.458-.366 1.783-1.026 2.15-4.034 1.264-7.803 3.724-1.117 6.146-2.936 6.15-4.991.002-2.056-2.435-3.902-6.177-5.022.9-3.802.507-6.828-1.285-7.851a2.866 2.866 0 00-1.438-.36c-1.671 0-3.784 1.167-5.918 3.187-2.134-2.005-4.24-3.166-5.91-3.166a2.84 2.84 0 00-1.458.366c-1.783 1.026-2.152 4.034-1.264 7.818-3.725 1.114-6.147 2.933-6.153 4.991-.006 2.06 2.44 3.884 6.183 5.007h-.003zm7.265 4.349c-2.458 2.2-3.994 2.434-4.544 2.434a1.409 1.409 0 01-.726-.174c-.858-.49-1.2-2.215-.927-4.502.07-.584.17-1.163.3-1.735 1.244.286 2.505.493 3.775.618a29.157 29.157 0 002.473 3.025l-.35.334zm7.44-11.072c-.237-.45-.483-.9-.744-1.354-.26-.453-.54-.9-.816-1.347.816.114 1.606.26 2.353.435-.22.741-.483 1.5-.79 2.266h-.002zm.817 5.702a26.13 26.13 0 01-2.377.435 34.84 34.84 0 001.567-2.734 24.8 24.8 0 01.804 2.314l.006-.015zm-1.564-4.006c-.369.786-.78 1.575-1.224 2.355a34.05 34.05 0 01-1.432 2.287 34.316 34.316 0 01-5.37-.006 33.674 33.674 0 01-1.428-2.265 35.375 35.375 0 01-1.236-2.35 35.87 35.87 0 011.227-2.36 34.91 34.91 0 011.432-2.284 34.292 34.292 0 012.7-.099c.928.003 1.802.036 2.67.105.497.727.974 1.501 1.425 2.267.45.765.867 1.581 1.24 2.364l-.004-.014zm-9.847 4.465a28.224 28.224 0 01-2.353-.438c.222-.738.49-1.5.795-2.266.234.45.483.9.742 1.354.258.453.516.897.816 1.35zm-.837-7.503c-.262.45-.508.9-.739 1.357a30.191 30.191 0 01-.825-2.287c.76-.177 1.555-.324 2.38-.438-.28.444-.546.903-.816 1.368zm5.366 11.06c-.54-.576-1.072-1.2-1.594-1.87a33.9 33.9 0 001.573.036c.531 0 1.074 0 1.6-.033a27.702 27.702 0 01-1.58 1.867zm6.657 3.602a1.447 1.447 0 01-.744.177c-.547 0-2.101-.24-4.55-2.431l-.352-.322a29.522 29.522 0 002.446-3 29.106 29.106 0 003.8-.62c.132.583.237 1.153.3 1.703.3 2.263-.045 3.991-.9 4.48v.013zm1.585-15.205c.564.172 1.118.372 1.662.6 2.128.9 3.452 2.056 3.449 3.044-.003.987-1.324 2.149-3.455 3.034-.513.21-1.056.405-1.632.58a29.554 29.554 0 00-1.372-3.645 29.431 29.431 0 001.348-3.625v.012zm-6.903-5.73c2.458-2.2 3.994-2.437 4.54-2.437.254-.008.505.052.727.174.858.49 1.2 2.215.927 4.502-.07.584-.17 1.165-.3 1.738a29.306 29.306 0 00-3.776-.621 29.54 29.54 0 00-2.473-3.025c.114-.123.235-.235.358-.343l-.003.012zm-1.366 1.339c.54.576 1.071 1.2 1.59 1.87a38.384 38.384 0 00-1.57-.036c-.53 0-1.073 0-1.599.036a25.4 25.4 0 011.579-1.87zm-6.657-3.602c.228-.12.484-.179.741-.168.541.023 1.071.157 1.558.394 1.1.518 2.112 1.205 3.001 2.034l.352.322c-.882.945-1.7 1.948-2.45 3a29.68 29.68 0 00-3.796.62 15.277 15.277 0 01-.3-1.703c-.313-2.266.048-3.994.891-4.487l.003-.012zm-3.247 8.551c.534-.221 1.079-.415 1.632-.582.375 1.243.833 2.46 1.369 3.643a29.623 29.623 0 00-1.348 3.602 17.63 17.63 0 01-1.662-.6c-2.131-.9-3.452-2.056-3.452-3.043 0-.988 1.333-2.134 3.46-3.02zm9.904.3a2.755 2.755 0 102.752 2.758 2.751 2.751 0 00-2.752-2.773v.015zm0 0a2.755 2.755 0 102.752 2.758 2.751 2.751 0 00-2.752-2.773v.015zm0 0a2.755 2.755 0 102.752 2.758 2.751 2.751 0 00-2.752-2.773v.015zm14.811 2.773c0-2.067-2.434-3.901-6.176-5.02.9-3.803.507-6.829-1.285-7.852a2.866 2.866 0 00-1.438-.36c-1.671 0-3.784 1.167-5.918 3.187-2.134-2.005-4.24-3.166-5.91-3.166a2.84 2.84 0 00-1.458.366c-1.783 1.026-2.152 4.034-1.264 7.818-3.725 1.114-6.147 2.933-6.153 4.991-.006 2.06 2.438 3.902 6.18 5.019-.9 3.805-.51 6.828 1.285 7.851.437.245.933.37 1.434.36 1.675 0 3.788-1.167 5.922-3.187 2.13 2.005 4.238 3.166 5.91 3.166.51.01 1.013-.117 1.458-.366 1.783-1.026 2.15-4.034 1.264-7.803 3.724-1.135 6.146-2.954 6.15-5.01v.006zM26.98 12.623c2.458-2.2 3.994-2.437 4.54-2.437.254-.008.505.052.727.174.858.49 1.2 2.215.927 4.502-.07.584-.17 1.165-.3 1.738a29.323 29.323 0 00-3.776-.621 29.54 29.54 0 00-2.473-3.025 7.53 7.53 0 01.355-.33zm-7.44 11.07c.233.45.482.9.74 1.353.259.453.529.912.829 1.365a28.224 28.224 0 01-2.353-.438c.21-.762.477-1.512.783-2.28zm-.832-5.715c.76-.177 1.555-.324 2.38-.438-.3.444-.558.9-.828 1.377-.27.477-.508.9-.739 1.357a35.303 35.303 0 01-.813-2.296zm1.564 4.003a35.87 35.87 0 011.227-2.358 34.91 34.91 0 011.432-2.285 34.292 34.292 0 012.7-.099c.928.003 1.802.036 2.67.105.497.727.974 1.501 1.425 2.267.45.765.864 1.566 1.236 2.35-.369.786-.78 1.575-1.224 2.355a34.05 34.05 0 01-1.432 2.287 34.268 34.268 0 01-5.37-.006 33.674 33.674 0 01-1.428-2.265 35.2 35.2 0 01-1.224-2.35h-.012zm9.862-4.432c.816.114 1.606.26 2.353.435-.222.741-.486 1.5-.792 2.266-.238-.45-.484-.9-.745-1.354-.26-.453-.537-.91-.804-1.347h-.012zm.828 7.479c.258-.454.505-.908.739-1.36.3.78.6 1.549.81 2.3a26.13 26.13 0 01-2.377.434c.29-.444.57-.902.84-1.374h-.012zM25.61 13.973c.54.576 1.071 1.2 1.59 1.87a38.384 38.384 0 00-1.57-.036c-.53 0-1.073 0-1.599.036a25.4 25.4 0 011.579-1.87zm-6.657-3.602c.228-.12.484-.179.741-.168.541.023 1.071.157 1.558.394 1.1.518 2.112 1.205 3.001 2.034l.352.322c-.882.945-1.7 1.948-2.45 3a29.68 29.68 0 00-3.796.62 15.277 15.277 0 01-.3-1.703c-.313-2.266.048-3.994.891-4.487l.003-.012zm-1.588 15.217a17.63 17.63 0 01-1.662-.6c-2.131-.9-3.452-2.056-3.452-3.043 0-.988 1.327-2.137 3.455-3.023.534-.221 1.079-.415 1.632-.582.375 1.243.833 2.46 1.369 3.643a29.636 29.636 0 00-1.342 3.605zm6.903 5.733c-2.458 2.2-3.994 2.434-4.544 2.434a1.409 1.409 0 01-.726-.174c-.858-.49-1.2-2.215-.927-4.502.07-.584.17-1.163.3-1.735 1.244.286 2.505.493 3.775.618a29.157 29.157 0 002.473 3.025l-.35.334zm1.372-1.354c-.54-.576-1.072-1.2-1.594-1.87a33.9 33.9 0 001.573.036c.531 0 1.074 0 1.6-.033-.52.666-1.048 1.29-1.582 1.867h.003zm6.657 3.602a1.447 1.447 0 01-.744.177c-.547 0-2.101-.24-4.55-2.431l-.352-.322a29.522 29.522 0 002.446-3 29.104 29.104 0 003.8-.62c.132.583.237 1.153.3 1.703.297 2.263-.048 3.991-.903 4.48l.003.013zm3.241-8.536c-.513.21-1.056.405-1.632.58a29.554 29.554 0 00-1.372-3.645 29.44 29.44 0 001.348-3.601c.564.172 1.118.372 1.662.6 2.128.9 3.452 2.056 3.449 3.044-.003.987-1.327 2.124-3.458 3.01l.003.012zm-9.928-.306a2.755 2.755 0 10.006-5.51 2.755 2.755 0 00-.006 5.51zM4.805 41.084V7.862L3.367 9.303v33.213h36.631l1.435-1.432H4.805z"/></g><defs><clipPath id="prefix__clip0"><path fill="#fff" d="M0 0h48v48H0z"/></clipPath></defs></svg>