<svg width="40" height="40" viewBox="0 0 40 40" fill="none" xmlns="http://www.w3.org/2000/svg">
<path d="M30.0805 19.9999H23.6638V21.8333H28.0639C27.4222 24.5837 25.4056 26.8751 22.7474 27.7921L12.206 17.2501C13.3056 14.0417 16.4223 11.7504 19.9976 11.7504C22.7474 11.7504 25.2225 13.1253 26.7806 15.2335L28.1555 14.0417C26.3226 11.5667 23.3891 9.91699 19.9976 9.91699C15.2306 9.91699 11.1974 13.3085 10.1888 17.8002L22.2889 29.9002C26.689 28.8001 30.0805 24.7669 30.0805 20.0005V19.9999ZM9.91406 20.0921C9.91406 22.6587 10.9226 25.1338 12.8471 27.0588C14.7721 28.9838 17.3387 29.9918 19.8138 29.9918L9.91406 20.0921V20.0921Z" fill="white"/>
<path d="M19.9993 7.16699C12.941 7.16699 7.16602 12.942 7.16602 20.0003C7.16602 27.0587 12.941 32.8337 19.9993 32.8337C27.0577 32.8337 32.8327 27.0587 32.8327 20.0003C32.8327 12.942 27.0577 7.16699 19.9993 7.16699ZM12.8494 27.1502C10.9244 25.2252 9.91585 22.6586 9.91585 20.1835L19.9078 30.0838C17.3411 29.9922 14.7744 29.0752 12.8494 27.1502V27.1502ZM22.1991 29.8085L10.1912 17.8012C11.1992 13.3089 15.2329 9.91683 19.9993 9.91683C23.3908 9.91683 26.3244 11.5671 28.1578 14.0422L26.7829 15.2339C25.2243 13.1252 22.7492 11.7502 19.9993 11.7502C16.4241 11.7502 13.3995 14.0422 12.2078 17.2505L22.7492 27.7919C25.4074 26.8755 27.4246 24.5836 28.0663 21.8337H23.6662V20.0003H30.0828C30.0828 24.7667 26.6908 28.8005 22.1991 29.8085Z" fill="#663399"/>
</svg>
