<svg xmlns="http://www.w3.org/2000/svg" width="48" height="48" fill="none" viewBox="0 0 48 48"><path fill="#fff" d="M41.2824 24.0006H30.2824V27.1434H37.8252C36.7252 31.8577 33.2681 35.7863 28.7109 37.3577L10.6395 19.2863C12.5252 13.7863 17.8681 9.8577 23.9967 9.8577C28.7109 9.8577 32.9538 12.2148 35.6252 15.8291L37.9824 13.7863C34.8395 9.54342 29.8109 6.71484 23.9967 6.71484C15.8252 6.71484 8.91094 12.5291 7.18237 20.2291L27.9252 40.972C35.4681 39.0863 41.2824 32.172 41.2824 24.0006ZM6.71094 24.1577C6.71094 28.5577 8.43951 32.8006 11.7395 36.1006C15.0395 39.4006 19.4395 41.1291 23.6824 41.1291L6.71094 24.1577Z"/><path fill="#639" d="M24 2C11.9 2 2 11.9 2 24C2 36.1 11.9 46 24 46C36.1 46 46 36.1 46 24C46 11.9 36.1 2 24 2ZM11.7429 36.2571C8.44286 32.9571 6.71429 28.5571 6.71429 24.3143L23.8429 41.2857C19.4429 41.1286 15.0429 39.5571 11.7429 36.2571ZM27.7714 40.8143L7.18571 20.2286C8.91429 12.5286 15.8286 6.71429 24 6.71429C29.8143 6.71429 34.8429 9.54286 37.9857 13.7857L35.6286 15.8286C32.9571 12.2143 28.7143 9.85714 24 9.85714C17.8714 9.85714 12.6857 13.7857 10.6429 19.2857L28.7143 37.3571C33.2714 35.7857 36.7286 31.8571 37.8286 27.1429H30.2857V24H41.2857C41.2857 32.1714 35.4714 39.0857 27.7714 40.8143Z"/></svg>