<svg xmlns="http://www.w3.org/2000/svg" width="48" height="48" fill="none" viewBox="0 0 48 48"><g clip-path="url(#clip0)"><path fill="#FF2D20" d="M45.1592 12.5616C45.1752 12.6205 45.1833 12.6812 45.1834 12.7422V22.224C45.1834 22.3457 45.1513 22.4653 45.0903 22.5706C45.0293 22.6759 44.9416 22.7632 44.836 22.8238L36.8778 27.4056V36.4873C36.8778 36.7345 36.7464 36.9626 36.5321 37.0871L19.92 46.6501C19.882 46.6717 19.8405 46.6855 19.799 46.7002C19.7835 46.7054 19.7688 46.7149 19.7523 46.7192C19.6362 46.7498 19.5142 46.7498 19.398 46.7192C19.379 46.714 19.3617 46.7037 19.3436 46.6967C19.3056 46.6829 19.2658 46.6708 19.2295 46.6501L2.62084 37.0871C2.51533 37.0264 2.42766 36.9391 2.36667 36.8338C2.30568 36.7285 2.27352 36.609 2.27344 36.4873V8.04197C2.27344 7.97974 2.28208 7.91925 2.29763 7.86049C2.30282 7.84061 2.31492 7.82246 2.32183 7.80259C2.33479 7.76629 2.34689 7.72913 2.3659 7.69543C2.37887 7.67296 2.39788 7.65481 2.41343 7.63407C2.43331 7.60642 2.45146 7.5779 2.47479 7.5537C2.49467 7.53383 2.52059 7.51914 2.54306 7.50185C2.56812 7.48111 2.59059 7.45864 2.61911 7.44222H2.61997L10.9247 2.66072C11.0299 2.60021 11.1491 2.56836 11.2704 2.56836C11.3917 2.56836 11.5109 2.60021 11.6161 2.66072L19.9209 7.44222H19.9226C19.9502 7.45951 19.9736 7.48111 19.9986 7.50099C20.0211 7.51827 20.0462 7.53383 20.066 7.55284C20.0902 7.5779 20.1075 7.60642 20.1283 7.63407C20.143 7.65481 20.1628 7.67296 20.1749 7.69543C20.1948 7.73 20.206 7.76629 20.2199 7.80259C20.2268 7.82246 20.2389 7.84061 20.2441 7.86135C20.26 7.92024 20.2681 7.98096 20.2683 8.04197V25.8086L27.1886 21.8239V12.7414C27.1886 12.6809 27.1973 12.6195 27.2128 12.5616C27.2189 12.5409 27.2301 12.5227 27.237 12.5029C27.2508 12.4666 27.2629 12.4294 27.2819 12.3957C27.2949 12.3732 27.3139 12.3551 27.3286 12.3343C27.3494 12.3067 27.3666 12.2782 27.3908 12.254C27.4107 12.2341 27.4358 12.2194 27.4582 12.2021C27.4842 12.1814 27.5066 12.1589 27.5343 12.1425H27.5352L35.8408 7.36099C35.9459 7.3004 36.0651 7.2685 36.1865 7.2685C36.3078 7.2685 36.427 7.3004 36.5321 7.36099L44.8369 12.1425C44.8663 12.1598 44.8888 12.1814 44.9147 12.2013C44.9363 12.2185 44.9613 12.2341 44.9812 12.2531C45.0054 12.2782 45.0227 12.3067 45.0434 12.3343C45.059 12.3551 45.078 12.3732 45.0901 12.3957C45.11 12.4294 45.1212 12.4666 45.135 12.5029C45.1428 12.5227 45.1541 12.5409 45.1592 12.5616V12.5616ZM43.799 21.8239V13.9391L40.8928 15.6122L36.8778 17.9239V25.8086L43.7999 21.8239H43.799ZM35.4943 36.0872V28.1972L31.5449 30.4527L20.2674 36.8892V44.8534L35.4943 36.0872ZM3.65785 9.23885V36.0872L18.883 44.8526V36.89L10.9291 32.3885L10.9265 32.3868L10.923 32.3851C10.8962 32.3695 10.8738 32.347 10.8487 32.328C10.8271 32.3107 10.802 32.2969 10.783 32.2779L10.7813 32.2753C10.7588 32.2537 10.7433 32.2269 10.7243 32.2027C10.707 32.1794 10.6862 32.1595 10.6724 32.1353L10.6715 32.1327C10.656 32.1068 10.6465 32.0757 10.6352 32.0463C10.624 32.0204 10.6093 31.9962 10.6024 31.9685V31.9677C10.5938 31.9348 10.592 31.9002 10.5886 31.8665C10.5851 31.8406 10.5782 31.8147 10.5782 31.7888V13.2236L6.56409 10.911L3.65785 9.23972V9.23885ZM11.2713 4.05896L4.35179 8.04197L11.2696 12.025L18.1882 8.0411L11.2696 4.05896H11.2713ZM14.8697 28.9162L18.8838 26.6054V9.23885L15.9776 10.9119L11.9626 13.2236V30.5902L14.8697 28.9162ZM36.1865 8.75923L29.2678 12.7422L36.1865 16.7252L43.1042 12.7414L36.1865 8.75923ZM35.4943 17.9239L31.4793 15.6122L28.573 13.9391V21.8239L32.5871 24.1347L35.4943 25.8086V17.9239ZM19.5743 35.6923L29.7224 29.8988L34.7951 27.0038L27.8817 23.0234L19.9217 27.6061L12.6669 31.7827L19.5743 35.6923Z"/></g><defs><clipPath id="clip0"><rect width="48" height="48" fill="#fff"/></clipPath></defs></svg>