<svg width="40" height="40" viewBox="0 0 40 40" fill="none" xmlns="http://www.w3.org/2000/svg">
<path d="M32.3436 13.3275C32.3523 13.3619 32.357 13.3975 32.357 13.4325V18.9636C32.357 19.0346 32.3383 19.1043 32.3028 19.1658C32.2672 19.2272 32.2161 19.2782 32.1546 19.3136L27.5124 21.9865V27.2837C27.5124 27.3546 27.4938 27.4243 27.4584 27.4857C27.4229 27.5472 27.372 27.5982 27.3106 27.6337L17.6203 33.2121C17.5981 33.225 17.5736 33.2325 17.5497 33.2413C17.5409 33.2442 17.5322 33.25 17.5223 33.253C17.4546 33.2708 17.3834 33.2708 17.3158 33.253C17.3047 33.2495 17.2948 33.2436 17.2843 33.2395C17.2621 33.2314 17.2388 33.2244 17.2178 33.2121L7.52859 27.6337C7.46709 27.5983 7.41601 27.5473 7.38048 27.4858C7.34495 27.4244 7.32622 27.3547 7.32617 27.2837V10.6908C7.32617 10.6546 7.33201 10.619 7.34076 10.5846C7.34367 10.573 7.35067 10.5625 7.35476 10.5514C7.36234 10.5298 7.36934 10.5082 7.38042 10.4884C7.38801 10.4755 7.39909 10.465 7.40784 10.4534C7.41951 10.4365 7.43001 10.4201 7.44401 10.4061C7.45567 10.3945 7.47084 10.3857 7.48367 10.3758C7.49826 10.3641 7.51167 10.3507 7.52801 10.3408H7.52859L12.3732 7.55187C12.4345 7.51661 12.504 7.49805 12.5747 7.49805C12.6454 7.49805 12.7149 7.51661 12.7763 7.55187L17.6208 10.3408H17.622C17.6378 10.3513 17.6512 10.3641 17.6663 10.3752C17.6792 10.3851 17.6938 10.3945 17.7054 10.4055C17.7194 10.4201 17.7299 10.4365 17.7416 10.4528C17.7503 10.4645 17.762 10.4755 17.769 10.4884C17.7807 10.5088 17.7871 10.5298 17.7953 10.5514C17.7993 10.563 17.8063 10.5735 17.8093 10.5852C17.8186 10.6202 17.8233 10.6552 17.8233 10.6908V21.0549L21.8599 18.7303V13.4313C21.8599 13.3963 21.8658 13.3607 21.8745 13.3263C21.878 13.3146 21.8844 13.3041 21.8885 13.2925C21.8967 13.2715 21.9037 13.2493 21.9148 13.23C21.9223 13.2166 21.9334 13.2067 21.9422 13.1939C21.9538 13.1781 21.9643 13.1612 21.9783 13.1472C21.99 13.1355 22.0046 13.1268 22.0174 13.1169C22.0326 13.1052 22.046 13.0918 22.0618 13.0819H22.0623L26.9075 10.293C26.9688 10.2576 27.0383 10.239 27.109 10.239C27.1798 10.239 27.2493 10.2576 27.3106 10.293L32.1552 13.0825C32.1727 13.0924 32.1855 13.1046 32.2007 13.1163C32.2129 13.1268 32.2275 13.1355 32.2392 13.1466C32.2532 13.1612 32.2637 13.1781 32.2753 13.1939C32.2847 13.2061 32.2958 13.2172 32.3028 13.23C32.3144 13.2493 32.3208 13.2709 32.329 13.2925C32.3337 13.3041 32.3407 13.3146 32.343 13.3269L32.3436 13.3275ZM31.5497 18.7303V14.1307L29.8545 15.1066L27.5124 16.4553V21.0549L31.5503 18.7303H31.5497ZM26.7051 27.0504V22.4479L24.4009 23.7639L17.8227 27.5182V32.1639L26.7051 27.0504ZM8.13409 11.3896V27.051L17.0153 32.1645V27.5188L12.3755 24.8926L12.3743 24.892L12.372 24.8909C12.3563 24.8821 12.3428 24.8687 12.3288 24.8576C12.316 24.8477 12.3014 24.8395 12.2903 24.8285L12.2892 24.8267C12.2763 24.8145 12.267 24.7987 12.2559 24.7847C12.246 24.7707 12.2338 24.759 12.2256 24.745V24.7439C12.2163 24.7287 12.2104 24.7106 12.204 24.6931C12.1976 24.678 12.1888 24.664 12.1848 24.6476C12.1801 24.6284 12.1789 24.608 12.1772 24.5881C12.1748 24.5735 12.1713 24.5584 12.1713 24.5432V13.7136L9.82867 12.3638L8.13409 11.3896V11.389V11.3896ZM12.575 8.36795L8.53834 10.6914L12.5744 13.0148L16.6099 10.6908L12.5744 8.36795H12.575V8.36795ZM14.6744 22.8679L17.0159 21.5204V11.3885L15.3208 12.3644L12.9787 13.713V23.8438L14.6744 22.8673V22.8679ZM27.1093 11.1096L23.0727 13.433L27.1093 15.7565L31.1443 13.4325L27.1093 11.1096V11.1096ZM26.7051 16.4559L24.363 15.1072L22.6678 14.1313V18.7309L25.0093 20.0784L26.7051 21.0555V16.4559ZM17.4184 26.8205L23.3381 23.4413L26.2973 21.7525L22.2648 19.4309L17.6214 22.1037L13.3893 24.5403L17.4184 26.8211V26.8205Z" fill="#FF2D20"/>
</svg>
