<svg width="40" height="40" viewBox="0 0 40 40" fill="none" xmlns="http://www.w3.org/2000/svg"><path fill="#FF6A3E" d="M35.744 24.676c-.5.536-1.151.077-1.151.077L20.013 9.086l15.846 14.52s.384.536-.115 1.07Zm-1.63-5.076-6.608-7.122 7.234 6.584s.19.251-.057.502c-.247.25-.57.036-.57.036Zm1.08 9.449c-.714.766-1.647.11-1.647.11L12.677 6.735 35.36 27.518s.55.766-.165 1.53Zm-2.142 3.774c-.714.766-1.647.11-1.647.11L4 4l29.217 27.292s.549.765-.164 1.531Zm-3.954 2.078c-.714.766-1.647.11-1.647.11L6.58 12.587 29.264 33.37s.549.766-.165 1.532Zm-4.777.058c-.5.534-1.151.076-1.151.076L8.59 19.37l15.846 14.52s.383.535-.115 1.07Zm-4.905-1.284c-.247.25-.57.036-.57.036l-6.608-7.123 7.235 6.585s.19.25-.057.502Z"/></svg>
