<svg width="40" height="40" viewBox="0 0 40 40" fill="none" xmlns="http://www.w3.org/2000/svg">
  <path d="M10.788 14.8421H17.6534V15.3988H11.4175V19.588H17.2815V20.1447H11.4175V24.744H17.7249V25.3007H10.788V14.8421ZM18.2684 14.8421H18.9979L22.2304 19.4415L25.5343 14.8421L30.0282 9L22.6452 19.9249L26.4497 25.3007H25.6916L22.2304 20.4083L18.7549 25.3007H18.011L21.8442 19.9249L18.2686 14.8421H18.2684ZM26.7216 15.3988V14.8421H34.545V15.3988H30.9409V25.3005H30.3114V15.3988H26.7218H26.7216ZM2.19922 14.8421H2.98595L13.8334 31.4L9.35056 25.3007L2.85705 15.6331L2.82846 25.3007H2.19922V14.8421ZM34.4819 24.576C34.353 24.576 34.2566 24.4744 34.2566 24.3432C34.2566 24.2117 34.353 24.1101 34.4817 24.1101C34.6118 24.1101 34.7067 24.2117 34.7067 24.3432C34.7067 24.4744 34.6118 24.576 34.4817 24.576H34.4819ZM35.1001 23.9631H35.437C35.4417 24.1492 35.575 24.2742 35.7707 24.2742C35.9896 24.2742 36.1136 24.14 36.1136 23.8881V22.2936H36.4564V23.8896C36.4564 24.3432 36.1993 24.6043 35.7737 24.6043C35.3744 24.6043 35.1003 24.3509 35.1003 23.9631H35.1001ZM36.9047 23.943H37.2446C37.2737 24.157 37.4788 24.293 37.7743 24.293C38.0496 24.293 38.2517 24.1475 38.2517 23.9475C38.2517 23.7757 38.1233 23.6723 37.8307 23.6021L37.546 23.5319C37.1468 23.4365 36.9644 23.2394 36.9644 22.908C36.9644 22.5061 37.2858 22.2387 37.7679 22.2387C38.2164 22.2387 38.5442 22.5061 38.564 22.8859H38.2302C38.1982 22.6782 38.0207 22.5482 37.7634 22.5482C37.4923 22.5482 37.3119 22.6812 37.3119 22.8844C37.3119 23.0454 37.4282 23.1378 37.7161 23.2065L37.9594 23.2675C38.4124 23.3753 38.5992 23.563 38.5992 23.9021C38.5992 24.3336 38.2714 24.6043 37.7482 24.6043C37.2584 24.6043 36.9291 24.3462 36.9047 23.9428V23.943Z" fill="#000000"/>
</svg>
