<svg xmlns="http://www.w3.org/2000/svg" width="96" height="48" fill="none" viewBox="0 0 96 48"><path fill="#000" d="M33.6633 16.442H46.0433V17.4282H34.7984V24.85H45.3727V25.8362H34.7984V33.9847H46.1722V34.9709H33.6633V16.442V16.442ZM47.1522 16.442H48.4678L54.2967 24.5905L60.2544 16.442L68.358 6.0918L55.0447 25.4469L61.9051 34.9709H60.538L54.2967 26.3034L48.0296 34.9709H46.6882L53.6002 25.4469L47.1527 16.442H47.1522ZM62.3953 17.4282V16.442H76.5029V17.4282H70.0038V34.9705H68.8687V17.4282H62.3958H62.3953ZM18.1758 16.442H19.5944L39.1549 45.7767L31.0713 34.9709L19.362 17.8434L19.3104 34.9709H18.1758V16.442V16.442ZM76.3891 33.6869C76.1567 33.6869 75.9829 33.5069 75.9829 33.2745C75.9829 33.0416 76.1567 32.8616 76.3887 32.8616C76.6233 32.8616 76.7944 33.0416 76.7944 33.2745C76.7944 33.5069 76.6233 33.6869 76.3887 33.6869H76.3891ZM77.5038 32.6011H78.1113C78.1198 32.9309 78.3602 33.1522 78.7131 33.1522C79.1078 33.1522 79.3313 32.9145 79.3313 32.4682V29.6434H79.9496V32.4709C79.9496 33.2745 79.486 33.7371 78.7184 33.7371C77.9984 33.7371 77.5042 33.2882 77.5042 32.6011H77.5038ZM80.758 32.5656H81.3709C81.4233 32.9447 81.7931 33.1856 82.326 33.1856C82.8224 33.1856 83.1869 32.9278 83.1869 32.5736C83.1869 32.2691 82.9553 32.086 82.4278 31.9616L81.9144 31.8371C81.1944 31.6682 80.8656 31.3189 80.8656 30.7318C80.8656 30.0198 81.4451 29.546 82.3144 29.546C83.1233 29.546 83.7144 30.0198 83.75 30.6927H83.1482C83.0904 30.3247 82.7704 30.0945 82.3064 30.0945C81.8176 30.0945 81.4922 30.33 81.4922 30.69C81.4922 30.9754 81.702 31.1389 82.2211 31.2607L82.6598 31.3687C83.4767 31.5598 83.8136 31.8922 83.8136 32.4931C83.8136 33.2576 83.2224 33.7371 82.2789 33.7371C81.3958 33.7371 80.802 33.2798 80.758 32.5651V32.5656Z"/></svg>