<svg xmlns="http://www.w3.org/2000/svg" width="48" height="48" fill="none" viewBox="0 0 48 48"><path fill="#00C58E" d="M27.0708 15.6786L25.565 18.3298L20.4154 9.26061L4.60691 37.0977H15.3103C15.3103 38.5619 16.4777 39.7489 17.9177 39.7489H4.60691C3.67546 39.7489 2.81485 39.2433 2.3492 38.4231C1.88355 37.6029 1.8836 36.5924 2.34933 35.7722L18.1578 7.93503C18.6236 7.11472 19.4844 6.60938 20.4159 6.60938C21.3475 6.60938 22.2083 7.11472 22.6741 7.93503L27.0708 15.6786V15.6786Z"/><path fill="#2F495E" d="M38.4804 35.7732L28.5744 18.3308L27.0686 15.6797L25.5628 18.3308L15.6579 35.7732C15.1922 36.5934 15.1921 37.6039 15.6578 38.4242C16.1234 39.2444 16.9841 39.75 17.9155 39.75H36.2195C37.1512 39.75 38.0121 39.2449 38.478 38.4246C38.9439 37.6043 38.944 36.5936 38.4782 35.7732H38.4804ZM17.9155 37.0988L27.0686 20.982L36.2195 37.0988H17.9155H17.9155Z"/><path fill="#108775" d="M45.5644 38.4229C45.0988 39.243 44.2382 39.7484 43.3069 39.7484H36.2212C37.6613 39.7484 38.8286 38.5615 38.8286 37.0973H43.3014L30.6099 14.7469L28.5761 18.3293L27.0703 15.6782L28.3523 13.4214C28.818 12.601 29.6788 12.0957 30.6104 12.0957C31.542 12.0957 32.4028 12.601 32.8685 13.4214L45.5644 35.7717C46.0302 36.592 46.0302 37.6026 45.5644 38.4229V38.4229Z"/></svg>