<svg xmlns="http://www.w3.org/2000/svg" width="112" height="48" fill="none" viewBox="0 0 112 48"><path fill="#C00" d="M96.0761 39.9801V44.8929C96.0761 44.8929 102.428 44.8929 104.952 44.8929C106.77 44.8929 109.892 43.5629 110 39.8443C110 39.6815 110 38.0801 110 37.9443C110 34.7686 107.395 32.8958 104.952 32.8958C103.812 32.8958 100.528 32.8958 100.528 32.8958V30.6158H109.295V25.6758C109.295 25.6758 103.269 25.6758 100.88 25.6758C98.709 25.6758 95.8047 27.4672 95.8047 30.8058C95.8047 31.1315 95.8047 32.2172 95.8047 32.5158C95.8047 35.8543 98.6818 37.5643 100.88 37.5643C106.988 37.5915 99.4147 37.5643 105.06 37.5643C105.06 39.9529 105.06 39.9529 105.06 39.9529"/><path fill="#C00" d="M48.5252 38.7848C48.5252 38.7848 53.2752 38.3776 53.2752 32.2433C53.2752 26.1091 47.5209 25.5391 47.5209 25.5391H37.1523V44.8919H42.3638V40.2233L46.8695 44.8919H54.5781L48.5252 38.7848ZM46.5166 34.8219H42.3638V30.3976H46.5438C46.5438 30.3976 47.7109 30.8319 47.7109 32.5962C47.7109 34.3605 46.5166 34.8219 46.5166 34.8219Z"/><path fill="#C00" d="M66.1383 25.6758C64.8083 25.6758 64.6183 25.6758 60.8454 25.6758C57.0726 25.6758 55.7969 29.0958 55.7969 30.7243C55.7969 34.2529 55.7969 44.8929 55.7969 44.8929H61.0897V41.5001H66.0569V44.8929H71.1868C71.1868 44.8929 71.1868 34.4429 71.1868 30.7243C71.1868 26.5986 67.4411 25.6758 66.1383 25.6758ZM66.0569 36.0172H61.0626V31.3215C61.0626 31.3215 61.0626 30.2629 62.7183 30.2629C64.2383 30.2629 62.9897 30.2629 64.5369 30.2629C66.0026 30.2629 66.0297 31.3215 66.0297 31.3215V36.0172H66.0569Z"/><path fill="#C00" d="M79.1116 25.6758H73.6016V44.8929H79.1116V25.6758Z"/><path fill="#C00" d="M86.85 39.9258V25.6758H81.3672V39.9258V44.8929H86.85H94.26V39.9258H86.85Z"/><path fill="#C00" d="M4.44141 44.8935H25.8843C25.8843 44.8935 21.7857 26.1921 35.3571 18.6192C38.3157 17.1807 47.7343 11.8064 63.1514 23.2064C63.64 22.7992 64.1014 22.4735 64.1014 22.4735C64.1014 22.4735 49.9871 8.38637 34.2714 9.96065C26.3728 10.6664 16.6557 17.8592 10.9557 27.3592C5.25569 36.8592 4.44141 44.8935 4.44141 44.8935Z"/><path fill="#C00" d="M4.44141 44.8935H25.8843C25.8843 44.8935 21.7857 26.1921 35.3571 18.6192C38.3157 17.1807 47.7343 11.8064 63.1514 23.2064C63.64 22.7992 64.1014 22.4735 64.1014 22.4735C64.1014 22.4735 49.9871 8.38637 34.2714 9.96065C26.3728 10.6664 16.6557 17.8592 10.9557 27.3592C5.25569 36.8592 4.44141 44.8935 4.44141 44.8935Z"/><path fill="#C00" d="M4.44141 44.8935H25.8843C25.8843 44.8935 21.7857 26.1921 35.3571 18.6192C38.3157 17.1807 47.7343 11.8064 63.1514 23.2064C63.64 22.7992 64.1014 22.4735 64.1014 22.4735C64.1014 22.4735 49.9871 8.38637 34.2714 9.96065C26.3457 10.6664 16.6285 17.8592 10.9285 27.3592C5.22855 36.8592 4.44141 44.8935 4.44141 44.8935Z"/><path fill="#C00" d="M49.1211 11.4795L49.2297 9.66094C48.9854 9.52522 48.3069 9.19951 46.5969 8.71094L46.4883 10.5024C47.384 10.8009 48.2526 11.1267 49.1211 11.4795Z"/><path fill="#C00" d="M46.5422 17.2344L46.4336 18.9444C47.3293 18.9715 48.225 19.0801 49.1207 19.2701L49.2293 17.5872C48.3065 17.3972 47.4107 17.2887 46.5422 17.2344Z"/><path fill="#C00" d="M36.4982 8.76509C36.5797 8.76509 36.6882 8.76509 36.7697 8.76509L36.2268 7.10938C35.3854 7.10938 34.5168 7.16366 33.6211 7.27223L34.1368 8.87366C34.9239 8.79223 35.7111 8.76509 36.4982 8.76509Z"/><path fill="#C00" d="M37.8008 18.7533L38.4251 20.6262C39.2122 20.2462 39.9994 19.9205 40.7865 19.6762L40.1894 17.8848C39.2665 18.1562 38.4794 18.4548 37.8008 18.7533Z"/><path fill="#C00" d="M25.4792 11.615L24.2578 9.74219C23.5792 10.095 22.8735 10.475 22.1406 10.9093L23.3892 12.8093C24.0949 12.375 24.7735 11.9679 25.4792 11.615Z"/><path fill="#C00" d="M31.043 23.8283L32.3458 25.7826C32.8073 25.104 33.3501 24.4798 33.9473 23.8555L32.7258 22.0098C32.1015 22.5798 31.5315 23.2041 31.043 23.8283Z"/><path fill="#C00" d="M27.1094 32.5697L29.3079 34.3068C29.4165 33.2483 29.6065 32.1897 29.8779 31.1311L27.9237 29.584C27.5708 30.5883 27.3265 31.5926 27.1094 32.5697Z"/><path fill="#C00" d="M15.217 19.677L13.2898 17.9941C12.5841 18.6727 11.9055 19.3513 11.2812 20.0299L13.3713 21.8213C13.9413 21.0884 14.5655 20.3556 15.217 19.677Z"/><path fill="#C00" d="M7.02154 31.8099L3.90011 30.6699C3.3844 31.8371 2.8144 33.1942 2.54297 33.9271L5.6644 35.0671C6.01725 34.1442 6.58725 32.8142 7.02154 31.8099Z"/><path fill="#C00" d="M26.6992 39.4648C26.7535 40.9034 26.8892 42.0706 27.0249 42.8848L30.2821 44.052C30.0378 42.9934 29.7935 41.7991 29.6306 40.5234L26.6992 39.4648Z"/></svg>