<svg width="40" height="40" viewBox="0 0 40 40" fill="none" xmlns="http://www.w3.org/2000/svg">
  <path d="M39.7373 16.8793V18.7098H36.4738V19.5546H38.1207C39.0025 19.5546 39.9413 20.2071 39.9974 21.3196L40 21.4253V22.1293C39.9607 23.4678 38.8631 23.9711 38.1799 23.9988L38.1207 24H34.8169V22.1796L38.1611 22.1695V21.2845L37.6291 21.2848L37.4741 21.2852L37.4363 21.2853L37.3792 21.2856L37.3592 21.2858L37.3342 21.2862L37.3269 21.2865C37.3272 21.2867 37.3329 21.2869 37.3423 21.2871L37.3656 21.2874C37.3793 21.2876 37.3955 21.2878 37.4126 21.288L37.4476 21.2883L37.3781 21.288C37.2376 21.2874 36.997 21.2862 36.6052 21.2845C35.8116 21.2845 34.7805 20.6887 34.7187 19.5246L34.7158 19.4138V18.7802C34.7158 17.5795 35.7343 16.9189 36.5332 16.881L36.6052 16.8793H39.7373ZM31.3817 16.8793V22.1595H34.1399V24H29.3407V16.8793H31.3817ZM28.5021 16.8793V24H26.4511V16.8793H28.5021ZM23.6726 16.8793C24.1455 16.8793 25.4828 17.2044 25.5493 18.6376L25.5519 18.75V24H23.6423V22.7428H21.7934V24H19.8232V18.75C19.8232 18.1633 20.272 16.9492 21.5876 16.8822L21.7024 16.8793H23.6726ZM12.8782 16.8781L16.7138 16.8783C16.794 16.8871 18.8386 17.1321 18.8386 19.3453C18.8386 21.5585 17.1508 21.7459 17.0846 21.7524L17.0826 21.7525L19.3203 24H16.4705L14.8048 22.2819V24H12.8782V16.8781ZM22.8999 15.6779L22.9149 15.6925C22.9149 15.6925 22.7431 15.8132 22.5612 15.9641C16.8224 11.7399 13.3165 13.7313 12.2152 14.2644C7.21394 17.0423 8.65921 23.8618 8.68861 23.9979L8.68906 24H0.707252C0.707252 24 1.01035 21.023 3.1321 17.5029C5.25384 13.9828 8.87093 11.3175 11.8111 11.056C17.4801 10.4907 22.5893 15.3752 22.8999 15.6779V15.6779ZM8.99217 21.9885L10.0834 22.3807C10.1339 22.7747 10.2054 23.1476 10.2805 23.488L10.3258 23.6882L9.1134 23.2557C9.06289 22.954 9.01237 22.5216 8.99217 21.9885V21.9885ZM23.0765 18.579H22.3996C21.8953 18.579 21.8037 18.8416 21.787 18.9371L21.7837 18.9621L21.7833 18.9689L21.7833 20.7112H23.6322L23.6321 18.9684C23.6299 18.933 23.5948 18.579 23.0765 18.579V18.579ZM0.50517 18.7299L1.66709 19.1523C1.52564 19.4779 1.34551 19.8959 1.2147 20.2244L1.16191 20.3592L0 19.9368C0.101036 19.6652 0.313203 19.1624 0.50517 18.7299ZM16.3501 18.6661H14.8048V20.2942H16.3401C16.3401 20.2942 16.7816 20.1244 16.7816 19.4751C16.7816 18.8259 16.3501 18.6661 16.3501 18.6661V18.6661ZM9.44683 18.3276L10.1743 18.9009C10.0935 19.2147 10.032 19.5284 9.99 19.8422L9.96211 20.0776L9.14372 19.4339C9.22455 19.0718 9.31549 18.6997 9.44683 18.3276V18.3276ZM11.2352 15.5216L11.6898 16.2055C11.512 16.3905 11.3471 16.5756 11.2003 16.7709L11.0937 16.9195L10.6087 16.1954C10.7906 15.9641 11.0028 15.7328 11.2352 15.5216V15.5216ZM4.00101 14.033L4.71836 14.6566C4.53649 14.8452 4.36032 15.0451 4.19409 15.2478L4.03132 15.4511L3.25335 14.7874C3.48573 14.5359 3.73832 14.2845 4.00101 14.033ZM14.0136 13.9928L14.2359 14.6566C14.0015 14.729 13.7671 14.8207 13.5327 14.9266L13.3569 15.0086L13.1245 14.3147C13.3771 14.204 13.6701 14.0934 14.0136 13.9928V13.9928ZM16.3779 13.7514C16.6365 13.7675 16.9016 13.7965 17.1732 13.8435L17.3781 13.8822L17.3377 14.5057C17.071 14.4494 16.8042 14.4124 16.5375 14.3947L16.3375 14.3851L16.3779 13.7514ZM8.08285 10.9756L8.53751 11.6695C8.34049 11.7676 8.14916 11.877 7.95498 11.9934L7.75953 12.1121L7.29476 11.408C7.56756 11.2471 7.83026 11.1063 8.08285 10.9756V10.9756ZM16.3981 10.5934C16.9992 10.7644 17.2579 10.8815 17.3614 10.9364L17.3781 10.9454L17.3377 11.6193C17.1222 11.5321 16.9066 11.4494 16.6881 11.3712L16.3577 11.2572L16.3981 10.5934ZM12.5385 10L12.7406 10.6135H12.6396C12.4198 10.6135 12.2 10.6192 11.9803 10.6347L11.7605 10.6537L11.5686 10.0603C11.902 10.0201 12.2253 10 12.5385 10V10Z" fill="#ffffff"/>
</svg>
