<svg width="40" height="40" viewBox="0 0 40 40" fill="none" xmlns="http://www.w3.org/2000/svg">
  <path d="M29.3974 26.3884C29.6101 29.1209 29.61 30.4018 29.61 31.8H23.2878C23.2878 31.4955 23.2932 31.2169 23.2987 30.9344C23.3158 30.0562 23.3337 29.1404 23.1914 27.2909C23.0033 24.5833 21.8374 23.9817 19.6935 23.9817H17.7941H9.75V19.0555H19.9944C22.7024 19.0555 24.0565 18.2317 24.0565 16.0505C24.0565 14.1327 22.7024 12.9705 19.9944 12.9705H9.75V8.15H21.1228C27.2534 8.15 30.3 11.0456 30.3 15.671C30.3 19.1307 28.1561 21.387 25.26 21.763C27.7048 22.2519 29.1341 23.6433 29.3974 26.3884Z" fill="#121212"/>
  <path d="M9.75 31.8V28.1276H16.4348C17.5514 28.1276 17.7939 28.9558 17.7939 29.4497V31.8H9.75Z" fill="#121212"/>
</svg>
