<svg width="40" height="40" viewBox="0 0 40 40" fill="none" xmlns="http://www.w3.org/2000/svg">
  <path d="M29.5289 10.3482C27.0914 6.85948 22.2773 5.82542 18.7965 8.04315L12.6834 11.9393C11.8576 12.4589 11.1492 13.145 10.6037 13.9539C10.0581 14.7627 9.68731 15.6765 9.51499 16.6369C9.22338 18.2545 9.47968 19.9232 10.2433 21.3787C9.72006 22.1725 9.36317 23.0641 9.19422 23.9997C9.02007 24.9793 9.04329 25.9839 9.26253 26.9545C9.48176 27.9251 9.8926 28.8421 10.4709 29.6518C12.9089 33.1408 17.723 34.1744 21.2033 31.9568L27.3164 28.0606C28.1423 27.5412 28.8507 26.855 29.3963 26.0462C29.9418 25.2373 30.3126 24.3235 30.4848 23.3631C30.7764 21.7455 30.5203 20.0769 29.757 18.6212C30.2802 17.8274 30.6369 16.9358 30.8057 16.0003C30.98 15.0206 30.9568 14.016 30.7376 13.0454C30.5183 12.0748 30.1074 11.1578 29.529 10.3482" fill="#FF3E00"/>
  <path d="M18.1993 29.98C17.2373 30.2302 16.2217 30.1791 15.2896 29.8336C14.3576 29.4881 13.554 28.8649 12.9875 28.0482C12.6396 27.5613 12.3925 27.0098 12.2606 26.4261C12.1288 25.8424 12.1148 25.2383 12.2195 24.6492C12.255 24.4557 12.3038 24.265 12.3656 24.0783L12.4807 23.7272L12.7939 23.9573C13.5172 24.4887 14.326 24.8928 15.1853 25.1521L15.4125 25.221L15.3915 25.4478C15.3638 25.7704 15.4511 26.0924 15.6381 26.3567C15.8086 26.6027 16.0505 26.7905 16.3311 26.8946C16.6117 26.9988 16.9176 27.0143 17.2073 26.9391C17.3401 26.9036 17.4668 26.8479 17.5828 26.7741L23.6961 22.8784C23.8457 22.7842 23.974 22.6598 24.0729 22.5133C24.1718 22.3668 24.239 22.2013 24.2704 22.0273C24.3018 21.8498 24.2975 21.6677 24.2578 21.4918C24.218 21.3159 24.1437 21.1497 24.039 21.0028C23.8684 20.7568 23.6264 20.569 23.3457 20.4647C23.065 20.3605 22.759 20.3449 22.4692 20.4201C22.3365 20.4556 22.21 20.5112 22.0942 20.585L19.7614 22.0721C19.3778 22.316 18.9592 22.4998 18.52 22.6172C17.558 22.8673 16.5424 22.8162 15.6104 22.4707C14.6784 22.1252 13.8748 21.5021 13.3083 20.6853C12.9604 20.1984 12.7133 19.647 12.5814 19.0633C12.4495 18.4796 12.4356 17.8755 12.5403 17.2863C12.6439 16.7089 12.8669 16.1594 13.195 15.673C13.5232 15.1867 13.9492 14.7741 14.4458 14.4618L20.5586 10.5657C20.9423 10.3214 21.3612 10.1374 21.8008 10.02C22.7628 9.76984 23.7783 9.82097 24.7104 10.1664C25.6424 10.5119 26.4459 11.1351 27.0125 11.9518C27.3603 12.4387 27.6075 12.9902 27.7393 13.5739C27.8712 14.1575 27.8852 14.7617 27.7804 15.3508C27.7448 15.5442 27.696 15.735 27.6343 15.9217L27.5192 16.2728L27.2062 16.0431C26.4829 15.5113 25.6741 15.107 24.8147 14.8478L24.5875 14.7788L24.6084 14.552C24.6359 14.2295 24.5486 13.9076 24.3619 13.6431C24.1914 13.3971 23.9495 13.2094 23.6688 13.1052C23.3882 13.001 23.0824 12.9855 22.7927 13.0607C22.6598 13.0962 22.5332 13.1519 22.4172 13.2257L16.3039 17.1216C16.1543 17.2158 16.026 17.34 15.9272 17.4865C15.8284 17.633 15.7612 17.7985 15.73 17.9724C15.6984 18.15 15.7026 18.3321 15.7423 18.508C15.7819 18.6839 15.8563 18.8502 15.961 18.997C16.1316 19.2431 16.3736 19.4309 16.6543 19.5351C16.935 19.6393 17.2409 19.6549 17.5308 19.5798C17.6636 19.5442 17.7902 19.4886 17.9062 19.4148L20.2387 17.9282C20.6221 17.684 21.0408 17.5 21.4799 17.3827C22.442 17.1325 23.4575 17.1837 24.3896 17.5291C25.3216 17.8746 26.1251 18.4978 26.6917 19.3145C27.0396 19.8014 27.2867 20.3529 27.4186 20.9366C27.5504 21.5203 27.5644 22.1244 27.4596 22.7135C27.356 23.291 27.133 23.8406 26.8049 24.327C26.4768 24.8134 26.0508 25.226 25.5542 25.5385L19.4414 29.4342C19.0576 29.6785 18.6387 29.8626 18.1992 29.98" fill="white"/>
</svg>
