<svg xmlns="http://www.w3.org/2000/svg" width="48" height="48" fill="none" viewBox="0 0 48 48"><g clip-path="url(#clip0)"><rect width="48" height="48" fill="#fff"/><path fill="#EA580C" d="M39.1272 10.2947C35.4323 4.97266 28.0763 3.41334 22.7882 6.76927L13.4662 12.7354C10.9238 14.3286 9.16107 16.9388 8.65259 19.8879C8.21191 22.3625 8.5848 24.9049 9.77124 27.1083C8.95768 28.3286 8.4153 29.6845 8.17802 31.1083C7.63564 34.1252 8.34751 37.2438 10.1102 39.7184C13.839 45.0405 21.1611 46.5998 26.4492 43.2438L35.7712 37.3116C38.3136 35.7184 40.0763 33.1083 40.5848 30.1591C41.0255 27.6845 40.6526 25.1422 39.4662 22.9388C40.2797 21.7184 40.8221 20.3625 41.0594 18.9388C41.6356 15.8879 40.9238 12.7693 39.1272 10.2947Z"/><path fill="#fff" d="M21.8186 40.1463C18.8017 40.926 15.6491 39.7395 13.8864 37.1971C12.8017 35.7056 12.3949 33.8412 12.7 32.0107C12.7678 31.7056 12.8356 31.4344 12.9034 31.1294L13.0728 30.587L13.5474 30.926C14.6661 31.7395 15.8864 32.3497 17.2084 32.7565L17.5474 32.8582L17.5135 33.1971C17.4796 33.6717 17.6152 34.1802 17.8864 34.587C18.4288 35.3666 19.3779 35.7395 20.2932 35.5022C20.4966 35.4344 20.7 35.3666 20.8695 35.2649L30.1576 29.3327C30.6322 29.0277 30.9372 28.587 31.0389 28.0446C31.1406 27.5022 31.005 26.926 30.7 26.4853C30.1576 25.7056 29.2084 25.3666 28.2932 25.6039C28.0898 25.6717 27.8864 25.7395 27.7169 25.8412L24.1576 28.1124C23.5813 28.4853 22.9373 28.7565 22.2593 28.926C19.2423 29.7056 16.0898 28.5192 14.3271 25.9768C13.2762 24.4853 12.8356 22.6209 13.1745 20.7904C13.4796 19.0277 14.5644 17.4344 16.0898 16.4853L25.4118 10.5531C25.9881 10.1802 26.6322 9.90901 27.3101 9.70562C30.3271 8.92596 33.4796 10.1124 35.2423 12.6548C36.3271 14.1463 36.7339 16.0107 36.4288 17.8412C36.361 18.1463 36.2932 18.4175 36.1915 18.7226L36.022 19.2649L35.5474 18.926C34.4288 18.1124 33.2084 17.5022 31.8864 17.0955L31.5474 16.9938L31.5813 16.6548C31.6152 16.1802 31.4796 15.6717 31.2084 15.2649C30.6661 14.4853 29.7169 14.1463 28.8017 14.3836C28.5983 14.4514 28.3949 14.5192 28.2254 14.6209L18.9373 20.5531C18.4627 20.8582 18.1576 21.2988 18.0559 21.8412C17.9542 22.3836 18.0898 22.9599 18.3949 23.4005C18.9372 24.1802 19.8864 24.5192 20.8017 24.2819C21.005 24.2141 21.2084 24.1463 21.3779 24.0446L24.9372 21.7734C25.5135 21.4005 26.1576 21.1294 26.8356 20.926C29.8525 20.1463 33.005 21.3327 34.7678 23.8751C35.8525 25.3666 36.2593 27.231 35.9542 29.0616C35.6491 30.8243 34.5644 32.4175 33.0389 33.3666L23.7169 39.2988C23.1406 39.6717 22.4966 39.9429 21.8186 40.1463Z"/></g><defs><clipPath id="clip0"><rect width="48" height="48" fill="#fff"/></clipPath></defs></svg>