<svg width="40" height="40" fill="none" xmlns="http://www.w3.org/2000/svg"><path fill="#FFFFFF" d="M32.347 9.728c.018.615-.338 1.818-1.568 1.862-.926.036-1.567-.525-1.594-1.363-.009-.303.062-.579.276-.89.205-.402.25-.446.25-.624-.018-.535-.82-.553-1.043-.544-2.993.098-3.786 4.152-4.427 7.439l-.312 1.737c1.728.259 2.949-.053 3.635-.499.962-.623-.268-1.265-.116-1.977.16-.722.82-1.078 1.345-1.087.73-.018 1.256.74 1.238 1.514-.026 1.274-1.72 3.03-5.104 2.958a14.22 14.22 0 0 1-1.15-.08l-.641 3.528c-.57 2.663-1.328 6.316-4.054 9.496-2.334 2.78-4.703 3.216-5.764 3.252-1.986.062-3.305-.998-3.35-2.406-.044-1.371 1.168-2.12 1.96-2.146 1.06-.036 1.791.73 1.818 1.62.027.75-.365.98-.623 1.123-.17.143-.428.285-.42.588 0 .134.143.437.589.428.837-.036 1.398-.445 1.781-.73 1.943-1.613 2.682-4.42 3.662-9.533l.205-1.238c.33-1.666.695-3.519 1.265-5.372-1.372-1.024-2.183-2.298-4.018-2.797-1.256-.339-2.022-.045-2.566.632-.641.81-.427 1.862.188 2.477l1.024 1.122c1.247 1.444 1.933 2.566 1.675 4.08-.41 2.415-3.279 4.259-6.682 3.217-2.895-.891-3.438-2.95-3.091-4.08.303-.99 1.096-1.177 1.87-.945.83.258 1.15 1.265.918 2.04-.026.08-.07.214-.16.401-.089.214-.267.4-.347.65-.187.606.641 1.043 1.22 1.22 1.3.393 2.566-.284 2.886-1.335.303-.963-.311-1.63-.56-1.89l-1.23-1.318c-.561-.623-1.8-2.37-1.194-4.33.232-.757.722-1.558 1.434-2.084 1.497-1.122 3.127-1.31 4.678-.855 2.013.57 2.975 1.906 4.231 2.93.704-2.057 1.675-4.07 3.136-5.763 1.318-1.55 3.091-2.673 5.122-2.735 2.023-.071 3.555.846 3.608 2.307Z"/></svg>
