<svg width="40" height="40" viewBox="0 0 40 40" fill="none" xmlns="http://www.w3.org/2000/svg">
<path d="M31.8813 11.6096L20.8863 31.5625C20.6593 31.9745 20.0761 31.9769 19.8457 31.567L8.63268 11.6115C8.38166 11.1648 8.75808 10.6236 9.25692 10.7141L20.2637 12.7107C20.3339 12.7235 20.4058 12.7233 20.476 12.7104L31.2526 10.717C31.7498 10.625 32.128 11.1619 31.8813 11.6096Z" fill="url(#paint0_linear_41_6732)"/>
<path d="M25.5055 8.0957L17.3688 9.71372C17.2351 9.74031 17.1361 9.85533 17.128 9.99336L16.6275 18.5722C16.6157 18.7743 16.7986 18.9311 16.9929 18.8856L19.2583 18.355C19.4702 18.3054 19.6617 18.4949 19.6182 18.7112L18.9451 22.0559C18.8998 22.281 19.1081 22.4735 19.3247 22.4067L20.7239 21.9753C20.9408 21.9085 21.1492 22.1015 21.1033 22.3268L20.0338 27.5805C19.9668 27.9091 20.3976 28.0883 20.5772 27.8066L20.6972 27.6184L27.3274 14.1902C27.4384 13.9654 27.2469 13.709 27.0036 13.7567L24.6718 14.2134C24.4527 14.2563 24.2662 14.0492 24.3281 13.8316L25.85 8.4773C25.9119 8.25936 25.7248 8.05208 25.5055 8.0957Z" fill="url(#paint1_linear_41_6732)"/>
<defs>
<linearGradient id="paint0_linear_41_6732" x1="8.35891" y1="10.001" x2="22.3058" y2="28.6648" gradientUnits="userSpaceOnUse">
<stop stop-color="#41D1FF"/>
<stop offset="1" stop-color="#BD34FE"/>
</linearGradient>
<linearGradient id="paint1_linear_41_6732" x1="19.6306" y1="8.53499" x2="22.1785" y2="25.7574" gradientUnits="userSpaceOnUse">
<stop stop-color="#FFEA83"/>
<stop offset="0.0833333" stop-color="#FFDD35"/>
<stop offset="1" stop-color="#FFA800"/>
</linearGradient>
</defs>
</svg>
